<svg width="55" height="54" viewBox="0 0 55 54" fill="none" xmlns="http://www.w3.org/2000/svg">
<path d="M40.1201 31.733L40.0994 31.8993C35.0601 29.4685 34.533 29.1447 33.8822 30.0895C33.4307 30.7438 32.1153 32.2276 31.7188 32.6667C31.3178 33.0992 30.919 33.1325 30.2384 32.8331C29.5509 32.5004 27.344 31.8018 24.7315 29.5395C22.6965 27.7762 21.3307 25.6138 20.9274 24.9484C20.2559 23.8261 21.6607 23.6665 22.9395 21.3243C23.1686 20.8586 23.0518 20.4926 22.8822 20.1622C22.7103 19.8295 21.3422 16.5691 20.7693 15.2694C20.2193 13.9742 19.6532 14.1383 19.2293 14.1383C17.9093 14.0274 16.9445 14.0452 16.0943 14.9013C12.3955 18.8358 13.3282 22.8946 16.493 27.2107C22.7126 35.0887 26.0263 36.5392 32.0855 38.5531C33.7217 39.0565 35.2136 38.9856 36.3938 38.8214C37.7092 38.6196 40.4432 37.2223 41.0138 35.6587C41.5982 34.0951 41.5982 32.7976 41.4263 32.4982C41.2567 32.1988 40.8076 32.0324 40.1201 31.733Z" fill="white"/>
<path d="M47.025 7.65068C29.4044 -8.83537 0.242917 3.12162 0.231458 26.3791C0.231458 31.0279 1.48958 35.5614 3.88667 39.5648L0 53.2318L14.5177 49.5678C32.6333 59.0384 54.9908 46.4626 55 26.3924C55 19.3482 52.1583 12.7187 46.9906 7.73718L47.025 7.65068ZM50.4213 26.3192C50.4075 43.2488 31.2056 53.8218 16.0187 45.1807L15.1938 44.706L6.6 46.8685L8.90313 38.7841L8.35542 37.9524C-1.09542 23.3915 9.7625 4.36146 27.665 4.36146C33.7471 4.36146 39.4556 6.65704 43.7548 10.8157C48.0517 14.9389 50.4213 20.4638 50.4213 26.3192Z" fill="white"/>
</svg>
