<svg width="283" height="104" viewBox="0 0 283 104" fill="none" xmlns="http://www.w3.org/2000/svg">
<path d="M91.5711 5.19L90.8943 5.92617L90.9005 5.93184L90.9068 5.93741L91.5711 5.19ZM95.9811 39V40H96.9811V39H95.9811ZM87.7211 39H86.7211V40H87.7211V39ZM87.7211 34.45H88.7211V31.1074L86.8854 33.9008L87.7211 34.45ZM83.1011 38.23L83.4951 39.1492L83.5053 39.1447L83.1011 38.23ZM68.6111 38.09L68.1882 38.9962L68.1966 39.0001L68.205 39.0038L68.6111 38.09ZM63.7111 34.1L62.8722 34.6442L62.8808 34.6574L62.8898 34.6704L63.7111 34.1ZM65.7411 20.24L66.3712 21.0166L66.3728 21.0152L65.7411 20.24ZM87.2311 17.16V18.16H88.2311V17.16H87.2311ZM84.8511 10.58L84.1785 11.3199L84.184 11.3249L84.1895 11.3298L84.8511 10.58ZM71.6911 9.46L71.3879 8.50705L71.3815 8.50913L71.6911 9.46ZM66.5811 12.19L65.7007 12.6641L66.281 13.7418L67.2213 12.9582L66.5811 12.19ZM63.1511 5.82L62.5451 5.02457L61.8658 5.54215L62.2707 6.2941L63.1511 5.82ZM70.2211 2.39L70.498 3.35091H70.498L70.2211 2.39ZM83.5911 31.65L84.095 32.5138L84.1022 32.5095L83.5911 31.65ZM87.2311 27.31L88.1675 27.6611L88.2311 27.4913V27.31H87.2311ZM87.2311 22.97H88.2311V21.97H87.2311V22.97ZM72.5311 31.72L73.1264 30.9164L72.5311 31.72ZM78.9711 2.2C84.3279 2.2 88.2483 3.49352 90.8943 5.92617L92.2479 4.45383C89.1073 1.56647 84.6277 0.199999 78.9711 0.199999V2.2ZM90.9068 5.93741C93.5654 8.30067 94.9811 11.9502 94.9811 17.09H96.9811C96.9811 11.5898 95.4568 7.306 92.2355 4.44259L90.9068 5.93741ZM94.9811 17.09V39H96.9811V17.09H94.9811ZM95.9811 38H87.7211V40H95.9811V38ZM88.7211 39V34.45H86.7211V39H88.7211ZM86.8854 33.9008C85.9304 35.3541 84.5499 36.4966 82.697 37.3153L83.5053 39.1447C85.6657 38.1901 87.3652 36.8125 88.5568 34.9992L86.8854 33.9008ZM82.7072 37.3109C80.9041 38.0836 78.6661 38.49 75.9611 38.49V40.49C78.8562 40.49 81.3782 40.0564 83.4951 39.1491L82.7072 37.3109ZM75.9611 38.49C73.2712 38.49 70.9647 38.0417 69.0173 37.1762L68.205 39.0038C70.4576 40.005 73.0511 40.49 75.9611 40.49V38.49ZM69.034 37.1838C67.0725 36.2684 65.5855 35.0459 64.5325 33.5296L62.8898 34.6704C64.1701 36.5141 65.9498 37.9516 68.1882 38.9962L69.034 37.1838ZM64.5501 33.5558C63.5399 31.9984 63.0311 30.2523 63.0311 28.29H61.0311C61.0311 30.6211 61.6424 32.7483 62.8722 34.6442L64.5501 33.5558ZM63.0311 28.29C63.0311 25.2123 64.1463 22.8217 66.3712 21.0166L65.1111 19.4634C62.3893 21.6717 61.0311 24.6477 61.0311 28.29H63.0311ZM66.3728 21.0152C68.6306 19.1756 72.2963 18.16 77.5711 18.16V16.16C72.1126 16.16 67.8917 17.1978 65.1095 19.4648L66.3728 21.0152ZM77.5711 18.16H87.2311V16.16H77.5711V18.16ZM88.2311 17.16V16.6H86.2311V17.16H88.2311ZM88.2311 16.6C88.2311 13.7727 87.3638 11.4635 85.5128 9.83016L84.1895 11.3298C85.5118 12.4965 86.2311 14.2006 86.2311 16.6H88.2311ZM85.5238 9.84006C83.7284 8.20791 81.1329 7.48 77.9211 7.48V9.48C80.8693 9.48 82.8938 10.1521 84.1785 11.3199L85.5238 9.84006ZM77.9211 7.48C75.7156 7.48 73.5367 7.82337 71.3879 8.50707L71.9943 10.4129C73.9522 9.78996 75.9267 9.48 77.9211 9.48V7.48ZM71.3815 8.50913C69.2729 9.19566 67.4527 10.162 65.9409 11.4218L67.2213 12.9582C68.5096 11.8847 70.096 11.031 72.0007 10.4109L71.3815 8.50913ZM67.4616 11.7159L64.0316 5.3459L62.2707 6.2941L65.7007 12.6641L67.4616 11.7159ZM63.7572 6.61543C65.604 5.20833 67.8446 4.11544 70.498 3.35091L69.9443 1.42909C67.091 2.25122 64.6183 3.445 62.5451 5.02457L63.7572 6.61543ZM70.498 3.35091C73.1549 2.58537 75.9778 2.2 78.9711 2.2V0.199999C75.8045 0.199999 72.7941 0.60796 69.9443 1.42909L70.498 3.35091ZM77.7811 34.12C80.1284 34.12 82.2433 33.5939 84.095 32.5138L83.0873 30.7862C81.579 31.6661 79.8205 32.12 77.7811 32.12V34.12ZM84.1022 32.5095C86.0227 31.3676 87.387 29.7424 88.1675 27.6611L86.2948 26.9589C85.6753 28.6109 84.6129 29.879 83.0801 30.7905L84.1022 32.5095ZM88.2311 27.31V22.97H86.2311V27.31H88.2311ZM87.2311 21.97H78.2011V23.97H87.2311V21.97ZM78.2011 21.97C75.6034 21.97 73.4812 22.3912 71.9818 23.3769C70.4092 24.4108 69.6411 25.986 69.6411 27.94H71.6411C71.6411 26.5807 72.1331 25.6709 73.0805 25.0481C74.1011 24.3772 75.7589 23.97 78.2011 23.97V21.97ZM69.6411 27.94C69.6411 29.8391 70.4177 31.399 71.9359 32.5236L73.1264 30.9164C72.1245 30.1743 71.6411 29.2143 71.6411 27.94H69.6411ZM71.9359 32.5236C73.4279 33.6288 75.4156 34.12 77.7811 34.12V32.12C75.6666 32.12 74.1543 31.6779 73.1264 30.9164L71.9359 32.5236ZM133.899 19.54L133.499 18.6233L131.008 19.709L133.609 20.497L133.899 19.54ZM106.809 39H105.809V40H106.809V39ZM106.809 1.62V0.619997H105.809V1.62H106.809ZM135.789 4.14L135.241 4.9767L135.789 4.14ZM138.099 16.25L137.292 15.6586L137.286 15.6675L137.279 15.6765L138.099 16.25ZM115.139 17.23H114.139V18.23H115.139V17.23ZM115.139 7.99V6.99H114.139V7.99H115.139ZM130.679 24.3L130.079 25.1L130.09 25.1082L130.101 25.116L130.679 24.3ZM115.139 23.04V22.04H114.139V23.04H115.139ZM115.139 32.63H114.139V33.63H115.139V32.63ZM133.609 20.497C135.775 21.1536 137.309 22.1533 138.305 23.4418C139.298 24.7253 139.829 26.3866 139.829 28.5H141.829C141.829 26.04 141.204 23.9213 139.887 22.2182C138.574 20.52 136.642 19.3264 134.189 18.583L133.609 20.497ZM139.829 28.5C139.829 31.5692 138.699 33.8444 136.463 35.4593L137.634 37.0807C140.438 35.0556 141.829 32.1508 141.829 28.5H139.829ZM136.463 35.4593C134.188 37.1027 130.7 38 125.849 38V40C130.891 40 134.87 39.0773 137.634 37.0807L136.463 35.4593ZM125.849 38H106.809V40H125.849V38ZM107.809 39V1.62H105.809V39H107.809ZM106.809 2.62H125.079V0.619997H106.809V2.62ZM125.079 2.62C129.547 2.62 132.899 3.44354 135.241 4.9767L136.336 3.3033C133.545 1.47645 129.757 0.619997 125.079 0.619997V2.62ZM135.241 4.9767C137.524 6.47105 138.639 8.53569 138.639 11.28H140.639C140.639 7.86431 139.187 5.16895 136.336 3.3033L135.241 4.9767ZM138.639 11.28C138.639 13.0035 138.18 14.4477 137.292 15.6586L138.905 16.8414C140.07 15.2523 140.639 13.3832 140.639 11.28H138.639ZM137.279 15.6765C136.421 16.9026 135.178 17.8915 133.499 18.6233L134.298 20.4567C136.259 19.6019 137.816 18.3973 138.918 16.8235L137.279 15.6765ZM115.139 18.23H124.309V16.23H115.139V18.23ZM124.309 18.23C126.656 18.23 128.594 17.8302 129.97 16.8803C131.412 15.8841 132.099 14.3797 132.099 12.54H130.099C130.099 13.8269 129.654 14.6675 128.833 15.2347C127.945 15.8481 126.488 16.23 124.309 16.23V18.23ZM132.099 12.54C132.099 10.7342 131.402 9.26418 129.958 8.29677C128.585 7.37688 126.652 6.99 124.309 6.99V8.99C126.492 8.99 127.954 9.36145 128.845 9.95823C129.664 10.5075 130.099 11.3124 130.099 12.54H132.099ZM124.309 6.99H115.139V8.99H124.309V6.99ZM114.139 7.99V17.23H116.139V7.99H114.139ZM125.149 33.63C127.629 33.63 129.661 33.2325 131.101 32.2958C132.616 31.3106 133.359 29.8053 133.359 27.94H131.359C131.359 29.2014 130.9 30.0411 130.011 30.6192C129.048 31.2458 127.476 31.63 125.149 31.63V33.63ZM133.359 27.94C133.359 26.0525 132.694 24.502 131.257 23.484L130.101 25.116C130.903 25.6847 131.359 26.5608 131.359 27.94H133.359ZM131.279 23.5C129.901 22.467 127.888 22.04 125.429 22.04V24.04C127.729 24.04 129.216 24.453 130.079 25.1L131.279 23.5ZM125.429 22.04H115.139V24.04H125.429V22.04ZM114.139 23.04V32.63H116.139V23.04H114.139ZM115.139 33.63H125.149V31.63H115.139V33.63ZM179.759 9.04V10.04H180.759V9.04H179.759ZM166.669 9.04V8.04H165.669V9.04H166.669ZM166.669 39V40H167.669V39H166.669ZM157.919 39H156.919V40H157.919V39ZM157.919 9.04H158.919V8.04H157.919V9.04ZM144.759 9.04H143.759V10.04H144.759V9.04ZM144.759 1.62V0.619997H143.759V1.62H144.759ZM179.759 1.62H180.759V0.619997H179.759V1.62ZM179.759 8.04H166.669V10.04H179.759V8.04ZM165.669 9.04V39H167.669V9.04H165.669ZM166.669 38H157.919V40H166.669V38ZM158.919 39V9.04H156.919V39H158.919ZM157.919 8.04H144.759V10.04H157.919V8.04ZM145.759 9.04V1.62H143.759V9.04H145.759ZM144.759 2.62H179.759V0.619997H144.759V2.62ZM178.759 1.62V9.04H180.759V1.62H178.759ZM190.905 37.04L191.379 36.1595L190.905 37.04ZM183.765 30.25L182.897 30.7461L182.901 30.7543L182.906 30.7625L183.765 30.25ZM183.765 10.44L182.906 9.9275L182.9 9.93786L183.765 10.44ZM190.905 3.65L191.379 4.53047L190.905 3.65ZM211.415 3.65L210.941 4.53047L211.415 3.65ZM218.485 10.44L217.62 10.9422L217.626 10.9525L218.485 10.44ZM218.485 30.25L217.623 29.7436L217.62 29.7479L218.485 30.25ZM211.415 37.04L210.941 36.1595L211.415 37.04ZM209.105 28.78L208.39 28.0807L209.105 28.78ZM209.105 11.84L208.39 12.5393L209.105 11.84ZM193.145 11.84L192.43 11.1407L192.422 11.1488L193.145 11.84ZM193.145 28.78L192.422 29.4713L192.43 29.4793L193.145 28.78ZM201.125 38.49C197.494 38.49 194.253 37.707 191.379 36.1595L190.431 37.9205C193.624 39.6397 197.196 40.49 201.125 40.49V38.49ZM191.379 36.1595C188.501 34.6098 186.256 32.4721 184.624 29.7375L182.906 30.7625C184.728 33.8146 187.242 36.2035 190.431 37.9205L191.379 36.1595ZM184.633 29.7539C183.047 26.9782 182.245 23.8385 182.245 20.31H180.245C180.245 24.1548 181.123 27.6418 182.897 30.7461L184.633 29.7539ZM182.245 20.31C182.245 16.7812 183.047 13.6677 184.63 10.9421L182.9 9.93786C181.123 12.9989 180.245 16.4654 180.245 20.31H182.245ZM184.624 10.9525C186.256 8.21791 188.501 6.08016 191.379 4.53047L190.431 2.76953C187.242 4.48651 184.728 6.87541 182.906 9.92754L184.624 10.9525ZM191.379 4.53047C194.253 2.98304 197.494 2.2 201.125 2.2V0.199999C197.196 0.199999 193.624 1.05029 190.431 2.76953L191.379 4.53047ZM201.125 2.2C204.805 2.2 208.069 2.98399 210.941 4.53047L211.889 2.76953C208.694 1.04934 205.098 0.199999 201.125 0.199999V2.2ZM210.941 4.53047C213.817 6.07894 216.036 8.2135 217.62 10.9421L219.35 9.93786C217.574 6.87983 215.08 4.48772 211.889 2.76953L210.941 4.53047ZM217.626 10.9525C219.252 13.6765 220.075 16.7862 220.075 20.31H222.075C222.075 16.4604 221.171 12.9902 219.344 9.92754L217.626 10.9525ZM220.075 20.31C220.075 23.8336 219.252 26.9695 217.623 29.7436L219.347 30.7564C221.171 27.6505 222.075 24.1598 222.075 20.31H220.075ZM217.62 29.7479C216.036 32.4765 213.817 34.6111 210.941 36.1595L211.889 37.9205C215.08 36.2023 217.574 33.8102 219.35 30.7521L217.62 29.7479ZM210.941 36.1595C208.069 37.706 204.805 38.49 201.125 38.49V40.49C205.098 40.49 208.694 39.6407 211.889 37.9205L210.941 36.1595ZM201.125 33C204.592 33 207.517 31.8332 209.82 29.4793L208.39 28.0807C206.493 30.0202 204.098 31 201.125 31V33ZM209.82 29.4793C212.133 27.1149 213.255 24.0248 213.255 20.31H211.255C211.255 23.5952 210.277 26.1517 208.39 28.0807L209.82 29.4793ZM213.255 20.31C213.255 16.5952 212.133 13.5051 209.82 11.1407L208.39 12.5393C210.277 14.4683 211.255 17.0248 211.255 20.31H213.255ZM209.82 11.1407C207.517 8.78683 204.592 7.62 201.125 7.62V9.62C204.098 9.62 206.493 10.5998 208.39 12.5393L209.82 11.1407ZM201.125 7.62C197.658 7.62 194.733 8.78683 192.43 11.1407L193.86 12.5393C195.757 10.5998 198.152 9.62 201.125 9.62V7.62ZM192.422 11.1488C190.16 13.5142 189.065 16.6015 189.065 20.31H191.065C191.065 17.0185 192.024 14.4591 193.868 12.5312L192.422 11.1488ZM189.065 20.31C189.065 24.0185 190.16 27.1058 192.422 29.4712L193.868 28.0888C192.024 26.1609 191.065 23.6015 191.065 20.31H189.065ZM192.43 29.4793C194.733 31.8332 197.658 33 201.125 33V31C198.152 31 195.757 30.0202 193.86 28.0807L192.43 29.4793ZM37.9777 102H36.9777V103H37.9777V102ZM37.9777 77.22H38.9777V73.6303L37.1217 76.703L37.9777 77.22ZM25.3777 98.08V99.08H25.9419L26.2336 98.597L25.3777 98.08ZM21.5977 98.08L20.7371 98.5894L21.0275 99.08H21.5977V98.08ZM9.20766 77.15L10.0682 76.6406L8.20766 73.4977V77.15H9.20766ZM9.20766 102V103H10.2077V102H9.20766ZM1.22766 102H0.227657V103H1.22766V102ZM1.22766 64.62V63.62H0.227657V64.62H1.22766ZM10.3977 64.62L11.2669 64.1255L10.9793 63.62H10.3977V64.62ZM23.6977 88L22.8285 88.4945L23.6777 89.9873L24.5567 88.5118L23.6977 88ZM37.6277 64.62V63.62H37.0594L36.7686 64.1082L37.6277 64.62ZM45.8177 64.62L46.8177 64.6181L46.8158 63.62H45.8177V64.62ZM45.8877 102V103H46.8895L46.8877 101.998L45.8877 102ZM38.9777 102V77.22H36.9777V102H38.9777ZM37.1217 76.703L24.5217 97.563L26.2336 98.597L38.8336 77.737L37.1217 76.703ZM25.3777 97.08H21.5977V99.08H25.3777V97.08ZM22.4582 97.5706L10.0682 76.6406L8.34713 77.6594L20.7371 98.5894L22.4582 97.5706ZM8.20766 77.15V102H10.2077V77.15H8.20766ZM9.20766 101H1.22766V103H9.20766V101ZM2.22766 102V64.62H0.227657V102H2.22766ZM1.22766 65.62H10.3977V63.62H1.22766V65.62ZM9.52845 65.1145L22.8285 88.4945L24.5669 87.5055L11.2669 64.1255L9.52845 65.1145ZM24.5567 88.5118L38.4867 65.1318L36.7686 64.1082L22.8386 87.4882L24.5567 88.5118ZM37.6277 65.62H45.8177V63.62H37.6277V65.62ZM44.8177 64.6219L44.8877 102.002L46.8877 101.998L46.8177 64.6181L44.8177 64.6219ZM45.8877 101H37.9777V103H45.8877V101ZM64.0641 100.04L64.5382 99.1595L64.0641 100.04ZM56.9241 93.25L56.0559 93.7461L56.0606 93.7543L56.0654 93.7625L56.9241 93.25ZM56.9241 73.44L56.0654 72.9275L56.0594 72.9379L56.9241 73.44ZM64.0641 66.65L64.5382 67.5305L64.0641 66.65ZM84.5741 66.65L84.1 67.5305L84.5741 66.65ZM91.6441 73.44L90.7793 73.9422L90.7854 73.9525L91.6441 73.44ZM91.6441 93.25L90.7818 92.7436L90.7794 92.7479L91.6441 93.25ZM84.5741 100.04L84.1 99.1595L84.5741 100.04ZM82.2641 91.78L81.5493 91.0807L82.2641 91.78ZM82.2641 74.84L81.5493 75.5393L82.2641 74.84ZM66.3041 74.84L65.5893 74.1407L65.5815 74.1488L66.3041 74.84ZM66.3041 91.78L65.5815 92.4713L65.5893 92.4793L66.3041 91.78ZM74.2841 101.49C70.6532 101.49 67.412 100.707 64.5382 99.1595L63.59 100.92C66.7829 102.64 70.3551 103.49 74.2841 103.49V101.49ZM64.5382 99.1595C61.6602 97.6098 59.4148 95.4721 57.7829 92.7375L56.0654 93.7625C57.8869 96.8146 60.4014 99.2035 63.59 100.92L64.5382 99.1595ZM57.7924 92.7539C56.2063 89.9782 55.4041 86.8385 55.4041 83.31H53.4041C53.4041 87.1548 54.282 90.6418 56.0559 93.7461L57.7924 92.7539ZM55.4041 83.31C55.4041 79.7812 56.2063 76.6677 57.7889 73.9421L56.0594 72.9379C54.282 75.9989 53.4041 79.4654 53.4041 83.31H55.4041ZM57.7829 73.9525C59.4148 71.2179 61.6602 69.0802 64.5382 67.5305L63.59 65.7695C60.4014 67.4865 57.8869 69.8754 56.0654 72.9275L57.7829 73.9525ZM64.5382 67.5305C67.412 65.983 70.6532 65.2 74.2841 65.2V63.2C70.3551 63.2 66.7829 64.0503 63.59 65.7695L64.5382 67.5305ZM74.2841 65.2C77.964 65.2 81.228 65.984 84.1 67.5305L85.0482 65.7695C81.8536 64.0493 78.2576 63.2 74.2841 63.2V65.2ZM84.1 67.5305C86.9758 69.0789 89.195 71.2135 90.7794 73.9421L92.5089 72.9379C90.7333 69.8798 88.2392 67.4877 85.0482 65.7695L84.1 67.5305ZM90.7854 73.9525C92.411 76.6765 93.2341 79.7862 93.2341 83.31H95.2341C95.2341 79.4604 94.3306 75.9902 92.5029 72.9275L90.7854 73.9525ZM93.2341 83.31C93.2341 86.8336 92.4111 89.9695 90.7819 92.7436L92.5064 93.7564C94.3306 90.6505 95.2341 87.1598 95.2341 83.31H93.2341ZM90.7794 92.7479C89.195 95.4765 86.9758 97.6111 84.1 99.1595L85.0482 100.92C88.2392 99.2023 90.7333 96.8102 92.5089 93.7521L90.7794 92.7479ZM84.1 99.1595C81.228 100.706 77.964 101.49 74.2841 101.49V103.49C78.2576 103.49 81.8536 102.641 85.0482 100.92L84.1 99.1595ZM74.2841 96C77.7516 96 80.6763 94.8332 82.979 92.4793L81.5493 91.0807C79.652 93.0202 77.2567 94 74.2841 94V96ZM82.979 92.4793C85.2919 90.1149 86.4141 87.0248 86.4141 83.31H84.4141C84.4141 86.5952 83.4363 89.1517 81.5493 91.0807L82.979 92.4793ZM86.4141 83.31C86.4141 79.5952 85.2919 76.5051 82.979 74.1407L81.5493 75.5393C83.4363 77.4683 84.4141 80.0248 84.4141 83.31H86.4141ZM82.979 74.1407C80.6763 71.7868 77.7516 70.62 74.2841 70.62V72.62C77.2567 72.62 79.652 73.5998 81.5493 75.5393L82.979 74.1407ZM74.2841 70.62C70.8167 70.62 67.892 71.7868 65.5893 74.1407L67.019 75.5393C68.9163 73.5998 71.3116 72.62 74.2841 72.62V70.62ZM65.5815 74.1488C63.3189 76.5142 62.2241 79.6015 62.2241 83.31H64.2241C64.2241 80.0185 65.1827 77.4591 67.0268 75.5312L65.5815 74.1488ZM62.2241 83.31C62.2241 87.0185 63.3189 90.1058 65.5815 92.4712L67.0268 91.0888C65.1827 89.1609 64.2241 86.6015 64.2241 83.31H62.2241ZM65.5893 92.4793C67.892 94.8332 70.8167 96 74.2841 96V94C71.3116 94 68.9163 93.0202 67.019 91.0807L65.5893 92.4793ZM132.488 68.75L131.993 69.6192L132.005 69.6256L132.488 68.75ZM138.788 75.05L137.912 75.5331L137.919 75.5445L138.788 75.05ZM138.578 93.95L139.432 94.4709L139.436 94.4645L138.578 93.95ZM131.508 100.39L131.055 99.4983L131.508 100.39ZM106.098 96.26L105.327 96.8969L106.098 96.26ZM105.608 59.86L104.802 59.2683L105.608 59.86ZM120.378 51.18L120.585 52.1584L120.587 52.1579L120.378 51.18ZM137.738 47.47L138.725 47.3113L138.558 46.2721L137.529 46.4921L137.738 47.47ZM138.998 55.31L139.198 56.2897L140.137 56.0977L139.985 55.1513L138.998 55.31ZM123.248 58.53L123.048 57.5503L123.046 57.5506L123.248 58.53ZM113.098 63.29L112.391 62.5829L113.098 63.29ZM109.178 72.74L108.182 72.6484L107.889 75.8375L109.945 73.3819L109.178 72.74ZM115.268 68.12L115.679 69.0316L115.687 69.0283L115.694 69.0248L115.268 68.12ZM129.128 92.55L128.405 91.8591L128.405 91.8595L129.128 92.55ZM129.128 76.8L128.421 77.5072L128.429 77.5154L129.128 76.8ZM113.448 92.55L112.733 93.249L112.741 93.2571L113.448 92.55ZM123.108 67.44C126.506 67.44 129.457 68.1762 131.994 69.6192L132.983 67.8808C130.105 66.2438 126.804 65.44 123.108 65.44V67.44ZM132.005 69.6256C134.546 71.0277 136.51 72.9917 137.912 75.5331L139.664 74.5669C138.079 71.695 135.843 69.4589 132.971 67.8744L132.005 69.6256ZM137.919 75.5445C139.363 78.0825 140.098 81.0115 140.098 84.36H142.098C142.098 80.7085 141.293 77.4308 139.657 74.5555L137.919 75.5445ZM140.098 84.36C140.098 87.7909 139.298 90.8063 137.721 93.4355L139.436 94.4645C141.218 91.4937 142.098 88.1158 142.098 84.36H140.098ZM137.724 93.4291C136.146 96.0152 133.933 98.0375 131.055 99.4983L131.961 101.282C135.15 99.6625 137.65 97.3914 139.432 94.4709L137.724 93.4291ZM131.055 99.4983C128.181 100.958 124.886 101.7 121.148 101.7V103.7C125.157 103.7 128.769 102.902 131.961 101.282L131.055 99.4983ZM121.148 101.7C114.905 101.7 110.193 99.6473 106.869 95.6231L105.327 96.8969C109.096 101.459 114.418 103.7 121.148 103.7V101.7ZM106.869 95.6231C103.524 91.5744 101.778 85.6528 101.778 77.71H99.778C99.778 85.9139 101.578 92.359 105.327 96.8969L106.869 95.6231ZM101.778 77.71C101.778 70.3302 103.36 64.6124 106.414 60.4517L104.802 59.2683C101.416 63.881 99.778 70.0631 99.778 77.71H101.778ZM106.414 60.4517C109.455 56.3085 114.137 53.5205 120.585 52.1584L120.171 50.2016C113.365 51.6395 108.201 54.6382 104.802 59.2683L106.414 60.4517ZM120.587 52.1579L137.947 48.4479L137.529 46.4921L120.169 50.2021L120.587 52.1579ZM136.751 47.6287L138.011 55.4687L139.985 55.1513L138.725 47.3113L136.751 47.6287ZM138.798 54.3303L123.048 57.5503L123.448 59.5097L139.198 56.2897L138.798 54.3303ZM123.046 57.5506C118.411 58.5062 114.819 60.1549 112.391 62.5829L113.805 63.9971C115.857 61.9451 119.032 60.4204 123.45 59.5094L123.046 57.5506ZM112.391 62.5829C109.943 65.0306 108.571 68.4238 108.182 72.6484L110.174 72.8316C110.532 68.9362 111.773 66.0294 113.805 63.9971L112.391 62.5829ZM109.945 73.3819C111.528 71.4905 113.437 70.0428 115.679 69.0316L114.857 67.2084C112.339 68.3438 110.188 69.9762 108.411 72.0981L109.945 73.3819ZM115.694 69.0248C117.93 67.9725 120.396 67.44 123.108 67.44V65.44C120.126 65.44 117.366 66.0275 114.842 67.2152L115.694 69.0248ZM121.358 96.63C124.811 96.63 127.677 95.5188 129.851 93.2405L128.405 91.8595C126.66 93.6878 124.345 94.63 121.358 94.63V96.63ZM129.851 93.2409C132.055 90.9339 133.138 88.0169 133.138 84.57H131.138C131.138 87.5631 130.214 89.9661 128.405 91.8591L129.851 93.2409ZM133.138 84.57C133.138 81.1241 132.055 78.2611 129.827 76.0846L128.429 77.5154C130.214 79.2589 131.138 81.5759 131.138 84.57H133.138ZM129.835 76.0929C127.657 73.9149 124.797 72.86 121.358 72.86V74.86C124.359 74.86 126.679 75.7651 128.421 77.5071L129.835 76.0929ZM121.358 72.86C117.876 72.86 114.973 73.9122 112.749 76.0846L114.147 77.5154C115.936 75.7678 118.306 74.86 121.358 74.86V72.86ZM112.749 76.0846C110.521 78.2611 109.438 81.1241 109.438 84.57H111.438C111.438 81.5759 112.362 79.2589 114.147 77.5154L112.749 76.0846ZM109.438 84.57C109.438 88.0589 110.518 90.9826 112.733 93.2489L114.163 91.8511C112.365 90.0107 111.438 87.6145 111.438 84.57H109.438ZM112.741 93.2571C115.003 95.5192 117.904 96.63 121.358 96.63V94.63C118.372 94.63 116 93.6874 114.155 91.8429L112.741 93.2571ZM149.568 64.62V63.62H148.568V64.62H149.568ZM158.318 64.62H159.318V63.62H158.318V64.62ZM158.318 89.26H157.318V92.0101L159.084 89.9023L158.318 89.26ZM178.967 64.62V63.62H178.501L178.201 63.9777L178.967 64.62ZM186.948 64.62H187.948V63.62H186.948V64.62ZM186.948 102V103H187.948V102H186.948ZM178.198 102H177.198V103H178.198V102ZM178.198 77.36H179.198V74.6028L177.43 76.719L178.198 77.36ZM157.618 102V103H158.085L158.385 102.641L157.618 102ZM149.568 102H148.568V103H149.568V102ZM149.568 65.62H158.318V63.62H149.568V65.62ZM157.318 64.62V89.26H159.318V64.62H157.318ZM159.084 89.9023L179.734 65.2623L178.201 63.9777L157.551 88.6177L159.084 89.9023ZM178.967 65.62H186.948V63.62H178.967V65.62ZM185.948 64.62V102H187.948V64.62H185.948ZM186.948 101H178.198V103H186.948V101ZM179.198 102V77.36H177.198V102H179.198ZM177.43 76.719L156.85 101.359L158.385 102.641L178.965 78.001L177.43 76.719ZM157.618 101H149.568V103H157.618V101ZM150.568 102V64.62H148.568V102H150.568ZM232.598 64.62H233.598V63.62H232.598V64.62ZM232.598 102V103H233.598V102H232.598ZM223.848 102H222.848V103H223.848V102ZM223.848 72.04H224.848V71.04H223.848V72.04ZM209.848 72.04V71.04H208.894L208.849 71.9929L209.848 72.04ZM209.498 79.46L208.499 79.4129L209.498 79.46ZM208.098 91.92L207.119 91.716L207.117 91.7265L208.098 91.92ZM204.668 99.83L203.9 99.1898L203.898 99.1917L204.668 99.83ZM193.258 101.93L192.26 101.873L192.213 102.685L192.999 102.896L193.258 101.93ZM193.678 94.58L193.887 93.6022L192.746 93.3576L192.68 94.5229L193.678 94.58ZM199.348 92.69L200.193 93.2251L200.197 93.2188L200.2 93.2126L199.348 92.69ZM201.028 87.58L200.037 87.4418L200.036 87.4518L200.035 87.4618L201.028 87.58ZM201.728 79.04L202.727 79.0906L202.727 79.0836L201.728 79.04ZM202.358 64.62V63.62H201.401L201.359 64.5763L202.358 64.62ZM231.598 64.62V102H233.598V64.62H231.598ZM232.598 101H223.848V103H232.598V101ZM224.848 102V72.04H222.848V102H224.848ZM223.848 71.04H209.848V73.04H223.848V71.04ZM208.849 71.9929L208.499 79.4129L210.497 79.5071L210.847 72.0871L208.849 71.9929ZM208.499 79.4129C208.267 84.3278 207.805 88.4248 207.119 91.716L209.077 92.124C209.791 88.6952 210.262 84.4856 210.497 79.5071L208.499 79.4129ZM207.117 91.7265C206.486 94.9268 205.397 97.3935 203.9 99.1898L205.436 100.47C207.206 98.3465 208.403 95.5398 209.079 92.1135L207.117 91.7265ZM203.898 99.1917C202.527 100.845 200.633 101.7 198.088 101.7V103.7C201.143 103.7 203.636 102.642 205.438 100.468L203.898 99.1917ZM198.088 101.7C196.901 101.7 195.385 101.465 193.517 100.964L192.999 102.896C194.958 103.421 196.661 103.7 198.088 103.7V101.7ZM194.256 101.987L194.676 94.637L192.68 94.5229L192.26 101.873L194.256 101.987ZM193.468 95.5578C194.164 95.7068 194.798 95.79 195.358 95.79V93.79C194.985 93.79 194.499 93.7332 193.887 93.6022L193.468 95.5578ZM195.358 95.79C197.445 95.79 199.108 94.9381 200.193 93.2251L198.503 92.1549C197.815 93.2419 196.817 93.79 195.358 93.79V95.79ZM200.2 93.2126C201.174 91.6243 201.773 89.7783 202.021 87.6982L200.035 87.4618C199.816 89.3017 199.295 90.8624 198.495 92.1674L200.2 93.2126ZM202.018 87.7182C202.304 85.668 202.539 82.787 202.727 79.0906L200.729 78.9894C200.543 82.6664 200.311 85.4787 200.037 87.4418L202.018 87.7182ZM202.727 79.0836L203.357 64.6636L201.359 64.5763L200.729 78.9964L202.727 79.0836ZM202.358 65.62H232.598V63.62H202.358V65.62ZM244.382 64.62V63.62H243.382V64.62H244.382ZM253.132 64.62H254.132V63.62H253.132V64.62ZM253.132 89.26H252.132V92.0101L253.898 89.9023L253.132 89.26ZM273.782 64.62V63.62H273.315L273.016 63.9777L273.782 64.62ZM281.762 64.62H282.762V63.62H281.762V64.62ZM281.762 102V103H282.762V102H281.762ZM273.012 102H272.012V103H273.012V102ZM273.012 77.36H274.012V74.6028L272.244 76.719L273.012 77.36ZM252.432 102V103H252.9L253.199 102.641L252.432 102ZM244.382 102H243.382V103H244.382V102ZM244.382 65.62H253.132V63.62H244.382V65.62ZM252.132 64.62V89.26H254.132V64.62H252.132ZM253.898 89.9023L274.548 65.2623L273.016 63.9777L252.366 88.6177L253.898 89.9023ZM273.782 65.62H281.762V63.62H273.782V65.62ZM280.762 64.62V102H282.762V64.62H280.762ZM281.762 101H273.012V103H281.762V101ZM274.012 102V77.36H272.012V102H274.012ZM272.244 76.719L251.664 101.359L253.199 102.641L273.779 78.001L272.244 76.719ZM252.432 101H244.382V103H252.432V101ZM245.382 102V64.62H243.382V102H245.382Z" fill="white" fill-opacity="0.3"/>
</svg>
