<svg width="236" height="112" viewBox="0 0 236 112" fill="none" xmlns="http://www.w3.org/2000/svg">
<path d="M70.7032 39H69.7032V40H70.7032V39ZM70.7032 14.22H71.7032V10.6303L69.8473 13.703L70.7032 14.22ZM58.1032 35.08V36.08H58.6675L58.9592 35.597L58.1032 35.08ZM54.3232 35.08L53.4627 35.5894L53.7531 36.08H54.3232V35.08ZM41.9332 14.15L42.7938 13.6406L40.9332 10.4977V14.15H41.9332ZM41.9332 39V40H42.9332V39H41.9332ZM33.9532 39H32.9532V40H33.9532V39ZM33.9532 1.62V0.619997H32.9532V1.62H33.9532ZM43.1232 1.62L43.9924 1.12554L43.7049 0.619997H43.1232V1.62ZM56.4232 25L55.554 25.4945L56.4032 26.9873L57.2823 25.5118L56.4232 25ZM70.3532 1.62V0.619997H69.785L69.4942 1.10815L70.3532 1.62ZM78.5432 1.62L79.5432 1.61812L79.5414 0.619997H78.5432V1.62ZM78.6132 39V40H79.6151L79.6132 38.9981L78.6132 39ZM71.7032 39V14.22H69.7032V39H71.7032ZM69.8473 13.703L57.2473 34.563L58.9592 35.597L71.5592 14.737L69.8473 13.703ZM58.1032 34.08H54.3232V36.08H58.1032V34.08ZM55.1838 34.5706L42.7938 13.6406L41.0727 14.6594L53.4627 35.5894L55.1838 34.5706ZM40.9332 14.15V39H42.9332V14.15H40.9332ZM41.9332 38H33.9532V40H41.9332V38ZM34.9532 39V1.62H32.9532V39H34.9532ZM33.9532 2.62H43.1232V0.619997H33.9532V2.62ZM42.254 2.11445L55.554 25.4945L57.2924 24.5055L43.9924 1.12554L42.254 2.11445ZM57.2823 25.5118L71.2123 2.13184L69.4942 1.10815L55.5642 24.4882L57.2823 25.5118ZM70.3532 2.62H78.5432V0.619997H70.3532V2.62ZM77.5432 1.62187L77.6133 39.0019L79.6132 38.9981L79.5432 1.61812L77.5432 1.62187ZM78.6132 38H70.7032V40H78.6132V38ZM96.7897 37.04L97.2638 36.1595L96.7897 37.04ZM89.6497 30.25L88.7815 30.7461L88.7862 30.7543L88.791 30.7625L89.6497 30.25ZM89.6497 10.44L88.791 9.9275L88.7849 9.93786L89.6497 10.44ZM96.7897 3.65L97.2638 4.53047L96.7897 3.65ZM117.3 3.65L116.826 4.53047L117.3 3.65ZM124.37 10.44L123.505 10.9422L123.511 10.9525L124.37 10.44ZM124.37 30.25L123.507 29.7436L123.505 29.7479L124.37 30.25ZM117.3 37.04L116.826 36.1595L117.3 37.04ZM114.99 28.78L114.275 28.0807L114.99 28.78ZM114.99 11.84L114.275 12.5393L114.99 11.84ZM99.0297 11.84L98.3148 11.1407L98.3071 11.1488L99.0297 11.84ZM99.0297 28.78L98.307 29.4713L98.3149 29.4793L99.0297 28.78ZM107.01 38.49C103.379 38.49 100.138 37.707 97.2638 36.1595L96.3156 37.9205C99.5085 39.6397 103.081 40.49 107.01 40.49V38.49ZM97.2638 36.1595C94.3858 34.6098 92.1403 32.4721 90.5084 29.7375L88.791 30.7625C90.6124 33.8146 93.127 36.2035 96.3156 37.9205L97.2638 36.1595ZM90.518 29.7539C88.9319 26.9782 88.1297 23.8385 88.1297 20.31H86.1297C86.1297 24.1548 87.0076 27.6418 88.7815 30.7461L90.518 29.7539ZM88.1297 20.31C88.1297 16.7812 88.9319 13.6677 90.5145 10.9421L88.7849 9.93786C87.0075 12.9989 86.1297 16.4654 86.1297 20.31H88.1297ZM90.5084 10.9525C92.1403 8.21791 94.3858 6.08016 97.2638 4.53047L96.3156 2.76953C93.127 4.48651 90.6124 6.87541 88.791 9.92754L90.5084 10.9525ZM97.2638 4.53047C100.138 2.98304 103.379 2.2 107.01 2.2V0.199999C103.081 0.199999 99.5085 1.05029 96.3156 2.76953L97.2638 4.53047ZM107.01 2.2C110.69 2.2 113.954 2.98399 116.826 4.53047L117.774 2.76953C114.579 1.04934 110.983 0.199999 107.01 0.199999V2.2ZM116.826 4.53047C119.701 6.07894 121.921 8.2135 123.505 10.9421L125.235 9.93786C123.459 6.87983 120.965 4.48772 117.774 2.76953L116.826 4.53047ZM123.511 10.9525C125.137 13.6765 125.96 16.7862 125.96 20.31H127.96C127.96 16.4604 127.056 12.9902 125.228 9.92754L123.511 10.9525ZM125.96 20.31C125.96 23.8336 125.137 26.9695 123.507 29.7436L125.232 30.7564C127.056 27.6505 127.96 24.1598 127.96 20.31H125.96ZM123.505 29.7479C121.921 32.4765 119.701 34.6111 116.826 36.1595L117.774 37.9205C120.965 36.2023 123.459 33.8102 125.235 30.7521L123.505 29.7479ZM116.826 36.1595C113.954 37.706 110.69 38.49 107.01 38.49V40.49C110.983 40.49 114.579 39.6407 117.774 37.9205L116.826 36.1595ZM107.01 33C110.477 33 113.402 31.8332 115.705 29.4793L114.275 28.0807C112.378 30.0202 109.982 31 107.01 31V33ZM115.705 29.4793C118.018 27.1149 119.14 24.0248 119.14 20.31H117.14C117.14 23.5952 116.162 26.1517 114.275 28.0807L115.705 29.4793ZM119.14 20.31C119.14 16.5952 118.018 13.5051 115.705 11.1407L114.275 12.5393C116.162 14.4683 117.14 17.0248 117.14 20.31H119.14ZM115.705 11.1407C113.402 8.78683 110.477 7.62 107.01 7.62V9.62C109.982 9.62 112.378 10.5998 114.275 12.5393L115.705 11.1407ZM107.01 7.62C103.542 7.62 100.618 8.78683 98.3149 11.1407L99.7446 12.5393C101.642 10.5998 104.037 9.62 107.01 9.62V7.62ZM98.3071 11.1488C96.0445 13.5142 94.9497 16.6015 94.9497 20.31H96.9497C96.9497 17.0185 97.9083 14.4591 99.7524 12.5312L98.3071 11.1488ZM94.9497 20.31C94.9497 24.0185 96.0445 27.1058 98.3071 29.4712L99.7524 28.0888C97.9083 26.1609 96.9497 23.6015 96.9497 20.31H94.9497ZM98.3149 29.4793C100.618 31.8332 103.542 33 107.01 33V31C104.037 31 101.642 30.0202 99.7446 28.0807L98.3149 29.4793ZM163.846 9.04V10.04H164.846V9.04H163.846ZM150.756 9.04V8.04H149.756V9.04H150.756ZM150.756 39V40H151.756V39H150.756ZM142.006 39H141.006V40H142.006V39ZM142.006 9.04H143.006V8.04H142.006V9.04ZM128.846 9.04H127.846V10.04H128.846V9.04ZM128.846 1.62V0.619997H127.846V1.62H128.846ZM163.846 1.62H164.846V0.619997H163.846V1.62ZM163.846 8.04H150.756V10.04H163.846V8.04ZM149.756 9.04V39H151.756V9.04H149.756ZM150.756 38H142.006V40H150.756V38ZM143.006 39V9.04H141.006V39H143.006ZM142.006 8.04H128.846V10.04H142.006V8.04ZM129.846 9.04V1.62H127.846V9.04H129.846ZM128.846 2.62H163.846V0.619997H128.846V2.62ZM162.846 1.62V9.04H164.846V1.62H162.846ZM174.993 37.04L175.467 36.1595L174.993 37.04ZM167.853 30.25L166.985 30.7461L166.989 30.7543L166.994 30.7625L167.853 30.25ZM167.853 10.44L166.994 9.9275L166.988 9.93786L167.853 10.44ZM174.993 3.65L175.467 4.53047L174.993 3.65ZM195.503 3.65L195.029 4.53047L195.503 3.65ZM202.573 10.44L201.708 10.9422L201.714 10.9525L202.573 10.44ZM202.573 30.25L201.711 29.7436L201.708 29.7479L202.573 30.25ZM195.503 37.04L195.029 36.1595L195.503 37.04ZM193.193 28.78L192.478 28.0807L193.193 28.78ZM193.193 11.84L192.478 12.5393L193.193 11.84ZM177.233 11.84L176.518 11.1407L176.51 11.1488L177.233 11.84ZM177.233 28.78L176.51 29.4713L176.518 29.4793L177.233 28.78ZM185.213 38.49C181.582 38.49 178.341 37.707 175.467 36.1595L174.519 37.9205C177.712 39.6397 181.284 40.49 185.213 40.49V38.49ZM175.467 36.1595C172.589 34.6098 170.343 32.4721 168.712 29.7375L166.994 30.7625C168.816 33.8146 171.33 36.2035 174.519 37.9205L175.467 36.1595ZM168.721 29.7539C167.135 26.9782 166.333 23.8385 166.333 20.31H164.333C164.333 24.1548 165.211 27.6418 166.985 30.7461L168.721 29.7539ZM166.333 20.31C166.333 16.7812 167.135 13.6677 168.718 10.9421L166.988 9.93786C165.211 12.9989 164.333 16.4654 164.333 20.31H166.333ZM168.712 10.9525C170.343 8.21791 172.589 6.08016 175.467 4.53047L174.519 2.76953C171.33 4.48651 168.816 6.87541 166.994 9.92754L168.712 10.9525ZM175.467 4.53047C178.341 2.98304 181.582 2.2 185.213 2.2V0.199999C181.284 0.199999 177.712 1.05029 174.519 2.76953L175.467 4.53047ZM185.213 2.2C188.893 2.2 192.157 2.98399 195.029 4.53047L195.977 2.76953C192.782 1.04934 189.186 0.199999 185.213 0.199999V2.2ZM195.029 4.53047C197.904 6.07894 200.124 8.2135 201.708 10.9421L203.438 9.93786C201.662 6.87983 199.168 4.48772 195.977 2.76953L195.029 4.53047ZM201.714 10.9525C203.34 13.6765 204.163 16.7862 204.163 20.31H206.163C206.163 16.4604 205.259 12.9902 203.432 9.92754L201.714 10.9525ZM204.163 20.31C204.163 23.8336 203.34 26.9695 201.711 29.7436L203.435 30.7564C205.259 27.6505 206.163 24.1598 206.163 20.31H204.163ZM201.708 29.7479C200.124 32.4765 197.904 34.6111 195.029 36.1595L195.977 37.9205C199.168 36.2023 201.662 33.8102 203.438 30.7521L201.708 29.7479ZM195.029 36.1595C192.157 37.706 188.893 38.49 185.213 38.49V40.49C189.186 40.49 192.782 39.6407 195.977 37.9205L195.029 36.1595ZM185.213 33C188.68 33 191.605 31.8332 193.908 29.4793L192.478 28.0807C190.581 30.0202 188.185 31 185.213 31V33ZM193.908 29.4793C196.221 27.1149 197.343 24.0248 197.343 20.31H195.343C195.343 23.5952 194.365 26.1517 192.478 28.0807L193.908 29.4793ZM197.343 20.31C197.343 16.5952 196.221 13.5051 193.908 11.1407L192.478 12.5393C194.365 14.4683 195.343 17.0248 195.343 20.31H197.343ZM193.908 11.1407C191.605 8.78683 188.68 7.62 185.213 7.62V9.62C188.185 9.62 190.581 10.5998 192.478 12.5393L193.908 11.1407ZM185.213 7.62C181.745 7.62 178.821 8.78683 176.518 11.1407L177.948 12.5393C179.845 10.5998 182.24 9.62 185.213 9.62V7.62ZM176.51 11.1488C174.248 13.5142 173.153 16.6015 173.153 20.31H175.153C175.153 17.0185 176.111 14.4591 177.955 12.5312L176.51 11.1488ZM173.153 20.31C173.153 24.0185 174.248 27.1058 176.51 29.4712L177.955 28.0888C176.111 26.1609 175.153 23.6015 175.153 20.31H173.153ZM176.518 29.4793C178.821 31.8332 181.745 33 185.213 33V31C182.24 31 179.845 30.0202 177.948 28.0807L176.518 29.4793ZM42.3316 94.58H43.3316V93.58H42.3316V94.58ZM42.3316 110.61V111.61H43.3316V110.61H42.3316ZM34.1416 110.61H33.1416V111.61H34.1416V110.61ZM34.1416 102H35.1416V101H34.1416V102ZM1.31164 102H0.311641V103H1.31164V102ZM1.31164 64.62V63.62H0.311641V64.62H1.31164ZM10.0616 64.62H11.0616V63.62H10.0616V64.62ZM10.0616 94.58H9.06164V95.58H10.0616V94.58ZM27.9116 94.58V95.58H28.9116V94.58H27.9116ZM27.9116 64.62V63.62H26.9116V64.62H27.9116ZM36.6616 64.62H37.6616V63.62H36.6616V64.62ZM36.6616 94.58H35.6616V95.58H36.6616V94.58ZM41.3316 94.58V110.61H43.3316V94.58H41.3316ZM42.3316 109.61H34.1416V111.61H42.3316V109.61ZM35.1416 110.61V102H33.1416V110.61H35.1416ZM34.1416 101H1.31164V103H34.1416V101ZM2.31164 102V64.62H0.311641V102H2.31164ZM1.31164 65.62H10.0616V63.62H1.31164V65.62ZM9.06164 64.62V94.58H11.0616V64.62H9.06164ZM10.0616 95.58H27.9116V93.58H10.0616V95.58ZM28.9116 94.58V64.62H26.9116V94.58H28.9116ZM27.9116 65.62H36.6616V63.62H27.9116V65.62ZM35.6616 64.62V94.58H37.6616V64.62H35.6616ZM36.6616 95.58H42.3316V93.58H36.6616V95.58ZM50.1202 64.62V63.62H49.1202V64.62H50.1202ZM58.8702 64.62H59.8702V63.62H58.8702V64.62ZM58.8702 89.26H57.8702V92.0101L59.6367 89.9023L58.8702 89.26ZM79.5202 64.62V63.62H79.0536L78.7538 63.9777L79.5202 64.62ZM87.5002 64.62H88.5002V63.62H87.5002V64.62ZM87.5002 102V103H88.5002V102H87.5002ZM78.7502 102H77.7502V103H78.7502V102ZM78.7502 77.36H79.7502V74.6028L77.9827 76.719L78.7502 77.36ZM58.1702 102V103H58.6379L58.9377 102.641L58.1702 102ZM50.1202 102H49.1202V103H50.1202V102ZM50.1202 65.62H58.8702V63.62H50.1202V65.62ZM57.8702 64.62V89.26H59.8702V64.62H57.8702ZM59.6367 89.9023L80.2867 65.2623L78.7538 63.9777L58.1038 88.6177L59.6367 89.9023ZM79.5202 65.62H87.5002V63.62H79.5202V65.62ZM86.5002 64.62V102H88.5002V64.62H86.5002ZM87.5002 101H78.7502V103H87.5002V101ZM79.7502 102V77.36H77.7502V102H79.7502ZM77.9827 76.719L57.4027 101.359L58.9377 102.641L79.5177 78.001L77.9827 76.719ZM58.1702 101H50.1202V103H58.1702V101ZM51.1202 102V64.62H49.1202V102H51.1202ZM114.811 87.02L115.61 86.4188L115.31 86.02H114.811V87.02ZM108.021 87.02V86.02H107.021V87.02H108.021ZM108.021 102V103H109.021V102H108.021ZM99.2706 102H98.2706V103H99.2706V102ZM99.2706 64.62V63.62H98.2706V64.62H99.2706ZM108.021 64.62H109.021V63.62H108.021V64.62ZM108.021 79.74H107.021V80.74H108.021V79.74ZM115.021 79.74V80.74H115.528L115.828 80.3304L115.021 79.74ZM126.081 64.62V63.62H125.573L125.274 64.0296L126.081 64.62ZM135.461 64.62L136.259 65.2225L137.468 63.62H135.461V64.62ZM121.881 82.61L121.082 82.0075L120.63 82.607L121.08 83.2086L121.881 82.61ZM136.371 102V103H138.366L137.172 101.401L136.371 102ZM126.081 102L125.282 102.601L125.582 103H126.081V102ZM114.811 86.02H108.021V88.02H114.811V86.02ZM107.021 87.02V102H109.021V87.02H107.021ZM108.021 101H99.2706V103H108.021V101ZM100.271 102V64.62H98.2706V102H100.271ZM99.2706 65.62H108.021V63.62H99.2706V65.62ZM107.021 64.62V79.74H109.021V64.62H107.021ZM108.021 80.74H115.021V78.74H108.021V80.74ZM115.828 80.3304L126.888 65.2104L125.274 64.0296L114.214 79.1496L115.828 80.3304ZM126.081 65.62H135.461V63.62H126.081V65.62ZM134.662 64.0175L121.082 82.0075L122.679 83.2125L136.259 65.2225L134.662 64.0175ZM121.08 83.2086L135.57 102.599L137.172 101.401L122.682 82.0114L121.08 83.2086ZM136.371 101H126.081V103H136.371V101ZM126.88 101.399L115.61 86.4188L114.012 87.6212L125.282 102.601L126.88 101.399ZM176.422 64.62H177.422V63.62H176.422V64.62ZM176.422 102V103H177.422V102H176.422ZM167.672 102H166.672V103H167.672V102ZM167.672 72.04H168.672V71.04H167.672V72.04ZM153.672 72.04V71.04H152.718L152.673 71.9929L153.672 72.04ZM153.322 79.46L152.323 79.4129L153.322 79.46ZM151.922 91.92L150.943 91.716L150.941 91.7265L151.922 91.92ZM148.492 99.83L147.724 99.1898L147.722 99.1917L148.492 99.83ZM137.082 101.93L136.084 101.873L136.037 102.685L136.823 102.896L137.082 101.93ZM137.502 94.58L137.712 93.6022L136.57 93.3576L136.504 94.5229L137.502 94.58ZM143.172 92.69L144.017 93.2251L144.021 93.2188L144.025 93.2126L143.172 92.69ZM144.852 87.58L143.862 87.4418L143.86 87.4518L143.859 87.4618L144.852 87.58ZM145.552 79.04L146.551 79.0906L146.551 79.0836L145.552 79.04ZM146.182 64.62V63.62H145.225L145.183 64.5763L146.182 64.62ZM175.422 64.62V102H177.422V64.62H175.422ZM176.422 101H167.672V103H176.422V101ZM168.672 102V72.04H166.672V102H168.672ZM167.672 71.04H153.672V73.04H167.672V71.04ZM152.673 71.9929L152.323 79.4129L154.321 79.5071L154.671 72.0871L152.673 71.9929ZM152.323 79.4129C152.091 84.3278 151.629 88.4248 150.943 91.716L152.901 92.124C153.615 88.6952 154.086 84.4856 154.321 79.5071L152.323 79.4129ZM150.941 91.7265C150.31 94.9268 149.221 97.3935 147.724 99.1898L149.26 100.47C151.03 98.3465 152.228 95.5398 152.903 92.1135L150.941 91.7265ZM147.722 99.1917C146.351 100.845 144.457 101.7 141.912 101.7V103.7C144.967 103.7 147.46 102.642 149.262 100.468L147.722 99.1917ZM141.912 101.7C140.726 101.7 139.209 101.465 137.341 100.964L136.823 102.896C138.782 103.421 140.485 103.7 141.912 103.7V101.7ZM138.08 101.987L138.5 94.637L136.504 94.5229L136.084 101.873L138.08 101.987ZM137.293 95.5578C137.988 95.7068 138.622 95.79 139.182 95.79V93.79C138.809 93.79 138.323 93.7332 137.712 93.6022L137.293 95.5578ZM139.182 95.79C141.269 95.79 142.932 94.9381 144.017 93.2251L142.327 92.1549C141.639 93.2419 140.642 93.79 139.182 93.79V95.79ZM144.025 93.2126C144.998 91.6243 145.597 89.7783 145.845 87.6982L143.859 87.4618C143.64 89.3017 143.119 90.8624 142.32 92.1674L144.025 93.2126ZM145.843 87.7182C146.129 85.668 146.364 82.787 146.551 79.0906L144.553 78.9894C144.367 82.6664 144.136 85.4787 143.862 87.4418L145.843 87.7182ZM146.551 79.0836L147.181 64.6636L145.183 64.5763L144.553 78.9964L146.551 79.0836ZM146.182 65.62H176.422V63.62H146.182V65.62ZM206.406 76.94L206.399 77.94H206.406V76.94ZM217.326 80.16L216.678 80.9212L217.326 80.16ZM216.906 98.78L216.281 97.9991L216.275 98.0043L216.906 98.78ZM205.146 102.07L205.155 101.07L205.15 101.07L205.146 102.07ZM188.206 102H187.206V102.996L188.202 103L188.206 102ZM188.206 64.62V63.62H187.206V64.62H188.206ZM196.956 64.62H197.956V63.62H196.956V64.62ZM196.956 76.87H195.956V77.8626L196.949 77.87L196.956 76.87ZM225.936 64.62V63.62H224.936V64.62H225.936ZM234.686 64.62H235.686V63.62H234.686V64.62ZM234.686 102V103H235.686V102H234.686ZM225.936 102H224.936V103H225.936V102ZM204.376 95.63L204.394 94.6301L204.386 94.63L204.376 95.63ZM210.326 84.5L209.726 85.3L210.326 84.5ZM204.376 82.96L204.394 81.9601L204.386 81.96L204.376 82.96ZM196.956 82.89L196.966 81.89L195.956 81.8805V82.89H196.956ZM196.956 95.56H195.956V96.5506L196.947 96.56L196.956 95.56ZM206.406 77.94C211.031 77.94 214.404 78.984 216.678 80.9212L217.975 79.3988C215.209 77.0426 211.302 75.94 206.406 75.94V77.94ZM216.678 80.9212C218.933 82.8424 220.106 85.5734 220.106 89.26H222.106C222.106 85.1066 220.759 81.7709 217.975 79.3988L216.678 80.9212ZM220.106 89.26C220.106 93.1126 218.808 95.978 216.281 97.9991L217.531 99.5609C220.604 97.1021 222.106 93.6207 222.106 89.26H220.106ZM216.275 98.0043C213.767 100.045 210.108 101.115 205.155 101.07L205.137 103.07C210.358 103.118 214.539 101.995 217.537 99.5557L216.275 98.0043ZM205.15 101.07L188.21 101L188.202 103L205.142 103.07L205.15 101.07ZM189.206 102V64.62H187.206V102H189.206ZM188.206 65.62H196.956V63.62H188.206V65.62ZM195.956 64.62V76.87H197.956V64.62H195.956ZM196.949 77.87L206.399 77.94L206.414 75.94L196.964 75.87L196.949 77.87ZM225.936 65.62H234.686V63.62H225.936V65.62ZM233.686 64.62V102H235.686V64.62H233.686ZM234.686 101H225.936V103H234.686V101ZM226.936 102V64.62H224.936V102H226.936ZM204.358 96.6298C207.056 96.6789 209.288 96.1197 210.894 94.7904L209.619 93.2496C208.518 94.1603 206.83 94.6744 204.394 94.6302L204.358 96.6298ZM210.894 94.7904C212.527 93.4385 213.286 91.492 213.286 89.12H211.286C211.286 91.0413 210.692 92.3615 209.619 93.2496L210.894 94.7904ZM213.286 89.12C213.286 86.804 212.554 84.9212 210.926 83.7L209.726 85.3C210.711 86.0388 211.286 87.236 211.286 89.12H213.286ZM210.926 83.7C209.375 82.5366 207.143 82.0084 204.394 81.9602L204.359 83.9598C206.929 84.0049 208.664 84.5034 209.726 85.3L210.926 83.7ZM204.386 81.96L196.966 81.89L196.947 83.89L204.367 83.96L204.386 81.96ZM195.956 82.89V95.56H197.956V82.89H195.956ZM196.947 96.56L204.367 96.63L204.386 94.63L196.966 94.56L196.947 96.56Z" fill="white" fill-opacity="0.3"/>
</svg>
