<svg width="117" height="59" viewBox="0 0 117 59" fill="none" xmlns="http://www.w3.org/2000/svg">
<path d="M21.82 1.48V0.479996H21.1107L20.8762 1.14938L21.82 1.48ZM30.16 1.48L31.1038 1.81061L31.5699 0.479996H30.16V1.48ZM10.36 58V59H11.0693L11.3038 58.3306L10.36 58ZM2.02 58L1.07624 57.6694L0.610095 59H2.02V58ZM21.82 2.48H30.16V0.479996H21.82V2.48ZM29.2162 1.14938L9.41624 57.6694L11.3038 58.3306L31.1038 1.81061L29.2162 1.14938ZM10.36 57H2.02V59H10.36V57ZM2.96376 58.3306L22.7638 1.81061L20.8762 1.14938L1.07624 57.6694L2.96376 58.3306ZM37.3642 50.14L37.8987 49.2948L37.3642 50.14ZM30.9442 42.7L30.0369 43.1205L30.04 43.1272L30.0432 43.1338L30.9442 42.7ZM30.9442 19.36L30.0411 18.9305L30.0389 18.9353L30.9442 19.36ZM37.3642 11.86L37.8987 12.7052L37.3642 11.86ZM55.9642 11.86L55.4298 12.7052L55.9642 11.86ZM62.3242 19.36L61.4169 19.7805L61.42 19.7872L61.4232 19.7938L62.3242 19.36ZM62.3242 42.7L61.4211 42.2705L61.4189 42.2753L62.3242 42.7ZM55.9642 50.14L55.4298 49.2948L55.9642 50.14ZM52.6642 41.2L51.8344 40.6418L51.8275 40.6523L52.6642 41.2ZM52.6642 20.8L51.8274 21.3477L51.8345 21.3582L52.6642 20.8ZM40.6642 20.8L39.8344 20.2418L39.8275 20.2523L40.6642 20.8ZM40.6642 41.2L39.8274 41.7477L39.8345 41.7582L40.6642 41.2ZM46.6642 51.72C43.3574 51.72 40.4457 50.9054 37.8987 49.2948L36.8298 50.9852C39.7227 52.8146 43.011 53.72 46.6642 53.72V51.72ZM37.8987 49.2948C35.3551 47.6864 33.3338 45.3578 31.8452 42.2662L30.0432 43.1338C31.6746 46.5222 33.9334 49.1536 36.8298 50.9852L37.8987 49.2948ZM31.8515 42.2795C30.4059 39.16 29.6642 35.4101 29.6642 31H27.6642C27.6642 35.6299 28.4426 39.68 30.0369 43.1205L31.8515 42.2795ZM29.6642 31C29.6642 26.5894 30.406 22.8616 31.8495 19.7847L30.0389 18.9353C28.4424 22.3384 27.6642 26.3706 27.6642 31H29.6642ZM31.8473 19.7895C33.3369 16.6575 35.3582 14.3117 37.8987 12.7052L36.8298 11.0148C33.9302 12.8483 31.6716 15.5025 30.0412 18.9305L31.8473 19.7895ZM37.8987 12.7052C40.4457 11.0946 43.3574 10.28 46.6642 10.28V8.28C43.011 8.28 39.7227 9.18544 36.8298 11.0148L37.8987 12.7052ZM46.6642 10.28C49.971 10.28 52.8827 11.0946 55.4298 12.7052L56.4987 11.0148C53.6057 9.18544 50.3174 8.28 46.6642 8.28V10.28ZM55.4298 12.7052C57.9677 14.3101 59.9675 16.6527 61.4169 19.7805L63.2315 18.9395C61.641 15.5073 59.4007 12.8499 56.4987 11.0148L55.4298 12.7052ZM61.4232 19.7938C62.9035 22.8683 63.6642 26.5927 63.6642 31H65.6642C65.6642 26.3673 64.8649 22.3317 63.2252 18.9262L61.4232 19.7938ZM63.6642 31C63.6642 35.4068 62.9037 39.1534 61.4212 42.2705L63.2273 43.1295C64.8647 39.6866 65.6642 35.6332 65.6642 31H63.6642ZM61.4189 42.2753C59.9705 45.3626 57.9709 47.6879 55.4298 49.2948L56.4987 50.9852C59.3976 49.1521 61.6379 46.5174 63.2295 43.1247L61.4189 42.2753ZM55.4298 49.2948C52.8827 50.9054 49.971 51.72 46.6642 51.72V53.72C50.3174 53.72 53.6057 52.8146 56.4987 50.9852L55.4298 49.2948ZM46.6642 45.5C49.5724 45.5 51.8822 44.2207 53.5009 41.7477L51.8275 40.6523C50.5662 42.5793 48.876 43.5 46.6642 43.5V45.5ZM53.4939 41.7582C55.14 39.3114 55.8842 35.6697 55.8842 31H53.8842C53.8842 35.5303 53.1485 38.6886 51.8345 40.6418L53.4939 41.7582ZM55.8842 31C55.8842 26.3303 55.14 22.6886 53.4939 20.2418L51.8345 21.3582C53.1485 23.3114 53.8842 26.4697 53.8842 31H55.8842ZM53.5009 20.2523C51.8822 17.7793 49.5724 16.5 46.6642 16.5V18.5C48.876 18.5 50.5662 19.4207 51.8275 21.3477L53.5009 20.2523ZM46.6642 16.5C43.7912 16.5 41.4887 17.7828 39.8345 20.2418L41.4939 21.3582C42.7997 19.4172 44.4973 18.5 46.6642 18.5V16.5ZM39.8275 20.2523C38.2276 22.6966 37.5042 26.3335 37.5042 31H39.5042C39.5042 26.4665 40.2208 23.3034 41.5009 21.3477L39.8275 20.2523ZM37.5042 31C37.5042 35.6665 38.2276 39.3034 39.8275 41.7477L41.5009 40.6523C40.2208 38.6966 39.5042 35.5335 39.5042 31H37.5042ZM39.8345 41.7582C41.4887 44.2172 43.7912 45.5 46.6642 45.5V43.5C44.4973 43.5 42.7997 42.5828 41.4939 40.6418L39.8345 41.7582ZM88.4209 27.1L87.6694 26.4403L86.4789 27.7966L88.26 28.087L88.4209 27.1ZM96.8809 31.24L96.1404 31.912L96.1467 31.9189L96.8809 31.24ZM97.9009 45.94L98.748 46.4715L98.7526 46.4641L97.9009 45.94ZM92.0209 50.86L91.5958 49.9549L91.5905 49.9574L92.0209 50.86ZM73.6609 51.58L73.3898 52.5425L73.3978 52.5448L73.4058 52.5469L73.6609 51.58ZM66.4009 48.22L65.5094 47.767L65.1213 48.5309L65.8166 49.0315L66.4009 48.22ZM70.1809 40.78L70.7809 39.98L69.8286 39.2658L69.2894 40.327L70.1809 40.78ZM75.7009 43.6L75.3902 44.5505L75.401 44.554L75.4119 44.5573L75.7009 43.6ZM87.9409 43.18L88.4901 44.0157L88.4983 44.0103L88.5065 44.0047L87.9409 43.18ZM77.7409 34H76.7409V35H77.7409V34ZM77.7409 27.58L76.9915 26.9179L76.7409 27.2015V27.58H77.7409ZM86.3809 17.8L87.1304 18.4621L88.5987 16.8H86.3809V17.8ZM68.5009 17.8H67.5009V18.8H68.5009V17.8ZM68.5009 10V9H67.5009V10H68.5009ZM97.9009 10H98.9009V9H97.9009V10ZM97.9009 16.3L98.6525 16.9597L98.9009 16.6766V16.3H97.9009ZM88.26 28.087C91.7798 28.6608 94.3704 29.9614 96.1404 31.912L97.6215 30.568C95.4715 28.1986 92.4221 26.7392 88.5819 26.113L88.26 28.087ZM96.1467 31.9189C97.9191 33.8359 98.8209 36.2258 98.8209 39.16H100.821C100.821 35.7742 99.7628 32.8841 97.6152 30.5611L96.1467 31.9189ZM98.8209 39.16C98.8209 41.4148 98.2324 43.4934 97.0493 45.4159L98.7526 46.4641C100.129 44.2266 100.821 41.7852 100.821 39.16H98.8209ZM97.0539 45.4085C95.8955 47.2547 94.0992 48.779 91.5958 49.9549L92.4461 51.7651C95.2227 50.461 97.3464 48.7053 98.748 46.4715L97.0539 45.4085ZM91.5905 49.9574C89.1607 51.1162 86.1175 51.72 82.4209 51.72V53.72C86.3244 53.72 89.6812 53.0838 92.4514 51.7626L91.5905 49.9574ZM82.4209 51.72C79.5476 51.72 76.7133 51.3513 73.9161 50.6131L73.4058 52.5469C76.3685 53.3287 79.3743 53.72 82.4209 53.72V51.72ZM73.9321 50.6175C71.1829 49.843 68.8738 48.7683 66.9852 47.4085L65.8166 49.0315C67.928 50.5517 70.459 51.717 73.3898 52.5425L73.9321 50.6175ZM67.2925 48.673L71.0725 41.233L69.2894 40.327L65.5094 47.767L67.2925 48.673ZM69.5809 41.58C71.2763 42.8515 73.216 43.8397 75.3902 44.5505L76.0117 42.6495C74.0259 42.0003 72.2855 41.1085 70.7809 39.98L69.5809 41.58ZM75.4119 44.5573C77.625 45.2254 79.8824 45.56 82.1809 45.56V43.56C80.0795 43.56 78.0168 43.2546 75.9899 42.6427L75.4119 44.5573ZM82.1809 45.56C84.7317 45.56 86.8684 45.0814 88.4901 44.0157L87.3918 42.3443C86.2134 43.1186 84.5102 43.56 82.1809 43.56V45.56ZM88.5065 44.0047C90.1827 42.8553 91.0409 41.2045 91.0409 39.16H89.0409C89.0409 40.5555 88.4992 41.5847 87.3754 42.3553L88.5065 44.0047ZM91.0409 39.16C91.0409 37.1421 90.2474 35.5193 88.6247 34.454C87.0755 33.437 84.8785 33 82.1809 33V35C84.7233 35 86.4564 35.423 87.5271 36.126C88.5245 36.7807 89.0409 37.7379 89.0409 39.16H91.0409ZM82.1809 33H77.7409V35H82.1809V33ZM78.7409 34V27.58H76.7409V34H78.7409ZM78.4904 28.2421L87.1304 18.4621L85.6315 17.1379L76.9915 26.9179L78.4904 28.2421ZM86.3809 16.8H68.5009V18.8H86.3809V16.8ZM69.5009 17.8V10H67.5009V17.8H69.5009ZM68.5009 11H97.9009V9H68.5009V11ZM96.9009 10V16.3H98.9009V10H96.9009ZM97.1494 15.6403L87.6694 26.4403L89.1725 27.7597L98.6525 16.9597L97.1494 15.6403ZM105.689 50.8L106.396 50.0929L105.689 50.8ZM105.689 42.46L106.369 43.1928L106.376 43.1864L106.383 43.1798L105.689 42.46ZM113.969 42.46L113.275 43.1798L113.281 43.1864L113.288 43.1928L113.969 42.46ZM113.969 50.8L113.262 50.0929L113.969 50.8ZM109.829 51.48C108.443 51.48 107.321 51.0181 106.396 50.0929L104.982 51.5071C106.296 52.8219 107.934 53.48 109.829 53.48V51.48ZM106.396 50.0929C105.476 49.1727 105.009 48.0326 105.009 46.6H103.009C103.009 48.5274 103.662 50.1873 104.982 51.5071L106.396 50.0929ZM105.009 46.6C105.009 45.1196 105.48 44.0189 106.369 43.1928L105.008 41.7272C103.658 42.9811 103.009 44.6404 103.009 46.6H105.009ZM106.383 43.1798C107.306 42.29 108.432 41.84 109.829 41.84V39.84C107.945 39.84 106.312 40.47 104.995 41.7402L106.383 43.1798ZM109.829 41.84C111.225 41.84 112.352 42.29 113.275 43.1798L114.663 41.7402C113.346 40.47 111.712 39.84 109.829 39.84V41.84ZM113.288 43.1928C114.178 44.0189 114.649 45.1196 114.649 46.6H116.649C116.649 44.6404 116 42.9811 114.649 41.7272L113.288 43.1928ZM114.649 46.6C114.649 48.0326 114.182 49.1727 113.262 50.0929L114.676 51.5071C115.996 50.1873 116.649 48.5274 116.649 46.6H114.649ZM113.262 50.0929C112.336 51.0181 111.214 51.48 109.829 51.48V53.48C111.723 53.48 113.361 52.8219 114.676 51.5071L113.262 50.0929Z" fill="#445066" fill-opacity="0.7"/>
</svg>
