<svg width="296" height="104" viewBox="0 0 296 104" fill="none" xmlns="http://www.w3.org/2000/svg">
<path d="M67.4695 31.58H68.4695V30.58H67.4695V31.58ZM67.4695 47.33V48.33H68.4695V47.33H67.4695ZM59.2795 47.33H58.2795V48.33H59.2795V47.33ZM59.2795 39H60.2795V38H59.2795V39ZM30.4395 39V38H29.4395V39H30.4395ZM30.4395 47.33V48.33H31.4395V47.33H30.4395ZM22.3195 47.33H21.3195V48.33H22.3195V47.33ZM22.3195 31.58V30.58H21.3195V31.58H22.3195ZM24.0695 31.58V32.58H24.0891L24.1086 32.5792L24.0695 31.58ZM28.8995 27.03L27.9408 26.7454L27.9379 26.7553L28.8995 27.03ZM30.6495 14.43L31.6482 14.4817L31.6487 14.4682L30.6495 14.43ZM31.1395 1.62V0.619997H30.177L30.1402 1.58177L31.1395 1.62ZM61.9395 1.62H62.9395V0.619997H61.9395V1.62ZM61.9395 31.58H60.9395V32.58H61.9395V31.58ZM38.6295 15.06L39.6285 15.1034L39.6288 15.0949L38.6295 15.06ZM37.5795 25.56L38.5619 25.7463L37.5795 25.56ZM34.7795 31.58L34.0849 30.8606L32.3041 32.58H34.7795V31.58ZM53.1895 31.58V32.58H54.1895V31.58H53.1895ZM53.1895 9.04H54.1895V8.04H53.1895V9.04ZM38.8395 9.04V8.04H37.8737L37.8401 9.00513L38.8395 9.04ZM66.4695 31.58V47.33H68.4695V31.58H66.4695ZM67.4695 46.33H59.2795V48.33H67.4695V46.33ZM60.2795 47.33V39H58.2795V47.33H60.2795ZM59.2795 38H30.4395V40H59.2795V38ZM29.4395 39V47.33H31.4395V39H29.4395ZM30.4395 46.33H22.3195V48.33H30.4395V46.33ZM23.3195 47.33V31.58H21.3195V47.33H23.3195ZM22.3195 32.58H24.0695V30.58H22.3195V32.58ZM24.1086 32.5792C25.5198 32.5239 26.7529 32.0375 27.7476 31.1004C28.7246 30.1801 29.4096 28.8845 29.861 27.3047L27.9379 26.7553C27.5493 28.1155 27.0094 29.0482 26.3763 29.6446C25.761 30.2242 24.9991 30.5428 24.0303 30.5808L24.1086 32.5792ZM29.8581 27.3146C30.7779 24.2164 31.3666 19.9251 31.6481 14.4817L29.6508 14.3783C29.3723 19.7616 28.7944 23.8703 27.9408 26.7454L29.8581 27.3146ZM31.6487 14.4682L32.1387 1.65822L30.1402 1.58177L29.6502 14.3918L31.6487 14.4682ZM31.1395 2.62H61.9395V0.619997H31.1395V2.62ZM60.9395 1.62V31.58H62.9395V1.62H60.9395ZM61.9395 32.58H67.4695V30.58H61.9395V32.58ZM37.6304 15.0166C37.4448 19.2853 37.0979 22.7326 36.597 25.3737L38.5619 25.7463C39.0877 22.974 39.4408 19.4214 39.6285 15.1034L37.6304 15.0166ZM36.597 25.3737C36.1051 27.9671 35.2349 29.7502 34.0849 30.8606L35.474 32.2994C37.0307 30.7965 38.0271 28.5663 38.5619 25.7463L36.597 25.3737ZM34.7795 32.58H53.1895V30.58H34.7795V32.58ZM54.1895 31.58V9.04H52.1895V31.58H54.1895ZM53.1895 8.04H38.8395V10.04H53.1895V8.04ZM37.8401 9.00513L37.6301 15.0251L39.6288 15.0949L39.8388 9.07486L37.8401 9.00513ZM105.734 3.58L105.247 4.4535L105.253 4.45681L105.734 3.58ZM112.524 10.3L113.395 9.8084V9.8084L112.524 10.3ZM112.524 30.39L113.395 30.8816L113.398 30.8756L112.524 30.39ZM105.734 37.11L105.253 36.2332L105.247 36.2365L105.734 37.11ZM84.0343 34.45L84.7869 33.7915L83.0343 31.7886V34.45H84.0343ZM84.0343 52.58V53.58H85.0343V52.58H84.0343ZM75.2843 52.58H74.2843V53.58H75.2843V52.58ZM75.2843 1.62V0.619997H74.2843V1.62H75.2843ZM83.6143 1.62H84.6143V0.619997H83.6143V1.62ZM83.6143 6.52H82.6143V9.32777L84.3892 7.15213L83.6143 6.52ZM88.9343 2.53L88.5525 1.60571L88.5453 1.60875L88.9343 2.53ZM102.934 28.78L102.219 28.0807L102.212 28.0888L102.934 28.78ZM102.934 11.84L102.212 12.5313L102.219 12.5393L102.934 11.84ZM89.3543 10.09L89.8399 10.9642L89.8491 10.9591L89.8582 10.9538L89.3543 10.09ZM85.3643 14.15L84.4891 13.6663L85.3643 14.15ZM89.3543 30.6L88.8504 31.4638L88.8595 31.4691L88.8687 31.4742L89.3543 30.6ZM96.0043 2.2C99.4942 2.2 102.566 2.95914 105.247 4.45348L106.221 2.70652C103.209 1.02752 99.7944 0.199999 96.0043 0.199999V2.2ZM105.253 4.45681C107.982 5.95325 110.111 8.0593 111.653 10.7916L113.395 9.8084C111.671 6.75403 109.273 4.38008 106.215 2.70318L105.253 4.45681ZM111.653 10.7916C113.191 13.5153 113.974 16.6782 113.974 20.31H115.974C115.974 16.3818 115.124 12.8714 113.395 9.8084L111.653 10.7916ZM113.974 20.31C113.974 23.9415 113.191 27.1306 111.65 29.9044L113.398 30.8756C115.124 27.7694 115.974 24.2385 115.974 20.31H113.974ZM111.653 29.8984C110.111 32.6307 107.982 34.7367 105.253 36.2332L106.215 37.9868C109.273 36.3099 111.671 33.936 113.395 30.8816L111.653 29.8984ZM105.247 36.2365C102.566 37.7309 99.4942 38.49 96.0043 38.49V40.49C99.7944 40.49 103.209 39.6625 106.221 37.9835L105.247 36.2365ZM96.0043 38.49C91.2112 38.49 87.5113 36.9051 84.7869 33.7915L83.2817 35.1085C86.4373 38.7149 90.7174 40.49 96.0043 40.49V38.49ZM83.0343 34.45V52.58H85.0343V34.45H83.0343ZM84.0343 51.58H75.2843V53.58H84.0343V51.58ZM76.2843 52.58V1.62H74.2843V52.58H76.2843ZM75.2843 2.62H83.6143V0.619997H75.2843V2.62ZM82.6143 1.62V6.52H84.6143V1.62H82.6143ZM84.3892 7.15213C85.7331 5.50467 87.3742 4.2742 89.3233 3.45125L88.5453 1.60875C86.2944 2.55913 84.3888 3.98866 82.8394 5.88787L84.3892 7.15213ZM89.3161 3.45426C91.3295 2.62261 93.5548 2.2 96.0043 2.2V0.199999C93.3204 0.199999 90.8324 0.664053 88.5525 1.60574L89.3161 3.45426ZM95.0243 33C98.4918 33 101.398 31.8328 103.657 29.4712L102.212 28.0888C100.364 30.0205 97.9968 31 95.0243 31V33ZM103.649 29.4793C105.962 27.1149 107.084 24.0248 107.084 20.31H105.084C105.084 23.5952 104.106 26.1517 102.219 28.0807L103.649 29.4793ZM107.084 20.31C107.084 16.5952 105.962 13.5051 103.649 11.1407L102.219 12.5393C104.106 14.4683 105.084 17.0248 105.084 20.31H107.084ZM103.657 11.1488C101.398 8.78721 98.4918 7.62 95.0243 7.62V9.62C97.9968 9.62 100.364 10.5995 102.212 12.5312L103.657 11.1488ZM95.0243 7.62C92.7618 7.62 90.6955 8.14993 88.8504 9.22622L89.8582 10.9538C91.3731 10.0701 93.0868 9.62 95.0243 9.62V7.62ZM88.8687 9.21584C87.0157 10.2453 85.5546 11.7382 84.4891 13.6663L86.2395 14.6337C87.134 13.0151 88.3329 11.8014 89.8399 10.9642L88.8687 9.21584ZM84.4891 13.6663C83.4155 15.6089 82.8943 17.8334 82.8943 20.31H84.8943C84.8943 18.1199 85.3531 16.2378 86.2395 14.6337L84.4891 13.6663ZM82.8943 20.31C82.8943 22.7866 83.4155 25.0111 84.4891 26.9537L86.2395 25.9863C85.3531 24.3822 84.8943 22.5001 84.8943 20.31H82.8943ZM84.4891 26.9537C85.5525 28.878 87.008 30.389 88.8504 31.4638L89.8582 29.7362C88.3406 28.851 87.1361 27.6087 86.2395 25.9863L84.4891 26.9537ZM88.8687 31.4742C90.7107 32.4975 92.7705 33 95.0243 33V31C93.0781 31 91.3579 30.5691 89.8399 29.7258L88.8687 31.4742ZM157.937 1.62L158.855 2.01756L159.46 0.619997H157.937V1.62ZM140.437 42.01L139.52 41.6124L139.515 41.6245L139.51 41.6368L140.437 42.01ZM134.487 50.55L133.914 49.7307L133.903 49.7385L134.487 50.55ZM120.487 52.16L120.171 53.1087L120.487 52.16ZM116.007 49.64L115.129 49.1625L114.756 49.8478L115.33 50.3759L116.007 49.64ZM119.507 43.2L120.194 42.473L119.249 41.5807L118.629 42.7225L119.507 43.2ZM122.447 45.09L122.063 46.0131L122.069 46.0158L122.076 46.0185L122.447 45.09ZM129.727 44.6L129.116 43.8087L129.107 43.8156L129.098 43.8228L129.727 44.6ZM132.527 40.61L133.439 41.0204L133.443 41.0122L133.446 41.0039L132.527 40.61ZM133.157 39.14L134.076 39.5339L134.247 39.1372L134.074 38.7413L133.157 39.14ZM116.847 1.62V0.619997H115.322L115.93 2.01866L116.847 1.62ZM125.947 1.62L126.868 1.22861L126.609 0.619997H125.947V1.62ZM137.707 29.27L136.787 29.6614L137.705 31.8186L138.627 29.6634L137.707 29.27ZM149.537 1.62V0.619997H148.878L148.618 1.22664L149.537 1.62ZM157.02 1.22243L139.52 41.6124L141.355 42.4076L158.855 2.01756L157.02 1.22243ZM139.51 41.6368C137.913 45.6064 136.024 48.2534 133.914 49.7308L135.061 51.3692C137.617 49.58 139.695 46.5336 141.365 42.3832L139.51 41.6368ZM133.903 49.7385C131.765 51.2779 129.154 52.07 126.017 52.07V54.07C129.507 54.07 132.543 53.1821 135.072 51.3615L133.903 49.7385ZM126.017 52.07C124.261 52.07 122.524 51.785 120.804 51.2113L120.171 53.1087C122.09 53.7484 124.04 54.07 126.017 54.07V52.07ZM120.804 51.2113C119.09 50.6401 117.728 49.8639 116.684 48.9041L115.33 50.3759C116.62 51.5628 118.245 52.4666 120.171 53.1087L120.804 51.2113ZM116.886 50.1175L120.386 43.6775L118.629 42.7225L115.129 49.1625L116.886 50.1175ZM118.821 43.927C119.753 44.8076 120.837 45.5022 122.063 46.0131L122.832 44.1669C121.818 43.7444 120.942 43.1791 120.194 42.473L118.821 43.927ZM122.076 46.0185C123.352 46.5287 124.644 46.79 125.947 46.79V44.79C124.917 44.79 123.876 44.5846 122.819 44.1615L122.076 46.0185ZM125.947 46.79C127.664 46.79 129.162 46.3445 130.357 45.3772L129.098 43.8228C128.333 44.4422 127.311 44.79 125.947 44.79V46.79ZM130.339 45.3913C131.549 44.4558 132.567 42.9588 133.439 41.0204L131.615 40.1996C130.808 41.9946 129.959 43.1575 129.116 43.8087L130.339 45.3913ZM133.446 41.0039L134.076 39.5339L132.238 38.7461L131.608 40.2161L133.446 41.0039ZM134.074 38.7413L117.764 1.22133L115.93 2.01866L132.24 39.5387L134.074 38.7413ZM116.847 2.62H125.947V0.619997H116.847V2.62ZM125.027 2.01138L136.787 29.6614L138.628 28.8786L126.868 1.22861L125.027 2.01138ZM138.627 29.6634L150.457 2.01336L148.618 1.22664L136.788 28.8766L138.627 29.6634ZM149.537 2.62H157.937V0.619997H149.537V2.62ZM192.715 9.04V10.04H193.715V9.04H192.715ZM172.765 9.04V8.04H171.765V9.04H172.765ZM172.765 39V40H173.765V39H172.765ZM164.015 39H163.015V40H164.015V39ZM164.015 1.62V0.619997H163.015V1.62H164.015ZM192.715 1.62H193.715V0.619997H192.715V1.62ZM192.715 8.04H172.765V10.04H192.715V8.04ZM171.765 9.04V39H173.765V9.04H171.765ZM172.765 38H164.015V40H172.765V38ZM165.015 39V1.62H163.015V39H165.015ZM164.015 2.62H192.715V0.619997H164.015V2.62ZM191.715 1.62V9.04H193.715V1.62H191.715ZM225.613 5.19L224.936 5.92617L224.943 5.93184L224.949 5.93741L225.613 5.19ZM230.023 39V40H231.023V39H230.023ZM221.763 39H220.763V40H221.763V39ZM221.763 34.45H222.763V31.1074L220.927 33.9008L221.763 34.45ZM217.143 38.23L217.537 39.1492L217.547 39.1447L217.143 38.23ZM202.653 38.09L202.23 38.9962L202.239 39.0001L202.247 39.0038L202.653 38.09ZM197.753 34.1L196.914 34.6442L196.923 34.6574L196.932 34.6704L197.753 34.1ZM199.783 20.24L200.413 21.0166L200.415 21.0152L199.783 20.24ZM221.273 17.16V18.16H222.273V17.16H221.273ZM218.893 10.58L218.22 11.3199L218.226 11.3249L218.232 11.3298L218.893 10.58ZM205.733 9.46L205.43 8.50705L205.424 8.50913L205.733 9.46ZM200.623 12.19L199.743 12.6641L200.323 13.7418L201.263 12.9582L200.623 12.19ZM197.193 5.82L196.587 5.02457L195.908 5.54215L196.313 6.2941L197.193 5.82ZM204.263 2.39L204.54 3.35091L204.263 2.39ZM217.633 31.65L218.137 32.5138L218.144 32.5095L217.633 31.65ZM221.273 27.31L222.209 27.6611L222.273 27.4913V27.31H221.273ZM221.273 22.97H222.273V21.97H221.273V22.97ZM206.573 31.72L207.168 30.9164L206.573 31.72ZM213.013 2.2C218.37 2.2 222.29 3.49352 224.936 5.92617L226.29 4.45383C223.149 1.56647 218.67 0.199999 213.013 0.199999V2.2ZM224.949 5.93741C227.607 8.30067 229.023 11.9502 229.023 17.09H231.023C231.023 11.5898 229.499 7.306 226.277 4.44259L224.949 5.93741ZM229.023 17.09V39H231.023V17.09H229.023ZM230.023 38H221.763V40H230.023V38ZM222.763 39V34.45H220.763V39H222.763ZM220.927 33.9008C219.972 35.3541 218.592 36.4966 216.739 37.3153L217.547 39.1447C219.708 38.1901 221.407 36.8125 222.599 34.9992L220.927 33.9008ZM216.749 37.3109C214.946 38.0836 212.708 38.49 210.003 38.49V40.49C212.898 40.49 215.42 40.0564 217.537 39.1491L216.749 37.3109ZM210.003 38.49C207.313 38.49 205.007 38.0417 203.059 37.1762L202.247 39.0038C204.5 40.005 207.093 40.49 210.003 40.49V38.49ZM203.076 37.1838C201.114 36.2684 199.628 35.0459 198.574 33.5296L196.932 34.6704C198.212 36.5141 199.992 37.9516 202.23 38.9962L203.076 37.1838ZM198.592 33.5558C197.582 31.9984 197.073 30.2523 197.073 28.29H195.073C195.073 30.6211 195.684 32.7483 196.914 34.6442L198.592 33.5558ZM197.073 28.29C197.073 25.2123 198.188 22.8217 200.413 21.0166L199.153 19.4634C196.431 21.6717 195.073 24.6477 195.073 28.29H197.073ZM200.415 21.0152C202.673 19.1756 206.338 18.16 211.613 18.16V16.16C206.155 16.16 201.934 17.1978 199.151 19.4648L200.415 21.0152ZM211.613 18.16H221.273V16.16H211.613V18.16ZM222.273 17.16V16.6H220.273V17.16H222.273ZM222.273 16.6C222.273 13.7727 221.406 11.4635 219.555 9.83016L218.232 11.3298C219.554 12.4965 220.273 14.2006 220.273 16.6H222.273ZM219.566 9.84006C217.77 8.20791 215.175 7.48 211.963 7.48V9.48C214.911 9.48 216.936 10.1521 218.22 11.3199L219.566 9.84006ZM211.963 7.48C209.758 7.48 207.579 7.82337 205.43 8.50707L206.036 10.4129C207.994 9.78996 209.969 9.48 211.963 9.48V7.48ZM205.424 8.50913C203.315 9.19566 201.495 10.162 199.983 11.4218L201.263 12.9582C202.552 11.8847 204.138 11.031 206.043 10.4109L205.424 8.50913ZM201.504 11.7159L198.074 5.3459L196.313 6.2941L199.743 12.6641L201.504 11.7159ZM197.799 6.61543C199.646 5.20833 201.887 4.11544 204.54 3.35091L203.986 1.42909C201.133 2.25122 198.66 3.445 196.587 5.02457L197.799 6.61543ZM204.54 3.35091C207.197 2.58537 210.02 2.2 213.013 2.2V0.199999C209.846 0.199999 206.836 0.60796 203.986 1.42909L204.54 3.35091ZM211.823 34.12C214.17 34.12 216.285 33.5939 218.137 32.5138L217.129 30.7862C215.621 31.6661 213.862 32.12 211.823 32.12V34.12ZM218.144 32.5095C220.065 31.3676 221.429 29.7424 222.209 27.6611L220.337 26.9589C219.717 28.6109 218.655 29.879 217.122 30.7905L218.144 32.5095ZM222.273 27.31V22.97H220.273V27.31H222.273ZM221.273 21.97H212.243V23.97H221.273V21.97ZM212.243 21.97C209.645 21.97 207.523 22.3912 206.024 23.3769C204.451 24.4108 203.683 25.986 203.683 27.94H205.683C205.683 26.5807 206.175 25.6709 207.122 25.0481C208.143 24.3772 209.801 23.97 212.243 23.97V21.97ZM203.683 27.94C203.683 29.8391 204.46 31.399 205.978 32.5236L207.168 30.9164C206.167 30.1743 205.683 29.2143 205.683 27.94H203.683ZM205.978 32.5236C207.47 33.6288 209.458 34.12 211.823 34.12V32.12C209.709 32.12 208.196 31.6779 207.168 30.9164L205.978 32.5236ZM272.421 1.62H273.421V0.619997H272.421V1.62ZM272.421 39V40H273.421V39H272.421ZM264.581 39H263.581V40H264.581V39ZM264.581 27.73H265.581V26.73H264.581V27.73ZM254.711 27.73V26.73H254.18L253.883 27.1694L254.711 27.73ZM247.081 39V40H247.611L247.909 39.5606L247.081 39ZM237.701 39L236.884 38.4222L235.768 40H237.701V39ZM246.521 26.54L247.337 27.1178L248.107 26.0293L246.847 25.5946L246.521 26.54ZM240.291 22.27L239.477 22.8512L239.485 22.8623L239.493 22.8731L240.291 22.27ZM242.741 5.12L242.131 4.32737L242.741 5.12ZM264.581 21.64V22.64H265.581V21.64H264.581ZM264.581 8.97H265.581V7.97H264.581V8.97ZM271.421 1.62V39H273.421V1.62H271.421ZM272.421 38H264.581V40H272.421V38ZM265.581 39V27.73H263.581V39H265.581ZM264.581 26.73H254.711V28.73H264.581V26.73ZM253.883 27.1694L246.253 38.4394L247.909 39.5606L255.539 28.2906L253.883 27.1694ZM247.081 38H237.701V40H247.081V38ZM238.517 39.5778L247.337 27.1178L245.704 25.9622L236.884 38.4222L238.517 39.5778ZM246.847 25.5946C244.291 24.7133 242.394 23.3933 241.088 21.6669L239.493 22.8731C241.081 24.9734 243.337 26.5001 246.195 27.4854L246.847 25.5946ZM241.104 21.6888C239.846 19.9275 239.191 17.7372 239.191 15.06H237.191C237.191 18.0761 237.935 20.6925 239.477 22.8512L241.104 21.6888ZM239.191 15.06C239.191 11.0339 240.596 8.03178 243.35 5.91262L242.131 4.32737C238.819 6.87489 237.191 10.4994 237.191 15.06H239.191ZM243.35 5.91262C246.152 3.75747 250.087 2.62 255.271 2.62V0.619997C249.815 0.619997 245.396 1.81586 242.131 4.32737L243.35 5.91262ZM255.271 2.62H272.421V0.619997H255.271V2.62ZM255.551 7.97C252.631 7.97 250.258 8.51394 248.597 9.76329C246.882 11.053 246.081 12.9737 246.081 15.34H248.081C248.081 13.4596 248.691 12.1954 249.799 11.3617C250.961 10.4877 252.824 9.97 255.551 9.97V7.97ZM246.081 15.34C246.081 17.6746 246.853 19.5764 248.518 20.8576C250.134 22.1006 252.44 22.64 255.271 22.64V20.64C252.641 20.64 250.852 20.1294 249.738 19.2724C248.673 18.4536 248.081 17.2054 248.081 15.34H246.081ZM255.271 22.64H264.581V20.64H255.271V22.64ZM265.581 21.64V8.97H263.581V21.64H265.581ZM264.581 7.97H255.551V9.97H264.581V7.97ZM36.0222 72.04V73.04H37.0222V72.04H36.0222ZM22.9322 72.04V71.04H21.9322V72.04H22.9322ZM22.9322 102V103H23.9322V102H22.9322ZM14.1822 102H13.1822V103H14.1822V102ZM14.1822 72.04H15.1822V71.04H14.1822V72.04ZM1.02223 72.04H0.0222266V73.04H1.02223V72.04ZM1.02223 64.62V63.62H0.0222266V64.62H1.02223ZM36.0222 64.62H37.0222V63.62H36.0222V64.62ZM36.0222 71.04H22.9322V73.04H36.0222V71.04ZM21.9322 72.04V102H23.9322V72.04H21.9322ZM22.9322 101H14.1822V103H22.9322V101ZM15.1822 102V72.04H13.1822V102H15.1822ZM14.1822 71.04H1.02223V73.04H14.1822V71.04ZM2.02223 72.04V64.62H0.0222266V72.04H2.02223ZM1.02223 65.62H36.0222V63.62H1.02223V65.62ZM35.0222 64.62V72.04H37.0222V64.62H35.0222ZM75.5886 86.11V87.11H76.5088L76.5852 86.193L75.5886 86.11ZM46.2586 86.11V85.11H45.055L45.2756 86.2933L46.2586 86.11ZM50.2486 92.69L49.6431 93.4858L49.6527 93.4931L49.6625 93.5002L50.2486 92.69ZM68.5186 91.01L69.273 90.3536L68.5633 89.5379L67.8054 90.3091L68.5186 91.01ZM73.2086 96.4L73.9754 97.0419L74.5233 96.3875L73.963 95.7436L73.2086 96.4ZM66.8386 100.95L66.4672 100.022L66.8386 100.95ZM47.3086 100.04L46.8456 100.926L47.3086 100.04ZM40.0286 93.25L39.1604 93.7461L39.1651 93.7543L39.1699 93.7625L40.0286 93.25ZM39.9586 73.51L39.0904 73.0139L39.0878 73.0184L39.9586 73.51ZM46.8886 66.65L47.3743 67.5242L46.8886 66.65ZM66.5586 66.65L66.061 67.5174L66.0693 67.5222L66.0778 67.5268L66.5586 66.65ZM73.2786 73.44L72.3986 73.9149L72.4031 73.9233L72.4078 73.9316L73.2786 73.44ZM49.6886 73.72L50.3379 74.4806L50.3394 74.4793L49.6886 73.72ZM46.1886 80.3L45.2001 80.1492L45.0245 81.3H46.1886V80.3ZM67.3986 80.3V81.3H68.546L68.3893 80.1634L67.3986 80.3ZM63.9686 73.72L63.3088 74.4714V74.4714L63.9686 73.72ZM74.7286 83.52C74.7286 84.0848 74.6847 84.9156 74.5921 86.027L76.5852 86.193C76.6792 85.0644 76.7286 84.1685 76.7286 83.52H74.7286ZM75.5886 85.11H46.2586V87.11H75.5886V85.11ZM45.2756 86.2933C45.8325 89.2803 47.2908 91.696 49.6431 93.4858L50.8542 91.8942C48.9131 90.4173 47.7115 88.4464 47.2417 85.9267L45.2756 86.2933ZM49.6625 93.5002C52.0568 95.2323 54.9791 96.07 58.3686 96.07V94.07C55.3182 94.07 52.8271 93.3211 50.8348 91.8798L49.6625 93.5002ZM58.3686 96.07C62.7191 96.07 66.3674 94.6256 69.2319 91.7109L67.8054 90.3091C65.3498 92.8077 62.2315 94.07 58.3686 94.07V96.07ZM67.7642 91.6664L72.4542 97.0564L73.963 95.7436L69.273 90.3536L67.7642 91.6664ZM72.4419 95.7581C70.874 97.6309 68.8894 99.0527 66.4672 100.022L67.21 101.878C69.9212 100.794 72.1833 99.1825 73.9754 97.0419L72.4419 95.7581ZM66.4672 100.022C64.0365 100.994 61.2721 101.49 58.1586 101.49V103.49C61.4852 103.49 64.5075 102.96 67.21 101.878L66.4672 100.022ZM58.1586 101.49C54.1867 101.49 50.7336 100.701 47.7717 99.1536L46.8456 100.926C50.137 102.646 53.9172 103.49 58.1586 103.49V101.49ZM47.7717 99.1536C44.8009 97.6017 42.5147 95.4644 40.8873 92.7375L39.1699 93.7625C40.9959 96.8223 43.5631 99.2116 46.8456 100.926L47.7717 99.1536ZM40.8969 92.7539C39.3108 89.9782 38.5086 86.8385 38.5086 83.31H36.5086C36.5086 87.1548 37.3865 90.6418 39.1604 93.7461L40.8969 92.7539ZM38.5086 83.31C38.5086 79.8254 39.2887 76.7309 40.8295 74.0016L39.0878 73.0184C37.3619 76.0758 36.5086 79.5146 36.5086 83.31H38.5086ZM40.8269 74.0061C42.4169 71.2236 44.5951 69.0682 47.3743 67.5242L46.403 65.7758C43.3022 67.4985 40.8604 69.9164 39.0904 73.0139L40.8269 74.0061ZM47.3743 67.5242C50.1517 65.9811 53.2952 65.2 56.8286 65.2V63.2C52.9888 63.2 49.5055 64.0522 46.403 65.7758L47.3743 67.5242ZM56.8286 65.2C60.3135 65.2 63.3818 65.9802 66.061 67.5174L67.0563 65.7826C64.0421 64.0532 60.6237 63.2 56.8286 63.2V65.2ZM66.0778 67.5268C68.7999 69.0196 70.9023 71.1423 72.3986 73.9149L74.1587 72.9651C72.4817 69.8577 70.104 67.4538 67.0395 65.7732L66.0778 67.5268ZM72.4078 73.9316C73.9444 76.6535 74.7286 79.8391 74.7286 83.52H76.7286C76.7286 79.5475 75.8796 76.0132 74.1495 72.9484L72.4078 73.9316ZM56.8286 70.2C53.8117 70.2 51.195 71.1118 49.0378 72.9607L50.3394 74.4793C52.1023 72.9682 54.2456 72.2 56.8286 72.2V70.2ZM49.0394 72.9594C46.9234 74.7657 45.6521 77.1858 45.2001 80.1492L47.1772 80.4508C47.5651 77.9076 48.6272 75.9409 50.3379 74.4806L49.0394 72.9594ZM46.1886 81.3H67.3986V79.3H46.1886V81.3ZM68.3893 80.1634C67.9857 77.2375 66.7361 74.8192 64.6284 72.9686L63.3088 74.4714C65.0278 75.9808 66.0649 77.9492 66.408 80.4366L68.3893 80.1634ZM64.6284 72.9686C62.5108 71.1092 59.8874 70.2 56.8286 70.2V72.2C59.4632 72.2 61.5998 72.9708 63.3088 74.4714L64.6284 72.9686ZM107.654 102L106.85 102.595L107.15 103H107.654V102ZM98.0636 89.05L98.8672 88.4549L98.0665 87.3736L97.262 88.4521L98.0636 89.05ZM88.4036 102V103H88.9052L89.2051 102.598L88.4036 102ZM78.7436 102L77.9503 101.391L76.7154 103H78.7436V102ZM93.3036 83.03L94.0968 83.6389L94.5608 83.0343L94.101 82.4266L93.3036 83.03ZM79.3736 64.62V63.62H77.3629L78.5761 65.2234L79.3736 64.62ZM89.1036 64.62L89.9041 64.0207L89.6041 63.62H89.1036V64.62ZM98.2736 76.87L97.473 77.4693L98.2736 78.5387L99.0741 77.4693L98.2736 76.87ZM107.444 64.62V63.62H106.943L106.643 64.0207L107.444 64.62ZM116.894 64.62L117.687 65.2282L118.92 63.62H116.894V64.62ZM102.894 82.89L102.1 82.2818L101.634 82.8897L102.1 83.4979L102.894 82.89ZM117.524 102V103H119.549L118.318 101.392L117.524 102ZM108.457 101.405L98.8672 88.4549L97.2599 89.6451L106.85 102.595L108.457 101.405ZM97.262 88.4521L87.602 101.402L89.2051 102.598L98.8651 89.6479L97.262 88.4521ZM88.4036 101H78.7436V103H88.4036V101ZM79.5368 102.609L94.0968 83.6389L92.5103 82.4211L77.9503 101.391L79.5368 102.609ZM94.101 82.4266L80.171 64.0166L78.5761 65.2234L92.5061 83.6334L94.101 82.4266ZM79.3736 65.62H89.1036V63.62H79.3736V65.62ZM88.303 65.2193L97.473 77.4693L99.0741 76.2707L89.9041 64.0207L88.303 65.2193ZM99.0741 77.4693L108.244 65.2193L106.643 64.0207L97.473 76.2707L99.0741 77.4693ZM107.444 65.62H116.894V63.62H107.444V65.62ZM116.1 64.0118L102.1 82.2818L103.687 83.4982L117.687 65.2282L116.1 64.0118ZM102.1 83.4979L116.73 102.608L118.318 101.392L103.688 82.2821L102.1 83.4979ZM117.524 101H107.654V103H117.524V101ZM123.785 64.62V63.62H122.785V64.62H123.785ZM132.535 64.62H133.535V63.62H132.535V64.62ZM132.535 79.81H131.535V80.81H132.535V79.81ZM151.365 79.81V80.81H152.365V79.81H151.365ZM151.365 64.62V63.62H150.365V64.62H151.365ZM160.115 64.62H161.115V63.62H160.115V64.62ZM160.115 102V103H161.115V102H160.115ZM151.365 102H150.365V103H151.365V102ZM151.365 87.23H152.365V86.23H151.365V87.23ZM132.535 87.23V86.23H131.535V87.23H132.535ZM132.535 102V103H133.535V102H132.535ZM123.785 102H122.785V103H123.785V102ZM123.785 65.62H132.535V63.62H123.785V65.62ZM131.535 64.62V79.81H133.535V64.62H131.535ZM132.535 80.81H151.365V78.81H132.535V80.81ZM152.365 79.81V64.62H150.365V79.81H152.365ZM151.365 65.62H160.115V63.62H151.365V65.62ZM159.115 64.62V102H161.115V64.62H159.115ZM160.115 101H151.365V103H160.115V101ZM152.365 102V87.23H150.365V102H152.365ZM151.365 86.23H132.535V88.23H151.365V86.23ZM131.535 87.23V102H133.535V87.23H131.535ZM132.535 101H123.785V103H132.535V101ZM124.785 102V64.62H122.785V102H124.785ZM171.842 64.62V63.62H170.842V64.62H171.842ZM180.592 64.62H181.592V63.62H180.592V64.62ZM180.592 89.26H179.592V92.0101L181.358 89.9023L180.592 89.26ZM201.242 64.62V63.62H200.775L200.475 63.9777L201.242 64.62ZM209.222 64.62H210.222V63.62H209.222V64.62ZM209.222 102V103H210.222V102H209.222ZM200.472 102H199.472V103H200.472V102ZM200.472 77.36H201.472V74.6028L199.704 76.719L200.472 77.36ZM179.892 102V103H180.36L180.659 102.641L179.892 102ZM171.842 102H170.842V103H171.842V102ZM171.842 65.62H180.592V63.62H171.842V65.62ZM179.592 64.62V89.26H181.592V64.62H179.592ZM181.358 89.9023L202.008 65.2623L200.475 63.9777L179.825 88.6177L181.358 89.9023ZM201.242 65.62H209.222V63.62H201.242V65.62ZM208.222 64.62V102H210.222V64.62H208.222ZM209.222 101H200.472V103H209.222V101ZM201.472 102V77.36H199.472V102H201.472ZM199.704 76.719L179.124 101.359L180.659 102.641L201.239 78.001L199.704 76.719ZM179.892 101H171.842V103H179.892V101ZM172.842 102V64.62H170.842V102H172.842ZM236.532 87.02L237.331 86.4188L237.031 86.02H236.532V87.02ZM229.742 87.02V86.02H228.742V87.02H229.742ZM229.742 102V103H230.742V102H229.742ZM220.992 102H219.992V103H220.992V102ZM220.992 64.62V63.62H219.992V64.62H220.992ZM229.742 64.62H230.742V63.62H229.742V64.62ZM229.742 79.74H228.742V80.74H229.742V79.74ZM236.742 79.74V80.74H237.25L237.549 80.3304L236.742 79.74ZM247.802 64.62V63.62H247.295L246.995 64.0296L247.802 64.62ZM257.182 64.62L257.98 65.2225L259.19 63.62H257.182V64.62ZM243.602 82.61L242.804 82.0075L242.352 82.607L242.801 83.2086L243.602 82.61ZM258.092 102V103H260.088L258.893 101.401L258.092 102ZM247.802 102L247.003 102.601L247.303 103H247.802V102ZM236.532 86.02H229.742V88.02H236.532V86.02ZM228.742 87.02V102H230.742V87.02H228.742ZM229.742 101H220.992V103H229.742V101ZM221.992 102V64.62H219.992V102H221.992ZM220.992 65.62H229.742V63.62H220.992V65.62ZM228.742 64.62V79.74H230.742V64.62H228.742ZM229.742 80.74H236.742V78.74H229.742V80.74ZM237.549 80.3304L248.609 65.2104L246.995 64.0296L235.935 79.1496L237.549 80.3304ZM247.802 65.62H257.182V63.62H247.802V65.62ZM256.384 64.0175L242.804 82.0075L244.4 83.2125L257.98 65.2225L256.384 64.0175ZM242.801 83.2086L257.291 102.599L258.893 101.401L244.403 82.0114L242.801 83.2086ZM258.092 101H247.802V103H258.092V101ZM248.601 101.399L237.331 86.4188L235.733 87.6212L247.003 102.601L248.601 101.399ZM290.11 68.19L289.433 68.9262L289.44 68.9318L289.446 68.9374L290.11 68.19ZM294.52 102V103H295.52V102H294.52ZM286.26 102H285.26V103H286.26V102ZM286.26 97.45H287.26V94.1074L285.424 96.9008L286.26 97.45ZM281.64 101.23L282.034 102.149L282.044 102.145L281.64 101.23ZM267.15 101.09L266.727 101.996L266.736 102L266.744 102.004L267.15 101.09ZM262.25 97.1L261.411 97.6442L261.42 97.6574L261.429 97.6704L262.25 97.1ZM264.28 83.24L264.91 84.0166L264.912 84.0152L264.28 83.24ZM285.77 80.16V81.16H286.77V80.16H285.77ZM283.39 73.58L282.718 74.3199L282.723 74.3249L282.729 74.3298L283.39 73.58ZM270.23 72.46L269.927 71.507L269.921 71.5091L270.23 72.46ZM265.12 75.19L264.24 75.6641L264.82 76.7418L265.76 75.9582L265.12 75.19ZM261.69 68.82L261.084 68.0246L260.405 68.5421L260.81 69.2941L261.69 68.82ZM268.76 65.39L269.037 66.3509L268.76 65.39ZM282.13 94.65L282.634 95.5138L282.641 95.5095L282.13 94.65ZM285.77 90.31L286.707 90.6611L286.77 90.4913V90.31H285.77ZM285.77 85.97H286.77V84.97H285.77V85.97ZM271.07 94.72L271.665 93.9164L271.07 94.72ZM277.51 65.2C282.867 65.2 286.787 66.4935 289.433 68.9262L290.787 67.4538C287.646 64.5665 283.167 63.2 277.51 63.2V65.2ZM289.446 68.9374C292.104 71.3007 293.52 74.9502 293.52 80.09H295.52C295.52 74.5898 293.996 70.306 290.775 67.4426L289.446 68.9374ZM293.52 80.09V102H295.52V80.09H293.52ZM294.52 101H286.26V103H294.52V101ZM287.26 102V97.45H285.26V102H287.26ZM285.424 96.9008C284.469 98.3541 283.089 99.4966 281.236 100.315L282.044 102.145C284.205 101.19 285.904 99.8125 287.096 97.9992L285.424 96.9008ZM281.246 100.311C279.443 101.084 277.205 101.49 274.5 101.49V103.49C277.395 103.49 279.917 103.056 282.034 102.149L281.246 100.311ZM274.5 101.49C271.81 101.49 269.504 101.042 267.556 100.176L266.744 102.004C268.997 103.005 271.59 103.49 274.5 103.49V101.49ZM267.573 100.184C265.612 99.2684 264.125 98.0459 263.072 96.5296L261.429 97.6704C262.709 99.5141 264.489 100.952 266.727 101.996L267.573 100.184ZM263.089 96.5558C262.079 94.9984 261.57 93.2523 261.57 91.29H259.57C259.57 93.621 260.181 95.7483 261.411 97.6442L263.089 96.5558ZM261.57 91.29C261.57 88.2123 262.685 85.8217 264.91 84.0166L263.65 82.4634C260.928 84.6717 259.57 87.6477 259.57 91.29H261.57ZM264.912 84.0152C267.17 82.1756 270.835 81.16 276.11 81.16V79.16C270.652 79.16 266.431 80.1978 263.649 82.4648L264.912 84.0152ZM276.11 81.16H285.77V79.16H276.11V81.16ZM286.77 80.16V79.6H284.77V80.16H286.77ZM286.77 79.6C286.77 76.7727 285.903 74.4635 284.052 72.8302L282.729 74.3298C284.051 75.4965 284.77 77.2006 284.77 79.6H286.77ZM284.063 72.8401C282.268 71.2079 279.672 70.48 276.46 70.48V72.48C279.408 72.48 281.433 73.1521 282.718 74.3199L284.063 72.8401ZM276.46 70.48C274.255 70.48 272.076 70.8234 269.927 71.5071L270.533 73.4129C272.491 72.79 274.466 72.48 276.46 72.48V70.48ZM269.921 71.5091C267.812 72.1957 265.992 73.162 264.48 74.4218L265.76 75.9582C267.049 74.8847 268.635 74.031 270.54 73.4109L269.921 71.5091ZM266.001 74.7159L262.571 68.3459L260.81 69.2941L264.24 75.6641L266.001 74.7159ZM262.296 69.6154C264.143 68.2083 266.384 67.1154 269.037 66.3509L268.483 64.4291C265.63 65.2512 263.157 66.445 261.084 68.0246L262.296 69.6154ZM269.037 66.3509C271.694 65.5854 274.517 65.2 277.51 65.2V63.2C274.344 63.2 271.333 63.608 268.483 64.4291L269.037 66.3509ZM276.32 97.12C278.668 97.12 280.782 96.5939 282.634 95.5138L281.626 93.7862C280.118 94.6661 278.36 95.12 276.32 95.12V97.12ZM282.641 95.5095C284.562 94.3676 285.926 92.7424 286.707 90.6611L284.834 89.9589C284.214 91.6109 283.152 92.879 281.619 93.7905L282.641 95.5095ZM286.77 90.31V85.97H284.77V90.31H286.77ZM285.77 84.97H276.74V86.97H285.77V84.97ZM276.74 84.97C274.142 84.97 272.02 85.3912 270.521 86.3769C268.948 87.4108 268.18 88.986 268.18 90.94H270.18C270.18 89.5807 270.672 88.6709 271.62 88.0481C272.64 87.3772 274.298 86.97 276.74 86.97V84.97ZM268.18 90.94C268.18 92.8391 268.957 94.399 270.475 95.5236L271.665 93.9164C270.664 93.1743 270.18 92.2143 270.18 90.94H268.18ZM270.475 95.5236C271.967 96.6288 273.955 97.12 276.32 97.12V95.12C274.206 95.12 272.693 94.6779 271.665 93.9164L270.475 95.5236Z" fill="white" fill-opacity="0.3"/>
</svg>
