<svg width="203" height="41" viewBox="0 0 203 41" fill="none" xmlns="http://www.w3.org/2000/svg">
<path d="M16.5528 24.02L17.3519 23.4188L17.0519 23.02H16.5528V24.02ZM9.76281 24.02V23.02H8.76281V24.02H9.76281ZM9.76281 39V40H10.7628V39H9.76281ZM1.01281 39H0.0128131V40H1.01281V39ZM1.01281 1.62V0.619997H0.0128131V1.62H1.01281ZM9.76281 1.62H10.7628V0.619997H9.76281V1.62ZM9.76281 16.74H8.76281V17.74H9.76281V16.74ZM16.7628 16.74V17.74H17.2703L17.5699 17.3304L16.7628 16.74ZM27.8228 1.62V0.619997H27.3153L27.0157 1.02961L27.8228 1.62ZM37.2028 1.62L38.0009 2.22248L39.2106 0.619997H37.2028V1.62ZM23.6228 19.61L22.8247 19.0075L22.3722 19.607L22.8218 20.2086L23.6228 19.61ZM38.1128 39V40H40.1085L38.9139 38.4014L38.1128 39ZM27.8228 39L27.0237 39.6012L27.3237 40H27.8228V39ZM16.5528 23.02H9.76281V25.02H16.5528V23.02ZM8.76281 24.02V39H10.7628V24.02H8.76281ZM9.76281 38H1.01281V40H9.76281V38ZM2.01281 39V1.62H0.0128131V39H2.01281ZM1.01281 2.62H9.76281V0.619997H1.01281V2.62ZM8.76281 1.62V16.74H10.7628V1.62H8.76281ZM9.76281 17.74H16.7628V15.74H9.76281V17.74ZM17.5699 17.3304L28.6299 2.21039L27.0157 1.02961L15.9557 16.1496L17.5699 17.3304ZM27.8228 2.62H37.2028V0.619997H27.8228V2.62ZM36.4047 1.01752L22.8247 19.0075L24.4209 20.2125L38.0009 2.22248L36.4047 1.01752ZM22.8218 20.2086L37.3118 39.5986L38.9139 38.4014L24.4239 19.0114L22.8218 20.2086ZM38.1128 38H27.8228V40H38.1128V38ZM28.6219 38.3988L17.3519 23.4188L15.7537 24.6212L27.0237 39.6012L28.6219 38.3988ZM70.1307 5.19L69.4539 5.92617L69.4601 5.93184L69.4663 5.93741L70.1307 5.19ZM74.5407 39V40H75.5407V39H74.5407ZM66.2807 39H65.2807V40H66.2807V39ZM66.2807 34.45H67.2807V31.1074L65.445 33.9008L66.2807 34.45ZM61.6607 38.23L62.0546 39.1492L62.0649 39.1447L61.6607 38.23ZM47.1707 38.09L46.7478 38.9962L46.7562 39.0001L46.7646 39.0038L47.1707 38.09ZM42.2707 34.1L41.4317 34.6442L41.4403 34.6574L41.4493 34.6704L42.2707 34.1ZM44.3007 20.24L44.9307 21.0166L44.9324 21.0152L44.3007 20.24ZM65.7907 17.16V18.16H66.7907V17.16H65.7907ZM63.4107 10.58L62.738 11.3199L62.7435 11.3249L62.7491 11.3298L63.4107 10.58ZM50.2507 9.46L49.9475 8.50705L49.9411 8.50913L50.2507 9.46ZM45.1407 12.19L44.2602 12.6641L44.8406 13.7418L45.7809 12.9582L45.1407 12.19ZM41.7107 5.82L41.1047 5.02457L40.4253 5.54215L40.8302 6.2941L41.7107 5.82ZM48.7807 2.39L49.0576 3.35091L48.7807 2.39ZM62.1507 31.65L62.6546 32.5138L62.6618 32.5095L62.1507 31.65ZM65.7907 27.31L66.727 27.6611L66.7907 27.4913V27.31H65.7907ZM65.7907 22.97H66.7907V21.97H65.7907V22.97ZM51.0907 31.72L51.6859 30.9164L51.0907 31.72ZM57.5307 2.2C62.8874 2.2 66.8079 3.49352 69.4539 5.92617L70.8075 4.45383C67.6669 1.56647 63.1873 0.199999 57.5307 0.199999V2.2ZM69.4663 5.93741C72.125 8.30067 73.5407 11.9502 73.5407 17.09H75.5407C75.5407 11.5898 74.0164 7.306 70.7951 4.44259L69.4663 5.93741ZM73.5407 17.09V39H75.5407V17.09H73.5407ZM74.5407 38H66.2807V40H74.5407V38ZM67.2807 39V34.45H65.2807V39H67.2807ZM65.445 33.9008C64.49 35.3541 63.1094 36.4966 61.2565 37.3153L62.0649 39.1447C64.2253 38.1901 65.9248 36.8125 67.1164 34.9992L65.445 33.9008ZM61.2668 37.3109C59.4637 38.0836 57.2256 38.49 54.5207 38.49V40.49C57.4158 40.49 59.9378 40.0564 62.0546 39.1491L61.2668 37.3109ZM54.5207 38.49C51.8307 38.49 49.5242 38.0417 47.5768 37.1762L46.7646 39.0038C49.0172 40.005 51.6107 40.49 54.5207 40.49V38.49ZM47.5936 37.1838C45.632 36.2684 44.1451 35.0459 43.0921 33.5296L41.4493 34.6704C42.7297 36.5141 44.5094 37.9516 46.7478 38.9962L47.5936 37.1838ZM43.1097 33.5558C42.0994 31.9984 41.5907 30.2523 41.5907 28.29H39.5907C39.5907 30.6211 40.202 32.7483 41.4317 34.6442L43.1097 33.5558ZM41.5907 28.29C41.5907 25.2123 42.7059 22.8217 44.9307 21.0166L43.6707 19.4634C40.9489 21.6717 39.5907 24.6477 39.5907 28.29H41.5907ZM44.9324 21.0152C47.1902 19.1756 50.8559 18.16 56.1307 18.16V16.16C50.6722 16.16 46.4512 17.1978 43.669 19.4648L44.9324 21.0152ZM56.1307 18.16H65.7907V16.16H56.1307V18.16ZM66.7907 17.16V16.6H64.7907V17.16H66.7907ZM66.7907 16.6C66.7907 13.7727 65.9234 11.4635 64.0723 9.83016L62.7491 11.3298C64.0714 12.4965 64.7907 14.2006 64.7907 16.6H66.7907ZM64.0834 9.84006C62.288 8.20791 59.6925 7.48 56.4807 7.48V9.48C59.4289 9.48 61.4534 10.1521 62.738 11.3199L64.0834 9.84006ZM56.4807 7.48C54.2751 7.48 52.0963 7.82337 49.9475 8.50707L50.5539 10.4129C52.5118 9.78996 54.4863 9.48 56.4807 9.48V7.48ZM49.9411 8.50913C47.8325 9.19566 46.0123 10.162 44.5005 11.4218L45.7809 12.9582C47.0691 11.8847 48.6556 11.031 50.5603 10.4109L49.9411 8.50913ZM46.0212 11.7159L42.5912 5.3459L40.8302 6.2941L44.2602 12.6641L46.0212 11.7159ZM42.3167 6.61543C44.1636 5.20833 46.4042 4.11544 49.0576 3.35091L48.5038 1.42909C45.6506 2.25122 43.1778 3.445 41.1047 5.02457L42.3167 6.61543ZM49.0576 3.35091C51.7144 2.58537 54.5374 2.2 57.5307 2.2V0.199999C54.364 0.199999 51.3536 0.60796 48.5038 1.42909L49.0576 3.35091ZM56.3407 34.12C58.688 34.12 60.8029 33.5939 62.6546 32.5138L61.6468 30.7862C60.1385 31.6661 58.3801 32.12 56.3407 32.12V34.12ZM62.6618 32.5095C64.5822 31.3676 65.9465 29.7424 66.727 27.6611L64.8544 26.9589C64.2349 28.6109 63.1725 29.879 61.6396 30.7905L62.6618 32.5095ZM66.7907 27.31V22.97H64.7907V27.31H66.7907ZM65.7907 21.97H56.7607V23.97H65.7907V21.97ZM56.7607 21.97C54.1629 21.97 52.0408 22.3912 50.5414 23.3769C48.9687 24.4108 48.2007 25.986 48.2007 27.94H50.2007C50.2007 26.5807 50.6927 25.6709 51.64 25.0481C52.6606 24.3772 54.3185 23.97 56.7607 23.97V21.97ZM48.2007 27.94C48.2007 29.8391 48.9773 31.399 50.4955 32.5236L51.6859 30.9164C50.6841 30.1743 50.2007 29.2143 50.2007 27.94H48.2007ZM50.4955 32.5236C51.9875 33.6288 53.9752 34.12 56.3407 34.12V32.12C54.2262 32.12 52.7139 31.6779 51.6859 30.9164L50.4955 32.5236ZM114.978 9.04V10.04H115.978V9.04H114.978ZM101.888 9.04V8.04H100.888V9.04H101.888ZM101.888 39V40H102.888V39H101.888ZM93.1383 39H92.1383V40H93.1383V39ZM93.1383 9.04H94.1383V8.04H93.1383V9.04ZM79.9783 9.04H78.9783V10.04H79.9783V9.04ZM79.9783 1.62V0.619997H78.9783V1.62H79.9783ZM114.978 1.62H115.978V0.619997H114.978V1.62ZM114.978 8.04H101.888V10.04H114.978V8.04ZM100.888 9.04V39H102.888V9.04H100.888ZM101.888 38H93.1383V40H101.888V38ZM94.1383 39V9.04H92.1383V39H94.1383ZM93.1383 8.04H79.9783V10.04H93.1383V8.04ZM80.9783 9.04V1.62H78.9783V9.04H80.9783ZM79.9783 2.62H114.978V0.619997H79.9783V2.62ZM113.978 1.62V9.04H115.978V1.62H113.978ZM136.865 24.02L137.664 23.4188L137.364 23.02H136.865V24.02ZM130.075 24.02V23.02H129.075V24.02H130.075ZM130.075 39V40H131.075V39H130.075ZM121.325 39H120.325V40H121.325V39ZM121.325 1.62V0.619997H120.325V1.62H121.325ZM130.075 1.62H131.075V0.619997H130.075V1.62ZM130.075 16.74H129.075V17.74H130.075V16.74ZM137.075 16.74V17.74H137.583L137.882 17.3304L137.075 16.74ZM148.135 1.62V0.619997H147.628L147.328 1.02961L148.135 1.62ZM157.515 1.62L158.313 2.22248L159.523 0.619997H157.515V1.62ZM143.935 19.61L143.137 19.0075L142.685 19.607L143.134 20.2086L143.935 19.61ZM158.425 39V40H160.421L159.226 38.4014L158.425 39ZM148.135 39L147.336 39.6012L147.636 40H148.135V39ZM136.865 23.02H130.075V25.02H136.865V23.02ZM129.075 24.02V39H131.075V24.02H129.075ZM130.075 38H121.325V40H130.075V38ZM122.325 39V1.62H120.325V39H122.325ZM121.325 2.62H130.075V0.619997H121.325V2.62ZM129.075 1.62V16.74H131.075V1.62H129.075ZM130.075 17.74H137.075V15.74H130.075V17.74ZM137.882 17.3304L148.942 2.21039L147.328 1.02961L136.268 16.1496L137.882 17.3304ZM148.135 2.62H157.515V0.619997H148.135V2.62ZM156.717 1.01752L143.137 19.0075L144.733 20.2125L158.313 2.22248L156.717 1.01752ZM143.134 20.2086L157.624 39.5986L159.226 38.4014L144.736 19.0114L143.134 20.2086ZM158.425 38H148.135V40H158.425V38ZM148.934 38.3988L137.664 23.4188L136.066 24.6212L147.336 39.6012L148.934 38.3988ZM164.597 1.62V0.619997H163.597V1.62H164.597ZM173.347 1.62H174.347V0.619997H173.347V1.62ZM173.347 26.26H172.347V29.0101L174.113 26.9023L173.347 26.26ZM193.997 1.62V0.619997H193.53L193.23 0.977674L193.997 1.62ZM201.977 1.62H202.977V0.619997H201.977V1.62ZM201.977 39V40H202.977V39H201.977ZM193.227 39H192.227V40H193.227V39ZM193.227 14.36H194.227V11.6028L192.459 13.719L193.227 14.36ZM172.647 39V40H173.114L173.414 39.641L172.647 39ZM164.597 39H163.597V40H164.597V39ZM164.597 2.62H173.347V0.619997H164.597V2.62ZM172.347 1.62V26.26H174.347V1.62H172.347ZM174.113 26.9023L194.763 2.26232L193.23 0.977674L172.58 25.6177L174.113 26.9023ZM193.997 2.62H201.977V0.619997H193.997V2.62ZM200.977 1.62V39H202.977V1.62H200.977ZM201.977 38H193.227V40H201.977V38ZM194.227 39V14.36H192.227V39H194.227ZM192.459 13.719L171.879 38.359L173.414 39.641L193.994 15.001L192.459 13.719ZM172.647 38H164.597V40H172.647V38ZM165.597 39V1.62H163.597V39H165.597Z" fill="white" fill-opacity="0.3"/>
</svg>
