<svg width="351" height="54" viewBox="0 0 351 54" fill="none" xmlns="http://www.w3.org/2000/svg">
<path d="M36.6658 9.04V10.04H37.6658V9.04H36.6658ZM23.5758 9.04V8.04H22.5758V9.04H23.5758ZM23.5758 39V40H24.5758V39H23.5758ZM14.8258 39H13.8258V40H14.8258V39ZM14.8258 9.04H15.8258V8.04H14.8258V9.04ZM1.66578 9.04H0.665781V10.04H1.66578V9.04ZM1.66578 1.62V0.619997H0.665781V1.62H1.66578ZM36.6658 1.62H37.6658V0.619997H36.6658V1.62ZM36.6658 8.04H23.5758V10.04H36.6658V8.04ZM22.5758 9.04V39H24.5758V9.04H22.5758ZM23.5758 38H14.8258V40H23.5758V38ZM15.8258 39V9.04H13.8258V39H15.8258ZM14.8258 8.04H1.66578V10.04H14.8258V8.04ZM2.66578 9.04V1.62H0.665781V9.04H2.66578ZM1.66578 2.62H36.6658V0.619997H1.66578V2.62ZM35.6658 1.62V9.04H37.6658V1.62H35.6658ZM73.4628 3.58L72.9759 4.4535L72.982 4.45681L73.4628 3.58ZM80.2528 10.3L81.1236 9.8084V9.8084L80.2528 10.3ZM80.2528 30.39L81.1237 30.8816L81.127 30.8756L80.2528 30.39ZM73.4628 37.11L72.982 36.2332L72.976 36.2365L73.4628 37.11ZM51.7628 34.45L52.5154 33.7915L50.7628 31.7886V34.45H51.7628ZM51.7628 52.58V53.58H52.7628V52.58H51.7628ZM43.0128 52.58H42.0128V53.58H43.0128V52.58ZM43.0128 1.62V0.619997H42.0128V1.62H43.0128ZM51.3428 1.62H52.3428V0.619997H51.3428V1.62ZM51.3428 6.52H50.3428V9.32777L52.1177 7.15213L51.3428 6.52ZM56.6628 2.53L56.281 1.60571L56.2738 1.60875L56.6628 2.53ZM70.6628 28.78L69.9479 28.0807L69.9402 28.0888L70.6628 28.78ZM70.6628 11.84L69.9401 12.5313L69.948 12.5393L70.6628 11.84ZM57.0828 10.09L57.5685 10.9642L57.5776 10.9591L57.5867 10.9538L57.0828 10.09ZM53.0928 14.15L52.2176 13.6663L53.0928 14.15ZM57.0828 30.6L56.5789 31.4638L56.588 31.4691L56.5972 31.4742L57.0828 30.6ZM63.7328 2.2C67.2227 2.2 70.2949 2.95914 72.976 4.45348L73.9497 2.70652C70.9374 1.02752 67.5229 0.199999 63.7328 0.199999V2.2ZM72.982 4.45681C75.7108 5.95325 77.8396 8.0593 79.382 10.7916L81.1236 9.8084C79.3994 6.75403 77.0015 4.38008 73.9436 2.70318L72.982 4.45681ZM79.382 10.7916C80.9195 13.5153 81.7028 16.6782 81.7028 20.31H83.7028C83.7028 16.3818 82.8528 12.8714 81.1236 9.8084L79.382 10.7916ZM81.7028 20.31C81.7028 23.9415 80.9196 27.1306 79.3787 29.9044L81.127 30.8756C82.8527 27.7694 83.7028 24.2385 83.7028 20.31H81.7028ZM79.382 29.8984C77.8396 32.6307 75.7108 34.7367 72.982 36.2332L73.9436 37.9868C77.0015 36.3099 79.3994 33.936 81.1236 30.8816L79.382 29.8984ZM72.976 36.2365C70.2949 37.7309 67.2227 38.49 63.7328 38.49V40.49C67.5229 40.49 70.9374 39.6625 73.9497 37.9835L72.976 36.2365ZM63.7328 38.49C58.9398 38.49 55.2398 36.9051 52.5154 33.7915L51.0102 35.1085C54.1658 38.7149 58.4459 40.49 63.7328 40.49V38.49ZM50.7628 34.45V52.58H52.7628V34.45H50.7628ZM51.7628 51.58H43.0128V53.58H51.7628V51.58ZM44.0128 52.58V1.62H42.0128V52.58H44.0128ZM43.0128 2.62H51.3428V0.619997H43.0128V2.62ZM50.3428 1.62V6.52H52.3428V1.62H50.3428ZM52.1177 7.15213C53.4617 5.50467 55.1027 4.2742 57.0518 3.45125L56.2738 1.60875C54.0229 2.55913 52.1173 3.98866 50.5679 5.88787L52.1177 7.15213ZM57.0446 3.45426C59.058 2.62261 61.2833 2.2 63.7328 2.2V0.199999C61.049 0.199999 58.5609 0.664053 56.2811 1.60574L57.0446 3.45426ZM62.7528 33C66.2203 33 69.1266 31.8328 71.3855 29.4712L69.9402 28.0888C68.0924 30.0205 65.7253 31 62.7528 31V33ZM71.3776 29.4793C73.6906 27.1149 74.8128 24.0248 74.8128 20.31H72.8128C72.8128 23.5952 71.835 26.1517 69.948 28.0807L71.3776 29.4793ZM74.8128 20.31C74.8128 16.5952 73.6906 13.5051 71.3776 11.1407L69.948 12.5393C71.835 14.4683 72.8128 17.0248 72.8128 20.31H74.8128ZM71.3855 11.1488C69.1266 8.78721 66.2203 7.62 62.7528 7.62V9.62C65.7253 9.62 68.0924 10.5995 69.9402 12.5312L71.3855 11.1488ZM62.7528 7.62C60.4903 7.62 58.424 8.14993 56.5789 9.22622L57.5867 10.9538C59.1016 10.0701 60.8153 9.62 62.7528 9.62V7.62ZM56.5972 9.21584C54.7442 10.2453 53.2831 11.7382 52.2176 13.6663L53.9681 14.6337C54.8625 13.0151 56.0614 11.8014 57.5685 10.9642L56.5972 9.21584ZM52.2176 13.6663C51.1441 15.6089 50.6228 17.8334 50.6228 20.31H52.6228C52.6228 18.1199 53.0816 16.2378 53.9681 14.6337L52.2176 13.6663ZM50.6228 20.31C50.6228 22.7866 51.1441 25.0111 52.2176 26.9537L53.9681 25.9863C53.0816 24.3822 52.6228 22.5001 52.6228 20.31H50.6228ZM52.2176 26.9537C53.281 28.878 54.7365 30.389 56.5789 31.4638L57.5867 29.7362C56.0691 28.851 54.8646 27.6087 53.9681 25.9863L52.2176 26.9537ZM56.5972 31.4742C58.4392 32.4975 60.499 33 62.7528 33V31C60.8066 31 59.0864 30.5691 57.5685 29.7258L56.5972 31.4742ZM117.463 5.19L116.786 5.92617L116.792 5.93184L116.798 5.93741L117.463 5.19ZM121.873 39V40H122.873V39H121.873ZM113.613 39H112.613V40H113.613V39ZM113.613 34.45H114.613V31.1074L112.777 33.9008L113.613 34.45ZM108.993 38.23L109.387 39.1492L109.397 39.1447L108.993 38.23ZM94.5027 38.09L94.0798 38.9962L94.0882 39.0001L94.0966 39.0038L94.5027 38.09ZM89.6027 34.1L88.7638 34.6442L88.7724 34.6574L88.7814 34.6704L89.6027 34.1ZM91.6327 20.24L92.2628 21.0166L92.2644 21.0152L91.6327 20.24ZM113.123 17.16V18.16H114.123V17.16H113.123ZM110.743 10.58L110.07 11.3199L110.076 11.3249L110.081 11.3298L110.743 10.58ZM97.5827 9.46L97.2795 8.50705L97.2731 8.50913L97.5827 9.46ZM92.4727 12.19L91.5923 12.6641L92.1726 13.7418L93.1129 12.9582L92.4727 12.19ZM89.0427 5.82L88.4367 5.02457L87.7574 5.54215L88.1623 6.2941L89.0427 5.82ZM96.1127 2.39L96.3896 3.35091H96.3896L96.1127 2.39ZM109.483 31.65L109.987 32.5138L109.994 32.5095L109.483 31.65ZM113.123 27.31L114.059 27.6611L114.123 27.4913V27.31H113.123ZM113.123 22.97H114.123V21.97H113.123V22.97ZM98.4227 31.72L99.018 30.9164L98.4227 31.72ZM104.863 2.2C110.219 2.2 114.14 3.49352 116.786 5.92617L118.14 4.45383C114.999 1.56647 110.519 0.199999 104.863 0.199999V2.2ZM116.798 5.93741C119.457 8.30067 120.873 11.9502 120.873 17.09H122.873C122.873 11.5898 121.348 7.306 118.127 4.44259L116.798 5.93741ZM120.873 17.09V39H122.873V17.09H120.873ZM121.873 38H113.613V40H121.873V38ZM114.613 39V34.45H112.613V39H114.613ZM112.777 33.9008C111.822 35.3541 110.441 36.4966 108.589 37.3153L109.397 39.1447C111.557 38.1901 113.257 36.8125 114.448 34.9992L112.777 33.9008ZM108.599 37.3109C106.796 38.0836 104.558 38.49 101.853 38.49V40.49C104.748 40.49 107.27 40.0564 109.387 39.1491L108.599 37.3109ZM101.853 38.49C99.1628 38.49 96.8563 38.0417 94.9089 37.1762L94.0966 39.0038C96.3492 40.005 98.9427 40.49 101.853 40.49V38.49ZM94.9256 37.1838C92.9641 36.2684 91.4771 35.0459 90.4241 33.5296L88.7814 34.6704C90.0617 36.5141 91.8414 37.9516 94.0798 38.9962L94.9256 37.1838ZM90.4417 33.5558C89.4315 31.9984 88.9227 30.2523 88.9227 28.29H86.9227C86.9227 30.6211 87.534 32.7483 88.7638 34.6442L90.4417 33.5558ZM88.9227 28.29C88.9227 25.2123 90.0379 22.8217 92.2628 21.0166L91.0027 19.4634C88.2809 21.6717 86.9227 24.6477 86.9227 28.29H88.9227ZM92.2644 21.0152C94.5222 19.1756 98.1879 18.16 103.463 18.16V16.16C98.0042 16.16 93.7833 17.1978 91.0011 19.4648L92.2644 21.0152ZM103.463 18.16H113.123V16.16H103.463V18.16ZM114.123 17.16V16.6H112.123V17.16H114.123ZM114.123 16.6C114.123 13.7727 113.255 11.4635 111.404 9.83016L110.081 11.3298C111.403 12.4965 112.123 14.2006 112.123 16.6H114.123ZM111.415 9.84006C109.62 8.20791 107.025 7.48 103.813 7.48V9.48C106.761 9.48 108.785 10.1521 110.07 11.3199L111.415 9.84006ZM103.813 7.48C101.607 7.48 99.4283 7.82337 97.2795 8.50707L97.8859 10.4129C99.8438 9.78996 101.818 9.48 103.813 9.48V7.48ZM97.2731 8.50913C95.1645 9.19566 93.3443 10.162 91.8326 11.4218L93.1129 12.9582C94.4012 11.8847 95.9876 11.031 97.8923 10.4109L97.2731 8.50913ZM93.3532 11.7159L89.9232 5.3459L88.1623 6.2941L91.5923 12.6641L93.3532 11.7159ZM89.6488 6.61543C91.4956 5.20833 93.7362 4.11544 96.3896 3.35091L95.8359 1.42909C92.9826 2.25122 90.5099 3.445 88.4367 5.02457L89.6488 6.61543ZM96.3896 3.35091C99.0465 2.58537 101.869 2.2 104.863 2.2V0.199999C101.696 0.199999 98.6857 0.60796 95.8359 1.42909L96.3896 3.35091ZM103.673 34.12C106.02 34.12 108.135 33.5939 109.987 32.5138L108.979 30.7862C107.471 31.6661 105.712 32.12 103.673 32.12V34.12ZM109.994 32.5095C111.914 31.3676 113.279 29.7424 114.059 27.6611L112.186 26.9589C111.567 28.6109 110.505 29.879 108.972 30.7905L109.994 32.5095ZM114.123 27.31V22.97H112.123V27.31H114.123ZM113.123 21.97H104.093V23.97H113.123V21.97ZM104.093 21.97C101.495 21.97 99.3728 22.3912 97.8734 23.3769C96.3008 24.4108 95.5327 25.986 95.5327 27.94H97.5327C97.5327 26.5807 98.0247 25.6709 98.9721 25.0481C99.9927 24.3772 101.651 23.97 104.093 23.97V21.97ZM95.5327 27.94C95.5327 29.8391 96.3093 31.399 97.8275 32.5236L99.018 30.9164C98.0161 30.1743 97.5327 29.2143 97.5327 27.94H95.5327ZM97.8275 32.5236C99.3195 33.6288 101.307 34.12 103.673 34.12V32.12C101.558 32.12 100.046 31.6779 99.018 30.9164L97.8275 32.5236ZM148.24 24.02L149.039 23.4188L148.739 23.02H148.24V24.02ZM141.45 24.02V23.02H140.45V24.02H141.45ZM141.45 39V40H142.45V39H141.45ZM132.7 39H131.7V40H132.7V39ZM132.7 1.62V0.619997H131.7V1.62H132.7ZM141.45 1.62H142.45V0.619997H141.45V1.62ZM141.45 16.74H140.45V17.74H141.45V16.74ZM148.45 16.74V17.74H148.958L149.257 17.3304L148.45 16.74ZM159.51 1.62V0.619997H159.003L158.703 1.02961L159.51 1.62ZM168.89 1.62L169.688 2.22248L170.898 0.619997H168.89V1.62ZM155.31 19.61L154.512 19.0075L154.06 19.607L154.509 20.2086L155.31 19.61ZM169.8 39V40H171.796L170.601 38.4014L169.8 39ZM159.51 39L158.711 39.6012L159.011 40H159.51V39ZM148.24 23.02H141.45V25.02H148.24V23.02ZM140.45 24.02V39H142.45V24.02H140.45ZM141.45 38H132.7V40H141.45V38ZM133.7 39V1.62H131.7V39H133.7ZM132.7 2.62H141.45V0.619997H132.7V2.62ZM140.45 1.62V16.74H142.45V1.62H140.45ZM141.45 17.74H148.45V15.74H141.45V17.74ZM149.257 17.3304L160.317 2.21039L158.703 1.02961L147.643 16.1496L149.257 17.3304ZM159.51 2.62H168.89V0.619997H159.51V2.62ZM168.092 1.01752L154.512 19.0075L156.108 20.2125L169.688 2.22248L168.092 1.01752ZM154.509 20.2086L168.999 39.5986L170.601 38.4014L156.111 19.0114L154.509 20.2086ZM169.8 38H159.51V40H169.8V38ZM160.309 38.3988L149.039 23.4188L147.441 24.6212L158.711 39.6012L160.309 38.3988ZM205.103 9.04V10.04H206.103V9.04H205.103ZM192.013 9.04V8.04H191.013V9.04H192.013ZM192.013 39V40H193.013V39H192.013ZM183.263 39H182.263V40H183.263V39ZM183.263 9.04H184.263V8.04H183.263V9.04ZM170.103 9.04H169.103V10.04H170.103V9.04ZM170.103 1.62V0.619997H169.103V1.62H170.103ZM205.103 1.62H206.103V0.619997H205.103V1.62ZM205.103 8.04H192.013V10.04H205.103V8.04ZM191.013 9.04V39H193.013V9.04H191.013ZM192.013 38H183.263V40H192.013V38ZM184.263 39V9.04H182.263V39H184.263ZM183.263 8.04H170.103V10.04H183.263V8.04ZM171.103 9.04V1.62H169.103V9.04H171.103ZM170.103 2.62H205.103V0.619997H170.103V2.62ZM204.103 1.62V9.04H206.103V1.62H204.103ZM216.25 37.04L216.724 36.1595L216.25 37.04ZM209.11 30.25L208.241 30.7461L208.246 30.7543L208.251 30.7625L209.11 30.25ZM209.11 10.44L208.251 9.9275L208.245 9.93786L209.11 10.44ZM216.25 3.65L216.724 4.53047L216.25 3.65ZM236.76 3.65L236.286 4.53047L236.76 3.65ZM243.83 10.44L242.965 10.9422L242.971 10.9525L243.83 10.44ZM243.83 30.25L242.967 29.7436L242.965 29.7479L243.83 30.25ZM236.76 37.04L236.286 36.1595L236.76 37.04ZM234.45 28.78L233.735 28.0807L234.45 28.78ZM234.45 11.84L233.735 12.5393L234.45 11.84ZM218.49 11.84L217.775 11.1407L217.767 11.1488L218.49 11.84ZM218.49 28.78L217.767 29.4713L217.775 29.4793L218.49 28.78ZM226.47 38.49C222.839 38.49 219.598 37.707 216.724 36.1595L215.776 37.9205C218.968 39.6397 222.541 40.49 226.47 40.49V38.49ZM216.724 36.1595C213.846 34.6098 211.6 32.4721 209.968 29.7375L208.251 30.7625C210.072 33.8146 212.587 36.2035 215.776 37.9205L216.724 36.1595ZM209.978 29.7539C208.392 26.9782 207.59 23.8385 207.59 20.31H205.59C205.59 24.1548 206.468 27.6418 208.241 30.7461L209.978 29.7539ZM207.59 20.31C207.59 16.7812 208.392 13.6677 209.974 10.9421L208.245 9.93786C206.467 12.9989 205.59 16.4654 205.59 20.31H207.59ZM209.968 10.9525C211.6 8.21791 213.846 6.08016 216.724 4.53047L215.776 2.76953C212.587 4.48651 210.072 6.87541 208.251 9.92754L209.968 10.9525ZM216.724 4.53047C219.598 2.98304 222.839 2.2 226.47 2.2V0.199999C222.541 0.199999 218.968 1.05029 215.776 2.76953L216.724 4.53047ZM226.47 2.2C230.15 2.2 233.414 2.98399 236.286 4.53047L237.234 2.76953C234.039 1.04934 230.443 0.199999 226.47 0.199999V2.2ZM236.286 4.53047C239.161 6.07894 241.381 8.2135 242.965 10.9421L244.694 9.93786C242.919 6.87983 240.425 4.48772 237.234 2.76953L236.286 4.53047ZM242.971 10.9525C244.597 13.6765 245.42 16.7862 245.42 20.31H247.42C247.42 16.4604 246.516 12.9902 244.688 9.92754L242.971 10.9525ZM245.42 20.31C245.42 23.8336 244.597 26.9695 242.967 29.7436L244.692 30.7564C246.516 27.6505 247.42 24.1598 247.42 20.31H245.42ZM242.965 29.7479C241.381 32.4765 239.161 34.6111 236.286 36.1595L237.234 37.9205C240.425 36.2023 242.919 33.8102 244.694 30.7521L242.965 29.7479ZM236.286 36.1595C233.414 37.706 230.15 38.49 226.47 38.49V40.49C230.443 40.49 234.039 39.6407 237.234 37.9205L236.286 36.1595ZM226.47 33C229.937 33 232.862 31.8332 235.165 29.4793L233.735 28.0807C231.838 30.0202 229.442 31 226.47 31V33ZM235.165 29.4793C237.477 27.1149 238.6 24.0248 238.6 20.31H236.6C236.6 23.5952 235.622 26.1517 233.735 28.0807L235.165 29.4793ZM238.6 20.31C238.6 16.5952 237.477 13.5051 235.165 11.1407L233.735 12.5393C235.622 14.4683 236.6 17.0248 236.6 20.31H238.6ZM235.165 11.1407C232.862 8.78683 229.937 7.62 226.47 7.62V9.62C229.442 9.62 231.838 10.5998 233.735 12.5393L235.165 11.1407ZM226.47 7.62C223.002 7.62 220.078 8.78683 217.775 11.1407L219.205 12.5393C221.102 10.5998 223.497 9.62 226.47 9.62V7.62ZM217.767 11.1488C215.504 13.5142 214.41 16.6015 214.41 20.31H216.41C216.41 17.0185 217.368 14.4591 219.212 12.5312L217.767 11.1488ZM214.41 20.31C214.41 24.0185 215.504 27.1058 217.767 29.4712L219.212 28.0888C217.368 26.1609 216.41 23.6015 216.41 20.31H214.41ZM217.775 29.4793C220.078 31.8332 223.002 33 226.47 33V31C223.497 31 221.102 30.0202 219.205 28.0807L217.775 29.4793ZM285.514 3.58L285.027 4.4535L285.033 4.45681L285.514 3.58ZM292.304 10.3L293.174 9.8084V9.8084L292.304 10.3ZM292.304 30.39L293.174 30.8816L293.178 30.8756L292.304 30.39ZM285.514 37.11L285.033 36.2332L285.027 36.2365L285.514 37.11ZM263.814 34.45L264.566 33.7915L262.814 31.7886V34.45H263.814ZM263.814 52.58V53.58H264.814V52.58H263.814ZM255.064 52.58H254.064V53.58H255.064V52.58ZM255.064 1.62V0.619997H254.064V1.62H255.064ZM263.394 1.62H264.394V0.619997H263.394V1.62ZM263.394 6.52H262.394V9.32777L264.168 7.15213L263.394 6.52ZM268.714 2.53L268.332 1.60571L268.325 1.60875L268.714 2.53ZM282.714 28.78L281.999 28.0807L281.991 28.0888L282.714 28.78ZM282.714 11.84L281.991 12.5313L281.999 12.5393L282.714 11.84ZM269.134 10.09L269.619 10.9642L269.628 10.9591L269.637 10.9538L269.134 10.09ZM265.144 14.15L264.268 13.6663L265.144 14.15ZM269.134 30.6L268.63 31.4638L268.639 31.4691L268.648 31.4742L269.134 30.6ZM275.784 2.2C279.273 2.2 282.346 2.95914 285.027 4.45348L286 2.70652C282.988 1.02752 279.574 0.199999 275.784 0.199999V2.2ZM285.033 4.45681C287.762 5.95325 289.89 8.0593 291.433 10.7916L293.174 9.8084C291.45 6.75403 289.052 4.38008 285.994 2.70318L285.033 4.45681ZM291.433 10.7916C292.97 13.5153 293.754 16.6782 293.754 20.31H295.754C295.754 16.3818 294.904 12.8714 293.174 9.8084L291.433 10.7916ZM293.754 20.31C293.754 23.9415 292.97 27.1306 291.429 29.9044L293.178 30.8756C294.903 27.7694 295.754 24.2385 295.754 20.31H293.754ZM291.433 29.8984C289.89 32.6307 287.762 34.7367 285.033 36.2332L285.994 37.9868C289.052 36.3099 291.45 33.936 293.174 30.8816L291.433 29.8984ZM285.027 36.2365C282.346 37.7309 279.273 38.49 275.784 38.49V40.49C279.574 40.49 282.988 39.6625 286 37.9835L285.027 36.2365ZM275.784 38.49C270.991 38.49 267.291 36.9051 264.566 33.7915L263.061 35.1085C266.217 38.7149 270.497 40.49 275.784 40.49V38.49ZM262.814 34.45V52.58H264.814V34.45H262.814ZM263.814 51.58H255.064V53.58H263.814V51.58ZM256.064 52.58V1.62H254.064V52.58H256.064ZM255.064 2.62H263.394V0.619997H255.064V2.62ZM262.394 1.62V6.52H264.394V1.62H262.394ZM264.168 7.15213C265.512 5.50467 267.153 4.2742 269.103 3.45125L268.325 1.60875C266.074 2.55913 264.168 3.98866 262.619 5.88787L264.168 7.15213ZM269.095 3.45426C271.109 2.62261 273.334 2.2 275.784 2.2V0.199999C273.1 0.199999 270.612 0.664053 268.332 1.60574L269.095 3.45426ZM274.804 33C278.271 33 281.177 31.8328 283.436 29.4712L281.991 28.0888C280.143 30.0205 277.776 31 274.804 31V33ZM283.428 29.4793C285.741 27.1149 286.864 24.0248 286.864 20.31H284.864C284.864 23.5952 283.886 26.1517 281.999 28.0807L283.428 29.4793ZM286.864 20.31C286.864 16.5952 285.741 13.5051 283.428 11.1407L281.999 12.5393C283.886 14.4683 284.864 17.0248 284.864 20.31H286.864ZM283.436 11.1488C281.177 8.78721 278.271 7.62 274.804 7.62V9.62C277.776 9.62 280.143 10.5995 281.991 12.5312L283.436 11.1488ZM274.804 7.62C272.541 7.62 270.475 8.14993 268.63 9.22622L269.637 10.9538C271.152 10.0701 272.866 9.62 274.804 9.62V7.62ZM268.648 9.21584C266.795 10.2453 265.334 11.7382 264.268 13.6663L266.019 14.6337C266.913 13.0151 268.112 11.8014 269.619 10.9642L268.648 9.21584ZM264.268 13.6663C263.195 15.6089 262.674 17.8334 262.674 20.31H264.674C264.674 18.1199 265.132 16.2378 266.019 14.6337L264.268 13.6663ZM262.674 20.31C262.674 22.7866 263.195 25.0111 264.268 26.9537L266.019 25.9863C265.132 24.3822 264.674 22.5001 264.674 20.31H262.674ZM264.268 26.9537C265.332 28.878 266.787 30.389 268.63 31.4638L269.637 29.7362C268.12 28.851 266.915 27.6087 266.019 25.9863L264.268 26.9537ZM268.648 31.4742C270.49 32.4975 272.55 33 274.804 33V31C272.857 31 271.137 30.5691 269.619 29.7258L268.648 31.4742ZM321.662 13.94L321.655 14.94H321.662V13.94ZM332.582 17.16L331.934 17.9212L332.582 17.16ZM332.162 35.78L331.537 34.9991L331.531 35.0043L332.162 35.78ZM320.402 39.07L320.411 38.07L320.406 38.07L320.402 39.07ZM303.462 39H302.462V39.9959L303.458 40L303.462 39ZM303.462 1.62V0.619997H302.462V1.62H303.462ZM312.212 1.62H313.212V0.619997H312.212V1.62ZM312.212 13.87H311.212V14.8626L312.205 14.87L312.212 13.87ZM341.192 1.62V0.619997H340.192V1.62H341.192ZM349.942 1.62H350.942V0.619997H349.942V1.62ZM349.942 39V40H350.942V39H349.942ZM341.192 39H340.192V40H341.192V39ZM319.632 32.63L319.65 31.6301L319.641 31.63L319.632 32.63ZM325.582 21.5L324.982 22.3L325.582 21.5ZM319.632 19.96L319.65 18.9601L319.641 18.96L319.632 19.96ZM312.212 19.89L312.221 18.89L311.212 18.8805V19.89H312.212ZM312.212 32.56H311.212V33.5506L312.203 33.56L312.212 32.56ZM321.662 14.94C326.287 14.94 329.659 15.984 331.934 17.9212L333.23 16.3988C330.465 14.0426 326.558 12.94 321.662 12.94V14.94ZM331.934 17.9212C334.189 19.8424 335.362 22.5734 335.362 26.26H337.362C337.362 22.1066 336.015 18.7709 333.23 16.3988L331.934 17.9212ZM335.362 26.26C335.362 30.1126 334.064 32.9779 331.537 34.9991L332.787 36.5609C335.86 34.1021 337.362 30.6207 337.362 26.26H335.362ZM331.531 35.0043C329.023 37.045 325.364 38.1155 320.411 38.07L320.393 40.07C325.614 40.1179 329.795 38.995 332.793 36.5557L331.531 35.0043ZM320.406 38.07L303.466 38L303.458 40L320.398 40.07L320.406 38.07ZM304.462 39V1.62H302.462V39H304.462ZM303.462 2.62H312.212V0.619997H303.462V2.62ZM311.212 1.62V13.87H313.212V1.62H311.212ZM312.205 14.87L321.655 14.94L321.669 12.94L312.219 12.87L312.205 14.87ZM341.192 2.62H349.942V0.619997H341.192V2.62ZM348.942 1.62V39H350.942V1.62H348.942ZM349.942 38H341.192V40H349.942V38ZM342.192 39V1.62H340.192V39H342.192ZM319.614 33.6298C322.312 33.6789 324.543 33.1197 326.15 31.7904L324.874 30.2496C323.774 31.1603 322.086 31.6744 319.65 31.6302L319.614 33.6298ZM326.15 31.7904C327.783 30.4385 328.542 28.492 328.542 26.12H326.542C326.542 28.0413 325.948 29.3615 324.874 30.2496L326.15 31.7904ZM328.542 26.12C328.542 23.804 327.81 21.9212 326.182 20.7L324.982 22.3C325.967 23.0388 326.542 24.236 326.542 26.12H328.542ZM326.182 20.7C324.631 19.5366 322.399 19.0084 319.65 18.9602L319.615 20.9598C322.185 21.0049 323.92 21.5034 324.982 22.3L326.182 20.7ZM319.641 18.96L312.221 18.89L312.203 20.89L319.623 20.96L319.641 18.96ZM311.212 19.89V32.56H313.212V19.89H311.212ZM312.203 33.56L319.623 33.63L319.641 31.63L312.221 31.56L312.203 33.56Z" fill="white" fill-opacity="0.3"/>
</svg>
