<svg width="335" height="54" viewBox="0 0 335 54" fill="none" xmlns="http://www.w3.org/2000/svg">
<path d="M36.9886 1.62H37.9886V0.619997H36.9886V1.62ZM36.9886 39V40H37.9886V39H36.9886ZM28.3086 39H27.3086V40H28.3086V39ZM28.3086 9.04H29.3086V8.04H28.3086V9.04ZM9.89855 9.04V8.04H8.89855V9.04H9.89855ZM9.89855 39V40H10.8986V39H9.89855ZM1.14856 39H0.148555V40H1.14856V39ZM1.14856 1.62V0.619997H0.148555V1.62H1.14856ZM35.9886 1.62V39H37.9886V1.62H35.9886ZM36.9886 38H28.3086V40H36.9886V38ZM29.3086 39V9.04H27.3086V39H29.3086ZM28.3086 8.04H9.89855V10.04H28.3086V8.04ZM8.89855 9.04V39H10.8986V9.04H8.89855ZM9.89855 38H1.14856V40H9.89855V38ZM2.14856 39V1.62H0.148555V39H2.14856ZM1.14856 2.62H36.9886V0.619997H1.14856V2.62ZM79.245 3.58L78.7582 4.4535L78.7642 4.45681L79.245 3.58ZM86.035 10.3L86.9059 9.8084V9.8084L86.035 10.3ZM86.035 30.39L86.9059 30.8816L86.9092 30.8756L86.035 30.39ZM79.245 37.11L78.7642 36.2332L78.7582 36.2365L79.245 37.11ZM57.545 34.45L58.2976 33.7915L56.545 31.7886V34.45H57.545ZM57.545 52.58V53.58H58.545V52.58H57.545ZM48.795 52.58H47.795V53.58H48.795V52.58ZM48.795 1.62V0.619997H47.795V1.62H48.795ZM57.125 1.62H58.125V0.619997H57.125V1.62ZM57.125 6.52H56.125V9.32777L57.8999 7.15213L57.125 6.52ZM62.445 2.53L62.0633 1.60571L62.0561 1.60875L62.445 2.53ZM76.445 28.78L75.7302 28.0807L75.7224 28.0888L76.445 28.78ZM76.445 11.84L75.7224 12.5313L75.7302 12.5393L76.445 11.84ZM62.865 10.09L63.3507 10.9642L63.3599 10.9591L63.3689 10.9538L62.865 10.09ZM58.875 14.15L57.9998 13.6663L58.875 14.15ZM62.865 30.6L62.3612 31.4638L62.3702 31.4691L62.3794 31.4742L62.865 30.6ZM69.515 2.2C73.0049 2.2 76.0772 2.95914 78.7582 4.45348L79.7319 2.70652C76.7196 1.02752 73.3051 0.199999 69.515 0.199999V2.2ZM78.7642 4.45681C81.493 5.95325 83.6218 8.0593 85.1642 10.7916L86.9059 9.8084C85.1816 6.75403 82.7837 4.38008 79.7259 2.70318L78.7642 4.45681ZM85.1642 10.7916C86.7018 13.5153 87.485 16.6782 87.485 20.31H89.485C89.485 16.3818 88.635 12.8714 86.9059 9.8084L85.1642 10.7916ZM87.485 20.31C87.485 23.9415 86.7019 27.1306 85.1609 29.9044L86.9092 30.8756C88.6349 27.7694 89.485 24.2385 89.485 20.31H87.485ZM85.1642 29.8984C83.6218 32.6307 81.493 34.7367 78.7642 36.2332L79.7259 37.9868C82.7837 36.3099 85.1816 33.936 86.9059 30.8816L85.1642 29.8984ZM78.7582 36.2365C76.0772 37.7309 73.0049 38.49 69.515 38.49V40.49C73.3051 40.49 76.7196 39.6625 79.7319 37.9835L78.7582 36.2365ZM69.515 38.49C64.722 38.49 61.0221 36.9051 58.2976 33.7915L56.7925 35.1085C59.948 38.7149 64.2281 40.49 69.515 40.49V38.49ZM56.545 34.45V52.58H58.545V34.45H56.545ZM57.545 51.58H48.795V53.58H57.545V51.58ZM49.795 52.58V1.62H47.795V52.58H49.795ZM48.795 2.62H57.125V0.619997H48.795V2.62ZM56.125 1.62V6.52H58.125V1.62H56.125ZM57.8999 7.15213C59.2439 5.50467 60.8849 4.2742 62.834 3.45125L62.0561 1.60875C59.8052 2.55913 57.8995 3.98866 56.3502 5.88787L57.8999 7.15213ZM62.8268 3.45426C64.8403 2.62261 67.0656 2.2 69.515 2.2V0.199999C66.8312 0.199999 64.3431 0.664053 62.0633 1.60574L62.8268 3.45426ZM68.535 33C72.0025 33 74.9088 31.8328 77.1677 29.4712L75.7224 28.0888C73.8746 30.0205 71.5076 31 68.535 31V33ZM77.1599 29.4793C79.4728 27.1149 80.595 24.0248 80.595 20.31H78.595C78.595 23.5952 77.6172 26.1517 75.7302 28.0807L77.1599 29.4793ZM80.595 20.31C80.595 16.5952 79.4728 13.5051 77.1599 11.1407L75.7302 12.5393C77.6172 14.4683 78.595 17.0248 78.595 20.31H80.595ZM77.1677 11.1488C74.9088 8.78721 72.0025 7.62 68.535 7.62V9.62C71.5076 9.62 73.8746 10.5995 75.7224 12.5312L77.1677 11.1488ZM68.535 7.62C66.2726 7.62 64.2062 8.14993 62.3612 9.22622L63.3689 10.9538C64.8839 10.0701 66.5975 9.62 68.535 9.62V7.62ZM62.3794 9.21584C60.5264 10.2453 59.0653 11.7382 57.9998 13.6663L59.7503 14.6337C60.6447 13.0151 61.8437 11.8014 63.3507 10.9642L62.3794 9.21584ZM57.9998 13.6663C56.9263 15.6089 56.405 17.8334 56.405 20.31H58.405C58.405 18.1199 58.8638 16.2378 59.7503 14.6337L57.9998 13.6663ZM56.405 20.31C56.405 22.7866 56.9263 25.0111 57.9998 26.9537L59.7503 25.9863C58.8638 24.3822 58.405 22.5001 58.405 20.31H56.405ZM57.9998 26.9537C59.0632 28.878 60.5187 30.389 62.3612 31.4638L63.3689 29.7362C61.8514 28.851 60.6468 27.6087 59.7503 25.9863L57.9998 26.9537ZM62.3794 31.4742C64.2215 32.4975 66.2813 33 68.535 33V31C66.5888 31 64.8686 30.5691 63.3507 29.7258L62.3794 31.4742ZM97.1935 1.62V0.619997H96.1935V1.62H97.1935ZM105.943 1.62H106.943V0.619997H105.943V1.62ZM105.943 26.26H104.943V29.0101L106.71 26.9023L105.943 26.26ZM126.593 1.62V0.619997H126.127L125.827 0.977674L126.593 1.62ZM134.573 1.62H135.573V0.619997H134.573V1.62ZM134.573 39V40H135.573V39H134.573ZM125.823 39H124.823V40H125.823V39ZM125.823 14.36H126.823V11.6028L125.056 13.719L125.823 14.36ZM105.243 39V40H105.711L106.011 39.641L105.243 39ZM97.1935 39H96.1935V40H97.1935V39ZM97.1935 2.62H105.943V0.619997H97.1935V2.62ZM104.943 1.62V26.26H106.943V1.62H104.943ZM106.71 26.9023L127.36 2.26232L125.827 0.977674L105.177 25.6177L106.71 26.9023ZM126.593 2.62H134.573V0.619997H126.593V2.62ZM133.573 1.62V39H135.573V1.62H133.573ZM134.573 38H125.823V40H134.573V38ZM126.823 39V14.36H124.823V39H126.823ZM125.056 13.719L104.476 38.359L106.011 39.641L126.591 15.001L125.056 13.719ZM105.243 38H97.1935V40H105.243V38ZM98.1935 39V1.62H96.1935V39H98.1935ZM187.364 31.58H188.364V30.58H187.364V31.58ZM187.364 47.61V48.61H188.364V47.61H187.364ZM179.174 47.61H178.174V48.61H179.174V47.61ZM179.174 39H180.174V38H179.174V39ZM146.344 39H145.344V40H146.344V39ZM146.344 1.62V0.619997H145.344V1.62H146.344ZM155.094 1.62H156.094V0.619997H155.094V1.62ZM155.094 31.58H154.094V32.58H155.094V31.58ZM172.944 31.58V32.58H173.944V31.58H172.944ZM172.944 1.62V0.619997H171.944V1.62H172.944ZM181.694 1.62H182.694V0.619997H181.694V1.62ZM181.694 31.58H180.694V32.58H181.694V31.58ZM186.364 31.58V47.61H188.364V31.58H186.364ZM187.364 46.61H179.174V48.61H187.364V46.61ZM180.174 47.61V39H178.174V47.61H180.174ZM179.174 38H146.344V40H179.174V38ZM147.344 39V1.62H145.344V39H147.344ZM146.344 2.62H155.094V0.619997H146.344V2.62ZM154.094 1.62V31.58H156.094V1.62H154.094ZM155.094 32.58H172.944V30.58H155.094V32.58ZM173.944 31.58V1.62H171.944V31.58H173.944ZM172.944 2.62H181.694V0.619997H172.944V2.62ZM180.694 1.62V31.58H182.694V1.62H180.694ZM181.694 32.58H187.364V30.58H181.694V32.58ZM230.012 23.11V24.11H230.933L231.009 23.193L230.012 23.11ZM200.682 23.11V22.11H199.479L199.699 23.2933L200.682 23.11ZM204.672 29.69L204.067 30.4858L204.077 30.4931L204.086 30.5002L204.672 29.69ZM222.942 28.01L223.697 27.3536L222.987 26.5379L222.229 27.3091L222.942 28.01ZM227.632 33.4L228.399 34.0419L228.947 33.3875L228.387 32.7436L227.632 33.4ZM221.262 37.95L220.891 37.0215L221.262 37.95ZM201.732 37.04L201.269 37.9263L201.732 37.04ZM194.452 30.25L193.584 30.7461L193.589 30.7543L193.594 30.7625L194.452 30.25ZM194.382 10.51L193.514 10.0139L193.512 10.0184L194.382 10.51ZM201.312 3.65L201.798 4.52416V4.52416L201.312 3.65ZM220.982 3.65L220.485 4.51737L220.493 4.52217L220.502 4.52681L220.982 3.65ZM227.702 10.44L226.822 10.9149L226.827 10.9233L226.832 10.9316L227.702 10.44ZM204.112 10.72L204.762 11.4806L204.763 11.4793L204.112 10.72ZM200.612 17.3L199.624 17.1492L199.448 18.3H200.612V17.3ZM221.822 17.3V18.3H222.97L222.813 17.1634L221.822 17.3ZM218.392 10.72L217.733 11.4714L218.392 10.72ZM229.152 20.52C229.152 21.0848 229.109 21.9156 229.016 23.027L231.009 23.193C231.103 22.0644 231.152 21.1685 231.152 20.52H229.152ZM230.012 22.11H200.682V24.11H230.012V22.11ZM199.699 23.2933C200.256 26.2803 201.715 28.696 204.067 30.4858L205.278 28.8942C203.337 27.4173 202.135 25.4464 201.666 22.9267L199.699 23.2933ZM204.086 30.5002C206.481 32.2323 209.403 33.07 212.792 33.07V31.07C209.742 31.07 207.251 30.3211 205.259 28.8798L204.086 30.5002ZM212.792 33.07C217.143 33.07 220.791 31.6256 223.656 28.7109L222.229 27.3091C219.774 29.8077 216.655 31.07 212.792 31.07V33.07ZM222.188 28.6664L226.878 34.0564L228.387 32.7436L223.697 27.3536L222.188 28.6664ZM226.866 32.7581C225.298 34.6308 223.313 36.0527 220.891 37.0215L221.634 38.8785C224.345 37.794 226.607 36.1825 228.399 34.0419L226.866 32.7581ZM220.891 37.0215C218.46 37.9938 215.696 38.49 212.582 38.49V40.49C215.909 40.49 218.931 39.9595 221.634 38.8785L220.891 37.0215ZM212.582 38.49C208.611 38.49 205.157 37.7009 202.195 36.1537L201.269 37.9263C204.561 39.6457 208.341 40.49 212.582 40.49V38.49ZM202.195 36.1537C199.225 34.6017 196.939 32.4644 195.311 29.7375L193.594 30.7625C195.42 33.8222 197.987 36.2116 201.269 37.9263L202.195 36.1537ZM195.321 29.7539C193.735 26.9782 192.932 23.8385 192.932 20.31H190.932C190.932 24.1548 191.81 27.6418 193.584 30.7461L195.321 29.7539ZM192.932 20.31C192.932 16.8254 193.713 13.7309 195.253 11.0016L193.512 10.0184C191.786 13.0758 190.932 16.5146 190.932 20.31H192.932ZM195.251 11.0061C196.841 8.22358 199.019 6.06815 201.798 4.52416L200.827 2.77584C197.726 4.49851 195.284 6.91642 193.514 10.0139L195.251 11.0061ZM201.798 4.52416C204.576 2.98112 207.719 2.2 211.252 2.2V0.199999C207.413 0.199999 203.929 1.05221 200.827 2.77584L201.798 4.52416ZM211.252 2.2C214.737 2.2 217.806 2.98016 220.485 4.51737L221.48 2.78263C218.466 1.05317 215.048 0.199999 211.252 0.199999V2.2ZM220.502 4.52681C223.224 6.01958 225.326 8.14233 226.822 10.9149L228.582 9.96507C226.905 6.85767 224.528 4.45375 221.463 2.77319L220.502 4.52681ZM226.832 10.9316C228.368 13.6535 229.152 16.8391 229.152 20.52H231.152C231.152 16.5475 230.303 13.0132 228.573 9.9484L226.832 10.9316ZM211.252 7.2C208.236 7.2 205.619 8.11178 203.462 9.96074L204.763 11.4793C206.526 9.96822 208.669 9.2 211.252 9.2V7.2ZM203.463 9.95943C201.347 11.7657 200.076 14.1858 199.624 17.1492L201.601 17.4508C201.989 14.9076 203.051 12.9409 204.762 11.4806L203.463 9.95943ZM200.612 18.3H221.822V16.3H200.612V18.3ZM222.813 17.1634C222.41 14.2375 221.16 11.8192 219.052 9.96856L217.733 11.4714C219.452 12.9808 220.489 14.9492 220.832 17.4366L222.813 17.1634ZM219.052 9.96856C216.935 8.10917 214.311 7.2 211.252 7.2V9.2C213.887 9.2 216.024 9.97083 217.733 11.4714L219.052 9.96856ZM275.563 1.62H276.563V0.619997H275.563V1.62ZM275.563 39V40H276.563V39H275.563ZM266.883 39H265.883V40H266.883V39ZM266.883 9.04H267.883V8.04H266.883V9.04ZM248.473 9.04V8.04H247.473V9.04H248.473ZM248.473 39V40H249.473V39H248.473ZM239.723 39H238.723V40H239.723V39ZM239.723 1.62V0.619997H238.723V1.62H239.723ZM274.563 1.62V39H276.563V1.62H274.563ZM275.563 38H266.883V40H275.563V38ZM267.883 39V9.04H265.883V39H267.883ZM266.883 8.04H248.473V10.04H266.883V8.04ZM247.473 9.04V39H249.473V9.04H247.473ZM248.473 38H239.723V40H248.473V38ZM240.723 39V1.62H238.723V39H240.723ZM239.723 2.62H275.563V0.619997H239.723V2.62ZM305.569 13.94L305.562 14.94H305.569V13.94ZM316.489 17.16L315.841 17.9212L316.489 17.16ZM316.069 35.78L315.445 34.9991L315.438 35.0043L316.069 35.78ZM304.309 39.07L304.318 38.07L304.313 38.07L304.309 39.07ZM287.369 39H286.369V39.9959L287.365 40L287.369 39ZM287.369 1.62V0.619997H286.369V1.62H287.369ZM296.119 1.62H297.119V0.619997H296.119V1.62ZM296.119 13.87H295.119V14.8626L296.112 14.87L296.119 13.87ZM325.099 1.62V0.619997H324.099V1.62H325.099ZM333.849 1.62H334.849V0.619997H333.849V1.62ZM333.849 39V40H334.849V39H333.849ZM325.099 39H324.099V40H325.099V39ZM303.539 32.63L303.557 31.6301L303.549 31.63L303.539 32.63ZM309.489 21.5L308.889 22.3L309.489 21.5ZM303.539 19.96L303.557 18.9601L303.549 18.96L303.539 19.96ZM296.119 19.89L296.129 18.89L295.119 18.8805V19.89H296.119ZM296.119 32.56H295.119V33.5506L296.11 33.56L296.119 32.56ZM305.569 14.94C310.194 14.94 313.567 15.984 315.841 17.9212L317.138 16.3988C314.372 14.0426 310.465 12.94 305.569 12.94V14.94ZM315.841 17.9212C318.096 19.8424 319.269 22.5734 319.269 26.26H321.269C321.269 22.1066 319.922 18.7709 317.138 16.3988L315.841 17.9212ZM319.269 26.26C319.269 30.1126 317.971 32.9779 315.445 34.9991L316.694 36.5609C319.767 34.1021 321.269 30.6207 321.269 26.26H319.269ZM315.438 35.0043C312.93 37.045 309.271 38.1155 304.318 38.07L304.3 40.07C309.521 40.1179 313.702 38.995 316.7 36.5557L315.438 35.0043ZM304.313 38.07L287.373 38L287.365 40L304.305 40.07L304.313 38.07ZM288.369 39V1.62H286.369V39H288.369ZM287.369 2.62H296.119V0.619997H287.369V2.62ZM295.119 1.62V13.87H297.119V1.62H295.119ZM296.112 14.87L305.562 14.94L305.577 12.94L296.127 12.87L296.112 14.87ZM325.099 2.62H333.849V0.619997H325.099V2.62ZM332.849 1.62V39H334.849V1.62H332.849ZM333.849 38H325.099V40H333.849V38ZM326.099 39V1.62H324.099V39H326.099ZM303.521 33.6298C306.219 33.6789 308.451 33.1197 310.057 31.7904L308.782 30.2496C307.681 31.1603 305.993 31.6744 303.557 31.6302L303.521 33.6298ZM310.057 31.7904C311.69 30.4385 312.449 28.492 312.449 26.12H310.449C310.449 28.0413 309.855 29.3615 308.782 30.2496L310.057 31.7904ZM312.449 26.12C312.449 23.804 311.717 21.9212 310.089 20.7L308.889 22.3C309.874 23.0388 310.449 24.236 310.449 26.12H312.449ZM310.089 20.7C308.538 19.5366 306.306 19.0084 303.557 18.9602L303.522 20.9598C306.092 21.0049 307.827 21.5034 308.889 22.3L310.089 20.7ZM303.549 18.96L296.129 18.89L296.11 20.89L303.53 20.96L303.549 18.96ZM295.119 19.89V32.56H297.119V19.89H295.119ZM296.11 33.56L303.53 33.63L303.549 31.63L296.129 31.56L296.11 33.56Z" fill="white" fill-opacity="0.3"/>
</svg>
