<svg width="122" height="59" viewBox="0 0 122 59" fill="none" xmlns="http://www.w3.org/2000/svg">
<path d="M21.82 1.48V0.479996H21.1107L20.8762 1.14938L21.82 1.48ZM30.16 1.48L31.1038 1.81061L31.5699 0.479996H30.16V1.48ZM10.36 58V59H11.0693L11.3038 58.3306L10.36 58ZM2.02 58L1.07624 57.6694L0.610095 59H2.02V58ZM21.82 2.48H30.16V0.479996H21.82V2.48ZM29.2162 1.14938L9.41624 57.6694L11.3038 58.3306L31.1038 1.81061L29.2162 1.14938ZM10.36 57H2.02V59H10.36V57ZM2.96376 58.3306L22.7638 1.81061L20.8762 1.14938L1.07624 57.6694L2.96376 58.3306ZM37.3642 50.14L37.8987 49.2948L37.3642 50.14ZM30.9442 42.7L30.0369 43.1205L30.04 43.1272L30.0432 43.1338L30.9442 42.7ZM30.9442 19.36L30.0411 18.9305L30.0389 18.9353L30.9442 19.36ZM37.3642 11.86L37.8987 12.7052L37.3642 11.86ZM55.9642 11.86L55.4298 12.7052L55.9642 11.86ZM62.3242 19.36L61.4169 19.7805L61.42 19.7872L61.4232 19.7938L62.3242 19.36ZM62.3242 42.7L61.4211 42.2705L61.4189 42.2753L62.3242 42.7ZM55.9642 50.14L55.4298 49.2948L55.9642 50.14ZM52.6642 41.2L51.8344 40.6418L51.8275 40.6523L52.6642 41.2ZM52.6642 20.8L51.8274 21.3477L51.8345 21.3582L52.6642 20.8ZM40.6642 20.8L39.8344 20.2418L39.8275 20.2523L40.6642 20.8ZM40.6642 41.2L39.8274 41.7477L39.8345 41.7582L40.6642 41.2ZM46.6642 51.72C43.3574 51.72 40.4457 50.9054 37.8987 49.2948L36.8298 50.9852C39.7227 52.8146 43.011 53.72 46.6642 53.72V51.72ZM37.8987 49.2948C35.3551 47.6864 33.3338 45.3578 31.8452 42.2662L30.0432 43.1338C31.6746 46.5222 33.9334 49.1536 36.8298 50.9852L37.8987 49.2948ZM31.8515 42.2795C30.4059 39.16 29.6642 35.4101 29.6642 31H27.6642C27.6642 35.6299 28.4426 39.68 30.0369 43.1205L31.8515 42.2795ZM29.6642 31C29.6642 26.5894 30.406 22.8616 31.8495 19.7847L30.0389 18.9353C28.4424 22.3384 27.6642 26.3706 27.6642 31H29.6642ZM31.8473 19.7895C33.3369 16.6575 35.3582 14.3117 37.8987 12.7052L36.8298 11.0148C33.9302 12.8483 31.6716 15.5025 30.0412 18.9305L31.8473 19.7895ZM37.8987 12.7052C40.4457 11.0946 43.3574 10.28 46.6642 10.28V8.28C43.011 8.28 39.7227 9.18544 36.8298 11.0148L37.8987 12.7052ZM46.6642 10.28C49.971 10.28 52.8827 11.0946 55.4298 12.7052L56.4987 11.0148C53.6057 9.18544 50.3174 8.28 46.6642 8.28V10.28ZM55.4298 12.7052C57.9677 14.3101 59.9675 16.6527 61.4169 19.7805L63.2315 18.9395C61.641 15.5073 59.4007 12.8499 56.4987 11.0148L55.4298 12.7052ZM61.4232 19.7938C62.9035 22.8683 63.6642 26.5927 63.6642 31H65.6642C65.6642 26.3673 64.8649 22.3317 63.2252 18.9262L61.4232 19.7938ZM63.6642 31C63.6642 35.4068 62.9037 39.1534 61.4212 42.2705L63.2273 43.1295C64.8647 39.6866 65.6642 35.6332 65.6642 31H63.6642ZM61.4189 42.2753C59.9705 45.3626 57.9709 47.6879 55.4298 49.2948L56.4987 50.9852C59.3976 49.1521 61.6379 46.5174 63.2295 43.1247L61.4189 42.2753ZM55.4298 49.2948C52.8827 50.9054 49.971 51.72 46.6642 51.72V53.72C50.3174 53.72 53.6057 52.8146 56.4987 50.9852L55.4298 49.2948ZM46.6642 45.5C49.5724 45.5 51.8822 44.2207 53.5009 41.7477L51.8275 40.6523C50.5662 42.5793 48.876 43.5 46.6642 43.5V45.5ZM53.4939 41.7582C55.14 39.3114 55.8842 35.6697 55.8842 31H53.8842C53.8842 35.5303 53.1485 38.6886 51.8345 40.6418L53.4939 41.7582ZM55.8842 31C55.8842 26.3303 55.14 22.6886 53.4939 20.2418L51.8345 21.3582C53.1485 23.3114 53.8842 26.4697 53.8842 31H55.8842ZM53.5009 20.2523C51.8822 17.7793 49.5724 16.5 46.6642 16.5V18.5C48.876 18.5 50.5662 19.4207 51.8275 21.3477L53.5009 20.2523ZM46.6642 16.5C43.7912 16.5 41.4887 17.7828 39.8345 20.2418L41.4939 21.3582C42.7997 19.4172 44.4973 18.5 46.6642 18.5V16.5ZM39.8275 20.2523C38.2276 22.6966 37.5042 26.3335 37.5042 31H39.5042C39.5042 26.4665 40.2208 23.3034 41.5009 21.3477L39.8275 20.2523ZM37.5042 31C37.5042 35.6665 38.2276 39.3034 39.8275 41.7477L41.5009 40.6523C40.2208 38.6966 39.5042 35.5335 39.5042 31H37.5042ZM39.8345 41.7582C41.4887 44.2172 43.7912 45.5 46.6642 45.5V43.5C44.4973 43.5 42.7997 42.5828 41.4939 40.6418L39.8345 41.7582ZM98.1269 29.92L97.6124 29.0625L96.0503 29.9997L97.6797 30.8144L98.1269 29.92ZM102.867 34L102.026 34.5408L102.03 34.5478L102.035 34.5547L102.867 34ZM102.327 46.66L103.119 47.2705L103.125 47.2626L102.327 46.66ZM96.0869 51.16L96.4487 52.0923L96.4607 52.0875L96.0869 51.16ZM77.4869 51.16L77.1082 52.0855L77.1166 52.089L77.1251 52.0923L77.4869 51.16ZM71.3069 46.66L70.501 47.2521L70.5078 47.2614L70.5149 47.2705L71.3069 46.66ZM70.7669 34L69.9348 33.4453L69.9302 33.4522L69.9257 33.4592L70.7669 34ZM75.5069 29.92L75.9611 30.8109L77.548 30.0019L76.031 29.0683L75.5069 29.92ZM71.9069 26.32L71.0371 26.8136L71.0431 26.8239L71.9069 26.32ZM78.3869 10.78L78.753 11.7107L78.7661 11.7053L78.3869 10.78ZM95.2469 10.78L94.8677 11.7053L94.8767 11.709L94.8859 11.7126L95.2469 10.78ZM101.007 14.92L101.805 14.3172L101.007 14.92ZM101.787 26.32L102.651 26.8239L102.657 26.8136L101.787 26.32ZM82.0469 17.86L82.6683 18.6435L82.6716 18.6409L82.0469 17.86ZM82.0469 25.48L81.4255 26.2635L82.0469 25.48ZM91.5869 17.86L90.9622 18.6409L90.9702 18.6473L90.9784 18.6536L91.5869 17.86ZM92.5469 43.96L93.1577 44.7518L93.1608 44.7494L92.5469 43.96ZM92.5469 35.14L91.936 35.9319L91.9469 35.94L92.5469 35.14ZM81.0869 35.14L80.4761 34.3482L81.0869 35.14ZM81.0869 43.96L80.4761 44.7518L81.0869 43.96ZM97.6797 30.8144C99.6257 31.7874 101.058 33.0352 102.026 34.5408L103.708 33.4592C102.516 31.6048 100.788 30.1325 98.5741 29.0256L97.6797 30.8144ZM102.035 34.5547C103.035 36.0557 103.547 37.799 103.547 39.82H105.547C105.547 37.441 104.938 35.3043 103.699 33.4453L102.035 34.5547ZM103.547 39.82C103.547 42.2161 102.87 44.2815 101.529 46.0574L103.125 47.2626C104.744 45.1185 105.547 42.6239 105.547 39.82H103.547ZM101.535 46.0495C100.183 47.8036 98.2598 49.2062 95.7131 50.2325L96.4607 52.0875C99.274 50.9538 101.511 49.3564 103.119 47.2705L101.535 46.0495ZM95.7251 50.2277C93.1831 51.2142 90.2101 51.72 86.7869 51.72V53.72C90.4037 53.72 93.6306 53.1858 96.4487 52.0923L95.7251 50.2277ZM86.7869 51.72C83.3637 51.72 80.3906 51.2142 77.8486 50.2277L77.1251 52.0923C79.9431 53.1858 83.1701 53.72 86.7869 53.72V51.72ZM77.8655 50.2345C75.3596 49.2093 73.4536 47.807 72.0989 46.0495L70.5149 47.2705C72.1201 49.353 74.3341 50.9507 77.1082 52.0855L77.8655 50.2345ZM72.1128 46.0679C70.8078 44.2917 70.1469 42.2226 70.1469 39.82H68.1469C68.1469 42.6174 68.9259 45.1083 70.501 47.2521L72.1128 46.0679ZM70.1469 39.82C70.1469 37.7916 70.6422 36.0433 71.6081 34.5408L69.9257 33.4592C68.7316 35.3167 68.1469 37.4484 68.1469 39.82H70.1469ZM71.5989 34.5547C72.6117 33.0355 74.053 31.7837 75.9611 30.8109L75.0527 29.0291C72.8808 30.1363 71.162 31.6045 69.9348 33.4453L71.5989 34.5547ZM76.031 29.0683C74.597 28.1859 73.5198 27.1004 72.7707 25.8161L71.0431 26.8239C71.974 28.4196 73.2968 29.7341 74.9828 30.7717L76.031 29.0683ZM72.7766 25.8264C72.0307 24.5122 71.6469 23.0055 71.6469 21.28H69.6469C69.6469 23.3145 70.1031 25.1678 71.0372 26.8136L72.7766 25.8264ZM71.6469 21.28C71.6469 19.0387 72.2668 17.1348 73.4847 15.5228L71.889 14.3172C70.3869 16.3052 69.6469 18.6413 69.6469 21.28H71.6469ZM73.4847 15.5228C74.7168 13.8922 76.4561 12.6143 78.753 11.7106L78.0208 9.84943C75.4377 10.8657 73.377 12.3478 71.889 14.3172L73.4847 15.5228ZM78.7661 11.7053C81.0644 10.7634 83.7317 10.28 86.7869 10.28V8.28C83.522 8.28 80.5893 8.79663 78.0077 9.85469L78.7661 11.7053ZM86.7869 10.28C89.8839 10.28 92.5707 10.7639 94.8677 11.7053L95.6261 9.85469C93.043 8.79605 90.0899 8.28 86.7869 8.28V10.28ZM94.8859 11.7126C97.2238 12.6176 98.9798 13.896 100.209 15.5228L101.805 14.3172C100.314 12.344 98.2299 10.8624 95.6079 9.84743L94.8859 11.7126ZM100.209 15.5228C101.427 17.1348 102.047 19.0387 102.047 21.28H104.047C104.047 18.6413 103.307 16.3052 101.805 14.3172L100.209 15.5228ZM102.047 21.28C102.047 23.0055 101.663 24.5122 100.917 25.8264L102.657 26.8136C103.591 25.1678 104.047 23.3145 104.047 21.28H102.047ZM100.923 25.8161C100.178 27.0941 99.0856 28.1786 97.6124 29.0625L98.6414 30.7775C100.368 29.7414 101.716 28.4259 102.651 26.8239L100.923 25.8161ZM86.7869 15.42C84.6634 15.42 82.8435 15.9421 81.4222 17.0791L82.6716 18.6409C83.6503 17.8579 84.9904 17.42 86.7869 17.42V15.42ZM81.4255 17.0765C79.9984 18.2083 79.3069 19.7922 79.3069 21.7H81.3069C81.3069 20.3278 81.7754 19.3517 82.6683 18.6435L81.4255 17.0765ZM79.3069 21.7C79.3069 23.577 80.005 25.1369 81.4255 26.2635L82.6683 24.6965C81.7688 23.9831 81.3069 23.023 81.3069 21.7H79.3069ZM81.4255 26.2635C82.8154 27.3659 84.64 27.86 86.7869 27.86V25.86C84.9337 25.86 83.5983 25.4341 82.6683 24.6965L81.4255 26.2635ZM86.7869 27.86C88.936 27.86 90.7718 27.365 92.1953 26.2736L90.9784 24.6864C90.002 25.435 88.6378 25.86 86.7869 25.86V27.86ZM92.1953 26.2736C93.6584 25.1519 94.3869 23.59 94.3869 21.7H92.3869C92.3869 23.01 91.9154 23.9681 90.9784 24.6864L92.1953 26.2736ZM94.3869 21.7C94.3869 19.7793 93.6653 18.1934 92.1953 17.0664L90.9784 18.6536C91.9085 19.3666 92.3869 20.3407 92.3869 21.7H94.3869ZM92.2116 17.0791C90.7869 15.9394 88.9448 15.42 86.7869 15.42V17.42C88.6289 17.42 89.9868 17.8606 90.9622 18.6409L92.2116 17.0791ZM86.7869 46.58C89.3652 46.58 91.5269 46.0098 93.1577 44.7518L91.9361 43.1682C90.7668 44.0702 89.0885 44.58 86.7869 44.58V46.58ZM93.1608 44.7494C94.8469 43.438 95.7069 41.6655 95.7069 39.52H93.7069C93.7069 41.0545 93.1269 42.242 91.9329 43.1706L93.1608 44.7494ZM95.7069 39.52C95.7069 37.3735 94.8452 35.6137 93.1469 34.34L91.9469 35.94C93.1286 36.8263 93.7069 37.9865 93.7069 39.52H95.7069ZM93.1577 34.3482C91.5269 33.0902 89.3652 32.52 86.7869 32.52V34.52C89.0885 34.52 90.7668 35.0298 91.9361 35.9318L93.1577 34.3482ZM86.7869 32.52C84.2441 32.52 82.1043 33.0922 80.4761 34.3482L81.6977 35.9318C82.8695 35.0278 84.5297 34.52 86.7869 34.52V32.52ZM80.4761 34.3482C78.8192 35.6264 77.9869 37.3847 77.9869 39.52H79.9869C79.9869 37.9753 80.5545 36.8136 81.6977 35.9318L80.4761 34.3482ZM77.9869 39.52C77.9869 41.6873 78.8132 43.469 80.4761 44.7518L81.6977 43.1682C80.5606 42.291 79.9869 41.1127 79.9869 39.52H77.9869ZM80.4761 44.7518C82.1043 46.0078 84.2441 46.58 86.7869 46.58V44.58C84.5297 44.58 82.8695 44.0722 81.6977 43.1682L80.4761 44.7518ZM110.962 50.8L111.669 50.0929L110.962 50.8ZM110.962 42.46L111.643 43.1928L111.65 43.1864L111.656 43.1798L110.962 42.46ZM119.242 42.46L118.548 43.1798L118.555 43.1864L118.562 43.1928L119.242 42.46ZM119.242 50.8L118.535 50.0929L119.242 50.8ZM115.102 51.48C113.717 51.48 112.594 51.0181 111.669 50.0929L110.255 51.5071C111.57 52.8219 113.207 53.48 115.102 53.48V51.48ZM111.669 50.0929C110.749 49.1727 110.282 48.0326 110.282 46.6H108.282C108.282 48.5274 108.935 50.1873 110.255 51.5071L111.669 50.0929ZM110.282 46.6C110.282 45.1196 110.753 44.0189 111.643 43.1928L110.282 41.7272C108.931 42.9811 108.282 44.6404 108.282 46.6H110.282ZM111.656 43.1798C112.579 42.29 113.706 41.84 115.102 41.84V39.84C113.219 39.84 111.585 40.47 110.268 41.7402L111.656 43.1798ZM115.102 41.84C116.499 41.84 117.625 42.29 118.548 43.1798L119.936 41.7402C118.619 40.47 116.986 39.84 115.102 39.84V41.84ZM118.562 43.1928C119.451 44.0189 119.922 45.1196 119.922 46.6H121.922C121.922 44.6404 121.273 42.9811 119.923 41.7272L118.562 43.1928ZM119.922 46.6C119.922 48.0326 119.455 49.1727 118.535 50.0929L119.949 51.5071C121.269 50.1873 121.922 48.5274 121.922 46.6H119.922ZM118.535 50.0929C117.61 51.0181 116.487 51.48 115.102 51.48V53.48C116.997 53.48 118.634 52.8219 119.949 51.5071L118.535 50.0929Z" fill="#445066" fill-opacity="0.7"/>
</svg>
