<svg width="67" height="67" viewBox="0 0 67 67" fill="none" xmlns="http://www.w3.org/2000/svg">
<path d="M67 33.5C67 42.3848 63.4705 50.9056 57.1881 57.1881C50.9056 63.4705 42.3848 67 33.5 67C24.6152 67 16.0944 63.4705 9.81192 57.1881C3.52945 50.9056 0 42.3848 0 33.5C0 24.6152 3.52945 16.0944 9.81192 9.81192C16.0944 3.52945 24.6152 0 33.5 0C42.3848 0 50.9056 3.52945 57.1881 9.81192C63.4705 16.0944 67 24.6152 67 33.5ZM34.7018 24.7314C31.4439 26.0881 24.9282 28.8937 15.1629 33.1483C13.5801 33.7764 12.7467 34.3961 12.6714 34.9991C12.5457 36.0167 13.8229 36.4187 15.5608 36.9673L16.2936 37.1976C18.0021 37.7545 20.3052 38.4036 21.4986 38.4287C22.5874 38.4538 23.7976 38.0099 25.1334 37.0887C34.2579 30.9289 38.9689 27.8176 39.262 27.7506C39.4714 27.7003 39.7645 27.6417 39.9571 27.8176C40.1539 27.9893 40.133 28.3201 40.1121 28.408C39.9864 28.9482 34.974 33.6047 32.3819 36.0167C31.5737 36.7704 31.0001 37.3022 30.8828 37.4237C30.6246 37.6876 30.3622 37.9472 30.0956 38.2026C28.5043 39.7352 27.3151 40.8826 30.1584 42.7586C31.5277 43.6631 32.6248 44.4042 33.7178 45.1496C34.907 45.962 36.0962 46.7702 37.6372 47.7836C38.0267 48.0348 38.4036 48.307 38.7679 48.5666C40.1539 49.5549 41.406 50.4426 42.9428 50.3003C43.8389 50.2165 44.7644 49.379 45.2334 46.8665C46.3431 40.9328 48.5247 28.0814 49.0273 22.7842C49.0579 22.3438 49.0397 21.9014 48.9728 21.4651C48.9334 21.113 48.763 20.7887 48.4954 20.5564C48.1144 20.2934 47.6602 20.1572 47.1973 20.167C45.9411 20.1879 44.0022 20.8621 34.7018 24.7314Z" fill="#445066"/>
</svg>
