<svg width="67" height="67" viewBox="0 0 67 67" fill="none" xmlns="http://www.w3.org/2000/svg">
<path d="M0.0134448 67L4.54264 50.3572C1.55826 45.2412 -0.00968361 39.4227 4.4998e-05 33.5C4.4998e-05 14.9979 14.998 0 33.5 0C52.0021 0 67 14.9979 67 33.5C67 52.002 52.0021 67 33.5 67C27.5798 67.0095 21.7638 65.4428 16.6495 62.4607L0.0134448 67ZM21.4099 17.7818C20.9773 17.8086 20.5545 17.9226 20.167 18.1168C19.8036 18.3226 19.4719 18.5798 19.1821 18.8806C18.7801 19.2591 18.5523 19.5874 18.3078 19.9057C17.0697 21.517 16.4037 23.4949 16.415 25.527C16.4217 27.1685 16.8505 28.7664 17.5205 30.2605C18.8907 33.2822 21.1452 36.4815 24.1234 39.4462C24.8403 40.1598 25.5404 40.8767 26.2942 41.5433C29.9905 44.7977 34.3953 47.1447 39.1582 48.3974L41.0643 48.6889C41.6841 48.7224 42.3038 48.6755 42.9269 48.6453C43.9026 48.595 44.8552 48.3308 45.7175 47.8715C46.1562 47.6455 46.5843 47.3996 47.0005 47.1345C47.0005 47.1345 47.1446 47.0407 47.4193 46.833C47.8715 46.498 48.1496 46.2601 48.5248 45.8682C48.8028 45.5801 49.044 45.2417 49.2283 44.8565C49.4896 44.3104 49.7509 43.2686 49.8581 42.4009C49.9385 41.7376 49.915 41.3758 49.905 41.1514C49.8916 40.7929 49.5934 40.4211 49.2685 40.2636L47.3188 39.3893C47.3188 39.3893 44.4043 38.1196 42.6254 37.3089C42.4379 37.2272 42.2369 37.1806 42.0325 37.1716C41.8033 37.148 41.5717 37.1738 41.3533 37.2472C41.1348 37.3206 40.9347 37.4399 40.7662 37.597V37.5903C40.7494 37.5903 40.525 37.7813 38.1029 40.7159C37.9639 40.9027 37.7724 41.0438 37.5529 41.1214C37.3333 41.199 37.0956 41.2094 36.8701 41.1514C36.6518 41.093 36.438 41.0191 36.2303 40.9303C35.8149 40.7561 35.6708 40.6891 35.3861 40.5651L35.3693 40.5584C33.4528 39.7217 31.6784 38.5915 30.1098 37.2084C29.6877 36.8399 29.2958 36.4379 28.8938 36.0493C27.5758 34.7872 26.4272 33.3593 25.4768 31.8015L25.2791 31.4833C25.1372 31.2694 25.0224 31.0387 24.9374 30.7965C24.8101 30.3041 25.1418 29.9088 25.1418 29.9088C25.1418 29.9088 25.9558 29.0177 26.3344 28.5353C26.6496 28.1344 26.9437 27.7173 27.2154 27.2857C27.6107 26.6492 27.7347 25.996 27.527 25.4901C26.589 23.1987 25.6175 20.9174 24.6192 18.6528C24.4215 18.2039 23.8353 17.8823 23.3026 17.8186C23.1217 17.7985 22.9408 17.7784 22.7599 17.765C22.31 17.7427 21.8592 17.7472 21.4099 17.7784V17.7818Z" fill="#446645"/>
</svg>
