<svg width="22" height="24" viewBox="0 0 22 24" fill="none" xmlns="http://www.w3.org/2000/svg">
<path fill-rule="evenodd" clip-rule="evenodd" d="M14.4341 3.01346C10.7018 1.63684 7.93631 2.77813 6.2065 6.27504L9.87566 7.88249C10.4633 6.66612 11.5884 6.05723 12.989 6.50838C14.3639 6.95111 15.4809 7.79859 15.4813 8.82666C15.4817 9.9372 14.0904 10.618 13.4553 10.8814C12.2792 11.3704 10.699 11.4108 9.6212 12.0222C8.56486 12.6212 7.9329 13.7414 7.25319 15.1535L10.487 16.5702C10.9341 15.6728 11.3828 14.8222 12.0679 14.4429C13.1819 13.827 14.4298 13.8564 15.6366 13.5133C16.7897 13.1851 18.0496 12.7327 18.7722 11.4948C20.9364 7.79045 18.4223 4.48363 14.4341 3.01346Z" fill="white"/>
<path d="M6.65205 21.0032C7.77962 21.4972 9.07166 21.0349 9.53789 19.9707C10.0041 18.9065 9.468 17.6433 8.34043 17.1493C7.21285 16.6553 5.92082 17.1176 5.45459 18.1818C4.98835 19.246 5.52448 20.5092 6.65205 21.0032Z" fill="white"/>
</svg>
