<svg width="25" height="25" viewBox="0 0 25 25" fill="none" xmlns="http://www.w3.org/2000/svg">
<path d="M22.6974 8.88282L10.5219 1.8533C9.68487 1.37002 8.60459 1.65948 8.12131 2.49655L0.213099 16.194L5.01435 14.9075L15.6679 21.0583C16.505 21.5416 17.5852 21.2521 18.0685 20.4151L23.3407 11.2834C23.8239 10.4464 23.5345 9.3661 22.6974 8.88282ZM16.5466 19.5364L5.26144 13.0209L3.85707 13.3972L9.64325 3.37524L21.8187 10.4048L16.5466 19.5364Z" fill="white"/>
<path d="M10.4746 15.0847L13.1763 13.1644L16.4762 13.4766L14.5558 10.7749L14.8681 7.47505L12.1664 9.3954L8.86651 9.08316L10.7869 11.7848L10.4746 15.0847Z" fill="white"/>
</svg>
