<svg width="25" height="25" viewBox="0 0 25 25" fill="none" xmlns="http://www.w3.org/2000/svg">
<path d="M12.0692 12.1385C13.2827 9.99562 14.8145 8.2033 16.3822 7.09171C17.829 6.06579 19.1567 5.75049 20.0247 6.22645C20.8927 6.70241 21.3185 7.97937 21.1932 9.72978C21.0574 11.6266 20.3143 13.8513 19.1008 15.9942C17.8874 18.1371 16.3556 19.9295 14.7878 21.0411C13.341 22.0669 12.0134 22.3823 11.1454 21.9063C11.1284 21.897 11.1118 21.8868 11.0952 21.8769C11.0717 21.8573 11.0464 21.8399 11.0195 21.8251L10.9869 21.8072C10.2259 21.2681 9.85912 20.0436 9.97671 18.4029C10.1126 16.5062 10.8557 14.2814 12.0692 12.1385ZM12.3542 16.1078C12.1616 17.5136 12.6791 18.1146 13.1471 18.3712C13.615 18.6278 14.4068 18.7448 15.5202 17.8439C16.2442 17.2581 16.9942 16.3153 17.632 15.1888C18.2699 14.0624 18.6902 12.9387 18.8155 12.0248C19.0081 10.619 18.4906 10.0179 18.0226 9.76136C17.5547 9.50477 16.7628 9.38779 15.6495 10.2887C14.9255 10.8744 14.1755 11.8173 13.5376 12.9437C12.8997 14.0701 12.4795 15.1938 12.3542 16.1078Z" fill="white"/>
<path d="M7.91982 18.3602C8.00086 18.135 8.09273 17.8799 8.09244 17.5964C8.09228 17.338 7.99839 17.0954 7.91562 16.8814C7.84507 16.699 7.77208 16.5104 7.78904 16.3828C7.80177 16.2867 7.90804 16.1379 8.01127 15.9942C8.15694 15.7907 8.322 15.5601 8.38985 15.2735C8.45337 15.0053 8.4088 14.7359 8.36929 14.4983C8.33858 14.3127 8.3068 14.121 8.34433 14.0059C8.37612 13.9084 8.50687 13.7781 8.63327 13.6522C8.81259 13.4736 9.01579 13.2712 9.12754 12.9971C9.23445 12.7349 9.22936 12.4572 9.2248 12.2121C9.22139 12.0275 9.21788 11.8366 9.26928 11.731C9.31548 11.636 9.46331 11.5229 9.60648 11.4137C9.80823 11.2594 10.0369 11.0845 10.1827 10.8272C10.3284 10.5698 10.3592 10.2864 10.3865 10.0364C10.4057 9.85917 10.4256 9.67606 10.4834 9.5869C10.5477 9.48821 10.7147 9.3906 10.8762 9.29621C11.0903 9.171 11.3331 9.02908 11.5035 8.80166C11.6815 8.56403 11.7495 8.28755 11.8094 8.04359C11.8517 7.87157 11.8954 7.69372 11.9628 7.61602C12.0426 7.52405 12.2251 7.44968 12.4016 7.37773C12.6278 7.28543 12.8839 7.18122 13.0825 6.98693C13.2944 6.77954 13.4068 6.52006 13.5059 6.29114C13.576 6.12939 13.6484 5.96207 13.7246 5.90103C13.8258 5.81975 14.0272 5.78162 14.222 5.74469C14.4504 5.7014 14.7094 5.65232 14.9329 5.5165C15.1779 5.36765 15.3501 5.15654 15.502 4.97028C15.6096 4.83837 15.7316 4.68895 15.8128 4.65892C16.0559 4.56904 16.443 4.57537 16.7539 4.58057C16.8401 4.58199 16.9227 4.58322 17.0016 4.5828L18.1926 5.22949C15.9456 5.76705 13.2609 8.17887 11.2678 11.6986C9.27856 15.2113 8.60549 18.72 9.31625 20.8842L8.74109 20.5666C8.73462 20.5168 8.72892 20.4632 8.72322 20.4105C8.69719 20.1629 8.67027 19.9069 8.54602 19.6949C8.43639 19.5242 8.30412 19.3681 8.15273 19.2308C7.99307 19.0733 7.84232 18.9243 7.81415 18.7843C7.7976 18.7 7.86254 18.5195 7.91982 18.3602Z" fill="white"/>
<path d="M17.1836 11.2426C17.6735 11.5112 17.5824 12.8447 16.5819 14.6114C15.5815 16.378 14.477 17.1559 13.9871 16.8872C13.4972 16.6186 13.5883 15.2851 14.5887 13.5184C15.5891 11.7518 16.6937 10.974 17.1836 11.2426Z" fill="white"/>
<path d="M6.17923 17.4044C6.26028 17.1792 6.35215 16.9241 6.35186 16.6407C6.3517 16.3822 6.2578 16.1396 6.17504 15.9257C6.10449 15.7433 6.0315 15.5546 6.04841 15.427C6.06121 15.331 6.16768 15.1823 6.27069 15.0384C6.41636 14.835 6.58141 14.6044 6.64927 14.3177C6.71279 14.0495 6.66827 13.7802 6.62873 13.5425C6.59799 13.357 6.56625 13.1652 6.60372 13.0501C6.63554 12.9526 6.76629 12.8224 6.89277 12.6964C7.072 12.5178 7.27525 12.3154 7.38698 12.0414C7.49392 11.7792 7.48878 11.5014 7.48424 11.2565C7.48077 11.0718 7.47729 10.8808 7.5287 10.7752C7.5749 10.6803 7.72273 10.5672 7.8659 10.458C8.06765 10.3037 8.2963 10.1287 8.44204 9.87136C8.58778 9.614 8.61866 9.33062 8.64588 9.08061C8.66514 8.90341 8.68499 8.7203 8.74284 8.63113C8.80713 8.53245 8.97412 8.43487 9.13565 8.34045C9.34974 8.21524 9.59252 8.07332 9.7629 7.84594C9.94096 7.60827 10.0089 7.33184 10.0689 7.08783C10.1111 6.9158 10.1548 6.73796 10.2222 6.66025C10.302 6.56829 10.4845 6.49392 10.6611 6.42192C10.8871 6.32986 11.1433 6.22546 11.3419 6.03122C11.5539 5.82373 11.6661 5.56429 11.7653 5.3354C11.8353 5.17365 11.9077 5.00633 11.9839 4.94521C12.0852 4.86396 12.2866 4.82583 12.4813 4.78894C12.7098 4.74561 12.9688 4.69656 13.1923 4.56069C13.4373 4.41186 13.6095 4.20075 13.7614 4.01449C13.8689 3.88258 13.991 3.73316 14.0722 3.70313C14.3153 3.61322 14.7023 3.6196 15.0131 3.62477C15.0931 3.6261 15.1698 3.62724 15.2435 3.62706L15.5555 3.79647C15.5298 3.80457 15.5044 3.81328 15.4793 3.82253C15.167 3.93801 14.9636 4.18743 14.7841 4.40748C14.6669 4.55109 14.5562 4.68677 14.4424 4.75574C14.36 4.80598 14.1957 4.83678 14.0365 4.86708C13.76 4.91945 13.4158 4.98483 13.1385 5.20715C12.8916 5.40521 12.7701 5.6859 12.663 5.93329C12.5892 6.10357 12.5195 6.26443 12.4308 6.35131C12.358 6.4227 12.1964 6.48853 12.0402 6.55214C11.7782 6.65893 11.4812 6.78009 11.262 7.0329C11.0563 7.27004 10.9841 7.56401 10.9203 7.8234C10.8782 7.99481 10.8345 8.17198 10.7632 8.26749C10.7001 8.3517 10.547 8.44115 10.3992 8.52766C10.1598 8.66763 9.88866 8.82633 9.7102 9.09986C9.53896 9.36271 9.50619 9.6637 9.47729 9.9292C9.45828 10.104 9.43864 10.2847 9.38121 10.3862C9.32378 10.4876 9.17788 10.5992 9.03688 10.7069C8.82263 10.8708 8.57979 11.0565 8.44275 11.3381C8.30011 11.6311 8.30584 11.9414 8.31085 12.2152C8.31398 12.3844 8.31725 12.5594 8.27767 12.6564C8.23276 12.7667 8.10239 12.8964 7.97644 13.0219C7.7858 13.2119 7.56969 13.4271 7.47296 13.724C7.36964 14.0407 7.42135 14.3528 7.46694 14.6281C7.49412 14.7923 7.5222 14.962 7.49892 15.0604C7.4703 15.1805 7.36802 15.3235 7.25968 15.475C7.10222 15.6951 6.92351 15.9443 6.88226 16.2553C6.83593 16.6045 6.96063 16.9267 7.06082 17.1857C7.11845 17.3347 7.17806 17.4888 7.17818 17.5841C7.17828 17.7156 7.11924 17.8796 7.05695 18.0532C6.96142 18.319 6.85278 18.6206 6.91723 18.9426C6.99891 19.351 7.28058 19.629 7.5069 19.8525C7.53094 19.8763 7.55469 19.8997 7.57753 19.9227L6.98942 19.598C6.98294 19.5442 6.97757 19.4867 6.97322 19.4398C6.95058 19.1973 6.92729 18.9465 6.80559 18.7388C6.69595 18.5681 6.56368 18.412 6.4123 18.2747C6.25263 18.1172 6.10188 17.9682 6.07371 17.8282C6.05707 17.7443 6.12196 17.5637 6.17923 17.4044Z" fill="white"/>
<path d="M10.5101 3.88709C11.7401 3.01347 12.8849 2.65884 13.7333 2.87258C13.4238 2.98883 13.2215 3.23662 13.0429 3.45555C12.9258 3.59916 12.8151 3.73484 12.7013 3.80381C12.6189 3.85405 12.4546 3.88485 12.2954 3.9152C12.0189 3.96757 11.6747 4.03295 11.3974 4.25518C11.1505 4.45328 11.029 4.73392 10.9219 4.98141C10.8481 5.15169 10.7784 5.31255 10.6897 5.39946C10.6169 5.47075 10.4553 5.53656 10.2991 5.60019C10.0372 5.70698 9.74013 5.82811 9.5208 6.08094C9.31518 6.31813 9.24295 6.61205 9.17914 6.87152C9.13705 7.04288 9.09337 7.22005 9.02202 7.31556C8.95892 7.39975 8.80591 7.48922 8.65805 7.57573C8.41866 7.7157 8.14753 7.8744 7.96907 8.14793C7.79784 8.41078 7.76506 8.71177 7.73617 8.97727C7.71715 9.15206 7.69747 9.33278 7.64004 9.4342C7.5826 9.53562 7.43675 9.64722 7.29576 9.755C7.08151 9.91887 6.83866 10.1046 6.70162 10.3861C6.55899 10.6792 6.56471 10.9895 6.56975 11.2634C6.57288 11.4325 6.57614 11.6075 6.53656 11.7045C6.49166 11.8147 6.36134 11.9444 6.23531 12.0699C6.04471 12.2599 5.82859 12.4751 5.73183 12.772C5.62857 13.0888 5.68026 13.4008 5.72584 13.6761C5.75302 13.8403 5.7811 14.01 5.75779 14.1085C5.72918 14.2286 5.62695 14.3716 5.5185 14.5232C5.3611 14.7431 5.18244 14.9924 5.14114 15.3034C5.09481 15.6525 5.21951 15.9748 5.31969 16.2338C5.37733 16.3828 5.43693 16.5368 5.43705 16.6322C5.43716 16.7637 5.37812 16.9276 5.31583 17.1013C5.22024 17.367 5.11166 17.6687 5.17611 17.9906C5.25779 18.399 5.53946 18.6771 5.76578 18.9006C5.78467 18.9194 5.80328 18.9379 5.82166 18.956L5.32271 18.6805C4.4508 18.2024 4.01866 16.9284 4.13643 15.1826C4.26459 13.2868 5.00164 11.0658 6.2127 8.92716C7.42666 6.78318 8.95278 4.9935 10.5101 3.88709Z" fill="white"/>
</svg>
