<svg width="14" height="20" viewBox="0 0 14 20" fill="none" xmlns="http://www.w3.org/2000/svg">
<path d="M10.0089 9.10619C11.6497 7.02981 14.128 3.74088 13.9949 2.96421C13.8942 2.38568 13.3114 1.73819 12.6296 1.24446C11.9462 0.748345 11.1467 0.416282 10.5824 0.518516C9.82395 0.655621 7.6522 4.16646 6.31014 6.45444C6.14761 6.72707 6.56323 7.38723 6.43011 7.61785C6.29699 7.84926 5.6159 7.65114 5.51683 7.8239C5.31328 8.18212 5.19409 8.39689 5.19409 8.39689C5.19409 8.39689 4.76608 9.04913 6.09421 10.1111L2.04327 16.0343C1.83662 16.3355 0.916376 16.3989 0.916376 16.3989L0 19.0221L0.665611 19.5L2.76074 17.72C2.76074 17.72 2.50378 16.815 2.70888 16.5138L6.76601 10.5779C8.09723 11.3704 8.60573 10.845 8.60573 10.845L9.02057 10.3378C9.14441 10.1848 8.73111 9.59676 8.89674 9.38991C9.06701 9.18148 9.81234 9.35425 10.0089 9.10698V9.10619Z" fill="white"/>
</svg>
