<svg width="22" height="22" viewBox="0 0 22 22" fill="none" xmlns="http://www.w3.org/2000/svg">
<path fill-rule="evenodd" clip-rule="evenodd" d="M9.93575 3.31014L3.58241 14.2901C3.01969 15.2648 3.38822 16.5321 4.40843 17.1194L4.52565 17.1871L4.4998 17.2318C3.84858 18.3583 4.28074 19.8256 5.46586 20.509L5.80277 20.7026C6.98685 21.3863 8.47553 21.0252 9.12675 19.8988L9.15336 19.8527L9.37172 19.9779C10.3899 20.5657 11.6743 20.2527 12.2388 19.2765L18.5922 8.29651C19.1559 7.32156 18.7858 6.05242 17.7672 5.46696L12.8036 2.60739C11.7831 2.01909 10.5003 2.33388 9.93575 3.31014ZM9.41286 16.8406C9.6539 17.7402 9.08655 18.6726 8.14494 18.9272C7.20381 19.1794 6.24568 18.6534 6.00463 17.7538C5.76359 16.8542 6.33281 15.9246 7.27207 15.6696C8.21507 15.4202 9.17237 15.9431 9.41286 16.8406ZM15.1232 5.28918L14.2979 6.71721C14.9603 7.26563 15.3393 8.07367 15.2818 8.88514C15.2761 8.97742 15.2518 9.06758 15.2102 9.15013C15.1685 9.23268 15.1105 9.30589 15.0397 9.36529C14.967 9.42715 14.8825 9.47362 14.7913 9.50188C14.7001 9.53014 14.6042 9.5396 14.5092 9.52969C14.3199 9.51172 14.1449 9.42102 14.0211 9.27665C13.8973 9.13229 13.8343 8.94552 13.8454 8.75566C13.8643 8.4856 13.7522 8.2128 13.5629 7.98408L12.6049 9.63581C13.5786 10.4359 13.9102 11.7566 13.3245 12.7742C12.7339 13.7986 11.4194 14.1698 10.2392 13.7167L9.43054 15.1157L8.60207 14.6374L9.41082 13.2305C8.7488 12.6753 8.36946 11.8662 8.42778 11.0534C8.43464 10.9597 8.46032 10.8684 8.50329 10.7848C8.54627 10.7012 8.60565 10.6272 8.67788 10.5671C8.75012 10.507 8.83373 10.4621 8.92372 10.435C9.01371 10.408 9.10823 10.3993 9.20163 10.4097C9.39058 10.4295 9.56471 10.5211 9.68813 10.6656C9.81155 10.81 9.87487 10.9963 9.86503 11.186C9.84506 11.4564 9.95553 11.7274 10.1415 11.9559L11.0959 10.2951C10.1416 9.49647 9.8214 8.18945 10.4036 7.1795C10.9869 6.16927 12.2728 5.7913 13.4362 6.21885L14.2533 4.79748L15.1232 5.28918Z" fill="white"/>
<path fill-rule="evenodd" clip-rule="evenodd" d="M12.0773 12.0166C12.2801 11.6638 12.1895 11.2094 11.8876 10.8639L10.979 12.43C11.4315 12.5191 11.8727 12.3709 12.0773 12.0166Z" fill="white"/>
<path fill-rule="evenodd" clip-rule="evenodd" d="M11.673 7.89436C11.4758 8.23445 11.5556 8.66954 11.834 9.01024L12.7165 7.4756C12.2846 7.40539 11.8682 7.55482 11.673 7.89436Z" fill="white"/>
</svg>
