<svg width="21" height="21" viewBox="0 0 21 21" fill="none" xmlns="http://www.w3.org/2000/svg">
<g clip-path="url(#clip0)">
<path d="M2.89823 17.4384L5.73532 19.5199C6.15594 19.8394 6.65829 19.8938 7.12917 19.824C9.20186 19.4504 11.0169 18.1335 12.4758 16.8418C14.8396 14.5157 16.9155 11.7594 18.0106 8.63976C18.4152 7.33977 18.8712 5.69008 18.6033 4.34662C18.5213 3.83843 18.3094 3.35931 17.9018 3.08478L15.062 0.984705C14.4837 0.625014 14.0101 0.850069 13.7578 1.40746L12.3336 5.47375C12.1911 5.95155 12.3827 6.41205 12.7425 6.68445L13.7888 7.45815C13.8565 7.52673 13.9054 7.609 13.9205 7.70422C13.7735 9.10753 12.9022 10.5109 12.0962 11.5076C11.2902 12.5043 10.4597 13.8155 9.19738 14.2853C9.04299 14.3543 8.84802 14.3996 8.71674 14.3096L7.49686 13.3911C7.09047 13.169 6.54322 13.1125 6.18736 13.397L6.16878 13.3998L2.89996 16.0524C2.42296 16.461 2.4634 17.1068 2.89823 17.4384Z" fill="white"/>
</g>
<defs>
<clipPath id="clip0">
<rect width="17.7187" height="17.7187" fill="white" transform="matrix(-0.989009 0.147855 0.147855 0.989009 18.0001 0.283203)"/>
</clipPath>
</defs>
</svg>
