<svg width="58" height="56" viewBox="0 0 58 56" fill="none" xmlns="http://www.w3.org/2000/svg">
<path d="M41.9054 33.146L41.8839 33.3198C36.6201 30.7807 36.0696 30.4425 35.3898 31.4294C34.9182 32.1128 33.5442 33.6627 33.1301 34.1213C32.7112 34.5731 32.2947 34.6079 31.5838 34.2951C30.8657 33.9476 28.5605 33.2178 25.8317 30.8549C23.7061 29.0131 22.2795 26.7544 21.8582 26.0594C21.1568 24.8871 22.6242 24.7203 23.9599 22.2739C24.1992 21.7874 24.0771 21.4052 23.9 21.06C23.7205 20.7125 22.2914 17.307 21.693 15.9494C21.1185 14.5965 20.5273 14.7679 20.0845 14.7679C18.7057 14.6521 17.6979 14.6706 16.8099 15.5649C12.9464 19.6746 13.9207 23.9141 17.2264 28.4224C23.7229 36.6511 27.1842 38.1662 33.5131 40.2698C35.2222 40.7957 36.7805 40.7215 38.0133 40.5501C39.3872 40.3393 42.2429 38.8798 42.839 37.2465C43.4494 35.6133 43.4494 34.258 43.2698 33.9453C43.0927 33.6325 42.6235 33.4588 41.9054 33.146Z" fill="white"/>
<path d="M49.1188 7.99132C30.7136 -9.22876 0.253732 3.26061 0.241764 27.5536C0.241764 32.4094 1.55591 37.1448 4.05972 41.3264L0 55.602L15.1641 51.7748C34.0863 61.6671 57.4393 48.5314 57.4489 27.5675C57.4489 20.2096 54.4807 13.285 49.0829 8.08168L49.1188 7.99132ZM52.6662 27.491C52.6519 45.1745 32.595 56.2182 16.732 47.1923L15.8702 46.6965L6.89386 48.9553L9.29953 40.5109L8.72744 39.6422C-1.14419 24.433 10.1972 4.55565 28.8968 4.55565C35.2497 4.55565 41.2124 6.95344 45.703 11.2973C50.1912 15.604 52.6662 21.3749 52.6662 27.491Z" fill="white"/>
</svg>
