<svg width="323" height="48" viewBox="0 0 323 48" fill="none" xmlns="http://www.w3.org/2000/svg">
<path d="M25.06 3.64L24.5867 4.52095L24.597 4.52635L25.06 3.64ZM31.36 9.52L30.5037 10.0365L30.5074 10.0426L31.36 9.52ZM31.36 26.5L32.2163 27.0165L31.36 26.5ZM25.06 32.44L25.5231 33.3264L25.5333 33.3209L25.06 32.44ZM8.08 33.1L8.4568 32.1737L8.08 33.1ZM2.08 28.96L1.38292 28.243L0.688785 28.9179L1.3408 29.6335L2.08 28.96ZM6.4 24.76L7.10711 24.0529L6.40989 23.3557L5.70292 24.043L6.4 24.76ZM22.66 26.38L23.26 27.18L23.2626 27.178L22.66 26.38ZM26.44 20.5L27.4147 20.7237L27.6955 19.5H26.44V20.5ZM11.62 20.5H10.62V21.5H11.62V20.5ZM11.62 15.1L11.62 14.1H10.62L10.62 15.1H11.62ZM26.38 15.1V16.1H27.666L27.3492 14.8536L26.38 15.1ZM22.6 9.52L22.0108 10.3281L22.022 10.336L22.6 9.52ZM6.4 11.26L5.70292 11.977L6.41548 12.6698L7.11265 11.9615L6.4 11.26ZM2.08 7.06L1.32539 6.40382L0.704704 7.11761L1.38292 7.77699L2.08 7.06ZM8.02 2.92L8.38322 3.85174L8.39139 3.84848L8.02 2.92ZM16 2.48C19.2124 2.48 22.0669 3.167 24.5867 4.52089L25.5333 2.7591C22.6931 1.233 19.5076 0.479996 16 0.479996V2.48ZM24.597 4.52635C27.1192 5.8439 29.0811 7.67797 30.5037 10.0365L32.2163 9.00351C30.5989 6.32203 28.3609 4.2361 25.523 2.75365L24.597 4.52635ZM30.5074 10.0426C31.9227 12.3518 32.64 14.9879 32.64 17.98H34.64C34.64 14.6521 33.8373 11.6482 32.2126 8.99744L30.5074 10.0426ZM32.64 17.98C32.64 20.9719 31.9227 23.6309 30.5037 25.9835L32.2163 27.0165C33.8373 24.3291 34.64 21.3081 34.64 17.98H32.64ZM30.5037 25.9835C29.0796 28.3445 27.1142 30.201 24.5867 31.5591L25.5333 33.3209C28.3658 31.799 30.6004 29.6955 32.2163 27.0165L30.5037 25.9835ZM24.597 31.5536C22.0752 32.871 19.217 33.54 16 33.54V35.54C19.503 35.54 22.6848 34.809 25.523 33.3263L24.597 31.5536ZM16 33.54C13.1905 33.54 10.681 33.0784 8.4568 32.1737L7.7032 34.0263C10.199 35.0416 12.9695 35.54 16 35.54V33.54ZM8.4568 32.1737C6.22838 31.2672 4.35409 29.9712 2.8192 28.2865L1.3408 29.6335C3.08591 31.5488 5.21163 33.0128 7.7032 34.0263L8.4568 32.1737ZM2.77708 29.677L7.09708 25.477L5.70292 24.043L1.38292 28.243L2.77708 29.677ZM5.69289 25.4671C8.40716 28.1814 11.7644 29.54 15.7 29.54V27.54C12.2756 27.54 9.43285 26.3786 7.10711 24.0529L5.69289 25.4671ZM15.7 29.54C18.6062 29.54 21.1442 28.7668 23.26 27.18L22.06 25.58C20.3358 26.8732 18.2338 27.54 15.7 27.54V29.54ZM23.2626 27.178C25.4142 25.5533 26.8032 23.3881 27.4147 20.7237L25.4653 20.2763C24.9568 22.4919 23.8258 24.2467 22.0574 25.582L23.2626 27.178ZM26.44 19.5L11.62 19.5V21.5L26.44 21.5V19.5ZM12.62 20.5V15.1H10.62V20.5H12.62ZM11.62 16.1L26.38 16.1V14.1L11.62 14.1L11.62 16.1ZM27.3492 14.8536C26.6928 12.2721 25.2992 10.2065 23.178 8.70398L22.022 10.336C23.7408 11.5535 24.8672 13.2079 25.4108 15.3464L27.3492 14.8536ZM23.1892 8.71199C21.0766 7.17154 18.5635 6.42 15.7 6.42V8.42C18.1965 8.42 20.2835 9.06846 22.0108 10.328L23.1892 8.71199ZM15.7 6.42C11.7594 6.42 8.40041 7.80235 5.68735 10.5585L7.11265 11.9615C9.43959 9.59764 12.2806 8.42 15.7 8.42V6.42ZM7.09708 10.543L2.77708 6.343L1.38292 7.77699L5.70292 11.977L7.09708 10.543ZM2.83461 7.71618C4.32418 6.00317 6.16799 4.71526 8.38321 3.85171L7.65679 1.98829C5.15201 2.96473 3.03582 4.43683 1.32539 6.40382L2.83461 7.71618ZM8.39139 3.84848C10.6589 2.94145 13.1908 2.48 16 2.48V0.479996C12.9692 0.479996 10.1811 0.97854 7.64861 1.99152L8.39139 3.84848ZM64.1233 17.32L63.7237 16.4033L61.2329 17.489L63.8333 18.277L64.1233 17.32ZM40.9033 34H39.9033V35H40.9033V34ZM40.9033 1.96V0.959997H39.9033V1.96H40.9033ZM65.7433 4.12L65.1956 4.9567L65.7433 4.12ZM67.7233 14.5L66.9169 13.9086L66.9104 13.9175L66.9041 13.9265L67.7233 14.5ZM48.0433 15.34H47.0433V16.34H48.0433V15.34ZM48.0433 7.42V6.42H47.0433V7.42H48.0433ZM61.3633 21.4L60.7633 22.2L60.7742 22.2082L60.7853 22.216L61.3633 21.4ZM48.0433 20.32V19.32H47.0433V20.32H48.0433ZM48.0433 28.54H47.0433V29.54H48.0433V28.54ZM63.8333 18.277C65.6699 18.8336 66.9557 19.6767 67.7873 20.7518C68.615 21.822 69.0633 23.2133 69.0633 25H71.0633C71.0633 22.8667 70.5216 21.018 69.3693 19.5282C68.2208 18.0433 66.5367 17.0064 64.4133 16.363L63.8333 18.277ZM69.0633 25C69.0633 27.5892 68.1138 29.4944 66.2378 30.8493L67.4088 32.4707C69.8527 30.7056 71.0633 28.1708 71.0633 25H69.0633ZM66.2378 30.8493C64.3223 32.2327 61.3679 33 57.2233 33V35C61.5586 35 65.0043 34.2073 67.4088 32.4707L66.2378 30.8493ZM57.2233 33H40.9033V35H57.2233V33ZM41.9033 34V1.96H39.9033V34H41.9033ZM40.9033 2.96L56.5633 2.96V0.959997L40.9033 0.959997V2.96ZM56.5633 2.96C60.3784 2.96 63.22 3.66354 65.1956 4.9567L66.2909 3.2833C63.8666 1.69645 60.5882 0.959997 56.5633 0.959997V2.96ZM65.1956 4.9567C67.112 6.21105 68.0433 7.93569 68.0433 10.24H70.0433C70.0433 7.26431 68.7746 4.90895 66.2909 3.2833L65.1956 4.9567ZM68.0433 10.24C68.0433 11.6901 67.6582 12.8977 66.9169 13.9086L68.5297 15.0914C69.5483 13.7023 70.0433 12.0698 70.0433 10.24H68.0433ZM66.9041 13.9265C66.1858 14.9527 65.1426 15.7848 63.7237 16.4033L64.5229 18.2367C66.2239 17.4952 67.5808 16.4473 68.5425 15.0735L66.9041 13.9265ZM48.0433 16.34H55.9033V14.34H48.0433V16.34ZM55.9033 16.34C57.9275 16.34 59.623 15.9961 60.8366 15.1578C62.1171 14.2733 62.7233 12.9364 62.7233 11.32H60.7233C60.7233 12.3836 60.3594 13.0567 59.7 13.5122C58.9736 14.0139 57.7591 14.34 55.9033 14.34V16.34ZM62.7233 11.32C62.7233 9.73089 62.107 8.42335 60.825 7.56427C59.6139 6.75271 57.9235 6.42 55.9033 6.42V8.42C57.7631 8.42 58.9827 8.73729 59.7116 9.22573C60.3696 9.66665 60.7233 10.3091 60.7233 11.32H62.7233ZM55.9033 6.42H48.0433V8.42H55.9033V6.42ZM47.0433 7.42V15.34H49.0433V7.42H47.0433ZM56.6233 29.54C58.7598 29.54 60.5351 29.1984 61.8036 28.3733C63.1464 27.4998 63.8033 26.162 63.8033 24.52H61.8033C61.8033 25.558 61.4302 26.2302 60.713 26.6967C59.9214 27.2116 58.6068 27.54 56.6233 27.54V29.54ZM63.8033 24.52C63.8033 22.8659 63.2185 21.4887 61.9413 20.584L60.7853 22.216C61.4281 22.6713 61.8033 23.3741 61.8033 24.52H63.8033ZM61.9633 20.6C60.7459 19.687 58.983 19.32 56.8633 19.32V21.32C58.8236 21.32 60.0607 21.673 60.7633 22.2L61.9633 20.6ZM56.8633 19.32H48.0433V21.32H56.8633V19.32ZM47.0433 20.32V28.54H49.0433V20.32H47.0433ZM48.0433 29.54H56.6233V27.54H48.0433V29.54ZM100.792 5.02L100.115 5.75617L100.121 5.76184L100.127 5.76741L100.792 5.02ZM104.572 34V35H105.572V34H104.572ZM97.4917 34H96.4917V35H97.4917V34ZM97.4917 30.1H98.4917V26.7574L96.656 29.5508L97.4917 30.1ZM93.5317 33.34L93.9257 34.2592L93.9359 34.2547L93.5317 33.34ZM81.1117 33.22L80.6888 34.1262L80.6972 34.1301L80.7056 34.1338L81.1117 33.22ZM76.9117 29.8L76.0728 30.3442L76.0813 30.3574L76.0903 30.3704L76.9117 29.8ZM78.6517 17.92L79.2818 18.6966L79.2834 18.6952L78.6517 17.92ZM97.0717 15.28V16.28H98.0717V15.28H97.0717ZM95.0317 9.64L94.359 10.3799L94.3645 10.3849L94.3701 10.3898L95.0317 9.64ZM83.7517 8.68L83.4485 7.72705L83.4421 7.72913L83.7517 8.68ZM79.3717 11.02L78.4912 11.4941L79.0716 12.5718L80.0119 11.7882L79.3717 11.02ZM76.4317 5.56L75.8257 4.76457L75.1464 5.28215L75.5512 6.0341L76.4317 5.56ZM82.4917 2.62L82.7686 3.58091V3.58091L82.4917 2.62ZM93.9517 27.7L94.4556 28.5638L94.4628 28.5595L93.9517 27.7ZM97.0717 23.98L98.008 24.3311L98.0717 24.1613V23.98H97.0717ZM97.0717 20.26H98.0717L98.0717 19.26H97.0717L97.0717 20.26ZM84.4717 27.76L85.0669 26.9564L84.4717 27.76ZM89.9917 2.6C94.5618 2.6 97.8822 3.70352 100.115 5.75617L101.469 4.28383C98.7412 1.77648 94.8617 0.599998 89.9917 0.599998V2.6ZM100.127 5.76741C102.366 7.75733 103.572 10.8402 103.572 15.22H105.572C105.572 10.4798 104.257 6.76266 101.456 4.27259L100.127 5.76741ZM103.572 15.22L103.572 34H105.572L105.572 15.22H103.572ZM104.572 33H97.4917V35H104.572V33ZM98.4917 34V30.1H96.4917V34H98.4917ZM96.656 29.5508C95.8543 30.7708 94.6938 31.7333 93.1276 32.4253L93.9359 34.2547C95.8097 33.4267 97.2891 32.2292 98.3274 30.6492L96.656 29.5508ZM93.1378 32.4209C91.6147 33.0736 89.7167 33.42 87.4117 33.42V35.42C89.9068 35.42 92.0888 35.0464 93.9256 34.2591L93.1378 32.4209ZM87.4117 33.42C85.1218 33.42 83.1653 33.0384 81.5179 32.3062L80.7056 34.1338C82.6582 35.0016 84.9017 35.42 87.4117 35.42V33.42ZM81.5346 32.3138C79.8731 31.5384 78.6194 30.5059 77.7331 29.2296L76.0903 30.3704C77.204 31.9741 78.7504 33.2216 80.6888 34.1262L81.5346 32.3138ZM77.7507 29.2558C76.9005 27.945 76.4717 26.4756 76.4717 24.82H74.4717C74.4717 26.8444 75.003 28.695 76.0728 30.3442L77.7507 29.2558ZM76.4717 24.82C76.4717 22.2223 77.4102 20.215 79.2818 18.6966L78.0217 17.1434C75.6532 19.065 74.4717 21.6577 74.4717 24.82H76.4717ZM79.2834 18.6952C81.1812 17.1489 84.2836 16.28 88.7917 16.28V14.28C84.0999 14.28 80.4423 15.1711 78.02 17.1448L79.2834 18.6952ZM88.7917 16.28H97.0717V14.28H88.7917V16.28ZM98.0717 15.28V14.8H96.0717V15.28H98.0717ZM98.0717 14.8C98.0717 12.3461 97.3177 10.3235 95.6933 8.89016L94.3701 10.3898C95.4657 11.3565 96.0717 12.7739 96.0717 14.8H98.0717ZM95.7044 8.90006C94.129 7.46791 91.8635 6.84 89.0917 6.84V8.84C91.5999 8.84 93.2944 9.41208 94.359 10.3799L95.7044 8.90006ZM89.0917 6.84C87.1861 6.84 85.304 7.1367 83.4485 7.72707L84.0549 9.63292C85.7195 9.1033 87.3973 8.84 89.0917 8.84V6.84ZM83.4421 7.72913C81.6202 8.32232 80.0433 9.15866 78.7315 10.2518L80.0119 11.7882C81.1002 10.8813 82.4433 10.1577 84.0613 9.63087L83.4421 7.72913ZM80.2522 10.5459L77.3122 5.0859L75.5512 6.0341L78.4912 11.4941L80.2522 10.5459ZM77.0378 6.35543C78.6046 5.16166 80.5085 4.23211 82.7686 3.58091L82.2149 1.65909C79.7549 2.36789 77.6189 3.39833 75.8257 4.76457L77.0378 6.35543ZM82.7686 3.58091C85.0321 2.92871 87.4384 2.6 89.9917 2.6V0.599998C87.265 0.599998 84.6713 0.951292 82.2148 1.65909L82.7686 3.58091ZM88.9717 29.96C91.0057 29.96 92.8439 29.5039 94.4556 28.5638L93.4478 26.8362C92.1796 27.5761 90.6977 27.96 88.9717 27.96V29.96ZM94.4628 28.5595C96.1366 27.5643 97.3276 26.1458 98.008 24.3311L96.1354 23.6289C95.6159 25.0142 94.7268 26.0757 93.4406 26.8405L94.4628 28.5595ZM98.0717 23.98V20.26H96.0717V23.98H98.0717ZM97.0717 19.26H89.3317L89.3317 21.26H97.0717L97.0717 19.26ZM89.3317 19.26C87.0939 19.26 85.2418 19.622 83.9224 20.4894C82.5298 21.4049 81.8517 22.8027 81.8517 24.52H83.8517C83.8517 23.3973 84.2537 22.6651 85.021 22.1606C85.8616 21.608 87.2495 21.26 89.3317 21.26L89.3317 19.26ZM81.8517 24.52C81.8517 26.1924 82.5383 27.5723 83.8765 28.5636L85.0669 26.9564C84.2451 26.3477 83.8517 25.5676 83.8517 24.52H81.8517ZM83.8765 28.5636C85.1885 29.5354 86.9262 29.96 88.9717 29.96V27.96C87.1772 27.96 85.9149 27.5846 85.0669 26.9564L83.8765 28.5636ZM127.173 21.16L127.972 20.5588L127.672 20.16H127.173L127.173 21.16ZM121.353 21.16L121.353 20.16H120.353L120.353 21.16H121.353ZM121.353 34V35H122.353V34H121.353ZM113.853 34H112.853V35H113.853V34ZM113.853 1.96V0.959997H112.853V1.96H113.853ZM121.353 1.96H122.353V0.959997H121.353V1.96ZM121.353 14.92H120.353V15.92H121.353V14.92ZM127.353 14.92V15.92H127.86L128.16 15.5104L127.353 14.92ZM136.833 1.96V0.959997H136.325L136.025 1.36961L136.833 1.96ZM144.872 1.96L145.671 2.56248L146.88 0.959997H144.872V1.96ZM133.232 17.38L132.434 16.7775L131.982 17.377L132.431 17.9786L133.232 17.38ZM145.652 34V35H147.648L146.454 33.4014L145.652 34ZM136.833 34L136.033 34.6012L136.333 35H136.833V34ZM127.173 20.16H121.353L121.353 22.16H127.173L127.173 20.16ZM120.353 21.16V34H122.353V21.16H120.353ZM121.353 33H113.853V35H121.353V33ZM114.853 34L114.853 1.96H112.853L112.853 34H114.853ZM113.853 2.96H121.353V0.959997H113.853V2.96ZM120.353 1.96V14.92H122.353V1.96H120.353ZM121.353 15.92H127.353V13.92H121.353V15.92ZM128.16 15.5104L137.64 2.55039L136.025 1.36961L126.545 14.3296L128.16 15.5104ZM136.833 2.96L144.872 2.96V0.959997L136.833 0.959997V2.96ZM144.074 1.35752L132.434 16.7775L134.031 17.9825L145.671 2.56248L144.074 1.35752ZM132.431 17.9786L144.851 34.5986L146.454 33.4014L134.034 16.7814L132.431 17.9786ZM145.652 33H136.833V35H145.652V33ZM137.632 33.3988L127.972 20.5588L126.373 21.7612L136.033 34.6012L137.632 33.3988ZM179.366 1.96L180.284 2.35756L180.889 0.959997H179.366V1.96ZM164.366 36.58L163.448 36.1824L163.443 36.1945L163.438 36.2068L164.366 36.58ZM159.266 43.9L158.692 43.0807L158.682 43.0885L159.266 43.9ZM147.266 45.28L146.95 46.2287L147.266 45.28ZM143.426 43.12L142.547 42.6425L142.175 43.3278L142.749 43.8559L143.426 43.12ZM146.426 37.6L147.113 36.873L146.168 35.9807L145.547 37.1225L146.426 37.6ZM148.946 39.22L148.561 40.1431L148.568 40.1458L148.575 40.1485L148.946 39.22ZM155.186 38.8L154.574 38.0087L154.566 38.0156L154.557 38.0228L155.186 38.8ZM157.586 35.38L158.498 35.7904L158.502 35.7822L158.505 35.7739L157.586 35.38ZM158.126 34.12L159.045 34.5139L159.215 34.1172L159.043 33.7213L158.126 34.12ZM144.146 1.96V0.959997H142.621L143.229 2.35866L144.146 1.96ZM151.946 1.96L152.866 1.56861L152.607 0.959997H151.946V1.96ZM162.026 25.66L161.106 26.0514L162.023 28.2086L162.945 26.0534L162.026 25.66ZM172.166 1.96V0.959997H171.506L171.247 1.56664L172.166 1.96ZM178.448 1.56244L163.448 36.1824L165.284 36.9776L180.284 2.35756L178.448 1.56244ZM163.438 36.2068C162.075 39.5964 160.47 41.8367 158.692 43.0808L159.839 44.7192C162.062 43.1633 163.857 40.5236 165.294 36.9532L163.438 36.2068ZM158.682 43.0885C156.877 44.3879 154.669 45.06 152.006 45.06V47.06C155.023 47.06 157.655 46.2921 159.85 44.7115L158.682 43.0885ZM152.006 45.06C150.516 45.06 149.043 44.8183 147.582 44.3313L146.95 46.2287C148.609 46.7817 150.295 47.06 152.006 47.06V45.06ZM147.582 44.3313C146.129 43.8468 144.98 43.1906 144.103 42.3841L142.749 43.8559C143.872 44.8894 145.283 45.6732 146.95 46.2287L147.582 44.3313ZM144.305 43.5975L147.305 38.0775L145.547 37.1225L142.547 42.6425L144.305 43.5975ZM145.739 38.327C146.552 39.0942 147.495 39.6989 148.561 40.1431L149.331 38.2969C148.477 37.9411 147.74 37.4658 147.113 36.873L145.739 38.327ZM148.575 40.1485C149.684 40.5921 150.809 40.82 151.946 40.82V38.82C151.083 38.82 150.208 38.6479 149.317 38.2915L148.575 40.1485ZM151.946 40.82C153.443 40.82 154.76 40.4312 155.815 39.5772L154.557 38.0228C153.932 38.5288 153.089 38.82 151.946 38.82V40.82ZM155.797 39.5913C156.861 38.7691 157.746 37.4621 158.498 35.7904L156.674 34.9696C155.986 36.4979 155.271 37.4709 154.574 38.0087L155.797 39.5913ZM158.505 35.7739L159.045 34.5139L157.207 33.7261L156.667 34.9861L158.505 35.7739ZM159.043 33.7213L145.063 1.56133L143.229 2.35866L157.209 34.5187L159.043 33.7213ZM144.146 2.96L151.946 2.96V0.959997L144.146 0.959997V2.96ZM151.026 2.35139L161.106 26.0514L162.946 25.2686L152.866 1.56861L151.026 2.35139ZM162.945 26.0534L173.085 2.35336L171.247 1.56664L161.107 25.2666L162.945 26.0534ZM172.166 2.96H179.366V0.959997H172.166V2.96ZM206.319 5.02L205.642 5.75617L205.648 5.76184L205.655 5.76741L206.319 5.02ZM210.099 34V35H211.099V34H210.099ZM203.019 34H202.019V35H203.019V34ZM203.019 30.1H204.019V26.7574L202.183 29.5508L203.019 30.1ZM199.059 33.34L199.453 34.2592L199.463 34.2547L199.059 33.34ZM186.639 33.22L186.216 34.1262L186.225 34.1301L186.233 34.1338L186.639 33.22ZM182.439 29.8L181.6 30.3442L181.609 30.3574L181.618 30.3704L182.439 29.8ZM184.179 17.92L184.809 18.6966L184.811 18.6952L184.179 17.92ZM202.599 15.28V16.28H203.599V15.28H202.599ZM200.559 9.64L199.886 10.3799L199.892 10.3849L199.897 10.3898L200.559 9.64ZM189.279 8.68L188.976 7.72705L188.969 7.72913L189.279 8.68ZM184.899 11.02L184.019 11.4941L184.599 12.5718L185.539 11.7882L184.899 11.02ZM181.959 5.56L181.353 4.76457L180.674 5.28215L181.079 6.0341L181.959 5.56ZM188.019 2.62L188.296 3.58091V3.58091L188.019 2.62ZM199.479 27.7L199.983 28.5638L199.99 28.5595L199.479 27.7ZM202.599 23.98L203.535 24.3311L203.599 24.1613V23.98H202.599ZM202.599 20.26H203.599V19.26H202.599V20.26ZM189.999 27.76L190.594 26.9564L189.999 27.76ZM195.519 2.6C200.089 2.6 203.41 3.70352 205.642 5.75617L206.996 4.28383C204.269 1.77648 200.389 0.599998 195.519 0.599998V2.6ZM205.655 5.76741C207.893 7.75733 209.099 10.8402 209.099 15.22H211.099C211.099 10.4798 209.785 6.76266 206.983 4.27259L205.655 5.76741ZM209.099 15.22V34H211.099V15.22H209.099ZM210.099 33H203.019V35H210.099V33ZM204.019 34V30.1H202.019V34H204.019ZM202.183 29.5508C201.382 30.7708 200.221 31.7333 198.655 32.4253L199.463 34.2547C201.337 33.4267 202.816 32.2292 203.855 30.6492L202.183 29.5508ZM198.665 32.4209C197.142 33.0736 195.244 33.42 192.939 33.42V35.42C195.434 35.42 197.616 35.0464 199.453 34.2591L198.665 32.4209ZM192.939 33.42C190.649 33.42 188.693 33.0384 187.045 32.3062L186.233 34.1338C188.186 35.0016 190.429 35.42 192.939 35.42V33.42ZM187.062 32.3138C185.4 31.5384 184.147 30.5059 183.26 29.2296L181.618 30.3704C182.731 31.9741 184.278 33.2216 186.216 34.1262L187.062 32.3138ZM183.278 29.2558C182.428 27.945 181.999 26.4756 181.999 24.82H179.999C179.999 26.8444 180.53 28.695 181.6 30.3442L183.278 29.2558ZM181.999 24.82C181.999 22.2223 182.938 20.215 184.809 18.6966L183.549 17.1434C181.181 19.065 179.999 21.6577 179.999 24.82H181.999ZM184.811 18.6952C186.709 17.1489 189.811 16.28 194.319 16.28V14.28C189.627 14.28 185.97 15.1711 183.547 17.1448L184.811 18.6952ZM194.319 16.28L202.599 16.28V14.28L194.319 14.28V16.28ZM203.599 15.28V14.8H201.599V15.28H203.599ZM203.599 14.8C203.599 12.3461 202.845 10.3235 201.221 8.89016L199.897 10.3898C200.993 11.3565 201.599 12.7739 201.599 14.8H203.599ZM201.232 8.90006C199.656 7.46791 197.391 6.84 194.619 6.84V8.84C197.127 8.84 198.822 9.41208 199.886 10.3799L201.232 8.90006ZM194.619 6.84C192.714 6.84 190.831 7.1367 188.976 7.72707L189.582 9.63292C191.247 9.1033 192.925 8.84 194.619 8.84V6.84ZM188.969 7.72913C187.148 8.32232 185.571 9.15866 184.259 10.2518L185.539 11.7882C186.628 10.8813 187.971 10.1577 189.589 9.63087L188.969 7.72913ZM185.78 10.5459L182.84 5.0859L181.079 6.0341L184.019 11.4941L185.78 10.5459ZM182.565 6.35543C184.132 5.16166 186.036 4.23211 188.296 3.58091L187.742 1.65909C185.282 2.36789 183.146 3.39833 181.353 4.76457L182.565 6.35543ZM188.296 3.58091C190.559 2.92871 192.966 2.6 195.519 2.6V0.599998C192.792 0.599998 190.199 0.951292 187.742 1.65909L188.296 3.58091ZM194.499 29.96C196.533 29.96 198.371 29.5039 199.983 28.5638L198.975 26.8362C197.707 27.5761 196.225 27.96 194.499 27.96V29.96ZM199.99 28.5595C201.664 27.5643 202.855 26.1458 203.535 24.3311L201.663 23.6289C201.143 25.0142 200.254 26.0757 198.968 26.8405L199.99 28.5595ZM203.599 23.98V20.26H201.599V23.98H203.599ZM202.599 19.26L194.859 19.26V21.26L202.599 21.26V19.26ZM194.859 19.26C192.621 19.26 190.769 19.622 189.45 20.4894C188.057 21.4049 187.379 22.8027 187.379 24.52H189.379C189.379 23.3973 189.781 22.6651 190.548 22.1606C191.389 21.608 192.777 21.26 194.859 21.26V19.26ZM187.379 24.52C187.379 26.1924 188.066 27.5723 189.404 28.5636L190.594 26.9564C189.772 26.3477 189.379 25.5676 189.379 24.52H187.379ZM189.404 28.5636C190.716 29.5354 192.454 29.96 194.499 29.96V27.96C192.705 27.96 191.442 27.5846 190.594 26.9564L189.404 28.5636ZM244.76 8.32V9.32H245.76V8.32H244.76ZM233.54 8.32V7.32L232.54 7.32V8.32H233.54ZM233.54 34V35H234.54V34H233.54ZM226.04 34H225.04V35H226.04V34ZM226.04 8.32H227.04V7.32H226.04V8.32ZM214.76 8.32H213.76V9.32H214.76V8.32ZM214.76 1.96V0.959997H213.76V1.96H214.76ZM244.76 1.96H245.76V0.959997H244.76V1.96ZM244.76 7.32H233.54V9.32L244.76 9.32V7.32ZM232.54 8.32V34H234.54V8.32H232.54ZM233.54 33H226.04V35H233.54V33ZM227.04 34V8.32H225.04V34H227.04ZM226.04 7.32H214.76V9.32H226.04V7.32ZM215.76 8.32V1.96H213.76V8.32H215.76ZM214.76 2.96L244.76 2.96V0.959997L214.76 0.959997V2.96ZM243.76 1.96V8.32L245.76 8.32V1.96H243.76ZM254.314 32.32L254.788 31.4395L254.314 32.32ZM248.194 26.5L247.326 26.9961L247.33 27.0043L247.335 27.0125L248.194 26.5ZM248.194 9.52L247.335 9.0075L247.329 9.01786L248.194 9.52ZM254.314 3.7L254.788 4.58047L254.314 3.7ZM271.894 3.7L271.42 4.58047L271.894 3.7ZM277.954 9.52L277.089 10.0222L277.095 10.0325L277.954 9.52ZM277.954 26.5L277.092 25.9936L277.089 25.9979L277.954 26.5ZM271.894 32.32L271.42 31.4395L271.894 32.32ZM269.914 25.24L269.199 24.5407L269.914 25.24ZM269.914 10.72L269.199 11.4193L269.914 10.72ZM256.234 10.72L255.519 10.0207L255.511 10.0288L256.234 10.72ZM256.234 25.24L255.511 25.9313L255.519 25.9393L256.234 25.24ZM263.074 33.42C259.983 33.42 257.228 32.7536 254.788 31.4395L253.84 33.2005C256.599 34.6864 259.685 35.42 263.074 35.42V33.42ZM254.788 31.4395C252.343 30.1232 250.438 28.3088 249.053 25.9875L247.335 27.0125C248.91 29.6512 251.084 31.7168 253.84 33.2005L254.788 31.4395ZM249.062 26.0039C247.716 23.6482 247.034 20.9819 247.034 17.98H245.034C245.034 21.2981 245.792 24.3118 247.326 26.9961L249.062 26.0039ZM247.034 17.98C247.034 14.9779 247.716 12.3344 249.059 10.0221L247.329 9.01786C245.792 11.6656 245.034 14.6621 245.034 17.98H247.034ZM249.053 10.0325C250.438 7.71125 252.343 5.89683 254.788 4.58047L253.84 2.81953C251.084 4.30317 248.91 6.36875 247.335 9.00754L249.053 10.0325ZM254.788 4.58047C257.228 3.26637 259.983 2.6 263.074 2.6V0.599998C259.685 0.599998 256.599 1.33363 253.84 2.81953L254.788 4.58047ZM263.074 2.6C266.207 2.6 268.981 3.26732 271.42 4.58047L272.368 2.81953C269.607 1.33267 266.501 0.599998 263.074 0.599998V2.6ZM271.42 4.58047C273.862 5.89561 275.745 7.70684 277.089 10.0221L278.819 9.01786C277.283 6.37316 275.126 4.30439 272.368 2.81953L271.42 4.58047ZM277.095 10.0325C278.474 12.3431 279.174 14.9829 279.174 17.98H281.174C281.174 14.6571 280.394 11.6569 278.813 9.00754L277.095 10.0325ZM279.174 17.98C279.174 20.9769 278.474 23.6395 277.092 25.9936L278.816 27.0064C280.394 24.3205 281.174 21.3031 281.174 17.98H279.174ZM277.089 25.9979C275.745 28.3132 273.862 30.1244 271.42 31.4395L272.368 33.2005C275.126 31.7156 277.283 29.6468 278.819 27.0021L277.089 25.9979ZM271.42 31.4395C268.981 32.7527 266.207 33.42 263.074 33.42V35.42C266.501 35.42 269.607 34.6873 272.368 33.2005L271.42 31.4395ZM263.074 29C266.081 29 268.626 27.9865 270.629 25.9393L269.199 24.5407C267.602 26.1735 265.586 27 263.074 27V29ZM270.629 25.9393C272.642 23.8816 273.614 21.1948 273.614 17.98H271.614C271.614 20.7652 270.786 22.9184 269.199 24.5407L270.629 25.9393ZM273.614 17.98C273.614 14.7652 272.642 12.0784 270.629 10.0207L269.199 11.4193C270.786 13.0416 271.614 15.1948 271.614 17.98H273.614ZM270.629 10.0207C268.626 7.9735 266.081 6.96 263.074 6.96V8.96C265.586 8.96 267.602 9.7865 269.199 11.4193L270.629 10.0207ZM263.074 6.96C260.066 6.96 257.522 7.9735 255.519 10.0207L256.949 11.4193C258.546 9.7865 260.561 8.96 263.074 8.96V6.96ZM255.511 10.0288C253.542 12.0875 252.594 14.7715 252.594 17.98H254.594C254.594 15.1885 255.406 13.0325 256.957 11.4112L255.511 10.0288ZM252.594 17.98C252.594 21.1885 253.542 23.8725 255.511 25.9312L256.957 24.5488C255.406 22.9275 254.594 20.7715 254.594 17.98H252.594ZM255.519 25.9393C257.522 27.9865 260.066 29 263.074 29V27C260.561 27 258.546 26.1735 256.949 24.5407L255.519 25.9393ZM313.683 3.64L313.196 4.5135L313.202 4.51681L313.683 3.64ZM319.503 9.4L320.374 8.90841L319.503 9.4ZM319.503 26.62L320.374 27.1116L320.377 27.1056L319.503 26.62ZM313.683 32.38L313.202 31.5032L313.196 31.5065L313.683 32.38ZM295.083 30.1L295.836 29.4415L294.083 27.4385V30.1H295.083ZM295.083 45.64V46.64H296.083V45.64H295.083ZM287.583 45.64H286.583V46.64H287.583V45.64ZM287.583 1.96V0.959997H286.583V1.96H287.583ZM294.723 1.96H295.723V0.959997H294.723V1.96ZM294.723 6.16H293.723V8.96777L295.498 6.79213L294.723 6.16ZM299.283 2.74L298.901 1.81571L298.894 1.81875L299.283 2.74ZM311.283 25.24L310.568 24.5407L310.56 24.5488L311.283 25.24ZM311.283 10.72L310.56 11.4113L310.568 11.4193L311.283 10.72ZM299.643 9.22L300.129 10.0942L300.138 10.0891L300.147 10.0838L299.643 9.22ZM296.223 12.7L295.348 12.2163L296.223 12.7ZM299.643 26.8L299.139 27.6638L299.148 27.6691L299.157 27.6742L299.643 26.8ZM305.343 2.6C308.313 2.6 310.922 3.24581 313.196 4.51348L314.17 2.76652C311.564 1.31419 308.613 0.599998 305.343 0.599998V2.6ZM313.202 4.51681C315.518 5.78659 317.323 7.57264 318.632 9.89159L320.374 8.90841C318.883 6.26736 316.808 4.21341 314.164 2.76319L313.202 4.51681ZM318.632 9.89159C319.936 12.2019 320.603 14.8882 320.603 17.98H322.603C322.603 14.5918 321.87 11.5581 320.374 8.90841L318.632 9.89159ZM320.603 17.98C320.603 21.0715 319.936 23.7806 318.629 26.1344L320.377 27.1056C321.869 24.4194 322.603 21.3685 322.603 17.98H320.603ZM318.632 26.1284C317.323 28.4474 315.518 30.2334 313.202 31.5032L314.164 33.2568C316.808 31.8066 318.883 29.7526 320.374 27.1116L318.632 26.1284ZM313.196 31.5065C310.922 32.7742 308.313 33.42 305.343 33.42V35.42C308.613 35.42 311.564 34.7058 314.17 33.2535L313.196 31.5065ZM305.343 33.42C301.27 33.42 298.14 32.0751 295.836 29.4415L294.33 30.7585C297.066 33.8849 300.776 35.42 305.343 35.42V33.42ZM294.083 30.1V45.64H296.083V30.1H294.083ZM295.083 44.64H287.583V46.64H295.083V44.64ZM288.583 45.64V1.96H286.583V45.64H288.583ZM287.583 2.96H294.723V0.959997H287.583V2.96ZM293.723 1.96V6.16H295.723V1.96H293.723ZM295.498 6.79213C296.635 5.39801 298.023 4.35753 299.672 3.66125L298.894 1.81875C296.943 2.64247 295.291 3.88199 293.948 5.52787L295.498 6.79213ZM299.665 3.66426C301.372 2.95928 303.26 2.6 305.343 2.6V0.599998C303.026 0.599998 300.874 1.00072 298.901 1.81574L299.665 3.66426ZM304.503 29C307.51 29 310.04 27.9861 312.006 25.9312L310.56 24.5488C309.006 26.1739 307.016 27 304.503 27V29ZM311.998 25.9393C314.011 23.8816 314.983 21.1948 314.983 17.98H312.983C312.983 20.7652 312.155 22.9184 310.568 24.5407L311.998 25.9393ZM314.983 17.98C314.983 14.7652 314.011 12.0784 311.998 10.0207L310.568 11.4193C312.155 13.0416 312.983 15.1948 312.983 17.98H314.983ZM312.006 10.0288C310.04 7.97388 307.51 6.96 304.503 6.96V8.96C307.016 8.96 309.006 9.78612 310.56 11.4112L312.006 10.0288ZM304.503 6.96C302.54 6.96 300.744 7.41993 299.139 8.35622L300.147 10.0838C301.422 9.34007 302.865 8.96 304.503 8.96V6.96ZM299.157 8.34584C297.544 9.24194 296.273 10.5415 295.348 12.2163L297.098 13.1837C297.853 11.8185 298.862 10.7981 300.129 10.0942L299.157 8.34584ZM295.348 12.2163C294.414 13.9055 293.963 15.8367 293.963 17.98H295.963C295.963 16.1233 296.352 14.5345 297.098 13.1837L295.348 12.2163ZM293.963 17.98C293.963 20.1233 294.414 22.0545 295.348 23.7437L297.098 22.7763C296.352 21.4255 295.963 19.8367 295.963 17.98H293.963ZM295.348 23.7437C296.271 25.4147 297.537 26.729 299.139 27.6638L300.147 25.9362C298.869 25.191 297.855 24.1453 297.098 22.7763L295.348 23.7437ZM299.157 27.6742C300.759 28.5642 302.549 29 304.503 29V27C302.857 27 301.407 26.6358 300.129 25.9258L299.157 27.6742Z" fill="white" fill-opacity="0.3"/>
</svg>
