<svg width="55" height="377" viewBox="0 0 55 377" fill="none" xmlns="http://www.w3.org/2000/svg">
<path d="M51.42 29.07L50.539 28.5967L50.5337 28.607L51.42 29.07ZM44.56 36.42L44.0435 35.5637L44.0374 35.5674L44.56 36.42ZM24.75 36.42L24.2335 37.2763L24.75 36.42ZM17.82 29.07L16.9336 29.533L16.9391 29.5433L17.82 29.07ZM17.05 9.26L17.9763 9.6368L17.05 9.26ZM21.88 2.26L22.597 1.56292L21.9221 0.868783L21.2065 1.5208L21.88 2.26ZM26.78 7.3L27.4871 8.0071L28.1843 7.30989L27.497 6.60292L26.78 7.3ZM24.89 26.27L24.09 26.87L24.092 26.8726L24.89 26.27ZM31.75 30.68L31.5263 31.6547L32.75 31.9355L32.75 30.68L31.75 30.68ZM31.75 13.39L31.75 12.39L30.75 12.39L30.75 13.39L31.75 13.39ZM38.05 13.39L39.05 13.39L39.05 12.39L38.05 12.39L38.05 13.39ZM38.05 30.61L37.05 30.61L37.05 31.896L38.2964 31.5792L38.05 30.61ZM44.56 26.2L43.7519 25.6108L43.744 25.622L44.56 26.2ZM42.53 7.3L41.813 6.60292L41.1202 7.31548L41.8285 8.01265L42.53 7.3ZM47.43 2.26L48.0862 1.50539L47.3724 0.884702L46.713 1.56292L47.43 2.26ZM52.26 9.19L51.3283 9.55322L51.3315 9.56139L52.26 9.19ZM52.94 18.5C52.94 22.2724 52.133 25.6303 50.5391 28.5967L52.3009 29.5433C54.067 26.2564 54.94 22.5676 54.94 18.5L52.94 18.5ZM50.5337 28.607C48.9828 31.5758 46.822 33.8878 44.0435 35.5637L45.0765 37.2763C48.178 35.4056 50.5906 32.8175 52.3063 29.533L50.5337 28.607ZM44.0374 35.5674C41.3149 37.2361 38.2087 38.08 34.69 38.08L34.69 40.08C38.5446 40.08 42.0185 39.1506 45.0826 37.2726L44.0374 35.5674ZM34.69 38.08C31.1714 38.08 28.0391 37.2361 25.2665 35.5637L24.2335 37.2763C27.3409 39.1506 30.8352 40.08 34.69 40.08L34.69 38.08ZM25.2665 35.5637C22.4855 33.8863 20.299 31.5709 18.7009 28.5967L16.9391 29.5433C18.701 32.8224 21.1345 35.4071 24.2335 37.2763L25.2665 35.5637ZM18.7064 28.607C17.1557 25.6386 16.37 22.277 16.37 18.5L14.37 18.5C14.37 22.563 15.2177 26.2481 16.9337 29.533L18.7064 28.607ZM16.37 18.5C16.37 15.2038 16.9116 12.2543 17.9763 9.6368L16.1237 8.8832C14.9484 11.7724 14.37 14.9829 14.37 18.5L16.37 18.5ZM17.9763 9.6368C19.0428 7.01504 20.5688 4.80743 22.5535 2.99919L21.2065 1.5208C18.9912 3.53924 17.2972 5.99829 16.1237 8.8832L17.9763 9.6368ZM21.163 2.95708L26.063 7.99708L27.497 6.60292L22.597 1.56292L21.163 2.95708ZM26.0729 6.59289C22.9386 9.72715 21.37 13.6011 21.37 18.15L23.37 18.15C23.37 14.1122 24.7414 10.7528 27.4871 8.0071L26.0729 6.59289ZM21.37 18.15C21.37 21.5095 22.2632 24.4342 24.09 26.87L25.69 25.67C24.1568 23.6258 23.37 21.1372 23.37 18.15L21.37 18.15ZM24.092 26.8726C25.9633 29.3509 28.4552 30.9498 31.5263 31.6547L31.9737 29.7053C29.3514 29.1035 27.27 27.7624 25.688 25.6674L24.092 26.8726ZM32.75 30.68L32.75 13.39L30.75 13.39L30.75 30.68L32.75 30.68ZM31.75 14.39L38.05 14.39L38.05 12.39L31.75 12.39L31.75 14.39ZM37.05 13.39L37.05 30.61L39.05 30.61L39.05 13.39L37.05 13.39ZM38.2964 31.5792C41.2713 30.8228 43.6468 29.2192 45.376 26.778L43.744 25.622C42.2998 27.6608 40.3354 28.9972 37.8036 29.6408L38.2964 31.5792ZM45.368 26.7892C47.1418 24.3565 48.01 21.4602 48.01 18.15L46.01 18.15C46.01 21.0932 45.2449 23.5634 43.752 25.6108L45.368 26.7892ZM48.01 18.15C48.01 13.5961 46.4143 9.72041 43.2315 6.58735L41.8285 8.01265C44.619 10.7596 46.01 14.1173 46.01 18.15L48.01 18.15ZM43.247 7.99708L48.147 2.95708L46.713 1.56292L41.813 6.60292L43.247 7.99708ZM46.7738 3.0146C48.7935 4.77085 50.3114 6.94466 51.3283 9.55321L53.1917 8.82679C52.0619 5.92867 50.3598 3.48248 48.0862 1.50539L46.7738 3.0146ZM51.3315 9.56139C52.3985 12.2289 52.94 15.2041 52.94 18.5L54.94 18.5C54.94 14.9825 54.3615 11.7511 53.1885 8.81861L51.3315 9.56139ZM35.46 74.6438L36.3767 74.2442L35.291 71.7534L34.503 74.3538L35.46 74.6438ZM16 47.5538L16 46.5538L15 46.5538L15 47.5538L16 47.5538ZM53.38 47.5538L54.38 47.5538L54.38 46.5538L53.38 46.5538L53.38 47.5538ZM50.86 76.5338L50.0233 75.9862L50.86 76.5338ZM38.75 78.8438L39.3414 78.0374L39.3325 78.0309L39.3235 78.0246L38.75 78.8438ZM37.77 55.8838L37.77 54.8838L36.77 54.8838L36.77 55.8838L37.77 55.8838ZM47.01 55.8838L48.01 55.8838L48.01 54.8838L47.01 54.8838L47.01 55.8838ZM30.7 71.4238L29.9 70.8238L29.8918 70.8347L29.884 70.8458L30.7 71.4238ZM31.96 55.8838L32.96 55.8838L32.96 54.8838L31.96 54.8838L31.96 55.8838ZM22.37 55.8838L22.37 54.8838L21.37 54.8838L21.37 55.8838L22.37 55.8838ZM34.503 74.3538C33.8464 76.5205 32.8467 78.0538 31.5582 79.0503C30.2746 80.0431 28.6134 80.5738 26.5 80.5738L26.5 82.5738C28.96 82.5738 31.0787 81.9496 32.7818 80.6323C34.48 79.3189 35.6736 77.3872 36.417 74.9338L34.503 74.3538ZM26.5 80.5738C23.4308 80.5738 21.1556 79.4444 19.5407 77.2083L17.9193 78.3793C19.9444 81.1833 22.8492 82.5738 26.5 82.5738L26.5 80.5738ZM19.5407 77.2083C17.8973 74.9328 17 71.4451 17 66.5938L15 66.5938C15 71.6358 15.9227 75.6148 17.9193 78.3793L19.5407 77.2083ZM17 66.5938L17 47.5538L15 47.5538L15 66.5938L17 66.5938ZM16 48.5538L53.38 48.5538L53.38 46.5538L16 46.5538L16 48.5538ZM52.38 47.5538L52.38 65.8238L54.38 65.8238L54.38 47.5538L52.38 47.5538ZM52.38 65.8238C52.38 70.2923 51.5565 73.6438 50.0233 75.9862L51.6967 77.0815C53.5235 74.2905 54.38 70.5021 54.38 65.8238L52.38 65.8238ZM50.0233 75.9862C48.529 78.2692 46.4643 79.3838 43.72 79.3838L43.72 81.3838C47.1357 81.3838 49.831 79.9318 51.6967 77.0815L50.0233 75.9862ZM43.72 79.3838C41.9965 79.3838 40.5523 78.9254 39.3414 78.0374L38.1586 79.6502C39.7477 80.8155 41.6168 81.3838 43.72 81.3838L43.72 79.3838ZM39.3235 78.0246C38.0973 77.1663 37.1085 75.9232 36.3767 74.2442L34.5433 75.0434C35.3981 77.0045 36.6027 78.5613 38.1765 79.6631L39.3235 78.0246ZM36.77 55.8838L36.77 65.0538L38.77 65.0538L38.77 55.8838L36.77 55.8838ZM36.77 65.0538C36.77 67.4013 37.1698 69.3394 38.1197 70.7147C39.1159 72.1569 40.6202 72.8438 42.46 72.8438L42.46 70.8438C41.1731 70.8438 40.3325 70.3991 39.7653 69.578C39.1519 68.69 38.77 67.233 38.77 65.0538L36.77 65.0538ZM42.46 72.8438C44.2658 72.8438 45.7358 72.1467 46.7032 70.703C47.6231 69.3302 48.01 67.3973 48.01 65.0538L46.01 65.0538C46.01 67.237 45.6385 68.6991 45.0418 69.5897C44.4925 70.4093 43.6876 70.8438 42.46 70.8438L42.46 72.8438ZM48.01 65.0538L48.01 55.8838L46.01 55.8838L46.01 65.0538L48.01 65.0538ZM47.01 54.8838L37.77 54.8838L37.77 56.8838L47.01 56.8838L47.01 54.8838ZM21.37 65.8938C21.37 68.3736 21.7675 70.4065 22.7042 71.8466C23.6894 73.3611 25.1947 74.1038 27.06 74.1038L27.06 72.1038C25.7986 72.1038 24.9589 71.6449 24.3808 70.7561C23.7542 69.7928 23.37 68.2207 23.37 65.8938L21.37 65.8938ZM27.06 74.1038C28.9475 74.1038 30.498 73.439 31.516 72.0018L29.884 70.8458C29.3153 71.6486 28.4392 72.1038 27.06 72.1038L27.06 74.1038ZM31.5 72.0238C32.533 70.6465 32.96 68.6335 32.96 66.1738L30.96 66.1738C30.96 68.4741 30.547 69.9612 29.9 70.8238L31.5 72.0238ZM32.96 66.1738L32.96 55.8838L30.96 55.8838L30.96 66.1738L32.96 66.1738ZM31.96 54.8838L22.37 54.8838L22.37 56.8838L31.96 56.8838L31.96 54.8838ZM21.37 55.8838L21.37 65.8938L23.37 65.8938L23.37 55.8838L21.37 55.8838ZM49.81 117.424L49.0738 116.747L49.0682 116.753L49.0626 116.759L49.81 117.424ZM16 121.834L15 121.834L15 122.834L16 122.834L16 121.834ZM16 113.574L16 112.574L15 112.574L15 113.574L16 113.574ZM20.55 113.574L20.55 114.574L23.8926 114.574L21.0992 112.738L20.55 113.574ZM16.77 108.954L15.8508 109.348L15.8553 109.358L16.77 108.954ZM16.91 94.4637L16.0038 94.0408L15.9999 94.0491L15.9962 94.0575L16.91 94.4637ZM20.9 89.5637L20.3558 88.7247L20.3426 88.7333L20.3296 88.7423L20.9 89.5637ZM34.76 91.5937L33.9834 92.2237L33.9848 92.2253L34.76 91.5937ZM37.84 113.084L36.84 113.084L36.84 114.084L37.84 114.084L37.84 113.084ZM44.42 110.704L43.6801 110.031L43.6751 110.036L43.6702 110.042L44.42 110.704ZM45.54 97.5437L46.4929 97.2405L46.4909 97.2341L45.54 97.5437ZM42.81 92.4337L42.3359 91.5532L41.2582 92.1335L42.0418 93.0739L42.81 92.4337ZM49.18 89.0037L49.9754 88.3976L49.4579 87.7183L48.7059 88.1232L49.18 89.0037ZM52.61 96.0737L51.6491 96.3505L51.6491 96.3505L52.61 96.0737ZM23.35 109.444L22.4862 109.948L22.4905 109.955L23.35 109.444ZM27.69 113.084L27.3389 114.02L27.5087 114.084L27.69 114.084L27.69 113.084ZM32.03 113.084L32.03 114.084L33.03 114.084L33.03 113.084L32.03 113.084ZM23.28 98.3837L24.0836 98.9789L23.28 98.3837ZM52.8 104.824C52.8 110.18 51.5065 114.101 49.0738 116.747L50.5462 118.1C53.4335 114.96 54.8 110.48 54.8 104.824L52.8 104.824ZM49.0626 116.759C46.6993 119.418 43.0498 120.834 37.91 120.834L37.91 122.834C43.4102 122.834 47.694 121.309 50.5574 118.088L49.0626 116.759ZM37.91 120.834L16 120.834L16 122.834L37.91 122.834L37.91 120.834ZM17 121.834L17 113.574L15 113.574L15 121.834L17 121.834ZM16 114.574L20.55 114.574L20.55 112.574L16 112.574L16 114.574ZM21.0992 112.738C19.6459 111.783 18.5034 110.402 17.6847 108.55L15.8553 109.358C16.8099 111.518 18.1875 113.218 20.0008 114.409L21.0992 112.738ZM17.6891 108.56C16.9164 106.757 16.51 104.519 16.51 101.814L14.51 101.814C14.51 104.709 14.9436 107.231 15.8508 109.348L17.6891 108.56ZM16.51 101.814C16.51 99.1237 16.9583 96.8172 17.8238 94.8698L15.9962 94.0575C14.995 96.3101 14.51 98.9036 14.51 101.814L16.51 101.814ZM17.8162 94.8866C18.7316 92.925 19.9541 91.438 21.4704 90.385L20.3296 88.7423C18.4859 90.0226 17.0484 91.8023 16.0038 94.0408L17.8162 94.8866ZM21.4442 90.4026C23.0016 89.3924 24.7477 88.8837 26.71 88.8837L26.71 86.8837C24.3789 86.8837 22.2517 87.4949 20.3558 88.7247L21.4442 90.4026ZM26.71 88.8837C29.7877 88.8837 32.1783 89.9988 33.9834 92.2237L35.5366 90.9636C33.3283 88.2418 30.3523 86.8837 26.71 86.8837L26.71 88.8837ZM33.9848 92.2253C35.8244 94.4831 36.84 98.1489 36.84 103.424L38.84 103.424C38.84 97.9651 37.8022 93.7442 35.5352 90.962L33.9848 92.2253ZM36.84 103.424L36.84 113.084L38.84 113.084L38.84 103.424L36.84 103.424ZM37.84 114.084L38.4 114.084L38.4 112.084L37.84 112.084L37.84 114.084ZM38.4 114.084C41.2273 114.084 43.5365 113.216 45.1698 111.365L43.6702 110.042C42.5035 111.364 40.7994 112.084 38.4 112.084L38.4 114.084ZM45.1599 111.376C46.7921 109.581 47.52 106.985 47.52 103.774L45.52 103.774C45.52 106.722 44.8479 108.746 43.6801 110.031L45.1599 111.376ZM47.52 103.774C47.52 101.568 47.1766 99.3893 46.4929 97.2405L44.5871 97.8469C45.21 99.8047 45.52 101.779 45.52 103.774L47.52 103.774ZM46.4909 97.2341C45.8043 95.1255 44.838 93.3052 43.5782 91.7935L42.0418 93.0739C43.1153 94.3621 43.969 95.9485 44.5891 97.8533L46.4909 97.2341ZM43.2841 93.3141L49.6541 89.8841L48.7059 88.1232L42.3359 91.5532L43.2841 93.3141ZM48.3846 89.6097C49.7917 91.4565 50.8846 93.6971 51.6491 96.3505L53.5709 95.7968C52.7488 92.9435 51.555 90.4708 49.9754 88.3976L48.3846 89.6097ZM51.6491 96.3505C52.4146 99.0074 52.8 101.83 52.8 104.824L54.8 104.824C54.8 101.657 54.392 98.6466 53.5709 95.7968L51.6491 96.3505ZM20.88 103.634C20.88 105.981 21.4061 108.096 22.4862 109.948L24.2138 108.94C23.3339 107.432 22.88 105.673 22.88 103.634L20.88 103.634ZM22.4905 109.955C23.6324 111.875 25.2576 113.24 27.3389 114.02L28.0411 112.147C26.3891 111.528 25.121 110.465 24.2095 108.933L22.4905 109.955ZM27.69 114.084L32.03 114.084L32.03 112.084L27.69 112.084L27.69 114.084ZM33.03 113.084L33.03 104.054L31.03 104.054L31.03 113.084L33.03 113.084ZM33.03 104.054C33.03 101.456 32.6088 99.3337 31.6231 97.8343C30.5892 96.2617 29.014 95.4937 27.06 95.4937L27.06 97.4937C28.4193 97.4937 29.3291 97.9856 29.9519 98.933C30.6228 99.9536 31.03 101.611 31.03 104.054L33.03 104.054ZM27.06 95.4937C25.1609 95.4937 23.601 96.2703 22.4764 97.7884L24.0836 98.9789C24.8256 97.9771 25.7857 97.4937 27.06 97.4937L27.06 95.4937ZM22.4764 97.7884C21.3712 99.2805 20.88 101.268 20.88 103.634L22.88 103.634C22.88 101.519 23.3221 100.007 24.0836 98.9789L22.4764 97.7884ZM30.98 148.201L31.5812 149L31.98 148.7L31.98 148.201L30.98 148.201ZM30.98 141.411L31.98 141.411L31.98 140.411L30.98 140.411L30.98 141.411ZM16 141.411L15 141.411L15 142.411L16 142.411L16 141.411ZM16 132.661L16 131.661L15 131.661L15 132.661L16 132.661ZM53.38 132.661L54.38 132.661L54.38 131.661L53.38 131.661L53.38 132.661ZM53.38 141.411L53.38 142.411L54.38 142.411L54.38 141.411L53.38 141.411ZM38.26 141.411L38.26 140.411L37.26 140.411L37.26 141.411L38.26 141.411ZM38.26 148.411L37.26 148.411L37.26 148.919L37.6696 149.218L38.26 148.411ZM53.38 159.471L54.38 159.471L54.38 158.964L53.9704 158.664L53.38 159.471ZM53.38 168.851L52.7775 169.649L54.38 170.859L54.38 168.851L53.38 168.851ZM35.39 155.271L35.9925 154.473L35.393 154.021L34.7914 154.47L35.39 155.271ZM16 169.761L15 169.761L15 171.757L16.5986 170.562L16 169.761ZM16 159.471L15.3988 158.672L15 158.972L15 159.471L16 159.471ZM31.98 148.201L31.98 141.411L29.98 141.411L29.98 148.201L31.98 148.201ZM30.98 140.411L16 140.411L16 142.411L30.98 142.411L30.98 140.411ZM17 141.411L17 132.661L15 132.661L15 141.411L17 141.411ZM16 133.661L53.38 133.661L53.38 131.661L16 131.661L16 133.661ZM52.38 132.661L52.38 141.411L54.38 141.411L54.38 132.661L52.38 132.661ZM53.38 140.411L38.26 140.411L38.26 142.411L53.38 142.411L53.38 140.411ZM37.26 141.411L37.26 148.411L39.26 148.411L39.26 141.411L37.26 141.411ZM37.6696 149.218L52.7896 160.278L53.9704 158.664L38.8504 147.604L37.6696 149.218ZM52.38 159.471L52.38 168.851L54.38 168.851L54.38 159.471L52.38 159.471ZM53.9825 168.053L35.9925 154.473L34.7875 156.069L52.7775 169.649L53.9825 168.053ZM34.7914 154.47L15.4014 168.96L16.5986 170.562L35.9886 156.072L34.7914 154.47ZM17 169.761L17 159.471L15 159.471L15 169.761L17 169.761ZM16.6012 160.27L31.5812 149L30.3788 147.402L15.3988 158.672L16.6012 160.27ZM53.38 209.094L52.9824 210.011L54.38 210.617L54.38 209.094L53.38 209.094ZM12.99 191.594L13.3876 190.676L13.3755 190.671L13.3632 190.666L12.99 191.594ZM4.44999 185.644L5.26929 185.07L5.26153 185.059L4.44999 185.644ZM2.83999 171.644L1.89131 171.327L2.83999 171.644ZM5.35999 167.164L5.8375 166.285L5.15217 165.913L4.62406 166.487L5.35999 167.164ZM11.8 170.664L12.527 171.35L13.4193 170.405L12.2775 169.785L11.8 170.664ZM9.90999 173.604L8.98692 173.219L8.98417 173.226L8.98151 173.232L9.90999 173.604ZM10.4 180.884L11.1913 180.272L11.1844 180.263L11.1772 180.254L10.4 180.884ZM14.39 183.684L13.9796 184.596L13.9878 184.599L13.9961 184.603L14.39 183.684ZM15.86 184.314L15.4661 185.233L15.8628 185.403L16.2587 185.231L15.86 184.314ZM53.38 168.004L54.38 168.004L54.38 166.478L52.9813 167.087L53.38 168.004ZM53.38 177.104L53.7714 178.024L54.38 177.765L54.38 177.104L53.38 177.104ZM25.73 188.864L25.3386 187.943L23.1814 188.861L25.3366 189.783L25.73 188.864ZM53.38 200.694L54.38 200.694L54.38 200.034L53.7734 199.774L53.38 200.694ZM53.7776 208.176L13.3876 190.676L12.5924 192.511L52.9824 210.011L53.7776 208.176ZM13.3632 190.666C9.39361 189.069 6.74663 187.181 5.26923 185.07L3.63076 186.217C5.42001 188.773 8.46638 190.852 12.6168 192.521L13.3632 190.666ZM5.26153 185.059C3.72209 182.921 2.92999 180.31 2.92999 177.174L0.929993 177.174C0.929992 180.664 1.81789 183.699 3.63846 186.228L5.26153 185.059ZM2.92999 177.174C2.92999 175.417 3.21504 173.681 3.78867 171.96L1.89131 171.327C1.25161 173.246 0.929993 175.196 0.929993 177.174L2.92999 177.174ZM3.78867 171.96C4.35989 170.246 5.13609 168.884 6.09592 167.841L4.62406 166.487C3.43723 167.777 2.53342 169.401 1.89131 171.327L3.78867 171.96ZM4.88248 168.042L11.3225 171.542L12.2775 169.785L5.8375 166.285L4.88248 168.042ZM11.073 169.977C10.1924 170.909 9.49776 171.993 8.98692 173.219L10.8331 173.988C11.2556 172.974 11.8209 172.098 12.527 171.35L11.073 169.977ZM8.98151 173.232C8.47127 174.508 8.20999 175.8 8.20999 177.104L10.21 177.104C10.21 176.074 10.4154 175.033 10.8385 173.975L8.98151 173.232ZM8.20999 177.104C8.20999 178.82 8.65548 180.318 9.62275 181.513L11.1772 180.254C10.5578 179.489 10.21 178.467 10.21 177.104L8.20999 177.104ZM9.6087 181.495C10.5442 182.706 12.0412 183.723 13.9796 184.596L14.8004 182.772C13.0054 181.964 11.8425 181.115 11.1913 180.272L9.6087 181.495ZM13.9961 184.603L15.4661 185.233L16.2539 183.394L14.7839 182.764L13.9961 184.603ZM16.2587 185.231L53.7787 168.921L52.9813 167.087L15.4613 183.396L16.2587 185.231ZM52.38 168.004L52.38 177.104L54.38 177.104L54.38 168.004L52.38 168.004ZM52.9886 176.183L25.3386 187.943L26.1214 189.784L53.7714 178.024L52.9886 176.183ZM25.3366 189.783L52.9866 201.613L53.7734 199.774L26.1234 187.944L25.3366 189.783ZM52.38 200.694L52.38 209.094L54.38 209.094L54.38 200.694L52.38 200.694ZM49.81 240.539L49.0738 239.862L49.0682 239.868L49.0626 239.875L49.81 240.539ZM16 244.949L15 244.949L15 245.949L16 245.949L16 244.949ZM16 236.689L16 235.689L15 235.689L15 236.689L16 236.689ZM20.55 236.689L20.55 237.689L23.8926 237.689L21.0992 235.853L20.55 236.689ZM16.77 232.069L15.8508 232.463L15.8553 232.473L16.77 232.069ZM16.91 217.579L16.0038 217.156L15.9999 217.164L15.9962 217.173L16.91 217.579ZM20.9 212.679L20.3558 211.84L20.3426 211.849L20.3296 211.858L20.9 212.679ZM34.76 214.709L33.9834 215.339L33.9848 215.341L34.76 214.709ZM37.84 236.199L36.84 236.199L36.84 237.199L37.84 237.199L37.84 236.199ZM44.42 233.819L43.6801 233.146L43.6751 233.152L43.6702 233.157L44.42 233.819ZM45.54 220.659L46.4929 220.356L46.4909 220.349L45.54 220.659ZM42.81 215.549L42.3359 214.668L41.2582 215.249L42.0418 216.189L42.81 215.549ZM49.18 212.119L49.9754 211.513L49.4578 210.834L48.7059 211.238L49.18 212.119ZM52.61 219.189L51.6491 219.466L52.61 219.189ZM23.35 232.559L22.4862 233.063L22.4905 233.07L23.35 232.559ZM27.69 236.199L27.3389 237.135L27.5087 237.199L27.69 237.199L27.69 236.199ZM32.03 236.199L32.03 237.199L33.03 237.199L33.03 236.199L32.03 236.199ZM23.28 221.499L24.0835 222.094L23.28 221.499ZM52.8 227.939C52.8 233.296 51.5065 237.216 49.0738 239.862L50.5462 241.216C53.4335 238.075 54.8 233.596 54.8 227.939L52.8 227.939ZM49.0626 239.875C46.6993 242.533 43.0498 243.949 37.91 243.949L37.91 245.949C43.4102 245.949 47.694 244.425 50.5574 241.203L49.0626 239.875ZM37.91 243.949L16 243.949L16 245.949L37.91 245.949L37.91 243.949ZM17 244.949L17 236.689L15 236.689L15 244.949L17 244.949ZM16 237.689L20.55 237.689L20.55 235.689L16 235.689L16 237.689ZM21.0992 235.853C19.6458 234.898 18.5034 233.518 17.6847 231.665L15.8553 232.473C16.8099 234.633 18.1875 236.333 20.0008 237.525L21.0992 235.853ZM17.6891 231.675C16.9164 229.872 16.51 227.634 16.51 224.929L14.51 224.929C14.51 227.824 14.9436 230.346 15.8508 232.463L17.6891 231.675ZM16.51 224.929C16.51 222.239 16.9583 219.932 17.8238 217.985L15.9962 217.173C14.995 219.425 14.51 222.019 14.51 224.929L16.51 224.929ZM17.8162 218.002C18.7316 216.04 19.9541 214.553 21.4704 213.5L20.3296 211.858C18.4859 213.138 17.0484 214.918 16.0038 217.156L17.8162 218.002ZM21.4442 213.518C23.0016 212.508 24.7477 211.999 26.71 211.999L26.71 209.999C24.3789 209.999 22.2517 210.61 20.3558 211.84L21.4442 213.518ZM26.71 211.999C29.7877 211.999 32.1783 213.114 33.9834 215.339L35.5366 214.079C33.3283 211.357 30.3523 209.999 26.71 209.999L26.71 211.999ZM33.9848 215.341C35.8244 217.598 36.84 221.264 36.84 226.539L38.84 226.539C38.84 221.08 37.8022 216.859 35.5352 214.077L33.9848 215.341ZM36.84 226.539L36.84 236.199L38.84 236.199L38.84 226.539L36.84 226.539ZM37.84 237.199L38.4 237.199L38.4 235.199L37.84 235.199L37.84 237.199ZM38.4 237.199C41.2273 237.199 43.5365 236.332 45.1698 234.481L43.6702 233.157C42.5034 234.48 40.7994 235.199 38.4 235.199L38.4 237.199ZM45.1599 234.492C46.7921 232.696 47.52 230.101 47.52 226.889L45.52 226.889C45.52 229.837 44.8479 231.862 43.6801 233.146L45.1599 234.492ZM47.52 226.889C47.52 224.683 47.1766 222.504 46.4929 220.356L44.5871 220.962C45.21 222.92 45.52 224.894 45.52 226.889L47.52 226.889ZM46.4909 220.349C45.8043 218.241 44.838 216.42 43.5782 214.909L42.0418 216.189C43.1153 217.477 43.969 219.064 44.5891 220.968L46.4909 220.349ZM43.2841 216.429L49.6541 212.999L48.7059 211.238L42.3359 214.668L43.2841 216.429ZM48.3846 212.725C49.7917 214.572 50.8846 216.812 51.6491 219.466L53.5709 218.912C52.7488 216.059 51.555 213.586 49.9754 211.513L48.3846 212.725ZM51.6491 219.466C52.4146 222.123 52.8 224.946 52.8 227.939L54.8 227.939C54.8 224.772 54.392 221.762 53.5709 218.912L51.6491 219.466ZM20.88 226.749C20.88 229.096 21.406 231.211 22.4862 233.063L24.2138 232.055C23.3339 230.547 22.88 228.788 22.88 226.749L20.88 226.749ZM22.4905 233.07C23.6324 234.99 25.2575 236.355 27.3389 237.135L28.0411 235.263C26.3891 234.643 25.121 233.581 24.2095 232.048L22.4905 233.07ZM27.69 237.199L32.03 237.199L32.03 235.199L27.69 235.199L27.69 237.199ZM33.03 236.199L33.03 227.169L31.03 227.169L31.03 236.199L33.03 236.199ZM33.03 227.169C33.03 224.571 32.6088 222.449 31.6231 220.95C30.5892 219.377 29.014 218.609 27.06 218.609L27.06 220.609C28.4193 220.609 29.3291 221.101 29.9519 222.048C30.6228 223.069 31.03 224.727 31.03 227.169L33.03 227.169ZM27.06 218.609C25.1609 218.609 23.601 219.386 22.4764 220.904L24.0835 222.094C24.8256 221.092 25.7857 220.609 27.06 220.609L27.06 218.609ZM22.4764 220.904C21.3712 222.396 20.88 224.383 20.88 226.749L22.88 226.749C22.88 224.634 23.3221 223.122 24.0835 222.094L22.4764 220.904ZM45.96 285.386L44.96 285.386L44.96 286.386L45.96 286.386L45.96 285.386ZM45.96 272.296L46.96 272.296L46.96 271.296L45.96 271.296L45.96 272.296ZM16 272.296L15 272.296L15 273.296L16 273.296L16 272.296ZM16 263.546L16 262.546L15 262.546L15 263.546L16 263.546ZM45.96 263.546L45.96 264.546L46.96 264.546L46.96 263.546L45.96 263.546ZM45.96 250.386L45.96 249.386L44.96 249.386L44.96 250.386L45.96 250.386ZM53.38 250.386L54.38 250.386L54.38 249.386L53.38 249.386L53.38 250.386ZM53.38 285.386L53.38 286.386L54.38 286.386L54.38 285.386L53.38 285.386ZM46.96 285.386L46.96 272.296L44.96 272.296L44.96 285.386L46.96 285.386ZM45.96 271.296L16 271.296L16 273.296L45.96 273.296L45.96 271.296ZM17 272.296L17 263.546L15 263.546L15 272.296L17 272.296ZM16 264.546L45.96 264.546L45.96 262.546L16 262.546L16 264.546ZM46.96 263.546L46.96 250.386L44.96 250.386L44.96 263.546L46.96 263.546ZM45.96 251.386L53.38 251.386L53.38 249.386L45.96 249.386L45.96 251.386ZM52.38 250.386L52.38 285.386L54.38 285.386L54.38 250.386L52.38 250.386ZM53.38 284.386L45.96 284.386L45.96 286.386L53.38 286.386L53.38 284.386ZM17.96 296.533L18.8405 297.007L17.96 296.533ZM24.75 289.393L24.2538 288.525L24.2456 288.529L24.2375 288.534L24.75 289.393ZM44.56 289.393L45.0725 288.534L45.0621 288.528L44.56 289.393ZM51.35 296.533L50.4695 297.007L51.35 296.533ZM51.35 317.043L50.4695 316.569L51.35 317.043ZM44.56 324.113L44.0578 323.248L44.0475 323.254L44.56 324.113ZM24.75 324.113L25.2564 323.251L25.2521 323.248L24.75 324.113ZM17.96 317.043L18.8405 316.569L17.96 317.043ZM26.22 314.733L26.9193 314.018L26.22 314.733ZM43.16 314.733L42.4607 314.018L42.4607 314.018L43.16 314.733ZM43.16 298.773L43.8593 298.058L43.8512 298.05L43.16 298.773ZM26.22 298.773L25.5287 298.05L25.5207 298.058L26.22 298.773ZM16.51 306.753C16.51 303.122 17.293 299.881 18.8405 297.007L17.0795 296.059C15.3603 299.252 14.51 302.824 14.51 306.753L16.51 306.753ZM18.8405 297.007C20.3901 294.129 22.5279 291.884 25.2624 290.252L24.2375 288.534C21.1854 290.356 18.7965 292.87 17.0795 296.059L18.8405 297.007ZM25.2461 290.261C28.0218 288.675 31.1615 287.873 34.69 287.873L34.69 285.873C30.8452 285.873 27.3582 286.751 24.2538 288.525L25.2461 290.261ZM34.69 287.873C38.2187 287.873 41.3323 288.675 44.0579 290.258L45.0621 288.528C42.0011 286.751 38.5346 285.873 34.69 285.873L34.69 287.873ZM44.0475 290.252C46.7821 291.884 48.9198 294.129 50.4695 297.007L52.2305 296.059C50.5135 292.87 48.1246 290.356 45.0724 288.534L44.0475 290.252ZM50.4695 297.007C52.017 299.881 52.8 303.122 52.8 306.753L54.8 306.753C54.8 302.824 53.9497 299.252 52.2305 296.059L50.4695 297.007ZM52.8 306.753C52.8 310.433 52.016 313.697 50.4695 316.569L52.2305 317.517C53.9506 314.322 54.8 310.726 54.8 306.753L52.8 306.753ZM50.4695 316.569C48.921 319.445 46.7865 321.664 44.0579 323.248L45.0621 324.978C48.1202 323.202 50.5123 320.708 52.2305 317.517L50.4695 316.569ZM44.0475 323.254C41.3235 324.88 38.2137 325.703 34.69 325.703L34.69 327.703C38.5396 327.703 42.0098 326.799 45.0724 324.972L44.0475 323.254ZM34.69 325.703C31.1664 325.703 28.0305 324.88 25.2564 323.251L24.2436 324.975C27.3495 326.799 30.8402 327.703 34.69 327.703L34.69 325.703ZM25.2521 323.248C22.5235 321.664 20.3889 319.445 18.8405 316.569L17.0795 317.517C18.7977 320.708 21.1898 323.202 24.2478 324.978L25.2521 323.248ZM18.8405 316.569C17.294 313.697 16.51 310.433 16.51 306.753L14.51 306.753C14.51 310.726 15.3593 314.322 17.0795 317.517L18.8405 316.569ZM22 306.753C22 310.22 23.1668 313.145 25.5207 315.448L26.9193 314.018C24.9798 312.121 24 309.725 24 306.753L22 306.753ZM25.5207 315.448C27.8851 317.761 30.9751 318.883 34.69 318.883L34.69 316.883C31.4048 316.883 28.8482 315.905 26.9193 314.018L25.5207 315.448ZM34.69 318.883C38.4048 318.883 41.4949 317.761 43.8593 315.448L42.4607 314.018C40.5317 315.905 37.9751 316.883 34.69 316.883L34.69 318.883ZM43.8593 315.448C46.2132 313.145 47.38 310.22 47.38 306.753L45.38 306.753C45.38 309.725 44.4002 312.121 42.4607 314.018L43.8593 315.448ZM47.38 306.753C47.38 303.285 46.2132 300.361 43.8593 298.058L42.4607 299.488C44.4002 301.385 45.38 303.78 45.38 306.753L47.38 306.753ZM43.8512 298.05C41.4858 295.788 38.3984 294.693 34.69 294.693L34.69 296.693C37.9815 296.693 40.5409 297.651 42.4688 299.496L43.8512 298.05ZM34.69 294.693C30.9815 294.693 27.8942 295.788 25.5288 298.05L26.9112 299.496C28.8391 297.651 31.3984 296.693 34.69 296.693L34.69 294.693ZM25.5207 298.058C23.1668 300.361 22 303.285 22 306.753L24 306.753C24 303.78 24.9798 301.385 26.9193 299.488L25.5207 298.058ZM51.42 365.797L50.5465 365.31L50.5432 365.316L51.42 365.797ZM44.7 372.587L45.1916 373.458L44.7 372.587ZM24.61 372.587L24.1184 373.458L24.1243 373.461L24.61 372.587ZM17.89 365.797L18.7668 365.316L18.7635 365.31L17.89 365.797ZM20.55 344.097L21.2085 344.849L23.2114 343.097L20.55 343.097L20.55 344.097ZM2.41998 344.097L1.41998 344.097L1.41998 345.097L2.41998 345.097L2.41998 344.097ZM2.41998 335.347L2.41998 334.347L1.41998 334.347L1.41998 335.347L2.41998 335.347ZM53.38 335.347L54.38 335.347L54.38 334.347L53.38 334.347L53.38 335.347ZM53.38 343.677L53.38 344.677L54.38 344.677L54.38 343.677L53.38 343.677ZM48.48 343.677L48.48 342.677L45.6722 342.677L47.8479 344.452L48.48 343.677ZM52.47 348.997L53.3943 348.615L53.3912 348.608L52.47 348.997ZM26.22 362.997L26.9193 362.282L26.9112 362.274L26.22 362.997ZM43.16 362.997L42.4687 362.274L42.4607 362.282L43.16 362.997ZM44.91 349.417L44.0358 349.902L44.0409 349.912L44.0462 349.921L44.91 349.417ZM40.85 345.427L41.3337 344.552L40.85 345.427ZM24.4 349.417L23.5362 348.913L23.5309 348.922L23.5258 348.931L24.4 349.417ZM52.8 356.067C52.8 359.557 52.0408 362.629 50.5465 365.31L52.2935 366.284C53.9725 363.271 54.8 359.857 54.8 356.067L52.8 356.067ZM50.5432 365.316C49.0467 368.045 46.9407 370.174 44.2084 371.716L45.1916 373.458C48.246 371.733 50.6199 369.335 52.2968 366.278L50.5432 365.316ZM44.2084 371.716C41.4847 373.254 38.3218 374.037 34.69 374.037L34.69 376.037C38.6182 376.037 42.1286 375.187 45.1916 373.458L44.2084 371.716ZM34.69 374.037C31.0585 374.037 27.8694 373.254 25.0956 371.713L24.1243 373.461C27.2306 375.187 30.7615 376.037 34.69 376.037L34.69 374.037ZM25.1016 371.716C22.3693 370.174 20.2632 368.045 18.7668 365.316L17.0132 366.278C18.6901 369.335 21.064 371.733 24.1184 373.458L25.1016 371.716ZM18.7635 365.31C17.2691 362.629 16.51 359.557 16.51 356.067L14.51 356.067C14.51 359.857 15.3375 363.271 17.0165 366.284L18.7635 365.31ZM16.51 356.067C16.51 351.274 18.0948 347.574 21.2085 344.849L19.8915 343.344C16.2851 346.5 14.51 350.78 14.51 356.067L16.51 356.067ZM20.55 343.097L2.41998 343.097L2.41998 345.097L20.55 345.097L20.55 343.097ZM3.41998 344.097L3.41998 335.347L1.41998 335.347L1.41998 344.097L3.41998 344.097ZM2.41998 336.347L53.38 336.347L53.38 334.347L2.41998 334.347L2.41998 336.347ZM52.38 335.347L52.38 343.677L54.38 343.677L54.38 335.347L52.38 335.347ZM53.38 342.677L48.48 342.677L48.48 344.677L53.38 344.677L53.38 342.677ZM47.8479 344.452C49.4953 345.796 50.7258 347.437 51.5487 349.386L53.3912 348.608C52.4409 346.357 51.0113 344.451 49.1121 342.902L47.8479 344.452ZM51.5457 349.379C52.3774 351.392 52.8 353.617 52.8 356.067L54.8 356.067C54.8 353.383 54.3359 350.895 53.3942 348.615L51.5457 349.379ZM22 355.087C22 358.554 23.1672 361.461 25.5288 363.719L26.9112 362.274C24.9794 360.426 24 358.059 24 355.087L22 355.087ZM25.5207 363.712C27.8851 366.025 30.9751 367.147 34.69 367.147L34.69 365.147C31.4048 365.147 28.8482 364.169 26.9193 362.282L25.5207 363.712ZM34.69 367.147C38.4048 367.147 41.4949 366.025 43.8593 363.712L42.4607 362.282C40.5317 364.169 37.9751 365.147 34.69 365.147L34.69 367.147ZM43.8512 363.719C46.2128 361.461 47.38 358.554 47.38 355.087L45.38 355.087C45.38 358.059 44.4005 360.426 42.4688 362.274L43.8512 363.719ZM47.38 355.087C47.38 352.824 46.8501 350.758 45.7738 348.913L44.0462 349.921C44.9299 351.436 45.38 353.149 45.38 355.087L47.38 355.087ZM45.7841 348.931C44.7547 347.078 43.2618 345.617 41.3337 344.552L40.3663 346.302C41.9848 347.197 43.1986 348.395 44.0358 349.902L45.7841 348.931ZM41.3337 344.552C39.3911 343.478 37.1666 342.957 34.69 342.957L34.69 344.957C36.88 344.957 38.7622 345.416 40.3663 346.302L41.3337 344.552ZM34.69 342.957C32.2134 342.957 29.9888 343.478 28.0463 344.552L29.0137 346.302C30.6178 345.416 32.4999 344.957 34.69 344.957L34.69 342.957ZM28.0463 344.552C26.122 345.615 24.611 347.07 23.5362 348.913L25.2638 349.921C26.149 348.403 27.3913 347.199 29.0137 346.302L28.0463 344.552ZM23.5258 348.931C22.5025 350.773 22 352.833 22 355.087L24 355.087C24 353.141 24.4308 351.42 25.2741 349.902L23.5258 348.931Z" fill="white" fill-opacity="0.3"/>
</svg>
