<svg width="33" height="137" viewBox="0 0 33 137" fill="none" xmlns="http://www.w3.org/2000/svg">
<path d="M2.54 0.999992V-7.62939e-06H1.4874L1.54131 1.0512L2.54 0.999992ZM30.66 0.999992L31.6586 1.05333L31.7148 -7.62939e-06H30.66V0.999992ZM25.91 89.92V90.92H26.858L26.9086 89.9733L25.91 89.92ZM7.1 89.92L6.10131 89.9712L6.14997 90.92H7.1V89.92ZM5.58 131.15L4.87289 131.857L4.88075 131.865L4.88878 131.873L5.58 131.15ZM5.58 110.06L4.88878 109.337L5.58 110.06ZM27.24 110.06L26.5329 110.767L26.5408 110.775L26.5488 110.783L27.24 110.06ZM27.24 131.15L26.5329 130.443L27.24 131.15ZM2.54 1.99999H30.66V-7.62939e-06H2.54V1.99999ZM29.6614 0.946648L24.9114 89.8667L26.9086 89.9733L31.6586 1.05333L29.6614 0.946648ZM25.91 88.92H7.1V90.92H25.91V88.92ZM8.09869 89.8688L3.53869 0.948776L1.54131 1.0512L6.10131 89.9712L8.09869 89.8688ZM16.6 134.33C12.3962 134.33 8.97915 133.018 6.27122 130.427L4.88878 131.873C8.00751 134.856 11.9372 136.33 16.6 136.33V134.33ZM6.28711 130.443C3.56435 127.72 2.21 124.429 2.21 120.51H0.210001C0.210001 124.951 1.76898 128.753 4.87289 131.857L6.28711 130.443ZM2.21 120.51C2.21 116.592 3.56314 113.373 6.27122 110.783L4.88878 109.337C1.7702 112.32 0.210001 116.068 0.210001 120.51H2.21ZM6.27122 110.783C8.97915 108.192 12.3962 106.88 16.6 106.88V104.88C11.9372 104.88 8.00751 106.354 4.88878 109.337L6.27122 110.783ZM16.6 106.88C20.6685 106.88 23.9521 108.186 26.5329 110.767L27.9471 109.353C24.9546 106.36 21.1448 104.88 16.6 104.88V106.88ZM26.5488 110.783C29.2569 113.373 30.61 116.592 30.61 120.51H32.61C32.61 116.068 31.0498 112.32 27.9312 109.337L26.5488 110.783ZM30.61 120.51C30.61 124.429 29.2557 127.72 26.5329 130.443L27.9471 131.857C31.051 128.753 32.61 124.951 32.61 120.51H30.61ZM26.5329 130.443C23.9521 133.024 20.6685 134.33 16.6 134.33V136.33C21.1448 136.33 24.9546 134.85 27.9471 131.857L26.5329 130.443Z" fill="#F97931"/>
</svg>
