<svg width="118" height="59" viewBox="0 0 118 59" fill="none" xmlns="http://www.w3.org/2000/svg">
<path d="M21.82 1.48V0.479996H21.1107L20.8762 1.14938L21.82 1.48ZM30.16 1.48L31.1038 1.81061L31.5699 0.479996H30.16V1.48ZM10.36 58V59H11.0693L11.3038 58.3306L10.36 58ZM2.02 58L1.07624 57.6694L0.610095 59H2.02V58ZM21.82 2.48H30.16V0.479996H21.82V2.48ZM29.2162 1.14938L9.41624 57.6694L11.3038 58.3306L31.1038 1.81061L29.2162 1.14938ZM10.36 57H2.02V59H10.36V57ZM2.96376 58.3306L22.7638 1.81061L20.8762 1.14938L1.07624 57.6694L2.96376 58.3306ZM37.3642 50.14L37.8987 49.2948L37.3642 50.14ZM30.9442 42.7L30.0369 43.1205L30.04 43.1272L30.0432 43.1338L30.9442 42.7ZM30.9442 19.36L30.0411 18.9305L30.0389 18.9353L30.9442 19.36ZM37.3642 11.86L37.8987 12.7052L37.3642 11.86ZM55.9642 11.86L55.4298 12.7052L55.9642 11.86ZM62.3242 19.36L61.4169 19.7805L61.42 19.7872L61.4232 19.7938L62.3242 19.36ZM62.3242 42.7L61.4211 42.2705L61.4189 42.2753L62.3242 42.7ZM55.9642 50.14L55.4298 49.2948L55.9642 50.14ZM52.6642 41.2L51.8344 40.6418L51.8275 40.6523L52.6642 41.2ZM52.6642 20.8L51.8274 21.3477L51.8345 21.3582L52.6642 20.8ZM40.6642 20.8L39.8344 20.2418L39.8275 20.2523L40.6642 20.8ZM40.6642 41.2L39.8274 41.7477L39.8345 41.7582L40.6642 41.2ZM46.6642 51.72C43.3574 51.72 40.4457 50.9054 37.8987 49.2948L36.8298 50.9852C39.7227 52.8146 43.011 53.72 46.6642 53.72V51.72ZM37.8987 49.2948C35.3551 47.6864 33.3338 45.3578 31.8452 42.2662L30.0432 43.1338C31.6746 46.5222 33.9334 49.1536 36.8298 50.9852L37.8987 49.2948ZM31.8515 42.2795C30.4059 39.16 29.6642 35.4101 29.6642 31H27.6642C27.6642 35.6299 28.4426 39.68 30.0369 43.1205L31.8515 42.2795ZM29.6642 31C29.6642 26.5894 30.406 22.8616 31.8495 19.7847L30.0389 18.9353C28.4424 22.3384 27.6642 26.3706 27.6642 31H29.6642ZM31.8473 19.7895C33.3369 16.6575 35.3582 14.3117 37.8987 12.7052L36.8298 11.0148C33.9302 12.8483 31.6716 15.5025 30.0412 18.9305L31.8473 19.7895ZM37.8987 12.7052C40.4457 11.0946 43.3574 10.28 46.6642 10.28V8.28C43.011 8.28 39.7227 9.18544 36.8298 11.0148L37.8987 12.7052ZM46.6642 10.28C49.971 10.28 52.8827 11.0946 55.4298 12.7052L56.4987 11.0148C53.6057 9.18544 50.3174 8.28 46.6642 8.28V10.28ZM55.4298 12.7052C57.9677 14.3101 59.9675 16.6527 61.4169 19.7805L63.2315 18.9395C61.641 15.5073 59.4007 12.8499 56.4987 11.0148L55.4298 12.7052ZM61.4232 19.7938C62.9035 22.8683 63.6642 26.5927 63.6642 31H65.6642C65.6642 26.3673 64.8649 22.3317 63.2252 18.9262L61.4232 19.7938ZM63.6642 31C63.6642 35.4068 62.9037 39.1534 61.4212 42.2705L63.2273 43.1295C64.8647 39.6866 65.6642 35.6332 65.6642 31H63.6642ZM61.4189 42.2753C59.9705 45.3626 57.9709 47.6879 55.4298 49.2948L56.4987 50.9852C59.3976 49.1521 61.6379 46.5174 63.2295 43.1247L61.4189 42.2753ZM55.4298 49.2948C52.8827 50.9054 49.971 51.72 46.6642 51.72V53.72C50.3174 53.72 53.6057 52.8146 56.4987 50.9852L55.4298 49.2948ZM46.6642 45.5C49.5724 45.5 51.8822 44.2207 53.5009 41.7477L51.8275 40.6523C50.5662 42.5793 48.876 43.5 46.6642 43.5V45.5ZM53.4939 41.7582C55.14 39.3114 55.8842 35.6697 55.8842 31H53.8842C53.8842 35.5303 53.1485 38.6886 51.8345 40.6418L53.4939 41.7582ZM55.8842 31C55.8842 26.3303 55.14 22.6886 53.4939 20.2418L51.8345 21.3582C53.1485 23.3114 53.8842 26.4697 53.8842 31H55.8842ZM53.5009 20.2523C51.8822 17.7793 49.5724 16.5 46.6642 16.5V18.5C48.876 18.5 50.5662 19.4207 51.8275 21.3477L53.5009 20.2523ZM46.6642 16.5C43.7912 16.5 41.4887 17.7828 39.8345 20.2418L41.4939 21.3582C42.7997 19.4172 44.4973 18.5 46.6642 18.5V16.5ZM39.8275 20.2523C38.2276 22.6966 37.5042 26.3335 37.5042 31H39.5042C39.5042 26.4665 40.2208 23.3034 41.5009 21.3477L39.8275 20.2523ZM37.5042 31C37.5042 35.6665 38.2276 39.3034 39.8275 41.7477L41.5009 40.6523C40.2208 38.6966 39.5042 35.5335 39.5042 31H37.5042ZM39.8345 41.7582C41.4887 44.2172 43.7912 45.5 46.6642 45.5V43.5C44.4973 43.5 42.7997 42.5828 41.4939 40.6418L39.8345 41.7582ZM100.415 44.08H101.415V43.08H100.415V44.08ZM100.415 52V53H101.415V52H100.415ZM68.6753 52H67.6753V53H68.6753V52ZM68.6753 45.7L67.9887 44.973L67.6753 45.269V45.7H68.6753ZM84.8753 30.4L85.5619 31.127L85.5654 31.1237L84.8753 30.4ZM88.3553 26.2L89.2436 26.6595L89.2497 26.6472L88.3553 26.2ZM87.5153 18.82L86.8806 19.5927L86.8955 19.605L86.9109 19.6167L87.5153 18.82ZM77.5553 18.52L77.9728 19.4287L77.9828 19.4241L77.9928 19.4192L77.5553 18.52ZM73.8353 21.64L73.2938 22.4807L74.0951 22.9968L74.649 22.2212L73.8353 21.64ZM66.7553 17.08L65.9254 16.5222L65.3565 17.3685L66.2138 17.9207L66.7553 17.08ZM73.5353 11.38L73.9623 12.2843L73.9725 12.2794L73.5353 11.38ZM91.5953 10.84L91.1863 11.7525L91.1957 11.7567L91.2052 11.7607L91.5953 10.84ZM97.0553 15.16L96.2287 15.7228L96.2356 15.7329L96.2428 15.7429L97.0553 15.16ZM97.5953 28.12L98.4968 28.5527L97.5953 28.12ZM92.0153 34.96L91.3352 34.2268L91.3288 34.2329L92.0153 34.96ZM82.3553 44.08L81.6688 43.3529L79.8394 45.08H82.3553V44.08ZM99.4153 44.08V52H101.415V44.08H99.4153ZM100.415 51H68.6753V53H100.415V51ZM69.6753 52V45.7H67.6753V52H69.6753ZM69.3619 46.427L85.5619 31.127L84.1887 29.673L67.9887 44.973L69.3619 46.427ZM85.5654 31.1237C87.3111 29.4592 88.5668 27.9678 89.2435 26.6594L87.4671 25.7406C86.9438 26.7522 85.8795 28.0608 84.1852 29.6763L85.5654 31.1237ZM89.2497 26.6472C89.9083 25.3301 90.2553 23.9979 90.2553 22.66H88.2553C88.2553 23.6421 88.0023 24.6699 87.4609 25.7528L89.2497 26.6472ZM90.2553 22.66C90.2553 20.7218 89.5695 19.1231 88.1197 18.0233L86.9109 19.6167C87.7812 20.2769 88.2553 21.2382 88.2553 22.66H90.2553ZM88.1501 18.0473C86.779 16.9211 84.8521 16.44 82.5353 16.44V18.44C84.6185 18.44 86.0116 18.8789 86.8806 19.5927L88.1501 18.0473ZM82.5353 16.44C80.5618 16.44 78.7495 16.827 77.1178 17.6208L77.9928 19.4192C79.3211 18.773 80.8288 18.44 82.5353 18.44V16.44ZM77.1378 17.6113C75.4905 18.3682 74.117 19.5252 73.0216 21.0588L74.649 22.2212C75.5537 20.9548 76.6602 20.0318 77.9728 19.4287L77.1378 17.6113ZM74.3768 20.7993L67.2968 16.2393L66.2138 17.9207L73.2938 22.4807L74.3768 20.7993ZM67.5853 17.6378C69.1163 15.3599 71.2314 13.5739 73.9623 12.2842L73.1083 10.4757C70.0793 11.9061 67.6743 13.9201 65.9254 16.5222L67.5853 17.6378ZM73.9725 12.2794C76.6959 10.9555 79.8424 10.28 83.4353 10.28V8.28C79.5883 8.28 76.1347 9.0045 73.0981 10.4806L73.9725 12.2794ZM83.4353 10.28C86.4456 10.28 89.0207 10.7817 91.1863 11.7525L92.0044 9.92749C89.53 8.81827 86.6651 8.28 83.4353 8.28V10.28ZM91.2052 11.7607C93.4115 12.6956 95.0701 14.0211 96.2287 15.7228L97.8819 14.5972C96.4805 12.5389 94.4992 10.9844 91.9855 9.91925L91.2052 11.7607ZM96.2428 15.7429C97.4272 17.394 98.0353 19.3644 98.0353 21.7H100.035C100.035 18.9956 99.3234 16.606 97.8679 14.5771L96.2428 15.7429ZM98.0353 21.7C98.0353 23.8345 97.5871 25.8261 96.6938 27.6873L98.4968 28.5527C99.5235 26.4139 100.035 24.1255 100.035 21.7H98.0353ZM96.6938 27.6873C95.8132 29.5219 94.0583 31.7011 91.3353 34.2268L92.6954 35.6932C95.4923 33.0989 97.4574 30.7181 98.4968 28.5527L96.6938 27.6873ZM91.3288 34.2329L81.6688 43.3529L83.0418 44.8071L92.7018 35.6871L91.3288 34.2329ZM82.3553 45.08H100.415V43.08H82.3553V45.08ZM106.392 50.8L107.099 50.0929L106.392 50.8ZM106.392 42.46L107.072 43.1928L107.079 43.1864L107.086 43.1798L106.392 42.46ZM114.672 42.46L113.978 43.1798L113.985 43.1864L113.991 43.1928L114.672 42.46ZM114.672 50.8L113.965 50.0929L114.672 50.8ZM110.532 51.48C109.147 51.48 108.024 51.0181 107.099 50.0929L105.685 51.5071C107 52.8219 108.637 53.48 110.532 53.48V51.48ZM107.099 50.0929C106.179 49.1727 105.712 48.0326 105.712 46.6H103.712C103.712 48.5274 104.365 50.1873 105.685 51.5071L107.099 50.0929ZM105.712 46.6C105.712 45.1196 106.183 44.0189 107.072 43.1928L105.711 41.7272C104.361 42.9811 103.712 44.6404 103.712 46.6H105.712ZM107.086 43.1798C108.009 42.29 109.135 41.84 110.532 41.84V39.84C108.648 39.84 107.015 40.47 105.698 41.7402L107.086 43.1798ZM110.532 41.84C111.928 41.84 113.055 42.29 113.978 43.1798L115.366 41.7402C114.049 40.47 112.415 39.84 110.532 39.84V41.84ZM113.991 43.1928C114.881 44.0189 115.352 45.1196 115.352 46.6H117.352C117.352 44.6404 116.703 42.9811 115.352 41.7272L113.991 43.1928ZM115.352 46.6C115.352 48.0326 114.885 49.1727 113.965 50.0929L115.379 51.5071C116.699 50.1873 117.352 48.5274 117.352 46.6H115.352ZM113.965 50.0929C113.04 51.0181 111.917 51.48 110.532 51.48V53.48C112.427 53.48 114.064 52.8219 115.379 51.5071L113.965 50.0929Z" fill="#445066" fill-opacity="0.7"/>
</svg>
