<svg width="496" height="41" viewBox="0 0 496 41" fill="none" xmlns="http://www.w3.org/2000/svg">
<path d="M56.97 1.62001L57.97 1.62001L57.97 0.620008L56.97 0.620008L56.97 1.62001ZM56.97 39L56.97 40L57.97 40L57.97 39L56.97 39ZM1.87999 39L0.879989 39L0.879989 40L1.87999 40L1.87999 39ZM1.88 1.62L1.88 0.619998L0.879995 0.619998L0.879995 1.62L1.88 1.62ZM10.63 1.62L11.63 1.62L11.63 0.62L10.63 0.62L10.63 1.62ZM10.63 31.58L9.62999 31.58L9.62999 32.58L10.63 32.58L10.63 31.58ZM25.12 31.58L25.12 32.58L26.12 32.58L26.12 31.58L25.12 31.58ZM25.12 1.62L25.12 0.620002L24.12 0.620002L24.12 1.62L25.12 1.62ZM33.87 1.62L34.87 1.62L34.87 0.620004L33.87 0.620004L33.87 1.62ZM33.87 31.58L32.87 31.58L32.87 32.58L33.87 32.58L33.87 31.58ZM48.22 31.58L48.22 32.58L49.22 32.58L49.22 31.58L48.22 31.58ZM48.22 1.62001L48.22 0.620006L47.22 0.620006L47.22 1.62001L48.22 1.62001ZM55.97 1.62001L55.97 39L57.97 39L57.97 1.62001L55.97 1.62001ZM56.97 38L1.87999 38L1.87999 40L56.97 40L56.97 38ZM2.87999 39L2.88 1.62L0.879995 1.62L0.879989 39L2.87999 39ZM1.88 2.62L10.63 2.62L10.63 0.62L1.88 0.619998L1.88 2.62ZM9.62999 1.62L9.62999 31.58L11.63 31.58L11.63 1.62L9.62999 1.62ZM10.63 32.58L25.12 32.58L25.12 30.58L10.63 30.58L10.63 32.58ZM26.12 31.58L26.12 1.62L24.12 1.62L24.12 31.58L26.12 31.58ZM25.12 2.62L33.87 2.62L33.87 0.620004L25.12 0.620002L25.12 2.62ZM32.87 1.62L32.87 31.58L34.87 31.58L34.87 1.62L32.87 1.62ZM33.87 32.58L48.22 32.58L48.22 30.58L33.87 30.58L33.87 32.58ZM49.22 31.58L49.22 1.62001L47.22 1.62001L47.22 31.58L49.22 31.58ZM48.22 2.62001L56.97 2.62001L56.97 0.620008L48.22 0.620006L48.22 2.62001ZM68.7355 1.62001L68.7355 0.62001L67.7355 0.62001L67.7355 1.62001L68.7355 1.62001ZM77.4855 1.62001L78.4855 1.62001L78.4855 0.620011L77.4855 0.620011L77.4855 1.62001ZM77.4855 26.26L76.4855 26.26L76.4855 29.0101L78.2519 26.9023L77.4855 26.26ZM98.1355 1.62001L98.1355 0.620015L97.6688 0.620015L97.369 0.977692L98.1355 1.62001ZM106.115 1.62002L107.115 1.62002L107.115 0.620016L106.115 0.620016L106.115 1.62002ZM106.115 39L106.115 40L107.115 40L107.115 39L106.115 39ZM97.3655 39L96.3655 39L96.3655 40L97.3655 40L97.3655 39ZM97.3655 14.36L98.3655 14.36L98.3655 11.6028L96.598 13.719L97.3655 14.36ZM76.7855 39L76.7855 40L77.2532 40L77.553 39.6411L76.7855 39ZM68.7355 39L67.7355 39L67.7355 40L68.7355 40L68.7355 39ZM68.7355 2.62001L77.4855 2.62001L77.4855 0.620011L68.7355 0.62001L68.7355 2.62001ZM76.4855 1.62001L76.4855 26.26L78.4855 26.26L78.4855 1.62001L76.4855 1.62001ZM78.2519 26.9023L98.9019 2.26234L97.369 0.977692L76.719 25.6177L78.2519 26.9023ZM98.1355 2.62001L106.115 2.62002L106.115 0.620016L98.1355 0.620015L98.1355 2.62001ZM105.115 1.62002L105.115 39L107.115 39L107.115 1.62002L105.115 1.62002ZM106.115 38L97.3655 38L97.3655 40L106.115 40L106.115 38ZM98.3655 39L98.3655 14.36L96.3655 14.36L96.3655 39L98.3655 39ZM96.598 13.719L76.018 38.359L77.553 39.6411L98.133 15.0011L96.598 13.719ZM76.7855 38L68.7355 38L68.7355 40L76.7855 40L76.7855 38ZM69.7355 39L69.7355 1.62001L67.7355 1.62001L67.7355 39L69.7355 39ZM117.886 1.62002L117.886 0.620018L116.886 0.620018L116.886 1.62002L117.886 1.62002ZM126.636 1.62002L127.636 1.62002L127.636 0.62002L126.636 0.62002L126.636 1.62002ZM126.636 16.81L125.636 16.81L125.636 17.81L126.636 17.81L126.636 16.81ZM145.466 16.81L145.466 17.81L146.466 17.81L146.466 16.81L145.466 16.81ZM145.466 1.62002L145.466 0.620023L144.466 0.620023L144.466 1.62002L145.466 1.62002ZM154.216 1.62002L155.216 1.62002L155.216 0.620025L154.216 0.620025L154.216 1.62002ZM154.216 39L154.216 40L155.216 40L155.216 39L154.216 39ZM145.466 39L144.466 39L144.466 40L145.466 40L145.466 39ZM145.466 24.23L146.466 24.23L146.466 23.23L145.466 23.23L145.466 24.23ZM126.636 24.23L126.636 23.23L125.636 23.23L125.636 24.23L126.636 24.23ZM126.636 39L126.636 40L127.636 40L127.636 39L126.636 39ZM117.886 39L116.886 39L116.886 40L117.886 40L117.886 39ZM117.886 2.62002L126.636 2.62002L126.636 0.62002L117.886 0.620018L117.886 2.62002ZM125.636 1.62002L125.636 16.81L127.636 16.81L127.636 1.62002L125.636 1.62002ZM126.636 17.81L145.466 17.81L145.466 15.81L126.636 15.81L126.636 17.81ZM146.466 16.81L146.466 1.62002L144.466 1.62002L144.466 16.81L146.466 16.81ZM145.466 2.62002L154.216 2.62002L154.216 0.620025L145.466 0.620023L145.466 2.62002ZM153.216 1.62002L153.216 39L155.216 39L155.216 1.62002L153.216 1.62002ZM154.216 38L145.466 38L145.466 40L154.216 40L154.216 38ZM146.466 39L146.466 24.23L144.466 24.23L144.466 39L146.466 39ZM145.466 23.23L126.636 23.23L126.636 25.23L145.466 25.23L145.466 23.23ZM125.636 24.23L125.636 39L127.636 39L127.636 24.23L125.636 24.23ZM126.636 38L117.886 38L117.886 40L126.636 40L126.636 38ZM118.886 39L118.886 1.62002L116.886 1.62002L116.886 39L118.886 39ZM172.382 37.04L172.857 36.1596L172.382 37.04ZM165.242 30.25L164.374 30.7462L164.379 30.7544L164.384 30.7625L165.242 30.25ZM165.242 10.44L164.384 9.92753L164.378 9.93789L165.242 10.44ZM172.383 3.65003L172.857 4.5305L172.383 3.65003ZM192.892 3.65004L192.418 4.53051L192.892 3.65004ZM199.963 10.44L199.098 10.9422L199.104 10.9525L199.963 10.44ZM199.962 30.25L199.1 29.7436L199.098 29.7479L199.962 30.25ZM192.892 37.04L192.418 36.1596L192.892 37.04ZM190.582 28.78L189.868 28.0807L190.582 28.78ZM190.582 11.84L189.868 12.5393L189.868 12.5393L190.582 11.84ZM174.622 11.84L173.908 11.1407L173.9 11.1488L174.622 11.84ZM174.622 28.78L173.9 29.4713L173.908 29.4793L174.622 28.78ZM182.602 38.49C178.972 38.49 175.73 37.707 172.857 36.1596L171.908 37.9205C175.101 39.6397 178.673 40.49 182.602 40.49L182.602 38.49ZM172.857 36.1596C169.979 34.6099 167.733 32.4721 166.101 29.7376L164.384 30.7625C166.205 33.8146 168.72 36.2035 171.908 37.9205L172.857 36.1596ZM166.111 29.7539C164.525 26.9782 163.722 23.8386 163.722 20.31L161.722 20.31C161.722 24.1548 162.6 27.6418 164.374 30.7462L166.111 29.7539ZM163.722 20.31C163.722 16.7813 164.525 13.6678 166.107 10.9422L164.378 9.93789C162.6 12.999 161.722 16.4654 161.722 20.31L163.722 20.31ZM166.101 10.9525C167.733 8.21794 169.979 6.08019 172.857 4.5305L171.908 2.76956C168.72 4.48654 166.205 6.87545 164.384 9.92757L166.101 10.9525ZM172.857 4.5305C175.73 2.98307 178.972 2.20003 182.603 2.20003L182.603 0.200031C178.673 0.200031 175.101 1.05033 171.908 2.76956L172.857 4.5305ZM182.603 2.20003C186.282 2.20003 189.546 2.98403 192.418 4.53051L193.367 2.76956C190.172 1.04937 186.576 0.200032 182.603 0.200031L182.603 2.20003ZM192.418 4.53051C195.294 6.07898 197.513 8.21354 199.098 10.9422L200.827 9.9379C199.052 6.87986 196.558 4.48776 193.367 2.76956L192.418 4.53051ZM199.104 10.9525C200.729 13.6765 201.552 16.7863 201.552 20.31L203.552 20.31C203.552 16.4605 202.649 12.9902 200.821 9.92758L199.104 10.9525ZM201.552 20.31C201.552 23.8336 200.729 26.9696 199.1 29.7436L200.825 30.7565C202.649 27.6505 203.552 24.1598 203.552 20.31L201.552 20.31ZM199.098 29.7479C197.513 32.4765 195.294 34.6111 192.418 36.1596L193.367 37.9205C196.558 36.2023 199.052 33.8102 200.827 30.7522L199.098 29.7479ZM192.418 36.1596C189.546 37.706 186.282 38.49 182.602 38.49L182.602 40.49C186.576 40.49 190.172 39.6407 193.367 37.9205L192.418 36.1596ZM182.602 33C186.07 33 188.995 31.8332 191.297 29.4793L189.868 28.0807C187.97 30.0202 185.575 31 182.602 31L182.602 33ZM191.297 29.4793C193.61 27.115 194.732 24.0249 194.732 20.31L192.732 20.31C192.732 23.5952 191.755 26.1518 189.868 28.0807L191.297 29.4793ZM194.732 20.31C194.732 16.5952 193.61 13.5051 191.297 11.1407L189.868 12.5393C191.755 14.4683 192.732 17.0249 192.732 20.31L194.732 20.31ZM191.297 11.1407C188.995 8.78686 186.07 7.62003 182.603 7.62003L182.603 9.62003C185.575 9.62003 187.97 10.5999 189.868 12.5393L191.297 11.1407ZM182.603 7.62003C179.135 7.62003 176.21 8.78686 173.908 11.1407L175.337 12.5393C177.235 10.5999 179.63 9.62003 182.603 9.62003L182.603 7.62003ZM173.9 11.1488C171.637 13.5142 170.542 16.6016 170.542 20.31L172.542 20.31C172.542 17.0185 173.501 14.4591 175.345 12.5313L173.9 11.1488ZM170.542 20.31C170.542 24.0185 171.637 27.1058 173.9 29.4713L175.345 28.0888C173.501 26.1609 172.542 23.6016 172.542 20.31L170.542 20.31ZM173.908 29.4793C176.21 31.8332 179.135 33 182.602 33L182.602 31C179.63 31 177.235 30.0202 175.337 28.0807L173.908 29.4793ZM247.946 39L246.946 39L246.946 40L247.946 40L247.946 39ZM247.946 14.22L248.946 14.22L248.946 10.6304L247.09 13.703L247.946 14.22ZM235.346 35.08L235.346 36.08L235.911 36.08L236.202 35.5971L235.346 35.08ZM231.566 35.08L230.706 35.5894L230.996 36.08L231.566 36.08L231.566 35.08ZM219.176 14.15L220.037 13.6406L218.176 10.4977L218.176 14.15L219.176 14.15ZM219.176 39L219.176 40L220.176 40L220.176 39L219.176 39ZM211.196 39L210.196 39L210.196 40L211.196 40L211.196 39ZM211.196 1.62003L211.196 0.620035L210.196 0.620034L210.196 1.62003L211.196 1.62003ZM220.366 1.62004L221.236 1.12558L220.948 0.620036L220.366 0.620036L220.366 1.62004ZM233.666 25L232.797 25.4945L233.646 26.9873L234.525 25.5119L233.666 25ZM247.596 1.62004L247.596 0.620041L247.028 0.620041L246.737 1.1082L247.596 1.62004ZM255.786 1.62004L256.786 1.61817L256.785 0.620043L255.786 0.620042L255.786 1.62004ZM255.856 39L255.856 40L256.858 40L256.856 38.9982L255.856 39ZM248.946 39L248.946 14.22L246.946 14.22L246.946 39L248.946 39ZM247.09 13.703L234.49 34.563L236.202 35.5971L248.802 14.7371L247.09 13.703ZM235.346 34.08L231.566 34.08L231.566 36.08L235.346 36.08L235.346 34.08ZM232.427 34.5706L220.037 13.6406L218.316 14.6594L230.706 35.5894L232.427 34.5706ZM218.176 14.15L218.176 39L220.176 39L220.176 14.15L218.176 14.15ZM219.176 38L211.196 38L211.196 40L219.176 40L219.176 38ZM212.196 39L212.196 1.62003L210.196 1.62003L210.196 39L212.196 39ZM211.196 2.62003L220.366 2.62004L220.366 0.620036L211.196 0.620035L211.196 2.62003ZM219.497 2.11449L232.797 25.4945L234.536 24.5056L221.236 1.12558L219.497 2.11449ZM234.525 25.5119L248.455 2.13189L246.737 1.1082L232.807 24.4882L234.525 25.5119ZM247.596 2.62004L255.786 2.62004L255.786 0.620042L247.596 0.620041L247.596 2.62004ZM254.786 1.62192L254.856 39.0019L256.856 38.9982L256.786 1.61817L254.786 1.62192ZM255.856 38L247.946 38L247.946 40L255.856 40L255.856 38ZM274.033 37.04L274.507 36.1596L274.033 37.04ZM266.893 30.25L266.025 30.7462L266.029 30.7544L266.034 30.7625L266.893 30.25ZM266.893 10.44L266.034 9.92755L266.028 9.93791L266.893 10.44ZM274.033 3.65005L274.507 4.53052L274.033 3.65005ZM294.543 3.65005L294.069 4.53052L294.543 3.65005ZM301.613 10.4401L300.748 10.9422L300.754 10.9525L301.613 10.4401ZM301.613 30.2501L300.751 29.7436L300.748 29.7479L301.613 30.2501ZM294.543 37.0401L294.069 36.1596L294.543 37.0401ZM292.233 28.7801L291.518 28.0808L292.233 28.7801ZM292.233 11.8401L291.518 12.5393L291.518 12.5393L292.233 11.8401ZM276.273 11.84L275.558 11.1407L275.55 11.1488L276.273 11.84ZM276.273 28.78L275.55 29.4713L275.558 29.4793L276.273 28.78ZM284.253 38.49C280.622 38.49 277.381 37.707 274.507 36.1596L273.559 37.9205C276.752 39.6398 280.324 40.49 284.253 40.49L284.253 38.49ZM274.507 36.1596C271.629 34.6099 269.384 32.4721 267.752 29.7376L266.034 30.7625C267.856 33.8146 270.37 36.2035 273.559 37.9205L274.507 36.1596ZM267.761 29.7539C266.175 26.9782 265.373 23.8386 265.373 20.31L263.373 20.31C263.373 24.1548 264.251 27.6419 266.025 30.7462L267.761 29.7539ZM265.373 20.31C265.373 16.7813 266.175 13.6678 267.758 10.9422L266.028 9.93791C264.251 12.999 263.373 16.4655 263.373 20.31L265.373 20.31ZM267.752 10.9525C269.384 8.21796 271.629 6.08021 274.507 4.53052L273.559 2.76958C270.37 4.48656 267.856 6.87546 266.034 9.92759L267.752 10.9525ZM274.507 4.53052C277.381 2.98309 280.622 2.20005 284.253 2.20005L284.253 0.200049C280.324 0.200049 276.752 1.05034 273.559 2.76958L274.507 4.53052ZM284.253 2.20005C287.933 2.20005 291.197 2.98404 294.069 4.53052L295.017 2.76958C291.822 1.04939 288.226 0.20005 284.253 0.200049L284.253 2.20005ZM294.069 4.53052C296.945 6.079 299.164 8.21356 300.748 10.9422L302.478 9.93792C300.702 6.87988 298.208 4.48777 295.017 2.76958L294.069 4.53052ZM300.754 10.9525C302.38 13.6765 303.203 16.7863 303.203 20.3101L305.203 20.3101C305.203 16.4605 304.299 12.9903 302.472 9.92759L300.754 10.9525ZM303.203 20.3101C303.203 23.8336 302.38 26.9696 300.751 29.7436L302.475 30.7565C304.299 27.6505 305.203 24.1598 305.203 20.3101L303.203 20.3101ZM300.748 29.7479C299.164 32.4765 296.945 34.6111 294.069 36.1596L295.017 37.9205C298.208 36.2023 300.702 33.8102 302.478 30.7522L300.748 29.7479ZM294.069 36.1596C291.197 37.7061 287.933 38.49 284.253 38.49L284.253 40.49C288.226 40.49 291.822 39.6407 295.017 37.9205L294.069 36.1596ZM284.253 33.0001C287.72 33.0001 290.645 31.8332 292.948 29.4793L291.518 28.0808C289.621 30.0202 287.225 31.0001 284.253 31.0001L284.253 33.0001ZM292.948 29.4793C295.261 27.115 296.383 24.0249 296.383 20.3101L294.383 20.31C294.383 23.5952 293.405 26.1518 291.518 28.0808L292.948 29.4793ZM296.383 20.3101C296.383 16.5952 295.261 13.5051 292.948 11.1408L291.518 12.5393C293.405 14.4683 294.383 17.0249 294.383 20.31L296.383 20.3101ZM292.948 11.1408C290.645 8.78688 287.72 7.62005 284.253 7.62005L284.253 9.62005C287.225 9.62005 289.621 10.5999 291.518 12.5393L292.948 11.1408ZM284.253 7.62005C280.785 7.62005 277.861 8.78688 275.558 11.1408L276.988 12.5393C278.885 10.5999 281.28 9.62005 284.253 9.62005L284.253 7.62005ZM275.55 11.1488C273.288 13.5143 272.193 16.6016 272.193 20.31L274.193 20.31C274.193 17.0185 275.151 14.4592 276.996 12.5313L275.55 11.1488ZM272.193 20.31C272.193 24.0185 273.288 27.1058 275.55 29.4713L276.996 28.0888C275.151 26.1609 274.193 23.6016 274.193 20.31L272.193 20.31ZM275.558 29.4793C277.861 31.8332 280.785 33 284.253 33.0001L284.253 31.0001C281.28 31 278.885 30.0202 276.988 28.0808L275.558 29.4793ZM312.847 1.62005L312.847 0.620052L311.847 0.620052L311.847 1.62005L312.847 1.62005ZM321.597 1.62005L322.597 1.62005L322.597 0.620054L321.597 0.620054L321.597 1.62005ZM321.597 16.8101L320.597 16.8101L320.597 17.8101L321.597 17.8101L321.597 16.8101ZM340.427 16.8101L340.427 17.8101L341.427 17.8101L341.427 16.8101L340.427 16.8101ZM340.427 1.62006L340.427 0.620057L339.427 0.620057L339.427 1.62006L340.427 1.62006ZM349.177 1.62006L350.177 1.62006L350.177 0.620059L349.177 0.620059L349.177 1.62006ZM349.177 39.0001L349.177 40.0001L350.177 40.0001L350.177 39.0001L349.177 39.0001ZM340.427 39.0001L339.427 39.0001L339.427 40.0001L340.427 40.0001L340.427 39.0001ZM340.427 24.2301L341.427 24.2301L341.427 23.2301L340.427 23.2301L340.427 24.2301ZM321.597 24.2301L321.597 23.2301L320.597 23.2301L320.597 24.2301L321.597 24.2301ZM321.597 39.0001L321.597 40.0001L322.597 40.0001L322.597 39.0001L321.597 39.0001ZM312.847 39.0001L311.847 39.0001L311.847 40.0001L312.847 40.0001L312.847 39.0001ZM312.847 2.62005L321.597 2.62005L321.597 0.620054L312.847 0.620052L312.847 2.62005ZM320.597 1.62005L320.597 16.8101L322.597 16.8101L322.597 1.62005L320.597 1.62005ZM321.597 17.8101L340.427 17.8101L340.427 15.8101L321.597 15.8101L321.597 17.8101ZM341.427 16.8101L341.427 1.62006L339.427 1.62006L339.427 16.8101L341.427 16.8101ZM340.427 2.62006L349.177 2.62006L349.177 0.620059L340.427 0.620057L340.427 2.62006ZM348.177 1.62006L348.177 39.0001L350.177 39.0001L350.177 1.62006L348.177 1.62006ZM349.177 38.0001L340.427 38.0001L340.427 40.0001L349.177 40.0001L349.177 38.0001ZM341.427 39.0001L341.427 24.2301L339.427 24.2301L339.427 39.0001L341.427 39.0001ZM340.427 23.2301L321.597 23.2301L321.597 25.2301L340.427 25.2301L340.427 23.2301ZM320.597 24.2301L320.597 39.0001L322.597 39.0001L322.597 24.2301L320.597 24.2301ZM321.597 38.0001L312.847 38.0001L312.847 40.0001L321.597 40.0001L321.597 38.0001ZM313.847 39.0001L313.847 1.62005L311.847 1.62005L311.847 39.0001L313.847 39.0001ZM390.513 9.04007L390.513 10.0401L391.513 10.0401L391.513 9.04007L390.513 9.04007ZM377.423 9.04006L377.423 8.04006L376.423 8.04006L376.423 9.04006L377.423 9.04006ZM377.423 39.0001L377.423 40.0001L378.423 40.0001L378.423 39.0001L377.423 39.0001ZM368.673 39.0001L367.673 39.0001L367.673 40.0001L368.673 40.0001L368.673 39.0001ZM368.673 9.04006L369.673 9.04006L369.673 8.04006L368.673 8.04006L368.673 9.04006ZM355.513 9.04006L354.513 9.04006L354.513 10.0401L355.513 10.0401L355.513 9.04006ZM355.513 1.62006L355.513 0.62006L354.513 0.62006L354.513 1.62006L355.513 1.62006ZM390.513 1.62007L391.513 1.62007L391.513 0.620066L390.513 0.620066L390.513 1.62007ZM390.513 8.04007L377.423 8.04006L377.423 10.0401L390.513 10.0401L390.513 8.04007ZM376.423 9.04006L376.423 39.0001L378.423 39.0001L378.423 9.04006L376.423 9.04006ZM377.423 38.0001L368.673 38.0001L368.673 40.0001L377.423 40.0001L377.423 38.0001ZM369.673 39.0001L369.673 9.04006L367.673 9.04006L367.673 39.0001L369.673 39.0001ZM368.673 8.04006L355.513 8.04006L355.513 10.0401L368.673 10.0401L368.673 8.04006ZM356.513 9.04006L356.513 1.62006L354.513 1.62006L354.513 9.04006L356.513 9.04006ZM355.513 2.62006L390.513 2.62007L390.513 0.620066L355.513 0.62006L355.513 2.62006ZM389.513 1.62007L389.513 9.04007L391.513 9.04007L391.513 1.62007L389.513 1.62007ZM423.39 5.19007L422.714 5.92624L422.72 5.93191L422.726 5.93748L423.39 5.19007ZM427.8 39.0001L427.8 40.0001L428.8 40.0001L428.8 39.0001L427.8 39.0001ZM419.54 39.0001L418.54 39.0001L418.54 40.0001L419.54 40.0001L419.54 39.0001ZM419.54 34.4501L420.54 34.4501L420.54 31.1074L418.705 33.9009L419.54 34.4501ZM414.92 38.2301L415.314 39.1493L415.325 39.1448L414.92 38.2301ZM400.43 38.0901L400.008 38.9963L400.016 39.0001L400.024 39.0039L400.43 38.0901ZM395.53 34.1001L394.691 34.6443L394.7 34.6575L394.709 34.6705L395.53 34.1001ZM397.56 20.2401L398.191 21.0166L398.192 21.0153L397.56 20.2401ZM419.05 17.1601L419.05 18.1601L420.05 18.1601L420.05 17.1601L419.05 17.1601ZM416.67 10.5801L415.998 11.32L416.003 11.325L416.009 11.3299L416.67 10.5801ZM403.51 9.46007L403.207 8.50712L403.201 8.5092L403.51 9.46007ZM398.4 12.1901L397.52 12.6642L398.1 13.7419L399.041 12.9583L398.4 12.1901ZM394.97 5.82007L394.364 5.02464L393.685 5.54221L394.09 6.29417L394.97 5.82007ZM402.04 2.39007L402.317 3.35098L402.04 2.39007ZM415.41 31.6501L415.914 32.5139L415.922 32.5096L415.41 31.6501ZM419.05 27.3101L419.987 27.6612L420.05 27.4914L420.05 27.3101L419.05 27.3101ZM419.05 22.9701L420.05 22.9701L420.05 21.9701L419.05 21.9701L419.05 22.9701ZM404.35 31.7201L404.946 30.9165L404.35 31.7201ZM410.79 2.20007C416.147 2.20007 420.068 3.4936 422.714 5.92624L424.067 4.45391C420.927 1.56655 416.447 0.200072 410.79 0.200071L410.79 2.20007ZM422.726 5.93748C425.385 8.30074 426.8 11.9503 426.8 17.0901L428.8 17.0901C428.8 11.5899 427.276 7.30607 424.055 4.44266L422.726 5.93748ZM426.8 17.0901L426.8 39.0001L428.8 39.0001L428.8 17.0901L426.8 17.0901ZM427.8 38.0001L419.54 38.0001L419.54 40.0001L427.8 40.0001L427.8 38.0001ZM420.54 39.0001L420.54 34.4501L418.54 34.4501L418.54 39.0001L420.54 39.0001ZM418.705 33.9009C417.75 35.3542 416.369 36.4967 414.516 37.3154L415.325 39.1448C417.485 38.1902 419.185 36.8126 420.376 34.9993L418.705 33.9009ZM414.527 37.3109C412.723 38.0837 410.485 38.4901 407.78 38.4901L407.78 40.4901C410.676 40.4901 413.197 40.0564 415.314 39.1492L414.527 37.3109ZM407.78 38.4901C405.091 38.4901 402.784 38.0418 400.837 37.1763L400.024 39.0039C402.277 40.005 404.87 40.4901 407.78 40.4901L407.78 38.4901ZM400.853 37.1839C398.892 36.2685 397.405 35.046 396.352 33.5297L394.709 34.6705C395.989 36.5141 397.769 37.9516 400.008 38.9963L400.853 37.1839ZM396.369 33.5559C395.359 31.9984 394.85 30.2524 394.85 28.2901L392.85 28.2901C392.85 30.6211 393.462 32.7484 394.691 34.6443L396.369 33.5559ZM394.85 28.2901C394.85 25.2124 395.966 22.8217 398.191 21.0166L396.93 19.4635C394.209 21.6718 392.85 24.6478 392.85 28.2901L394.85 28.2901ZM398.192 21.0153C400.45 19.1756 404.116 18.1601 409.39 18.1601L409.39 16.1601C403.932 16.1601 399.711 17.1978 396.929 19.4648L398.192 21.0153ZM409.39 18.1601L419.05 18.1601L419.05 16.1601L409.39 16.1601L409.39 18.1601ZM420.05 17.1601L420.05 16.6001L418.05 16.6001L418.05 17.1601L420.05 17.1601ZM420.05 16.6001C420.05 13.7728 419.183 11.4635 417.332 9.83024L416.009 11.3299C417.331 12.4966 418.05 14.2007 418.05 16.6001L420.05 16.6001ZM417.343 9.84013C415.548 8.20799 412.952 7.48007 409.74 7.48007L409.74 9.48007C412.689 9.48007 414.713 10.1522 415.998 11.32L417.343 9.84013ZM409.74 7.48007C407.535 7.48007 405.356 7.82344 403.207 8.50714L403.814 10.413C405.772 9.79003 407.746 9.48007 409.74 9.48007L409.74 7.48007ZM403.201 8.5092C401.092 9.19573 399.272 10.1621 397.76 11.4218L399.041 12.9583C400.329 11.8847 401.915 11.0311 403.82 10.4109L403.201 8.5092ZM399.281 11.716L395.851 5.34597L394.09 6.29417L397.52 12.6642L399.281 11.716ZM395.577 6.6155C397.423 5.2084 399.664 4.11551 402.317 3.35098L401.764 1.42916C398.91 2.25129 396.438 3.44507 394.364 5.02464L395.577 6.6155ZM402.317 3.35098C404.974 2.58544 407.797 2.20007 410.79 2.20007L410.79 0.200071C407.624 0.200071 404.613 0.608031 401.764 1.42916L402.317 3.35098ZM409.6 34.1201C411.948 34.1201 414.063 33.594 415.914 32.5139L414.907 30.7863C413.398 31.6661 411.64 32.1201 409.6 32.1201L409.6 34.1201ZM415.922 32.5096C417.842 31.3677 419.206 29.7425 419.987 27.6612L418.114 26.9589C417.495 28.611 416.432 29.8791 414.899 30.7905L415.922 32.5096ZM420.05 27.3101L420.05 22.9701L418.05 22.9701L418.05 27.3101L420.05 27.3101ZM419.05 21.9701L410.02 21.9701L410.02 23.9701L419.05 23.9701L419.05 21.9701ZM410.02 21.9701C407.423 21.9701 405.301 22.3912 403.801 23.377C402.229 24.4108 401.46 25.9861 401.46 27.9401L403.46 27.9401C403.46 26.5807 403.952 25.671 404.9 25.0482C405.92 24.3772 407.578 23.9701 410.02 23.9701L410.02 21.9701ZM401.46 27.9401C401.46 29.8391 402.237 31.3991 403.755 32.5236L404.946 30.9165C403.944 30.1744 403.46 29.2143 403.46 27.9401L401.46 27.9401ZM403.755 32.5236C405.247 33.6288 407.235 34.1201 409.6 34.1201L409.6 32.1201C407.486 32.1201 405.974 31.678 404.946 30.9165L403.755 32.5236ZM474.118 24.0201L474.973 23.5009L474.681 23.0201L474.118 23.0201L474.118 24.0201ZM467.818 24.0201L467.818 23.0201L466.818 23.0201L466.818 24.0201L467.818 24.0201ZM467.818 39.0001L467.818 40.0001L468.818 40.0001L468.818 39.0001L467.818 39.0001ZM459.138 39.0001L458.138 39.0001L458.138 40.0001L459.138 40.0001L459.138 39.0001ZM459.138 24.0201L460.138 24.0201L460.138 23.0201L459.138 23.0201L459.138 24.0201ZM452.838 24.0201L452.838 23.0201L452.275 23.0201L451.983 23.5009L452.838 24.0201ZM443.738 39.0001L443.738 40.0001L444.301 40.0001L444.593 39.5193L443.738 39.0001ZM433.378 39.0001L432.533 38.4646L431.56 40.0001L433.378 40.0001L433.378 39.0001ZM445.628 19.6801L446.473 20.2156L446.81 19.6827L446.475 19.1483L445.628 19.6801ZM434.288 1.62007L434.288 0.620074L432.479 0.620073L433.441 2.15184L434.288 1.62007ZM443.598 1.62008L444.455 1.10441L444.163 0.620075L443.598 0.620075L443.598 1.62008ZM452.698 16.7401L451.841 17.2557L452.133 17.7401L452.698 17.7401L452.698 16.7401ZM459.138 16.7401L459.138 17.7401L460.138 17.7401L460.138 16.7401L459.138 16.7401ZM459.138 1.62008L459.138 0.620078L458.138 0.620078L458.138 1.62008L459.138 1.62008ZM467.818 1.62008L468.818 1.62008L468.818 0.62008L467.818 0.62008L467.818 1.62008ZM467.818 16.7401L466.818 16.7401L466.818 17.7401L467.818 17.7401L467.818 16.7401ZM474.188 16.7401L474.188 17.7401L474.751 17.7401L475.043 17.2586L474.188 16.7401ZM483.358 1.62008L483.358 0.620082L482.795 0.620082L482.503 1.10152L483.358 1.62008ZM492.668 1.62008L493.515 2.15185L494.477 0.620084L492.668 0.620084L492.668 1.62008ZM481.328 19.6801L480.481 19.1483L480.145 19.6842L480.485 20.2177L481.328 19.6801ZM493.648 39.0001L493.648 40.0001L495.472 40.0001L494.491 38.4624L493.648 39.0001ZM483.218 39.0001L482.363 39.5193L482.655 40.0001L483.218 40.0001L483.218 39.0001ZM474.118 23.0201L467.818 23.0201L467.818 25.0201L474.118 25.0201L474.118 23.0201ZM466.818 24.0201L466.818 39.0001L468.818 39.0001L468.818 24.0201L466.818 24.0201ZM467.818 38.0001L459.138 38.0001L459.138 40.0001L467.818 40.0001L467.818 38.0001ZM460.138 39.0001L460.138 24.0201L458.138 24.0201L458.138 39.0001L460.138 39.0001ZM459.138 23.0201L452.838 23.0201L452.838 25.0201L459.138 25.0201L459.138 23.0201ZM451.983 23.5009L442.883 38.4809L444.593 39.5193L453.693 24.5393L451.983 23.5009ZM443.738 38.0001L433.378 38.0001L433.378 40.0001L443.738 40.0001L443.738 38.0001ZM434.223 39.5356L446.473 20.2156L444.783 19.1446L432.533 38.4646L434.223 39.5356ZM446.475 19.1483L435.135 1.08831L433.441 2.15184L444.781 20.2118L446.475 19.1483ZM434.288 2.62007L443.598 2.62008L443.598 0.620075L434.288 0.620074L434.288 2.62007ZM442.741 2.13574L451.841 17.2557L453.555 16.2244L444.455 1.10441L442.741 2.13574ZM452.698 17.7401L459.138 17.7401L459.138 15.7401L452.698 15.7401L452.698 17.7401ZM460.138 16.7401L460.138 1.62008L458.138 1.62008L458.138 16.7401L460.138 16.7401ZM459.138 2.62008L467.818 2.62008L467.818 0.62008L459.138 0.620078L459.138 2.62008ZM466.818 1.62008L466.818 16.7401L468.818 16.7401L468.818 1.62008L466.818 1.62008ZM467.818 17.7401L474.188 17.7401L474.188 15.7401L467.818 15.7401L467.818 17.7401ZM475.043 17.2586L484.213 2.13865L482.503 1.10152L473.333 16.2215L475.043 17.2586ZM483.358 2.62008L492.668 2.62008L492.668 0.620084L483.358 0.620082L483.358 2.62008ZM491.821 1.08831L480.481 19.1483L482.175 20.2119L493.515 2.15185L491.821 1.08831ZM480.485 20.2177L492.805 39.5378L494.491 38.4624L482.171 19.1424L480.485 20.2177ZM493.648 38.0001L483.218 38.0001L483.218 40.0001L493.648 40.0001L493.648 38.0001ZM484.073 38.4809L474.973 23.5009L473.263 24.5393L482.363 39.5193L484.073 38.4809Z" fill="white" fill-opacity="0.3"/>
</svg>
