<svg width="118" height="59" viewBox="0 0 118 59" fill="none" xmlns="http://www.w3.org/2000/svg">
<path d="M21.82 1.48V0.479996H21.1107L20.8762 1.14938L21.82 1.48ZM30.16 1.48L31.1038 1.81061L31.5699 0.479996H30.16V1.48ZM10.36 58V59H11.0693L11.3038 58.3306L10.36 58ZM2.02 58L1.07624 57.6694L0.610095 59H2.02V58ZM21.82 2.48H30.16V0.479996H21.82V2.48ZM29.2162 1.14938L9.41624 57.6694L11.3038 58.3306L31.1038 1.81061L29.2162 1.14938ZM10.36 57H2.02V59H10.36V57ZM2.96376 58.3306L22.7638 1.81061L20.8762 1.14938L1.07624 57.6694L2.96376 58.3306ZM37.3642 50.14L37.8987 49.2948L37.3642 50.14ZM30.9442 42.7L30.0369 43.1205L30.04 43.1272L30.0432 43.1338L30.9442 42.7ZM30.9442 19.36L30.0411 18.9305L30.0389 18.9353L30.9442 19.36ZM37.3642 11.86L37.8987 12.7052L37.3642 11.86ZM55.9642 11.86L55.4298 12.7052L55.9642 11.86ZM62.3242 19.36L61.4169 19.7805L61.42 19.7872L61.4232 19.7938L62.3242 19.36ZM62.3242 42.7L61.4211 42.2705L61.4189 42.2753L62.3242 42.7ZM55.9642 50.14L55.4298 49.2948L55.9642 50.14ZM52.6642 41.2L51.8344 40.6418L51.8275 40.6523L52.6642 41.2ZM52.6642 20.8L51.8274 21.3477L51.8345 21.3582L52.6642 20.8ZM40.6642 20.8L39.8344 20.2418L39.8275 20.2523L40.6642 20.8ZM40.6642 41.2L39.8274 41.7477L39.8345 41.7582L40.6642 41.2ZM46.6642 51.72C43.3574 51.72 40.4457 50.9054 37.8987 49.2948L36.8298 50.9852C39.7227 52.8146 43.011 53.72 46.6642 53.72V51.72ZM37.8987 49.2948C35.3551 47.6864 33.3338 45.3578 31.8452 42.2662L30.0432 43.1338C31.6746 46.5222 33.9334 49.1536 36.8298 50.9852L37.8987 49.2948ZM31.8515 42.2795C30.4059 39.16 29.6642 35.4101 29.6642 31H27.6642C27.6642 35.6299 28.4426 39.68 30.0369 43.1205L31.8515 42.2795ZM29.6642 31C29.6642 26.5894 30.406 22.8616 31.8495 19.7847L30.0389 18.9353C28.4424 22.3384 27.6642 26.3706 27.6642 31H29.6642ZM31.8473 19.7895C33.3369 16.6575 35.3582 14.3117 37.8987 12.7052L36.8298 11.0148C33.9302 12.8483 31.6716 15.5025 30.0412 18.9305L31.8473 19.7895ZM37.8987 12.7052C40.4457 11.0946 43.3574 10.28 46.6642 10.28V8.28C43.011 8.28 39.7227 9.18544 36.8298 11.0148L37.8987 12.7052ZM46.6642 10.28C49.971 10.28 52.8827 11.0946 55.4298 12.7052L56.4987 11.0148C53.6057 9.18544 50.3174 8.28 46.6642 8.28V10.28ZM55.4298 12.7052C57.9677 14.3101 59.9675 16.6527 61.4169 19.7805L63.2315 18.9395C61.641 15.5073 59.4007 12.8499 56.4987 11.0148L55.4298 12.7052ZM61.4232 19.7938C62.9035 22.8683 63.6642 26.5927 63.6642 31H65.6642C65.6642 26.3673 64.8649 22.3317 63.2252 18.9262L61.4232 19.7938ZM63.6642 31C63.6642 35.4068 62.9037 39.1534 61.4212 42.2705L63.2273 43.1295C64.8647 39.6866 65.6642 35.6332 65.6642 31H63.6642ZM61.4189 42.2753C59.9705 45.3626 57.9709 47.6879 55.4298 49.2948L56.4987 50.9852C59.3976 49.1521 61.6379 46.5174 63.2295 43.1247L61.4189 42.2753ZM55.4298 49.2948C52.8827 50.9054 49.971 51.72 46.6642 51.72V53.72C50.3174 53.72 53.6057 52.8146 56.4987 50.9852L55.4298 49.2948ZM46.6642 45.5C49.5724 45.5 51.8822 44.2207 53.5009 41.7477L51.8275 40.6523C50.5662 42.5793 48.876 43.5 46.6642 43.5V45.5ZM53.4939 41.7582C55.14 39.3114 55.8842 35.6697 55.8842 31H53.8842C53.8842 35.5303 53.1485 38.6886 51.8345 40.6418L53.4939 41.7582ZM55.8842 31C55.8842 26.3303 55.14 22.6886 53.4939 20.2418L51.8345 21.3582C53.1485 23.3114 53.8842 26.4697 53.8842 31H55.8842ZM53.5009 20.2523C51.8822 17.7793 49.5724 16.5 46.6642 16.5V18.5C48.876 18.5 50.5662 19.4207 51.8275 21.3477L53.5009 20.2523ZM46.6642 16.5C43.7912 16.5 41.4887 17.7828 39.8345 20.2418L41.4939 21.3582C42.7997 19.4172 44.4973 18.5 46.6642 18.5V16.5ZM39.8275 20.2523C38.2276 22.6966 37.5042 26.3335 37.5042 31H39.5042C39.5042 26.4665 40.2208 23.3034 41.5009 21.3477L39.8275 20.2523ZM37.5042 31C37.5042 35.6665 38.2276 39.3034 39.8275 41.7477L41.5009 40.6523C40.2208 38.6966 39.5042 35.5335 39.5042 31H37.5042ZM39.8345 41.7582C41.4887 44.2172 43.7912 45.5 46.6642 45.5V43.5C44.4973 43.5 42.7997 42.5828 41.4939 40.6418L39.8345 41.7582ZM96.8669 29.32L96.2224 30.0846L96.2278 30.0891L96.8669 29.32ZM99.2069 45.82L100.059 46.3441L100.063 46.3369L99.2069 45.82ZM93.3269 50.86L93.7574 51.7626L93.7632 51.7598L93.3269 50.86ZM74.9069 51.58L74.6357 52.5425L74.6437 52.5448L74.6517 52.5469L74.9069 51.58ZM67.6469 48.22L66.7583 47.7614L66.3627 48.5277L67.0626 49.0315L67.6469 48.22ZM71.4869 40.78L72.0869 39.98L71.1407 39.2704L70.5983 40.3214L71.4869 40.78ZM77.0069 43.6L76.6961 44.5505L76.7044 44.5532L76.7128 44.5558L77.0069 43.6ZM89.1869 43.12L89.7524 43.9447L89.1869 43.12ZM89.0669 35.02L88.5284 35.8628L88.5389 35.8693L89.0669 35.02ZM70.7669 33.64L69.771 33.549L69.6713 34.64H70.7669V33.64ZM72.9269 10V9H72.0141L71.931 9.90901L72.9269 10ZM98.5469 10H99.5469V9H98.5469V10ZM98.5469 17.8V18.8H99.5469V17.8H98.5469ZM81.0269 17.8V16.8H80.1062L80.0303 17.7176L81.0269 17.8ZM80.3669 25.78L79.3703 25.6976L79.2808 26.78H80.3669V25.78ZM83.7869 26.78C89.6071 26.78 93.6849 27.9459 96.2224 30.0846L97.5113 28.5554C94.4489 25.9741 89.8067 24.78 83.7869 24.78V26.78ZM96.2278 30.0891C98.8209 32.244 100.127 35.1127 100.127 38.8H102.127C102.127 34.5673 100.593 31.116 97.506 28.5509L96.2278 30.0891ZM100.127 38.8C100.127 41.1843 99.5334 43.3445 98.3508 45.3031L100.063 46.3369C101.44 44.0555 102.127 41.5357 102.127 38.8H100.127ZM98.3552 45.2959C97.1936 47.1836 95.394 48.7464 92.8906 49.9602L93.7632 51.7598C96.5397 50.4136 98.6602 48.6164 100.059 46.3441L98.3552 45.2959ZM92.8964 49.9574C90.4678 51.1156 87.4052 51.72 83.6669 51.72V53.72C87.6086 53.72 90.9859 53.0844 93.7573 51.7626L92.8964 49.9574ZM83.6669 51.72C80.7935 51.72 77.9593 51.3513 75.162 50.6131L74.6517 52.5469C77.6145 53.3287 80.6202 53.72 83.6669 53.72V51.72ZM75.178 50.6175C72.4288 49.843 70.1198 48.7683 68.2312 47.4085L67.0626 49.0315C69.174 50.5517 71.7049 51.717 74.6357 52.5425L75.178 50.6175ZM68.5355 48.6786L72.3755 41.2386L70.5983 40.3214L66.7583 47.7614L68.5355 48.6786ZM70.8869 41.58C72.5823 42.8515 74.5219 43.8397 76.6961 44.5505L77.3176 42.6495C75.3319 42.0003 73.5915 41.1085 72.0869 39.98L70.8869 41.58ZM76.7128 44.5558C78.8891 45.2254 81.1283 45.56 83.4269 45.56V43.56C81.3255 43.56 79.2846 43.2546 77.301 42.6442L76.7128 44.5558ZM83.4269 45.56C85.9843 45.56 88.1277 45.0588 89.7524 43.9447L88.6213 42.2953C87.446 43.1012 85.7495 43.56 83.4269 43.56V45.56ZM89.7524 43.9447C91.4286 42.7953 92.2869 41.1445 92.2869 39.1H90.2869C90.2869 40.4955 89.7451 41.5247 88.6213 42.2953L89.7524 43.9447ZM92.2869 39.1C92.2869 36.9682 91.3799 35.2804 89.5948 34.1707L88.5389 35.8693C89.7138 36.5996 90.2869 37.6318 90.2869 39.1H92.2869ZM89.6053 34.1773C87.9048 33.0909 85.1283 32.64 81.5069 32.64V34.64C85.0854 34.64 87.3489 35.1091 88.5285 35.8627L89.6053 34.1773ZM81.5069 32.64H70.7669V34.64H81.5069V32.64ZM71.7627 33.731L73.9227 10.091L71.931 9.90901L69.771 33.549L71.7627 33.731ZM72.9269 11H98.5469V9H72.9269V11ZM97.5469 10V17.8H99.5469V10H97.5469ZM98.5469 16.8H81.0269V18.8H98.5469V16.8ZM80.0303 17.7176L79.3703 25.6976L81.3635 25.8624L82.0235 17.8824L80.0303 17.7176ZM80.3669 26.78H83.7869V24.78H80.3669V26.78ZM106.45 50.8L107.158 50.0929L106.45 50.8ZM106.45 42.46L107.131 43.1928L107.138 43.1864L107.145 43.1798L106.45 42.46ZM114.73 42.46L114.036 43.1798L114.043 43.1864L114.05 43.1928L114.73 42.46ZM114.73 50.8L114.023 50.0929L114.73 50.8ZM110.59 51.48C109.205 51.48 108.083 51.0181 107.158 50.0929L105.743 51.5071C107.058 52.8219 108.696 53.48 110.59 53.48V51.48ZM107.158 50.0929C106.237 49.1727 105.77 48.0326 105.77 46.6H103.77C103.77 48.5274 104.424 50.1873 105.743 51.5071L107.158 50.0929ZM105.77 46.6C105.77 45.1196 106.241 44.0189 107.131 43.1928L105.77 41.7272C104.42 42.9811 103.77 44.6404 103.77 46.6H105.77ZM107.145 43.1798C108.067 42.29 109.194 41.84 110.59 41.84V39.84C108.707 39.84 107.074 40.47 105.756 41.7402L107.145 43.1798ZM110.59 41.84C111.987 41.84 113.114 42.29 114.036 43.1798L115.425 41.7402C114.107 40.47 112.474 39.84 110.59 39.84V41.84ZM114.05 43.1928C114.94 44.0189 115.41 45.1196 115.41 46.6H117.41C117.41 44.6404 116.761 42.9811 115.411 41.7272L114.05 43.1928ZM115.41 46.6C115.41 48.0326 114.944 49.1727 114.023 50.0929L115.438 51.5071C116.757 50.1873 117.41 48.5274 117.41 46.6H115.41ZM114.023 50.0929C113.098 51.0181 111.976 51.48 110.59 51.48V53.48C112.485 53.48 114.123 52.8219 115.438 51.5071L114.023 50.0929Z" fill="#445066" fill-opacity="0.7"/>
</svg>
