<svg width="33" height="19" viewBox="0 0 33 19" fill="none" xmlns="http://www.w3.org/2000/svg">
<path d="M17.0021 13.2044C17.0021 10.9647 15.7932 9.30912 13.2958 8.68859C15.118 7.92384 16.0683 6.7652 16.0683 4.96301C16.0683 1.40953 13.0538 0.542969 9.57579 0.542969H0V18.3843H9.84396C13.5351 18.3843 17.0021 16.8294 17.0021 13.2044ZM4.46402 3.58864H8.653C10.2634 3.58864 11.7129 3.98616 11.7129 5.62717C11.7129 7.14212 10.5852 7.75174 8.98993 7.75174H4.46402V3.58864ZM4.46265 15.3544V10.4411H9.32824C11.2935 10.4411 12.5367 11.161 12.5367 12.9886C12.5367 14.7908 11.0528 15.3544 9.2361 15.3544H4.46265Z" fill="white"/>
<path d="M25.849 18.7226C29.3614 18.7226 31.636 17.3325 32.7307 14.3777H29.1661C28.7824 15.4806 27.2009 16.0636 25.9742 16.0636C23.6074 16.0636 22.3642 14.8455 22.3642 12.7755H32.9714C33.307 8.633 30.6885 5.10254 25.8477 5.10254C21.3658 5.10254 18.3237 8.06216 18.3237 11.9392C18.3237 15.963 21.2062 18.7226 25.849 18.7226ZM25.7225 7.78341C27.751 7.78341 28.7714 8.83055 28.9419 10.5431H22.3697C22.5031 8.84509 23.7862 7.78341 25.7225 7.78341Z" fill="white"/>
<path d="M21.5458 1.47998H29.7808V3.23734H21.5458V1.47998Z" fill="white"/>
</svg>
