<svg width="33" height="30" viewBox="0 0 33 30" fill="none" xmlns="http://www.w3.org/2000/svg">
<path d="M16.5057 7.38379C11.8266 7.38379 8.03845 10.7258 8.03845 14.8458C8.03845 18.9694 11.8307 22.3078 16.5057 22.3078C21.1849 22.3078 24.973 18.9658 24.973 14.8458C24.973 10.7222 21.1808 7.38379 16.5057 7.38379ZM16.5057 19.6892C13.4683 19.6892 11.0098 17.5213 11.0098 14.8458C11.0098 12.1702 13.4697 10.0024 16.5057 10.0024C19.5417 10.0024 22.0016 12.1702 22.0016 14.8458C22.003 17.5213 19.5431 19.6892 16.5057 19.6892Z" fill="white"/>
<path d="M23.3038 0.401409C20.2678 0.276598 12.7479 0.282657 9.70919 0.401409C7.03894 0.511679 4.68356 1.07999 2.78469 2.75343C-0.388813 5.55017 0.0168125 9.31874 0.0168125 14.8456C0.0168125 20.5021 -0.340688 24.1834 2.78469 26.9377C5.97056 29.7441 10.3087 29.377 16.5058 29.377C22.8638 29.377 25.0583 29.3806 27.3064 28.6136C30.3631 27.5678 32.6703 25.16 32.8958 20.8353C33.0388 18.1585 33.0306 11.5326 32.8958 8.85463C32.6236 3.7495 29.5147 0.653455 23.3038 0.401409ZM28.1094 25.0873C26.0291 26.9207 23.1429 26.7571 16.4659 26.7571C9.59094 26.7571 6.83406 26.8468 4.82244 25.0692C2.50556 23.0371 2.92494 19.7738 2.92494 14.8262C2.92494 8.13121 2.14531 3.30963 9.76969 2.96549C11.5214 2.91096 12.0371 2.89278 16.4467 2.89278L16.5086 2.92914C23.8359 2.92914 29.5848 2.25298 29.9299 8.97096C30.0083 10.5038 30.0262 10.9643 30.0262 14.8444C30.0248 20.8329 30.1541 23.277 28.1094 25.0873Z" fill="white"/>
<path d="M25.3087 8.83266C26.4014 8.83266 27.2872 8.05197 27.2872 7.08894C27.2872 6.1259 26.4014 5.34521 25.3087 5.34521C24.2159 5.34521 23.3301 6.1259 23.3301 7.08894C23.3301 8.05197 24.2159 8.83266 25.3087 8.83266Z" fill="white"/>
</svg>
