<svg width="200" height="33" viewBox="0 0 200 33" fill="none" xmlns="http://www.w3.org/2000/svg">
<path d="M24.1223 9.64H25.1223V8.64H24.1223V9.64ZM24.1223 31V32H25.1223V31H24.1223ZM19.1223 31H18.1223V32H19.1223V31ZM19.1223 13.88H20.1223V12.88H19.1223V13.88ZM11.1223 13.88L11.1223 12.88H10.1684L10.1235 13.8329L11.1223 13.88ZM10.9223 18.12L9.92345 18.0729L10.9223 18.12ZM10.1223 25.24L9.14331 25.036L9.14124 25.0465L10.1223 25.24ZM8.16234 29.76L7.39412 29.1198L7.39259 29.1217L8.16234 29.76ZM1.64234 30.96L0.643972 30.903L0.597566 31.7151L1.38322 31.9258L1.64234 30.96ZM1.88234 26.76L2.09187 25.7822L0.950562 25.5376L0.883972 26.7029L1.88234 26.76ZM5.12234 25.68L5.96716 26.2151L5.9711 26.2088L5.97495 26.2026L5.12234 25.68ZM6.08234 22.76L5.09194 22.6218L5.09055 22.6318L5.08936 22.6418L6.08234 22.76ZM6.48234 17.88L7.48109 17.9306L7.48139 17.9236L6.48234 17.88ZM6.84234 9.64V8.64L5.88508 8.64L5.8433 9.59635L6.84234 9.64ZM23.1223 9.64L23.1223 31H25.1223L25.1223 9.64H23.1223ZM24.1223 30L19.1223 30L19.1223 32L24.1223 32L24.1223 30ZM20.1223 31L20.1223 13.88H18.1223L18.1223 31H20.1223ZM19.1223 12.88L11.1223 12.88L11.1223 14.88L19.1223 14.88V12.88ZM10.1235 13.8329L9.92345 18.0729L11.9212 18.1671L12.1212 13.9271L10.1235 13.8329ZM9.92345 18.0729C9.79162 20.8678 9.52903 23.1848 9.14336 25.036L11.1013 25.444C11.5157 23.4552 11.7864 21.0256 11.9212 18.1671L9.92345 18.0729ZM9.14124 25.0465C8.79019 26.8268 8.19105 28.1635 7.39412 29.1198L8.93057 30.4002C10.0003 29.1165 10.7078 27.4398 11.1035 25.4335L9.14124 25.0465ZM7.39259 29.1217C6.70139 29.9552 5.7471 30.4 4.40234 30.4V32.4C6.25759 32.4 7.80997 31.7515 8.9321 30.3983L7.39259 29.1217ZM4.40234 30.4C3.7758 30.4 2.949 30.2752 1.90147 29.9942L1.38322 31.9258C2.52235 32.2315 3.53556 32.4 4.40234 32.4V30.4ZM2.64072 31.017L2.88072 26.817L0.883972 26.7029L0.643972 30.903L2.64072 31.017ZM1.67281 27.7378C2.08817 27.8268 2.48227 27.88 2.84234 27.88L2.84234 25.88C2.66909 25.88 2.42319 25.8532 2.09187 25.7822L1.67281 27.7378ZM2.84234 27.88C4.1695 27.88 5.26223 27.3281 5.96716 26.2151L4.27752 25.1449C3.96912 25.6319 3.54185 25.88 2.84234 25.88L2.84234 27.88ZM5.97495 26.2026C6.56839 25.2343 6.9277 24.1183 7.07533 22.8782L5.08936 22.6418C4.97032 23.6417 4.68963 24.4724 4.26974 25.1574L5.97495 26.2026ZM7.07275 22.8982C7.23883 21.708 7.37391 20.047 7.48106 17.9306L5.48362 17.8294C5.37745 19.9264 5.24586 21.5187 5.09194 22.6218L7.07275 22.8982ZM7.48139 17.9236L7.84139 9.68365L5.8433 9.59635L5.4833 17.8364L7.48139 17.9236ZM6.84234 10.64L24.1223 10.64V8.64L6.84234 8.64V10.64ZM50.7761 21.92V22.92H51.6962L51.7726 22.003L50.7761 21.92ZM34.0161 21.92V20.92H32.8124L33.033 22.1033L34.0161 21.92ZM36.2961 25.68L35.6906 26.4758L35.7002 26.4831L35.71 26.4902L36.2961 25.68ZM46.7361 24.72L47.4905 24.0636L46.7807 23.2479L46.0229 24.0191L46.7361 24.72ZM49.4161 27.8L50.1829 28.4419L50.7308 27.7875L50.1705 27.1436L49.4161 27.8ZM45.7761 30.4L45.4047 29.4715L45.7761 30.4ZM34.6161 29.88L34.1531 30.7663L34.6161 29.88ZM30.4561 26L29.5879 26.4961L29.5925 26.5043L29.5974 26.5125L30.4561 26ZM30.4161 14.72L29.5478 14.2239L29.5453 14.2284L30.4161 14.72ZM34.3761 10.8L34.8617 11.6742V11.6742L34.3761 10.8ZM45.6161 10.8L45.1184 11.6674L45.1268 11.6722L45.1353 11.6768L45.6161 10.8ZM49.4561 14.68L48.5761 15.1549L48.5806 15.1633L48.5853 15.1716L49.4561 14.68ZM35.9761 14.84L36.6254 15.6006L36.6269 15.5993L35.9761 14.84ZM33.9761 18.6L32.9875 18.4492L32.812 19.6H33.9761L33.9761 18.6ZM46.0961 18.6L46.0961 19.6H47.2435L47.0867 18.4634L46.0961 18.6ZM44.1361 14.84L43.4763 15.5914L44.1361 14.84ZM49.8561 20.44C49.8561 20.7448 49.8322 21.2056 49.7795 21.837L51.7726 22.003C51.8267 21.3544 51.8561 20.8285 51.8561 20.44H49.8561ZM50.7761 20.92L34.0161 20.92V22.92L50.7761 22.92V20.92ZM33.033 22.1033C33.3699 23.9103 34.2582 25.386 35.6906 26.4758L36.9016 24.8842C35.8806 24.1073 35.2489 23.0764 34.9992 21.7367L33.033 22.1033ZM35.71 26.4902C37.1643 27.5423 38.9266 28.04 40.9361 28.04V26.04C39.2656 26.04 37.9346 25.6311 36.8822 24.8698L35.71 26.4902ZM40.9361 28.04C43.5266 28.04 45.7249 27.1756 47.4493 25.4209L46.0229 24.0191C44.7073 25.3577 43.0389 26.04 40.9361 26.04V28.04ZM45.9817 25.3764L48.6617 28.4564L50.1705 27.1436L47.4905 24.0636L45.9817 25.3764ZM48.6493 27.1581C47.8014 28.1708 46.7268 28.9427 45.4047 29.4715L46.1475 31.3285C47.7587 30.684 49.1108 29.7225 50.1829 28.4419L48.6493 27.1581ZM45.4047 29.4715C44.0739 30.0038 42.5495 30.28 40.8161 30.28V32.28C42.7626 32.28 44.5449 31.9695 46.1475 31.3285L45.4047 29.4715ZM40.8161 30.28C38.6041 30.28 36.7011 29.8409 35.0791 28.9937L34.1531 30.7663C36.1045 31.7857 38.3347 32.28 40.8161 32.28V30.28ZM35.0791 28.9937C33.4483 28.1417 32.2021 26.9744 31.3148 25.4875L29.5974 26.5125C30.6834 28.3322 32.2105 29.7516 34.1531 30.7663L35.0791 28.9937ZM31.3243 25.5039C30.4582 23.9882 30.0161 22.2685 30.0161 20.32H28.0161C28.0161 22.5848 28.534 24.6518 29.5879 26.4961L31.3243 25.5039ZM30.0161 20.32C30.0161 18.3954 30.4462 16.7009 31.2869 15.2116L29.5453 14.2284C28.5193 16.0458 28.0161 18.0846 28.0161 20.32H30.0161ZM31.2843 15.2161C32.1544 13.6936 33.3425 12.5182 34.8617 11.6742L33.8904 9.92584C32.0496 10.9485 30.5978 12.3864 29.5479 14.2239L31.2843 15.2161ZM34.8617 11.6742C36.3792 10.8311 38.1026 10.4 40.0561 10.4V8.4C37.7962 8.4 35.733 8.90221 33.8904 9.92584L34.8617 11.6742ZM40.0561 10.4C41.981 10.4 43.6593 10.8302 45.1184 11.6674L46.1138 9.93263C44.3196 8.90317 42.2912 8.4 40.0561 8.4V10.4ZM45.1353 11.6768C46.6174 12.4896 47.7597 13.6423 48.5761 15.1549L50.3361 14.2051C49.3391 12.3577 47.9215 10.9238 46.0969 9.92319L45.1353 11.6768ZM48.5853 15.1716C49.4218 16.6535 49.8561 18.3991 49.8561 20.44H51.8561C51.8561 18.1075 51.357 16.0132 50.3269 14.1884L48.5853 15.1716ZM40.0561 12.4C38.2392 12.4 36.6424 12.9518 35.3253 14.0807L36.6269 15.5993C37.5498 14.8082 38.673 14.4 40.0561 14.4V12.4ZM35.3268 14.0794C34.0309 15.1857 33.2596 16.6658 32.9875 18.4492L34.9647 18.7508C35.1726 17.3876 35.7346 16.3609 36.6254 15.6006L35.3268 14.0794ZM33.9761 19.6L46.0961 19.6L46.0961 17.6L33.9761 17.6L33.9761 19.6ZM47.0867 18.4634C46.8432 16.6975 46.0836 15.2192 44.7959 14.0886L43.4763 15.5914C44.3753 16.3808 44.9224 17.4092 45.1055 18.7366L47.0867 18.4634ZM44.7959 14.0886C43.4983 12.9492 41.8948 12.4 40.0561 12.4V14.4C41.4707 14.4 42.5873 14.8108 43.4763 15.5914L44.7959 14.0886ZM72.7248 13.88V14.88H73.7248V13.88H72.7248ZM61.3248 13.88V12.88H60.3248V13.88H61.3248ZM61.3248 31V32H62.3248V31H61.3248ZM56.3248 31H55.3248V32H56.3248V31ZM56.3248 9.64V8.64H55.3248V9.64H56.3248ZM72.7248 9.64L73.7248 9.64V8.64L72.7248 8.64V9.64ZM72.7248 12.88L61.3248 12.88V14.88H72.7248V12.88ZM60.3248 13.88L60.3248 31H62.3248L62.3248 13.88H60.3248ZM61.3248 30H56.3248V32H61.3248V30ZM57.3248 31L57.3248 9.64H55.3248L55.3248 31H57.3248ZM56.3248 10.64L72.7248 10.64V8.64L56.3248 8.64V10.64ZM71.7248 9.64V13.88H73.7248V9.64L71.7248 9.64ZM85.2439 22.44L86.043 21.8388L85.743 21.44H85.2439V22.44ZM81.3639 22.44V21.44H80.3639V22.44H81.3639ZM81.3639 31V32H82.3639V31H81.3639ZM76.3639 31H75.3639V32H76.3639V31ZM76.3639 9.64V8.64H75.3639V9.64H76.3639ZM81.3639 9.64H82.3639V8.64H81.3639V9.64ZM81.3639 18.28H80.3639V19.28H81.3639V18.28ZM85.3639 18.28V19.28H85.8714L86.171 18.8704L85.3639 18.28ZM91.6839 9.64V8.64H91.1764L90.8768 9.04961L91.6839 9.64ZM97.0439 9.64L97.842 10.2425L99.0517 8.64H97.0439V9.64ZM89.2839 19.92L88.4858 19.3175L88.0333 19.917L88.4829 20.5186L89.2839 19.92ZM97.5639 31V32H99.5596L98.3649 30.4014L97.5639 31ZM91.6839 31L90.8848 31.6012L91.1848 32H91.6839V31ZM85.2439 21.44H81.3639V23.44H85.2439V21.44ZM80.3639 22.44V31H82.3639V22.44H80.3639ZM81.3639 30H76.3639V32H81.3639V30ZM77.3639 31V9.64H75.3639V31H77.3639ZM76.3639 10.64H81.3639V8.64H76.3639V10.64ZM80.3639 9.64V18.28H82.3639V9.64H80.3639ZM81.3639 19.28H85.3639V17.28H81.3639V19.28ZM86.171 18.8704L92.491 10.2304L90.8768 9.04961L84.5568 17.6896L86.171 18.8704ZM91.6839 10.64L97.0439 10.64V8.64L91.6839 8.64V10.64ZM96.2458 9.03752L88.4858 19.3175L90.082 20.5225L97.842 10.2425L96.2458 9.03752ZM88.4829 20.5186L96.7629 31.5986L98.3649 30.4014L90.0849 19.3214L88.4829 20.5186ZM97.5639 30H91.6839V32H97.5639V30ZM92.483 30.3988L86.043 21.8388L84.4448 23.0412L90.8848 31.6012L92.483 30.3988ZM104.067 29.88L104.541 28.9995L104.067 29.88ZM99.9873 26L99.1191 26.4961L99.1238 26.5043L99.1286 26.5125L99.9873 26ZM99.9873 14.68L99.1286 14.1675L99.1226 14.1779L99.9873 14.68ZM104.067 10.8L104.541 11.6805L104.067 10.8ZM115.787 10.8L115.313 11.6805L115.787 10.8ZM119.827 14.68L118.962 15.1822L118.969 15.1925L119.827 14.68ZM119.827 26L118.965 25.4936L118.963 25.4979L119.827 26ZM115.787 29.88L115.313 28.9995L115.787 29.88ZM114.467 25.16L113.753 24.4607L114.467 25.16ZM114.467 15.48L113.753 16.1793V16.1793L114.467 15.48ZM105.347 15.48L104.632 14.7807L104.625 14.7888L105.347 15.48ZM105.347 25.16L104.625 25.8513L104.633 25.8593L105.347 25.16ZM109.907 30.28C107.896 30.28 106.115 29.847 104.541 28.9995L103.593 30.7605C105.486 31.7797 107.598 32.28 109.907 32.28V30.28ZM104.541 28.9995C102.963 28.1498 101.738 26.9821 100.846 25.4875L99.1286 26.5125C100.21 28.3246 101.705 29.7435 103.593 30.7605L104.541 28.9995ZM100.856 25.5039C99.9895 23.9882 99.5473 22.2685 99.5473 20.32H97.5473C97.5473 22.5848 98.0652 24.6518 99.1191 26.4961L100.856 25.5039ZM99.5473 20.32C99.5473 18.3712 99.9895 16.6677 100.852 15.1821L99.1226 14.1779C98.0652 15.9989 97.5473 18.0554 97.5473 20.32H99.5473ZM100.846 15.1925C101.738 13.6979 102.963 12.5302 104.541 11.6805L103.593 9.91953C101.705 10.9365 100.21 12.3554 99.1286 14.1675L100.846 15.1925ZM104.541 11.6805C106.115 10.833 107.896 10.4 109.907 10.4V8.4C107.598 8.4 105.486 8.9003 103.593 9.91953L104.541 11.6805ZM109.907 10.4C111.947 10.4 113.741 10.834 115.313 11.6805L116.261 9.91953C114.367 8.89934 112.241 8.4 109.907 8.4V10.4ZM115.313 11.6805C116.889 12.5289 118.098 13.6935 118.963 15.1821L120.692 14.1779C119.636 12.3598 118.152 10.9377 116.261 9.91953L115.313 11.6805ZM118.969 15.1925C119.854 16.6765 120.307 18.3762 120.307 20.32H122.307C122.307 18.0504 121.774 15.9902 120.686 14.1675L118.969 15.1925ZM120.307 20.32C120.307 22.2636 119.854 23.9795 118.965 25.4936L120.69 26.5064C121.774 24.6605 122.307 22.5898 122.307 20.32H120.307ZM118.963 25.4979C118.098 26.9865 116.889 28.1511 115.313 28.9995L116.261 30.7605C118.152 29.7423 119.636 28.3202 120.692 26.5021L118.963 25.4979ZM115.313 28.9995C113.741 29.846 111.947 30.28 109.907 30.28V32.28C112.241 32.28 114.367 31.7807 116.261 30.7605L115.313 28.9995ZM109.907 28C111.995 28 113.779 27.2932 115.182 25.8593L113.753 24.4607C112.755 25.4802 111.5 26 109.907 26V28ZM115.182 25.8593C116.595 24.4149 117.267 22.5348 117.267 20.32H115.267C115.267 22.1052 114.74 23.4517 113.753 24.4607L115.182 25.8593ZM117.267 20.32C117.267 18.1052 116.595 16.2251 115.182 14.7807L113.753 16.1793C114.74 17.1883 115.267 18.5348 115.267 20.32H117.267ZM115.182 14.7807C113.779 13.3468 111.995 12.64 109.907 12.64V14.64C111.5 14.64 112.755 15.1598 113.753 16.1793L115.182 14.7807ZM109.907 12.64C107.82 12.64 106.035 13.3468 104.633 14.7807L106.062 16.1793C107.059 15.1598 108.315 14.64 109.907 14.64V12.64ZM104.625 14.7888C103.242 16.2342 102.587 18.1115 102.587 20.32H104.587C104.587 18.5285 105.106 17.1791 106.07 16.1712L104.625 14.7888ZM102.587 20.32C102.587 22.5285 103.242 24.4058 104.625 25.8512L106.07 24.4688C105.106 23.4609 104.587 22.1115 104.587 20.32H102.587ZM104.633 25.8593C106.035 27.2932 107.82 28 109.907 28V26C108.315 26 107.059 25.4802 106.062 24.4607L104.633 25.8593ZM141.727 19.88L141.327 18.9633L138.836 20.049L141.437 20.837L141.727 19.88ZM126.247 31H125.247V32H126.247V31ZM126.247 9.64V8.64H125.247V9.64H126.247ZM142.807 11.08L142.259 11.9167L142.807 11.08ZM144.127 18L143.32 17.4086L143.314 17.4175L143.307 17.4265L144.127 18ZM131.007 18.56H130.007V19.56H131.007V18.56ZM131.007 13.28V12.28H130.007V13.28H131.007ZM139.887 22.6L139.287 23.4L139.298 23.4082L139.309 23.416L139.887 22.6ZM131.007 21.88V20.88H130.007V21.88H131.007ZM131.007 27.36H130.007V28.36H131.007V27.36ZM141.437 20.837C142.613 21.1936 143.404 21.7233 143.906 22.3718C144.403 23.0154 144.687 23.8666 144.687 25H146.687C146.687 23.52 146.31 22.2113 145.488 21.1482C144.669 20.09 143.48 19.3664 142.017 18.923L141.437 20.837ZM144.687 25C144.687 26.6292 144.097 27.7944 142.941 28.6293L144.112 30.2507C145.836 29.0056 146.687 27.2108 146.687 25H144.687ZM142.941 28.6293C141.746 29.4927 139.858 30 137.127 30V32C140.049 32 142.428 31.4673 144.112 30.2507L142.941 28.6293ZM137.127 30H126.247V32H137.127V30ZM127.247 31V9.64H125.247V31H127.247ZM126.247 10.64L136.687 10.64V8.64L126.247 8.64V10.64ZM136.687 10.64C139.195 10.64 141.017 11.1035 142.259 11.9167L143.354 10.2433C141.663 9.13645 139.405 8.64 136.687 8.64V10.64ZM142.259 11.9167C143.442 12.691 144.007 13.7357 144.007 15.16L146.007 15.16C146.007 13.0643 145.105 11.389 143.354 10.2433L142.259 11.9167ZM144.007 15.16C144.007 16.0635 143.768 16.7977 143.32 17.4086L144.933 18.5914C145.658 17.6023 146.007 16.4432 146.007 15.16L144.007 15.16ZM143.307 17.4265C142.869 18.0527 142.226 18.5715 141.327 18.9633L142.126 20.7967C143.307 20.2819 144.264 19.5473 144.946 18.5735L143.307 17.4265ZM131.007 19.56H136.247V17.56H131.007V19.56ZM136.247 19.56C137.624 19.56 138.835 19.3277 139.725 18.7128C140.682 18.0516 141.127 17.0497 141.127 15.88H139.127C139.127 16.4969 138.925 16.835 138.588 17.0672C138.185 17.3456 137.456 17.56 136.247 17.56V19.56ZM141.127 15.88C141.127 14.7242 140.672 13.7417 139.713 13.0993C138.826 12.5044 137.62 12.28 136.247 12.28V14.28C137.46 14.28 138.194 14.489 138.6 14.7607C138.935 14.985 139.127 15.3024 139.127 15.88H141.127ZM136.247 12.28H131.007V14.28H136.247V12.28ZM130.007 13.28V18.56H132.007V13.28H130.007ZM136.727 28.36C138.177 28.36 139.437 28.13 140.362 27.5283C141.362 26.8781 141.847 25.8753 141.847 24.68H139.847C139.847 25.2714 139.645 25.6086 139.271 25.8517C138.823 26.1433 138.024 26.36 136.727 26.36V28.36ZM141.847 24.68C141.847 23.4925 141.422 22.462 140.465 21.784L139.309 23.416C139.632 23.6447 139.847 24.0008 139.847 24.68H141.847ZM140.487 21.8C139.589 21.127 138.326 20.88 136.887 20.88V22.88C138.167 22.88 138.904 23.113 139.287 23.4L140.487 21.8ZM136.887 20.88H131.007V22.88H136.887V20.88ZM130.007 21.88V27.36H132.007V21.88H130.007ZM131.007 28.36H136.727V26.36H131.007V28.36ZM154.692 29.88L155.166 28.9995L154.692 29.88ZM150.612 26L149.744 26.4961L149.749 26.5043L149.754 26.5125L150.612 26ZM150.612 14.68L149.754 14.1675L149.748 14.1779L150.612 14.68ZM154.692 10.8L155.166 11.6805L154.692 10.8ZM166.412 10.8L165.938 11.6805L166.412 10.8ZM170.452 14.68L169.587 15.1822L169.594 15.1925L170.452 14.68ZM170.452 26L169.59 25.4936L169.588 25.4979L170.452 26ZM166.412 29.88L165.938 28.9995L166.412 29.88ZM165.092 25.16L164.378 24.4607L165.092 25.16ZM165.092 15.48L164.378 16.1793V16.1793L165.092 15.48ZM155.972 15.48L155.257 14.7807L155.25 14.7888L155.972 15.48ZM155.972 25.16L155.25 25.8513L155.258 25.8593L155.972 25.16ZM160.532 30.28C158.521 30.28 156.74 29.847 155.166 28.9995L154.218 30.7605C156.111 31.7797 158.223 32.28 160.532 32.28V30.28ZM155.166 28.9995C153.588 28.1498 152.363 26.9821 151.471 25.4875L149.754 26.5125C150.835 28.3246 152.33 29.7435 154.218 30.7605L155.166 28.9995ZM151.481 25.5039C150.614 23.9882 150.172 22.2685 150.172 20.32H148.172C148.172 22.5848 148.69 24.6518 149.744 26.4961L151.481 25.5039ZM150.172 20.32C150.172 18.3712 150.615 16.6677 151.477 15.1821L149.748 14.1779C148.69 15.9989 148.172 18.0554 148.172 20.32H150.172ZM151.471 15.1925C152.363 13.6979 153.588 12.5302 155.166 11.6805L154.218 9.91953C152.33 10.9365 150.835 12.3554 149.754 14.1675L151.471 15.1925ZM155.166 11.6805C156.74 10.833 158.521 10.4 160.532 10.4V8.4C158.223 8.4 156.111 8.9003 154.218 9.91953L155.166 11.6805ZM160.532 10.4C162.572 10.4 164.366 10.834 165.938 11.6805L166.886 9.91953C164.992 8.89934 162.866 8.4 160.532 8.4V10.4ZM165.938 11.6805C167.514 12.5289 168.723 13.6935 169.588 15.1821L171.317 14.1779C170.262 12.3598 168.777 10.9377 166.886 9.91953L165.938 11.6805ZM169.594 15.1925C170.479 16.6765 170.932 18.3762 170.932 20.32H172.932C172.932 18.0504 172.399 15.9902 171.311 14.1675L169.594 15.1925ZM170.932 20.32C170.932 22.2636 170.479 23.9795 169.59 25.4936L171.315 26.5064C172.399 24.6605 172.932 22.5898 172.932 20.32H170.932ZM169.588 25.4979C168.723 26.9865 167.514 28.1511 165.938 28.9995L166.886 30.7605C168.777 29.7423 170.262 28.3202 171.317 26.5021L169.588 25.4979ZM165.938 28.9995C164.366 29.846 162.572 30.28 160.532 30.28V32.28C162.866 32.28 164.992 31.7807 166.886 30.7605L165.938 28.9995ZM160.532 28C162.62 28 164.404 27.2932 165.807 25.8593L164.378 24.4607C163.38 25.4802 162.125 26 160.532 26V28ZM165.807 25.8593C167.22 24.4149 167.892 22.5348 167.892 20.32L165.892 20.32C165.892 22.1052 165.365 23.4517 164.378 24.4607L165.807 25.8593ZM167.892 20.32C167.892 18.1052 167.22 16.2251 165.807 14.7807L164.378 16.1793C165.365 17.1883 165.892 18.5348 165.892 20.32L167.892 20.32ZM165.807 14.7807C164.404 13.3468 162.62 12.64 160.532 12.64V14.64C162.125 14.64 163.38 15.1598 164.378 16.1793L165.807 14.7807ZM160.532 12.64C158.445 12.64 156.66 13.3468 155.258 14.7807L156.687 16.1793C157.684 15.1598 158.94 14.64 160.532 14.64V12.64ZM155.25 14.7888C153.867 16.2342 153.212 18.1115 153.212 20.32H155.212C155.212 18.5285 155.731 17.1791 156.695 16.1712L155.25 14.7888ZM153.212 20.32C153.212 22.5285 153.867 24.4058 155.25 25.8512L156.695 24.4688C155.731 23.4609 155.212 22.1115 155.212 20.32H153.212ZM155.258 25.8593C156.66 27.2932 158.445 28 160.532 28V26C158.94 26 157.684 25.4802 156.687 24.4607L155.258 25.8593ZM176.872 9.64V8.64H175.872V9.64H176.872ZM181.872 9.64H182.872V8.64H181.872V9.64ZM181.872 23.72H180.872V26.4701L182.638 24.3623L181.872 23.72ZM193.672 9.64V8.64H193.205L192.905 8.99767L193.672 9.64ZM198.232 9.64H199.232V8.64H198.232V9.64ZM198.232 31V32H199.232V31H198.232ZM193.232 31H192.232V32H193.232V31ZM193.232 16.92H194.232V14.1628L192.464 16.279L193.232 16.92ZM181.472 31V32H181.939L182.239 31.641L181.472 31ZM176.872 31H175.872V32H176.872V31ZM182.272 5.64L181.601 6.38154L181.61 6.38989L181.619 6.39801L182.272 5.64ZM180.552 1.24V0.239999H179.538L179.552 1.25389L180.552 1.24ZM183.872 1.24L184.871 1.21223L184.844 0.239999L183.872 0.239999V1.24ZM184.752 3.52L184.045 4.22711L184.053 4.23533L184.061 4.24335L184.752 3.52ZM189.592 3.52L188.917 2.78151L188.909 2.78899L188.901 2.79664L189.592 3.52ZM190.552 1.24V0.239999L189.579 0.239999L189.552 1.21223L190.552 1.24ZM193.952 1.24L194.952 1.25389L194.966 0.239999H193.952V1.24ZM192.192 5.64L192.844 6.39808L192.854 6.38933L192.192 5.64ZM176.872 10.64H181.872V8.64H176.872V10.64ZM180.872 9.64V23.72H182.872V9.64H180.872ZM182.638 24.3623L194.438 10.2823L192.905 8.99767L181.105 23.0777L182.638 24.3623ZM193.672 10.64L198.232 10.64V8.64L193.672 8.64V10.64ZM197.232 9.64V31H199.232V9.64H197.232ZM198.232 30H193.232V32H198.232V30ZM194.232 31V16.92H192.232V31H194.232ZM192.464 16.279L180.704 30.359L182.239 31.641L193.999 17.561L192.464 16.279ZM181.472 30H176.872V32H181.472V30ZM177.872 31V9.64H175.872V31H177.872ZM187.232 6.12C185.21 6.12 183.825 5.65734 182.924 4.88199L181.619 6.39801C183.012 7.596 184.933 8.12 187.232 8.12V6.12ZM182.943 4.89846C182.081 4.11913 181.576 2.94846 181.552 1.22611L179.552 1.25389C179.581 3.37154 180.222 5.1342 181.601 6.38154L182.943 4.89846ZM180.552 2.24H183.872V0.239999L180.552 0.239999V2.24ZM182.872 1.26777C182.904 2.4258 183.267 3.44944 184.045 4.22711L185.459 2.81289C185.117 2.47056 184.893 1.9742 184.871 1.21223L182.872 1.26777ZM184.061 4.24335C184.882 5.02698 185.97 5.36 187.192 5.36V3.36C186.333 3.36 185.795 3.13302 185.442 2.79664L184.061 4.24335ZM187.192 5.36C188.395 5.36 189.466 5.0225 190.282 4.24335L188.901 2.79664C188.544 3.1375 188.015 3.36 187.192 3.36V5.36ZM190.266 4.25848C191.111 3.48657 191.518 2.45283 191.551 1.26777L189.552 1.21223C189.532 1.94717 189.299 2.43343 188.917 2.78151L190.266 4.25848ZM190.552 2.24L193.952 2.24V0.239999L190.552 0.239999V2.24ZM192.952 1.22611C192.928 2.94125 192.414 4.10944 191.53 4.89067L192.854 6.38933C194.263 5.14389 194.922 3.37875 194.952 1.25389L192.952 1.22611ZM191.539 4.88199C190.638 5.65734 189.253 6.12 187.232 6.12V8.12C189.53 8.12 191.452 7.596 192.844 6.39801L191.539 4.88199Z" fill="white" fill-opacity="0.3"/>
</svg>
