<svg width="328" height="230" viewBox="0 0 328 230" fill="none" xmlns="http://www.w3.org/2000/svg">
<path d="M39.72 1.62L40.72 1.62L40.72 0.620004L39.72 0.620004L39.72 1.62ZM39.72 39L39.72 40L40.72 40L40.72 39L39.72 39ZM31.04 39L30.04 39L30.04 40L31.04 40L31.04 39ZM31.04 9.04L32.04 9.04L32.04 8.04L31.04 8.04L31.04 9.04ZM12.63 9.04L12.63 8.04L11.63 8.04L11.63 9.04L12.63 9.04ZM12.63 39L12.63 40L13.63 40L13.63 39L12.63 39ZM3.87999 39L2.87999 39L2.87999 40L3.87999 40L3.87999 39ZM3.88 1.62L3.88 0.619998L2.88 0.619998L2.88 1.62L3.88 1.62ZM38.72 1.62L38.72 39L40.72 39L40.72 1.62L38.72 1.62ZM39.72 38L31.04 38L31.04 40L39.72 40L39.72 38ZM32.04 39L32.04 9.04L30.04 9.04L30.04 39L32.04 39ZM31.04 8.04L12.63 8.04L12.63 10.04L31.04 10.04L31.04 8.04ZM11.63 9.04L11.63 39L13.63 39L13.63 9.04L11.63 9.04ZM12.63 38L3.87999 38L3.87999 40L12.63 40L12.63 38ZM4.87999 39L4.88 1.62L2.88 1.62L2.87999 39L4.87999 39ZM3.88 2.62L39.72 2.62L39.72 0.620004L3.88 0.619998L3.88 2.62ZM81.9765 3.58001L81.4896 4.45351L81.4957 4.45682L81.9765 3.58001ZM88.7665 10.3L89.6373 9.80842L89.6373 9.80842L88.7665 10.3ZM88.7665 30.39L89.6373 30.8816L89.6406 30.8757L88.7665 30.39ZM81.9765 37.11L81.4956 36.2332L81.4896 36.2365L81.9765 37.11ZM60.2765 34.45L61.0291 33.7915L59.2765 31.7886L59.2765 34.45L60.2765 34.45ZM60.2765 52.58L60.2765 53.58L61.2765 53.58L61.2765 52.58L60.2765 52.58ZM51.5265 52.58L50.5265 52.58L50.5265 53.58L51.5265 53.58L51.5265 52.58ZM51.5265 1.62001L51.5265 0.620006L50.5265 0.620006L50.5265 1.62001L51.5265 1.62001ZM59.8565 1.62001L60.8565 1.62001L60.8565 0.620008L59.8565 0.620008L59.8565 1.62001ZM59.8565 6.52001L58.8565 6.52001L58.8565 9.32778L60.6313 7.15214L59.8565 6.52001ZM65.1765 2.53001L64.7947 1.60572L64.7875 1.60876L65.1765 2.53001ZM79.1765 28.78L78.4616 28.0807L78.4538 28.0888L79.1765 28.78ZM79.1765 11.84L78.4538 12.5313L78.4616 12.5393L79.1765 11.84ZM65.5965 10.09L66.0821 10.9642L66.0913 10.9591L66.1004 10.9538L65.5965 10.09ZM61.6065 14.15L60.7312 13.6663L61.6065 14.15ZM65.5965 30.6L65.0926 31.4638L65.1017 31.4691L65.1108 31.4742L65.5965 30.6ZM72.2465 2.20001C75.7364 2.20001 78.8086 2.95915 81.4896 4.45349L82.4633 2.70653C79.451 1.02754 76.0366 0.200012 72.2465 0.200012L72.2465 2.20001ZM81.4957 4.45682C84.2245 5.95327 86.3532 8.05932 87.8957 10.7916L89.6373 9.80842C87.9131 6.75404 85.5152 4.38009 82.4573 2.7032L81.4957 4.45682ZM87.8957 10.7916C89.4332 13.5153 90.2165 16.6782 90.2165 20.31L92.2165 20.31C92.2165 16.3818 91.3664 12.8714 89.6373 9.80842L87.8957 10.7916ZM90.2165 20.31C90.2165 23.9415 89.4333 27.1306 87.8923 29.9044L89.6406 30.8757C91.3663 27.7694 92.2165 24.2385 92.2165 20.31L90.2165 20.31ZM87.8957 29.8984C86.3532 32.6307 84.2245 34.7368 81.4956 36.2332L82.4573 37.9868C85.5152 36.3099 87.9131 33.936 89.6373 30.8816L87.8957 29.8984ZM81.4896 36.2365C78.8086 37.7309 75.7364 38.49 72.2465 38.49L72.2465 40.49C76.0366 40.49 79.451 39.6625 82.4633 37.9835L81.4896 36.2365ZM72.2465 38.49C67.4534 38.49 63.7535 36.9052 61.0291 33.7915L59.5239 35.1085C62.6795 38.7149 66.9595 40.49 72.2465 40.49L72.2465 38.49ZM59.2765 34.45L59.2765 52.58L61.2765 52.58L61.2765 34.45L59.2765 34.45ZM60.2765 51.58L51.5265 51.58L51.5265 53.58L60.2765 53.58L60.2765 51.58ZM52.5265 52.58L52.5265 1.62001L50.5265 1.62001L50.5265 52.58L52.5265 52.58ZM51.5265 2.62001L59.8565 2.62001L59.8565 0.620008L51.5265 0.620006L51.5265 2.62001ZM58.8565 1.62001L58.8565 6.52001L60.8565 6.52001L60.8565 1.62001L58.8565 1.62001ZM60.6313 7.15214C61.9753 5.50469 63.6164 4.27421 65.5655 3.45126L64.7875 1.60876C62.5366 2.55914 60.631 3.98867 59.0816 5.88788L60.6313 7.15214ZM65.5582 3.45427C67.5717 2.62262 69.797 2.20001 72.2465 2.20001L72.2465 0.200012C69.5626 0.200011 67.0746 0.664065 64.7947 1.60575L65.5582 3.45427ZM71.2665 33C74.7339 33 77.6402 31.8328 79.8991 29.4712L78.4538 28.0888C76.6061 30.0206 74.239 31 71.2665 31L71.2665 33ZM79.8913 29.4793C82.2043 27.1149 83.3265 24.0249 83.3265 20.31L81.3265 20.31C81.3265 23.5952 80.3487 26.1518 78.4616 28.0807L79.8913 29.4793ZM83.3265 20.31C83.3265 16.5952 82.2043 13.5051 79.8913 11.1407L78.4616 12.5393C80.3487 14.4683 81.3265 17.0249 81.3265 20.31L83.3265 20.31ZM79.8991 11.1488C77.6402 8.78722 74.7339 7.62001 71.2665 7.62001L71.2665 9.62001C74.239 9.62001 76.6061 10.5995 78.4538 12.5312L79.8991 11.1488ZM71.2665 7.62001C69.004 7.62001 66.9377 8.14994 65.0926 9.22623L66.1004 10.9538C67.6153 10.0701 69.3289 9.62001 71.2665 9.62001L71.2665 7.62001ZM65.1108 9.21585C63.2579 10.2453 61.7968 11.7382 60.7312 13.6663L62.4817 14.6337C63.3762 13.0152 64.5751 11.8014 66.0821 10.9642L65.1108 9.21585ZM60.7312 13.6663C59.6577 15.6089 59.1365 17.8334 59.1365 20.31L61.1365 20.31C61.1365 18.12 61.5952 16.2378 62.4817 14.6337L60.7312 13.6663ZM59.1365 20.31C59.1365 22.7866 59.6577 25.0112 60.7312 26.9537L62.4817 25.9863C61.5952 24.3822 61.1365 22.5001 61.1365 20.31L59.1365 20.31ZM60.7312 26.9537C61.7947 28.878 63.2501 30.389 65.0926 31.4638L66.1003 29.7362C64.5828 28.851 63.3783 27.6087 62.4817 25.9863L60.7312 26.9537ZM65.1108 31.4742C66.9529 32.4975 69.0127 33 71.2665 33L71.2665 31C69.3203 31 67.6001 30.5691 66.0821 29.7259L65.1108 31.4742ZM106.365 37.04L106.839 36.1595L106.365 37.04ZM99.2249 30.25L98.3567 30.7462L98.3614 30.7544L98.3662 30.7625L99.2249 30.25ZM99.2249 10.44L98.3661 9.92752L98.3601 9.93788L99.2249 10.44ZM106.365 3.65002L106.839 4.53049L106.365 3.65002ZM126.875 3.65002L126.401 4.53049L126.875 3.65002ZM133.945 10.44L133.08 10.9422L133.086 10.9525L133.945 10.44ZM133.945 30.25L133.083 29.7436L133.08 29.7479L133.945 30.25ZM126.875 37.04L126.401 36.1596L126.875 37.04ZM124.565 28.78L123.85 28.0807L124.565 28.78ZM124.565 11.84L123.85 12.5393L124.565 11.84ZM108.605 11.84L107.89 11.1407L107.882 11.1488L108.605 11.84ZM108.605 28.78L107.882 29.4713L107.89 29.4793L108.605 28.78ZM116.585 38.49C112.954 38.49 109.713 37.707 106.839 36.1595L105.891 37.9205C109.084 39.6397 112.656 40.49 116.585 40.49L116.585 38.49ZM106.839 36.1595C103.961 34.6099 101.716 32.4721 100.084 29.7376L98.3662 30.7625C100.188 33.8146 102.702 36.2035 105.891 37.9205L106.839 36.1595ZM100.093 29.7539C98.5071 26.9782 97.7049 23.8386 97.7049 20.31L95.7049 20.31C95.7049 24.1548 96.5828 27.6418 98.3567 30.7462L100.093 29.7539ZM97.7049 20.31C97.7049 16.7813 98.5071 13.6677 100.09 10.9422L98.3601 9.93788C96.5827 12.999 95.7049 16.4654 95.7049 20.31L97.7049 20.31ZM100.084 10.9525C101.716 8.21793 103.961 6.08018 106.839 4.53049L105.891 2.76955C102.702 4.48652 100.188 6.87543 98.3662 9.92756L100.084 10.9525ZM106.839 4.53049C109.713 2.98306 112.954 2.20002 116.585 2.20002L116.585 0.20002C112.656 0.200019 109.084 1.05031 105.891 2.76955L106.839 4.53049ZM116.585 2.20002C120.265 2.20002 123.529 2.98401 126.401 4.53049L127.349 2.76955C124.154 1.04936 120.558 0.20002 116.585 0.20002L116.585 2.20002ZM126.401 4.53049C129.277 6.07897 131.496 8.21353 133.08 10.9422L134.81 9.93789C133.034 6.87985 130.54 4.48774 127.349 2.76955L126.401 4.53049ZM133.086 10.9525C134.712 13.6765 135.535 16.7863 135.535 20.31L137.535 20.31C137.535 16.4605 136.631 12.9902 134.804 9.92757L133.086 10.9525ZM135.535 20.31C135.535 23.8336 134.712 26.9695 133.083 29.7436L134.807 30.7564C136.631 27.6505 137.535 24.1598 137.535 20.31L135.535 20.31ZM133.08 29.7479C131.496 32.4765 129.277 34.6111 126.401 36.1596L127.349 37.9205C130.54 36.2023 133.034 33.8102 134.81 30.7522L133.08 29.7479ZM126.401 36.1596C123.529 37.706 120.265 38.49 116.585 38.49L116.585 40.49C120.558 40.49 124.154 39.6407 127.349 37.9205L126.401 36.1596ZM116.585 33C120.052 33 122.977 31.8332 125.28 29.4793L123.85 28.0807C121.953 30.0202 119.557 31 116.585 31L116.585 33ZM125.28 29.4793C127.593 27.1149 128.715 24.0249 128.715 20.31L126.715 20.31C126.715 23.5952 125.737 26.1518 123.85 28.0807L125.28 29.4793ZM128.715 20.31C128.715 16.5952 127.593 13.5051 125.28 11.1407L123.85 12.5393C125.737 14.4683 126.715 17.0249 126.715 20.31L128.715 20.31ZM125.28 11.1407C122.977 8.78685 120.052 7.62002 116.585 7.62002L116.585 9.62002C119.557 9.62002 121.953 10.5999 123.85 12.5393L125.28 11.1407ZM116.585 7.62002C113.117 7.62002 110.193 8.78685 107.89 11.1407L109.32 12.5393C111.217 10.5999 113.612 9.62002 116.585 9.62002L116.585 7.62002ZM107.882 11.1488C105.62 13.5142 104.525 16.6016 104.525 20.31L106.525 20.31C106.525 17.0185 107.483 14.4591 109.328 12.5312L107.882 11.1488ZM104.525 20.31C104.525 24.0185 105.62 27.1058 107.882 29.4712L109.328 28.0888C107.483 26.1609 106.525 23.6016 106.525 20.31L104.525 20.31ZM107.89 29.4793C110.193 31.8332 113.117 33 116.585 33L116.585 31C113.612 31 111.217 30.0202 109.32 28.0807L107.89 29.4793ZM184.669 31.58L185.669 31.58L185.669 30.58L184.669 30.58L184.669 31.58ZM184.669 47.33L184.669 48.33L185.669 48.33L185.669 47.33L184.669 47.33ZM176.479 47.33L175.479 47.33L175.479 48.33L176.479 48.33L176.479 47.33ZM176.479 39L177.479 39L177.479 38L176.479 38L176.479 39ZM147.639 39L147.639 38L146.639 38L146.639 39L147.639 39ZM147.639 47.33L147.639 48.33L148.639 48.33L148.639 47.33L147.639 47.33ZM139.519 47.33L138.519 47.33L138.519 48.33L139.519 48.33L139.519 47.33ZM139.519 31.58L139.519 30.58L138.519 30.58L138.519 31.58L139.519 31.58ZM141.269 31.58L141.269 32.58L141.288 32.58L141.308 32.5793L141.269 31.58ZM146.099 27.03L145.14 26.7454L145.137 26.7553L146.099 27.03ZM147.849 14.43L148.847 14.4817L148.848 14.4682L147.849 14.43ZM148.339 1.62002L148.339 0.620023L147.376 0.620023L147.339 1.5818L148.339 1.62002ZM179.139 1.62003L180.139 1.62003L180.139 0.620029L179.139 0.620029L179.139 1.62003ZM179.139 31.58L178.139 31.58L178.139 32.58L179.139 32.58L179.139 31.58ZM155.829 15.06L156.828 15.1035L156.828 15.0949L155.829 15.06ZM154.779 25.56L155.761 25.7464L154.779 25.56ZM151.979 31.58L151.284 30.8606L149.503 32.58L151.979 32.58L151.979 31.58ZM170.389 31.58L170.389 32.58L171.389 32.58L171.389 31.58L170.389 31.58ZM170.389 9.04003L171.389 9.04003L171.389 8.04003L170.389 8.04003L170.389 9.04003ZM156.039 9.04002L156.039 8.04002L155.073 8.04002L155.039 9.00516L156.039 9.04002ZM183.669 31.58L183.669 47.33L185.669 47.33L185.669 31.58L183.669 31.58ZM184.669 46.33L176.479 46.33L176.479 48.33L184.669 48.33L184.669 46.33ZM177.479 47.33L177.479 39L175.479 39L175.479 47.33L177.479 47.33ZM176.479 38L147.639 38L147.639 40L176.479 40L176.479 38ZM146.639 39L146.639 47.33L148.639 47.33L148.639 39L146.639 39ZM147.639 46.33L139.519 46.33L139.519 48.33L147.639 48.33L147.639 46.33ZM140.519 47.33L140.519 31.58L138.519 31.58L138.519 47.33L140.519 47.33ZM139.519 32.58L141.269 32.58L141.269 30.58L139.519 30.58L139.519 32.58ZM141.308 32.5793C142.719 32.5239 143.952 32.0375 144.947 31.1004C145.924 30.1801 146.609 28.8845 147.06 27.3047L145.137 26.7553C144.749 28.1155 144.209 29.0482 143.575 29.6446C142.96 30.2242 142.198 30.5428 141.229 30.5808L141.308 32.5793ZM147.057 27.3146C147.977 24.2164 148.566 19.9251 148.847 14.4817L146.85 14.3784C146.572 19.7616 145.994 23.8703 145.14 26.7454L147.057 27.3146ZM148.848 14.4682L149.338 1.65825L147.339 1.5818L146.849 14.3918L148.848 14.4682ZM148.339 2.62002L179.139 2.62003L179.139 0.620029L148.339 0.620023L148.339 2.62002ZM178.139 1.62003L178.139 31.58L180.139 31.58L180.139 1.62003L178.139 1.62003ZM179.139 32.58L184.669 32.58L184.669 30.58L179.139 30.58L179.139 32.58ZM154.83 15.0166C154.644 19.2853 154.297 22.7326 153.796 25.3737L155.761 25.7464C156.287 22.9741 156.64 19.4214 156.828 15.1035L154.83 15.0166ZM153.796 25.3737C153.304 27.9671 152.434 29.7502 151.284 30.8606L152.673 32.2994C154.23 30.7965 155.226 28.5663 155.761 25.7464L153.796 25.3737ZM151.979 32.58L170.389 32.58L170.389 30.58L151.979 30.58L151.979 32.58ZM171.389 31.58L171.389 9.04003L169.389 9.04003L169.389 31.58L171.389 31.58ZM170.389 8.04003L156.039 8.04002L156.039 10.04L170.389 10.04L170.389 8.04003ZM155.039 9.00516L154.829 15.0252L156.828 15.0949L157.038 9.07489L155.039 9.00516ZM219.014 5.19004L218.337 5.92621L218.343 5.93188L218.349 5.93745L219.014 5.19004ZM223.424 39L223.424 40L224.424 40L224.424 39L223.424 39ZM215.164 39L214.164 39L214.164 40L215.164 40L215.164 39ZM215.164 34.45L216.164 34.45L216.164 31.1074L214.328 33.9009L215.164 34.45ZM210.544 38.23L210.937 39.1492L210.948 39.1447L210.544 38.23ZM196.054 38.09L195.631 38.9962L195.639 39.0001L195.647 39.0038L196.054 38.09ZM191.154 34.1L190.315 34.6442L190.323 34.6575L190.332 34.6704L191.154 34.1ZM193.184 20.24L193.814 21.0166L193.815 21.0153L193.184 20.24ZM214.674 17.16L214.674 18.16L215.674 18.16L215.674 17.16L214.674 17.16ZM212.294 10.58L211.621 11.32L211.626 11.325L211.632 11.3299L212.294 10.58ZM199.134 9.46003L198.83 8.50709L198.824 8.50916L199.134 9.46003ZM194.024 12.19L193.143 12.6641L193.723 13.7419L194.664 12.9583L194.024 12.19ZM190.594 5.82003L189.987 5.0246L189.308 5.54218L189.713 6.29413L190.594 5.82003ZM197.664 2.39003L197.94 3.35094L197.664 2.39003ZM211.034 31.65L211.537 32.5138L211.545 32.5096L211.034 31.65ZM214.674 27.31L215.61 27.6612L215.674 27.4914L215.674 27.31L214.674 27.31ZM214.674 22.97L215.674 22.97L215.674 21.97L214.674 21.97L214.674 22.97ZM199.974 31.72L200.569 30.9165L199.974 31.72ZM206.414 2.20004C211.77 2.20004 215.691 3.49356 218.337 5.92621L219.69 4.45387C216.55 1.56651 212.07 0.200036 206.414 0.200035L206.414 2.20004ZM218.349 5.93745C221.008 8.30071 222.424 11.9502 222.424 17.09L224.424 17.09C224.424 11.5899 222.899 7.30604 219.678 4.44263L218.349 5.93745ZM222.424 17.09L222.424 39L224.424 39L224.424 17.09L222.424 17.09ZM223.424 38L215.164 38L215.164 40L223.424 40L223.424 38ZM216.164 39L216.164 34.45L214.164 34.45L214.164 39L216.164 39ZM214.328 33.9009C213.373 35.3542 211.992 36.4966 210.139 37.3153L210.948 39.1447C213.108 38.1901 214.808 36.8126 215.999 34.9992L214.328 33.9009ZM210.15 37.3109C208.346 38.0837 206.108 38.49 203.404 38.49L203.404 40.49C206.299 40.49 208.821 40.0564 210.937 39.1492L210.15 37.3109ZM203.404 38.49C200.714 38.49 198.407 38.0417 196.46 37.1762L195.647 39.0038C197.9 40.005 200.493 40.49 203.404 40.49L203.404 38.49ZM196.476 37.1838C194.515 36.2685 193.028 35.046 191.975 33.5296L190.332 34.6704C191.612 36.5141 193.392 37.9516 195.631 38.9962L196.476 37.1838ZM191.992 33.5558C190.982 31.9984 190.474 30.2523 190.474 28.29L188.474 28.29C188.474 30.6211 189.085 32.7483 190.315 34.6442L191.992 33.5558ZM190.474 28.29C190.474 25.2123 191.589 22.8217 193.814 21.0166L192.553 19.4635C189.832 21.6717 188.474 24.6477 188.474 28.29L190.474 28.29ZM193.815 21.0153C196.073 19.1756 199.739 18.16 205.014 18.16L205.014 16.16C199.555 16.16 195.334 17.1978 192.552 19.4648L193.815 21.0153ZM205.014 18.16L214.674 18.16L214.674 16.16L205.014 16.16L205.014 18.16ZM215.674 17.16L215.674 16.6L213.674 16.6L213.674 17.16L215.674 17.16ZM215.674 16.6C215.674 13.7728 214.806 11.4635 212.955 9.8302L211.632 11.3299C212.954 12.4966 213.674 14.2006 213.674 16.6L215.674 16.6ZM212.966 9.8401C211.171 8.20795 208.575 7.48004 205.364 7.48004L205.364 9.48004C208.312 9.48004 210.336 10.1521 211.621 11.32L212.966 9.8401ZM205.364 7.48004C203.158 7.48004 200.979 7.8234 198.83 8.50711L199.437 10.413C201.395 9.79 203.369 9.48004 205.364 9.48004L205.364 7.48004ZM198.824 8.50916C196.715 9.19569 194.895 10.162 193.383 11.4218L194.664 12.9583C195.952 11.8847 197.538 11.031 199.443 10.4109L198.824 8.50916ZM194.904 11.7159L191.474 5.34593L189.713 6.29413L193.143 12.6641L194.904 11.7159ZM191.2 6.61546C193.046 5.20836 195.287 4.11548 197.94 3.35094L197.387 1.42913C194.533 2.25126 192.061 3.44503 189.987 5.0246L191.2 6.61546ZM197.94 3.35094C200.597 2.58541 203.42 2.20003 206.414 2.20004L206.414 0.200035C203.247 0.200035 200.236 0.607995 197.387 1.42913L197.94 3.35094ZM205.224 34.12C207.571 34.12 209.686 33.594 211.537 32.5138L210.53 30.7863C209.021 31.6661 207.263 32.12 205.224 32.12L205.224 34.12ZM211.545 32.5096C213.465 31.3677 214.829 29.7425 215.61 27.6612L213.737 26.9589C213.118 28.6109 212.055 29.8791 210.522 30.7905L211.545 32.5096ZM215.674 27.31L215.674 22.97L213.674 22.97L213.674 27.31L215.674 27.31ZM214.674 21.97L205.644 21.97L205.644 23.97L214.674 23.97L214.674 21.97ZM205.644 21.97C203.046 21.97 200.924 22.3912 199.424 23.3769C197.852 24.4108 197.084 25.986 197.084 27.94L199.084 27.94C199.084 26.5807 199.575 25.6709 200.523 25.0481C201.543 24.3772 203.201 23.97 205.644 23.97L205.644 21.97ZM197.084 27.94C197.084 29.8391 197.86 31.399 199.378 32.5236L200.569 30.9165C199.567 30.1744 199.084 29.2143 199.084 27.94L197.084 27.94ZM199.378 32.5236C200.87 33.6288 202.858 34.12 205.224 34.12L205.224 32.12C203.109 32.12 201.597 31.6779 200.569 30.9165L199.378 32.5236ZM269.741 24.02L270.596 23.5009L270.304 23.02L269.741 23.02L269.741 24.02ZM263.441 24.02L263.441 23.02L262.441 23.02L262.441 24.02L263.441 24.02ZM263.441 39L263.441 40L264.441 40L264.441 39L263.441 39ZM254.761 39L253.761 39L253.761 40L254.761 40L254.761 39ZM254.761 24.02L255.761 24.02L255.761 23.02L254.761 23.02L254.761 24.02ZM248.461 24.02L248.461 23.02L247.899 23.02L247.606 23.5009L248.461 24.02ZM239.361 39L239.361 40L239.924 40L240.216 39.5192L239.361 39ZM229.001 39L228.157 38.4646L227.183 40L229.001 40L229.001 39ZM241.251 19.68L242.096 20.2155L242.434 19.6826L242.098 19.1483L241.251 19.68ZM229.911 1.62004L229.911 0.620038L228.102 0.620037L229.064 2.15181L229.911 1.62004ZM239.221 1.62004L240.078 1.10438L239.786 0.620039L239.221 0.620039L239.221 1.62004ZM248.321 16.74L247.464 17.2557L247.756 17.74L248.321 17.74L248.321 16.74ZM254.761 16.74L254.761 17.74L255.761 17.74L255.761 16.74L254.761 16.74ZM254.761 1.62004L254.761 0.620042L253.761 0.620042L253.761 1.62004L254.761 1.62004ZM263.441 1.62004L264.441 1.62004L264.441 0.620044L263.441 0.620043L263.441 1.62004ZM263.441 16.74L262.441 16.74L262.441 17.74L263.441 17.74L263.441 16.74ZM269.811 16.74L269.811 17.74L270.374 17.74L270.666 17.2586L269.811 16.74ZM278.981 1.62005L278.981 0.620046L278.418 0.620046L278.126 1.10148L278.981 1.62005ZM288.291 1.62005L289.138 2.15182L290.1 0.620048L288.291 0.620048L288.291 1.62005ZM276.951 19.68L276.104 19.1483L275.768 19.6842L276.108 20.2177L276.951 19.68ZM289.271 39.0001L289.271 40.0001L291.095 40.0001L290.114 38.4624L289.271 39.0001ZM278.841 39L277.986 39.5192L278.278 40L278.841 40L278.841 39ZM269.741 23.02L263.441 23.02L263.441 25.02L269.741 25.02L269.741 23.02ZM262.441 24.02L262.441 39L264.441 39L264.441 24.02L262.441 24.02ZM263.441 38L254.761 38L254.761 40L263.441 40L263.441 38ZM255.761 39L255.761 24.02L253.761 24.02L253.761 39L255.761 39ZM254.761 23.02L248.461 23.02L248.461 25.02L254.761 25.02L254.761 23.02ZM247.606 23.5009L238.506 38.4809L240.216 39.5192L249.316 24.5392L247.606 23.5009ZM239.361 38L229.001 38L229.001 40L239.361 40L239.361 38ZM229.846 39.5355L242.096 20.2155L240.407 19.1446L228.157 38.4646L229.846 39.5355ZM242.098 19.1483L230.758 1.08827L229.064 2.15181L240.404 20.2118L242.098 19.1483ZM229.911 2.62004L239.221 2.62004L239.221 0.620039L229.911 0.620038L229.911 2.62004ZM238.364 2.1357L247.464 17.2557L249.178 16.2244L240.078 1.10438L238.364 2.1357ZM248.321 17.74L254.761 17.74L254.761 15.74L248.321 15.74L248.321 17.74ZM255.761 16.74L255.761 1.62004L253.761 1.62004L253.761 16.74L255.761 16.74ZM254.761 2.62004L263.441 2.62004L263.441 0.620043L254.761 0.620042L254.761 2.62004ZM262.441 1.62004L262.441 16.74L264.441 16.74L264.441 1.62004L262.441 1.62004ZM263.441 17.74L269.811 17.74L269.811 15.74L263.441 15.74L263.441 17.74ZM270.666 17.2586L279.836 2.13861L278.126 1.10148L268.956 16.2215L270.666 17.2586ZM278.981 2.62005L288.291 2.62005L288.291 0.620048L278.981 0.620046L278.981 2.62005ZM287.444 1.08828L276.104 19.1483L277.798 20.2118L289.138 2.15182L287.444 1.08828ZM276.108 20.2177L288.428 39.5377L290.114 38.4624L277.794 19.1424L276.108 20.2177ZM289.271 38.0001L278.841 38L278.841 40L289.271 40.0001L289.271 38.0001ZM279.696 38.4809L270.596 23.5009L268.886 24.5392L277.986 39.5192L279.696 38.4809ZM321.621 5.19006L320.944 5.92622L320.95 5.9319L320.957 5.93746L321.621 5.19006ZM326.031 39.0001L326.031 40.0001L327.031 40.0001L327.031 39.0001L326.031 39.0001ZM317.771 39.0001L316.771 39.0001L316.771 40.0001L317.771 40.0001L317.771 39.0001ZM317.771 34.4501L318.771 34.4501L318.771 31.1074L316.935 33.9009L317.771 34.4501ZM313.151 38.2301L313.545 39.1493L313.555 39.1447L313.151 38.2301ZM298.661 38.0901L298.238 38.9962L298.246 39.0001L298.255 39.0039L298.661 38.0901ZM293.761 34.1001L292.922 34.6442L292.931 34.6575L292.94 34.6704L293.761 34.1001ZM295.791 20.24L296.421 21.0166L296.423 21.0153L295.791 20.24ZM317.281 17.1601L317.281 18.1601L318.281 18.1601L318.281 17.1601L317.281 17.1601ZM314.901 10.5801L314.228 11.32L314.234 11.325L314.239 11.3299L314.901 10.5801ZM301.741 9.46005L301.438 8.5071L301.431 8.50918L301.741 9.46005ZM296.631 12.1901L295.75 12.6642L296.331 13.7419L297.271 12.9583L296.631 12.1901ZM293.201 5.82005L292.595 5.02462L291.916 5.5422L292.32 6.29415L293.201 5.82005ZM300.271 2.39005L300.548 3.35096L300.271 2.39005ZM313.641 31.6501L314.145 32.5139L314.152 32.5096L313.641 31.6501ZM317.281 27.3101L318.217 27.6612L318.281 27.4914L318.281 27.3101L317.281 27.3101ZM317.281 22.9701L318.281 22.9701L318.281 21.9701L317.281 21.9701L317.281 22.9701ZM302.581 31.7201L303.176 30.9165L302.581 31.7201ZM309.021 2.20005C314.378 2.20005 318.298 3.49358 320.944 5.92622L322.298 4.45389C319.157 1.56653 314.678 0.200054 309.021 0.200053L309.021 2.20005ZM320.957 5.93746C323.615 8.30072 325.031 11.9502 325.031 17.0901L327.031 17.0901C327.031 11.5899 325.507 7.30606 322.285 4.44265L320.957 5.93746ZM325.031 17.0901L325.031 39.0001L327.031 39.0001L327.031 17.0901L325.031 17.0901ZM326.031 38.0001L317.771 38.0001L317.771 40.0001L326.031 40.0001L326.031 38.0001ZM318.771 39.0001L318.771 34.4501L316.771 34.4501L316.771 39.0001L318.771 39.0001ZM316.935 33.9009C315.98 35.3542 314.6 36.4966 312.747 37.3154L313.555 39.1447C315.716 38.1901 317.415 36.8126 318.607 34.9992L316.935 33.9009ZM312.757 37.3109C310.954 38.0837 308.716 38.4901 306.011 38.4901L306.011 40.4901C308.906 40.4901 311.428 40.0564 313.545 39.1492L312.757 37.3109ZM306.011 38.4901C303.321 38.4901 301.014 38.0418 299.067 37.1762L298.255 39.0039C300.507 40.005 303.101 40.4901 306.011 40.4901L306.011 38.4901ZM299.084 37.1839C297.122 36.2685 295.635 35.046 294.582 33.5297L292.94 34.6704C294.22 36.5141 296 37.9516 298.238 38.9962L299.084 37.1839ZM294.6 33.5559C293.59 31.9984 293.081 30.2523 293.081 28.2901L291.081 28.2901C291.081 30.6211 291.692 32.7483 292.922 34.6442L294.6 33.5559ZM293.081 28.2901C293.081 25.2124 294.196 22.8217 296.421 21.0166L295.161 19.4635C292.439 21.6717 291.081 24.6477 291.081 28.2901L293.081 28.2901ZM296.423 21.0153C298.68 19.1756 302.346 18.1601 307.621 18.1601L307.621 16.1601C302.162 16.1601 297.941 17.1978 295.159 19.4648L296.423 21.0153ZM307.621 18.1601L317.281 18.1601L317.281 16.1601L307.621 16.1601L307.621 18.1601ZM318.281 17.1601L318.281 16.6001L316.281 16.6001L316.281 17.1601L318.281 17.1601ZM318.281 16.6001C318.281 13.7728 317.414 11.4635 315.563 9.83022L314.239 11.3299C315.562 12.4966 316.281 14.2007 316.281 16.6001L318.281 16.6001ZM315.574 9.84011C313.778 8.20797 311.183 7.48005 307.971 7.48005L307.971 9.48005C310.919 9.48005 312.944 10.1521 314.228 11.32L315.574 9.84011ZM307.971 7.48005C305.765 7.48005 303.587 7.82342 301.438 8.50713L302.044 10.413C304.002 9.79002 305.976 9.48005 307.971 9.48005L307.971 7.48005ZM301.431 8.50918C299.323 9.19571 297.502 10.162 295.991 11.4218L297.271 12.9583C298.559 11.8847 300.146 11.0311 302.051 10.4109L301.431 8.50918ZM297.511 11.716L294.081 5.34595L292.32 6.29415L295.75 12.6642L297.511 11.716ZM293.807 6.61548C295.654 5.20838 297.894 4.11549 300.548 3.35096L299.994 1.42915C297.141 2.25127 294.668 3.44505 292.595 5.02462L293.807 6.61548ZM300.548 3.35096C303.205 2.58543 306.028 2.20005 309.021 2.20005L309.021 0.200053C305.854 0.200053 302.844 0.608013 299.994 1.42915L300.548 3.35096ZM307.831 34.1201C310.178 34.1201 312.293 33.594 314.145 32.5138L313.137 30.7863C311.629 31.6661 309.87 32.1201 307.831 32.1201L307.831 34.1201ZM314.152 32.5096C316.072 31.3677 317.437 29.7425 318.217 27.6612L316.345 26.9589C315.725 28.6109 314.663 29.8791 313.13 30.7905L314.152 32.5096ZM318.281 27.3101L318.281 22.9701L316.281 22.9701L316.281 27.3101L318.281 27.3101ZM317.281 21.9701L308.251 21.9701L308.251 23.9701L317.281 23.9701L317.281 21.9701ZM308.251 21.9701C305.653 21.9701 303.531 22.3912 302.032 23.3769C300.459 24.4108 299.691 25.9861 299.691 27.9401L301.691 27.9401C301.691 26.5807 302.183 25.671 303.13 25.0482C304.151 24.3772 305.809 23.9701 308.251 23.9701L308.251 21.9701ZM299.691 27.9401C299.691 29.8391 300.468 31.399 301.986 32.5236L303.176 30.9165C302.174 30.1744 301.691 29.2143 301.691 27.9401L299.691 27.9401ZM301.986 32.5236C303.478 33.6288 305.465 34.1201 307.831 34.1201L307.831 32.1201C305.716 32.1201 304.204 31.6779 303.176 30.9165L301.986 32.5236ZM33.49 68.75L32.9954 69.6192L33.0069 69.6256L33.49 68.75ZM39.79 75.05L38.9143 75.5331L38.9208 75.5445L39.79 75.05ZM39.58 93.95L40.4336 94.4709L40.4375 94.4645L39.58 93.95ZM32.51 100.39L32.0573 99.4983L32.51 100.39ZM7.09998 96.26L6.32902 96.8969L7.09998 96.26ZM6.60999 59.86L5.80385 59.2683L6.60999 59.86ZM21.38 51.18L21.5867 52.1584L21.589 52.1579L21.38 51.18ZM38.74 47.47L39.7273 47.3113L39.5603 46.2721L38.531 46.4921L38.74 47.47ZM40 55.31L40.2003 56.2897L41.1394 56.0977L40.9873 55.1513L40 55.31ZM24.25 58.53L24.0497 57.5503L24.0481 57.5506L24.25 58.53ZM14.1 63.29L13.3929 62.5829L13.3929 62.5829L14.1 63.29ZM10.18 72.74L9.18419 72.6484L8.89094 75.8375L10.9467 73.3819L10.18 72.74ZM16.27 68.12L16.6811 69.0316L16.6885 69.0283L16.6958 69.0248L16.27 68.12ZM30.13 92.55L29.407 91.8591L29.4066 91.8595L30.13 92.55ZM30.13 76.8L29.4228 77.5072L29.4312 77.5154L30.13 76.8ZM14.45 92.55L13.7347 93.249L13.7429 93.2571L14.45 92.55ZM24.11 67.44C27.5077 67.44 30.4594 68.1763 32.9955 69.6192L33.9845 67.8808C31.1072 66.2438 27.8056 65.44 24.11 65.44L24.11 67.44ZM33.0069 69.6256C35.5483 71.0277 37.5122 72.9917 38.9144 75.5331L40.6656 74.5669C39.0811 71.695 36.845 69.4589 33.9731 67.8744L33.0069 69.6256ZM38.9208 75.5445C40.3649 78.0825 41.1 81.0115 41.1 84.36L43.1 84.36C43.1 80.7085 42.2951 77.4308 40.6591 74.5555L38.9208 75.5445ZM41.1 84.36C41.1 87.7909 40.3 90.8063 38.7225 93.4355L40.4375 94.4645C42.2199 91.4938 43.1 88.1158 43.1 84.36L41.1 84.36ZM38.7263 93.4291C37.1484 96.0152 34.9346 98.0375 32.0573 99.4983L32.9627 101.282C36.152 99.6625 38.6516 97.3914 40.4336 94.4709L38.7263 93.4291ZM32.0573 99.4983C29.1826 100.958 25.8879 101.7 22.15 101.7L22.15 103.7C26.1587 103.7 29.7707 102.902 32.9627 101.282L32.0573 99.4983ZM22.15 101.7C15.9068 101.7 11.1953 99.6473 7.87094 95.6231L6.32902 96.8969C10.098 101.459 15.4199 103.7 22.15 103.7L22.15 101.7ZM7.87094 95.6231C4.52633 91.5744 2.77998 85.6528 2.77998 77.71L0.779983 77.71C0.779982 85.9139 2.5803 92.359 6.32902 96.8969L7.87094 95.6231ZM2.77998 77.71C2.77998 70.3302 4.36204 64.6124 7.41612 60.4517L5.80385 59.2683C2.41793 63.881 0.779985 70.0631 0.779983 77.71L2.77998 77.71ZM7.41612 60.4517C10.4574 56.3085 15.1394 53.5205 21.5867 52.1584L21.1733 50.2016C14.3673 51.6395 9.20254 54.6382 5.80385 59.2683L7.41612 60.4517ZM21.589 52.1579L38.949 48.4479L38.531 46.4921L21.171 50.2021L21.589 52.1579ZM37.7527 47.6287L39.0127 55.4687L40.9873 55.1513L39.7273 47.3113L37.7527 47.6287ZM39.7997 54.3303L24.0497 57.5503L24.4503 59.5097L40.2003 56.2897L39.7997 54.3303ZM24.0481 57.5506C19.4132 58.5062 15.8209 60.1549 13.3929 62.5829L14.8071 63.9971C16.8591 61.9451 20.0334 60.4204 24.4519 59.5094L24.0481 57.5506ZM13.3929 62.5829C10.9451 65.0306 9.57266 68.4238 9.18419 72.6484L11.1758 72.8316C11.534 68.9362 12.7748 66.0294 14.8071 63.9971L13.3929 62.5829ZM10.9467 73.3819C12.5303 71.4905 14.4388 70.0428 16.6811 69.0316L15.8589 67.2084C13.3412 68.3438 11.1897 69.9762 9.41323 72.0981L10.9467 73.3819ZM16.6958 69.0248C18.9319 67.9725 21.3982 67.44 24.11 67.44L24.11 65.44C21.1284 65.44 18.3681 66.0275 15.8442 67.2152L16.6958 69.0248ZM22.36 96.63C25.813 96.63 28.6785 95.5188 30.8533 93.2405L29.4066 91.8595C27.6614 93.6878 25.347 94.63 22.36 94.63L22.36 96.63ZM30.853 93.2409C33.0574 90.9339 34.14 88.0169 34.14 84.57L32.14 84.57C32.14 87.5631 31.2159 89.9661 29.407 91.8591L30.853 93.2409ZM34.14 84.57C34.14 81.1241 33.057 78.2611 30.8287 76.0846L29.4312 77.5154C31.2163 79.2589 32.14 81.5759 32.14 84.57L34.14 84.57ZM30.8371 76.0929C28.6591 73.9149 25.7988 72.86 22.36 72.86L22.36 74.86C25.3611 74.86 27.6808 75.7651 29.4229 77.5071L30.8371 76.0929ZM22.36 72.86C18.8784 72.86 15.9754 73.9122 13.7512 76.0846L15.1487 77.5154C16.9379 75.7678 19.3082 74.86 22.36 74.86L22.36 72.86ZM13.7512 76.0846C11.523 78.2611 10.44 81.1241 10.44 84.57L12.44 84.57C12.44 81.5759 13.3637 79.2589 15.1487 77.5154L13.7512 76.0846ZM10.44 84.57C10.44 88.0589 11.52 90.9826 13.7348 93.2489L15.1652 91.8511C13.3667 90.0107 12.44 87.6145 12.44 84.57L10.44 84.57ZM13.7429 93.2571C16.005 95.5192 18.9064 96.63 22.36 96.63L22.36 94.63C19.3735 94.63 17.0016 93.6874 15.1571 91.8429L13.7429 93.2571ZM65.6894 43.06L65.6894 42.06L64.9802 42.06L64.7457 42.7294L65.6894 43.06ZM73.5294 43.06L74.4732 43.3906L74.9394 42.06L73.5294 42.06L73.5294 43.06ZM50.4294 109L50.4294 110L51.1387 110L51.3732 109.331L50.4294 109ZM42.5894 109L41.6457 108.669L41.1795 110L42.5894 110L42.5894 109ZM65.6894 44.06L73.5294 44.06L73.5294 42.06L65.6894 42.06L65.6894 44.06ZM72.5857 42.7294L49.4857 108.669L51.3732 109.331L74.4732 43.3906L72.5857 42.7294ZM50.4294 108L42.5894 108L42.5894 110L50.4294 110L50.4294 108ZM43.5332 109.331L66.6332 43.3906L64.7457 42.7294L41.6457 108.669L43.5332 109.331ZM109.707 64.62L110.624 65.0176L111.23 63.62L109.707 63.62L109.707 64.62ZM92.2069 105.01L91.2893 104.612L91.284 104.625L91.2791 104.637L92.2069 105.01ZM86.2569 113.55L85.6833 112.731L85.6725 112.738L86.2569 113.55ZM72.2569 115.16L71.9406 116.109L72.2569 115.16ZM67.7769 112.64L66.8982 112.163L66.5258 112.848L67.0998 113.376L67.7769 112.64ZM71.2769 106.2L71.9635 105.473L71.0187 104.581L70.3982 105.723L71.2769 106.2ZM74.2169 108.09L73.8322 109.013L73.8388 109.016L73.8455 109.018L74.2169 108.09ZM81.4968 107.6L80.8854 106.809L80.8765 106.816L80.8677 106.823L81.4968 107.6ZM84.2969 103.61L85.2088 104.02L85.2125 104.012L85.216 104.004L84.2969 103.61ZM84.9269 102.14L85.846 102.534L86.016 102.137L85.844 101.741L84.9269 102.14ZM68.6169 64.62L68.6169 63.62L67.0918 63.62L67.6998 65.0187L68.6169 64.62ZM77.7169 64.62L78.6371 64.2286L78.3782 63.62L77.7169 63.62L77.7169 64.62ZM89.4769 92.27L88.5566 92.6614L89.4741 94.8186L90.3962 92.6634L89.4769 92.27ZM101.307 64.62L101.307 63.62L100.647 63.62L100.387 64.2267L101.307 64.62ZM108.789 64.2225L91.2893 104.612L93.1244 105.408L110.624 65.0176L108.789 64.2225ZM91.2791 104.637C89.6821 108.606 87.794 111.253 85.6834 112.731L86.8303 114.369C89.3864 112.58 91.4649 109.534 93.1346 105.383L91.2791 104.637ZM85.6725 112.738C83.5344 114.278 80.9236 115.07 77.7868 115.07L77.7868 117.07C81.2768 117.07 84.3126 116.182 86.8412 114.362L85.6725 112.738ZM77.7868 115.07C76.0306 115.07 74.294 114.785 72.5731 114.211L71.9406 116.109C73.8597 116.748 75.8097 117.07 77.7868 117.07L77.7868 115.07ZM72.5731 114.211C70.8594 113.64 69.4972 112.864 68.4539 111.904L67.0998 113.376C68.3898 114.563 70.0143 115.467 71.9406 116.109L72.5731 114.211ZM68.6555 113.118L72.1555 106.678L70.3982 105.723L66.8982 112.163L68.6555 113.118ZM70.5902 106.927C71.5226 107.808 72.6062 108.502 73.8322 109.013L74.6015 107.167C73.5875 106.744 72.7111 106.179 71.9635 105.473L70.5902 106.927ZM73.8455 109.018C75.1211 109.529 76.4135 109.79 77.7169 109.79L77.7169 107.79C76.6869 107.79 75.646 107.585 74.5882 107.162L73.8455 109.018ZM77.7169 109.79C79.4335 109.79 80.9312 109.345 82.1261 108.377L80.8677 106.823C80.1025 107.442 79.0802 107.79 77.7169 107.79L77.7169 109.79ZM82.1083 108.391C83.3189 107.456 84.3365 105.959 85.2088 104.02L83.3849 103.2C82.5772 104.995 81.7281 106.158 80.8854 106.809L82.1083 108.391ZM85.216 104.004L85.846 102.534L84.0077 101.746L83.3777 103.216L85.216 104.004ZM85.844 101.741L69.534 64.2213L67.6998 65.0187L84.0098 102.539L85.844 101.741ZM68.6169 65.62L77.7169 65.62L77.7169 63.62L68.6169 63.62L68.6169 65.62ZM76.7966 65.0114L88.5566 92.6614L90.3971 91.8786L78.6371 64.2286L76.7966 65.0114ZM90.3962 92.6634L102.226 65.0134L100.387 64.2267L88.5575 91.8767L90.3962 92.6634ZM101.307 65.62L109.707 65.62L109.707 63.62L101.307 63.62L101.307 65.62ZM34.33 129.58L33.8431 130.454L33.8491 130.457L34.33 129.58ZM41.12 136.3L41.9908 135.808L41.12 136.3ZM41.12 156.39L41.9908 156.882L41.9941 156.876L41.12 156.39ZM34.33 163.11L33.8491 162.233L33.8431 162.237L34.33 163.11ZM12.63 160.45L13.3825 159.791L11.63 157.789L11.63 160.45L12.63 160.45ZM12.63 178.58L12.63 179.58L13.63 179.58L13.63 178.58L12.63 178.58ZM3.87997 178.58L2.87997 178.58L2.87997 179.58L3.87997 179.58L3.87997 178.58ZM3.87998 127.62L3.87998 126.62L2.87998 126.62L2.87998 127.62L3.87998 127.62ZM12.21 127.62L13.21 127.62L13.21 126.62L12.21 126.62L12.21 127.62ZM12.21 132.52L11.21 132.52L11.21 135.328L12.9848 133.152L12.21 132.52ZM17.53 128.53L17.1482 127.606L17.141 127.609L17.53 128.53ZM31.53 154.78L30.8151 154.081L30.8073 154.089L31.53 154.78ZM31.53 137.84L30.8073 138.531L30.8151 138.539L31.53 137.84ZM17.95 136.09L18.4356 136.964L18.4448 136.959L18.4538 136.954L17.95 136.09ZM13.96 140.15L13.0847 139.666L13.96 140.15ZM17.95 156.6L17.4461 157.464L17.4552 157.469L17.4643 157.474L17.95 156.6ZM24.6 128.2C28.0899 128.2 31.1621 128.959 33.8431 130.453L34.8168 128.707C31.8045 127.028 28.3901 126.2 24.6 126.2L24.6 128.2ZM33.8491 130.457C36.578 131.953 38.7067 134.059 40.2492 136.792L41.9908 135.808C40.2666 132.754 37.8687 130.38 34.8108 128.703L33.8491 130.457ZM40.2492 136.792C41.7867 139.515 42.57 142.678 42.57 146.31L44.57 146.31C44.57 142.382 43.7199 138.871 41.9908 135.808L40.2492 136.792ZM42.57 146.31C42.57 149.941 41.7868 153.131 40.2458 155.904L41.9941 156.876C43.7198 153.769 44.57 150.239 44.57 146.31L42.57 146.31ZM40.2491 155.898C38.7067 158.631 36.5779 160.737 33.8491 162.233L34.8108 163.987C37.8687 162.31 40.2666 159.936 41.9908 156.882L40.2491 155.898ZM33.8431 162.237C31.1621 163.731 28.0899 164.49 24.6 164.49L24.6 166.49C28.3901 166.49 31.8045 165.662 34.8168 163.983L33.8431 162.237ZM24.6 164.49C19.8069 164.49 16.107 162.905 13.3825 159.791L11.8774 161.109C15.033 164.715 19.313 166.49 24.6 166.49L24.6 164.49ZM11.63 160.45L11.63 178.58L13.63 178.58L13.63 160.45L11.63 160.45ZM12.63 177.58L3.87997 177.58L3.87997 179.58L12.63 179.58L12.63 177.58ZM4.87997 178.58L4.87998 127.62L2.87998 127.62L2.87997 178.58L4.87997 178.58ZM3.87997 128.62L12.21 128.62L12.21 126.62L3.87998 126.62L3.87997 128.62ZM11.21 127.62L11.21 132.52L13.21 132.52L13.21 127.62L11.21 127.62ZM12.9848 133.152C14.3288 131.505 15.9699 130.274 17.9189 129.451L17.141 127.609C14.8901 128.559 12.9845 129.989 11.4351 131.888L12.9848 133.152ZM17.9117 129.454C19.9252 128.623 22.1505 128.2 24.6 128.2L24.6 126.2C21.9161 126.2 19.4281 126.664 17.1482 127.606L17.9117 129.454ZM23.62 159C27.0874 159 29.9937 157.833 32.2526 155.471L30.8073 154.089C28.9596 156.021 26.5925 157 23.62 157L23.62 159ZM32.2448 155.479C34.5578 153.115 35.68 150.025 35.68 146.31L33.68 146.31C33.68 149.595 32.7022 152.152 30.8151 154.081L32.2448 155.479ZM35.68 146.31C35.68 142.595 34.5578 139.505 32.2448 137.141L30.8151 138.539C32.7022 140.468 33.68 143.025 33.68 146.31L35.68 146.31ZM32.2526 137.149C29.9937 134.787 27.0874 133.62 23.62 133.62L23.62 135.62C26.5925 135.62 28.9596 136.599 30.8073 138.531L32.2526 137.149ZM23.62 133.62C21.3575 133.62 19.2912 134.15 17.4461 135.226L18.4538 136.954C19.9688 136.07 21.6824 135.62 23.62 135.62L23.62 133.62ZM17.4643 135.216C15.6114 136.245 14.1503 137.738 13.0847 139.666L14.8352 140.634C15.7297 139.015 16.9286 137.801 18.4356 136.964L17.4643 135.216ZM13.0847 139.666C12.0112 141.609 11.49 143.833 11.49 146.31L13.49 146.31C13.49 144.12 13.9487 142.238 14.8352 140.634L13.0847 139.666ZM11.49 146.31C11.49 148.787 12.0112 151.011 13.0847 152.954L14.8352 151.986C13.9487 150.382 13.49 148.5 13.49 146.31L11.49 146.31ZM13.0847 152.954C14.1482 154.878 15.6036 156.389 17.4461 157.464L18.4538 155.736C16.9363 154.851 15.7318 153.609 14.8352 151.986L13.0847 152.954ZM17.4643 157.474C19.3064 158.498 21.3662 159 23.62 159L23.62 157C21.6738 157 19.9535 156.569 18.4356 155.726L17.4643 157.474ZM87.1384 149.11L87.1384 150.11L88.0585 150.11L88.135 149.193L87.1384 149.11ZM57.8084 149.11L57.8084 148.11L56.6047 148.11L56.8253 149.293L57.8084 149.11ZM61.7984 155.69L61.1929 156.486L61.2025 156.493L61.2123 156.5L61.7984 155.69ZM80.0684 154.01L80.8228 153.354L80.1131 152.538L79.3552 153.309L80.0684 154.01ZM84.7584 159.4L85.5252 160.042L86.0731 159.387L85.5128 158.744L84.7584 159.4ZM78.3884 163.95L78.017 163.022L78.3884 163.95ZM58.8584 163.04L58.3954 163.926L58.8584 163.04ZM51.5784 156.25L50.7102 156.746L50.7149 156.754L50.7197 156.762L51.5784 156.25ZM51.5084 136.51L50.6402 136.014L50.6376 136.018L51.5084 136.51ZM58.4384 129.65L58.9241 130.524L58.4384 129.65ZM78.1084 129.65L77.6107 130.517L77.6191 130.522L77.6276 130.527L78.1084 129.65ZM84.8284 136.44L83.9484 136.915L83.9529 136.923L83.9576 136.932L84.8284 136.44ZM61.2384 136.72L61.8877 137.481L61.8892 137.479L61.2384 136.72ZM57.7384 143.3L56.7498 143.149L56.5743 144.3L57.7384 144.3L57.7384 143.3ZM78.9484 143.3L78.9484 144.3L80.0958 144.3L79.939 143.163L78.9484 143.3ZM75.5184 136.72L74.8586 137.471L75.5184 136.72ZM86.2784 146.52C86.2784 147.085 86.2345 147.916 86.1419 149.027L88.135 149.193C88.229 148.064 88.2784 147.169 88.2784 146.52L86.2784 146.52ZM87.1384 148.11L57.8084 148.11L57.8084 150.11L87.1384 150.11L87.1384 148.11ZM56.8253 149.293C57.3822 152.28 58.8406 154.696 61.1929 156.486L62.4039 154.894C60.4629 153.417 59.2612 151.446 58.7915 148.927L56.8253 149.293ZM61.2123 156.5C63.6066 158.232 66.5289 159.07 69.9184 159.07L69.9184 157.07C66.8679 157.07 64.3769 156.321 62.3845 154.88L61.2123 156.5ZM69.9184 159.07C74.2689 159.07 77.9172 157.626 80.7816 154.711L79.3552 153.309C76.8996 155.808 73.7812 157.07 69.9184 157.07L69.9184 159.07ZM79.314 154.666L84.004 160.056L85.5128 158.744L80.8228 153.354L79.314 154.666ZM83.9917 158.758C82.4237 160.631 80.4392 162.053 78.017 163.022L78.7598 164.878C81.471 163.794 83.7331 162.182 85.5252 160.042L83.9917 158.758ZM78.017 163.022C75.5862 163.994 72.8219 164.49 69.7084 164.49L69.7084 166.49C73.035 166.49 76.0572 165.96 78.7598 164.878L78.017 163.022ZM69.7084 164.49C65.7365 164.49 62.2834 163.701 59.3214 162.154L58.3954 163.926C61.6868 165.646 65.467 166.49 69.7084 166.49L69.7084 164.49ZM59.3214 162.154C56.3506 160.602 54.0644 158.464 52.4371 155.738L50.7197 156.762C52.5457 159.822 55.1128 162.212 58.3954 163.926L59.3214 162.154ZM52.4467 155.754C50.8606 152.978 50.0584 149.839 50.0584 146.31L48.0584 146.31C48.0584 150.155 48.9363 153.642 50.7102 156.746L52.4467 155.754ZM50.0584 146.31C50.0584 142.825 50.8385 139.731 52.3792 137.002L50.6376 136.018C48.9116 139.076 48.0584 142.515 48.0584 146.31L50.0584 146.31ZM52.3767 137.006C53.9667 134.224 56.1449 132.068 58.9241 130.524L57.9528 128.776C54.852 130.499 52.4101 132.916 50.6402 136.014L52.3767 137.006ZM58.9241 130.524C61.7015 128.981 64.8449 128.2 68.3784 128.2L68.3784 126.2C64.5385 126.2 61.0553 127.052 57.9528 128.776L58.9241 130.524ZM68.3784 128.2C71.8633 128.2 74.9316 128.98 77.6107 130.517L78.6061 128.783C75.5919 127.053 72.1735 126.2 68.3784 126.2L68.3784 128.2ZM77.6276 130.527C80.3497 132.02 82.4521 134.142 83.9484 136.915L85.7084 135.965C84.0314 132.858 81.6538 130.454 78.5892 128.773L77.6276 130.527ZM83.9576 136.932C85.4941 139.653 86.2784 142.839 86.2784 146.52L88.2784 146.52C88.2784 142.548 87.4294 139.013 85.6992 135.948L83.9576 136.932ZM68.3784 133.2C65.3615 133.2 62.7447 134.112 60.5876 135.961L61.8892 137.479C63.6521 135.968 65.7953 135.2 68.3784 135.2L68.3784 133.2ZM60.5891 135.959C58.4732 137.766 57.2019 140.186 56.7498 143.149L58.727 143.451C59.1149 140.908 60.1769 138.941 61.8877 137.481L60.5891 135.959ZM57.7384 144.3L78.9484 144.3L78.9484 142.3L57.7384 142.3L57.7384 144.3ZM79.939 143.163C79.5355 140.238 78.2859 137.819 76.1782 135.969L74.8586 137.471C76.5776 138.981 77.6147 140.949 77.9578 143.437L79.939 143.163ZM76.1782 135.969C74.0606 134.109 71.4372 133.2 68.3784 133.2L68.3784 135.2C71.013 135.2 73.1496 135.971 74.8586 137.471L76.1782 135.969ZM118.495 145.54L118.12 144.613L115.403 145.713L118.225 146.503L118.495 145.54ZM123.885 148.76L123.121 149.405L123.132 149.418L123.143 149.43L123.885 148.76ZM123.535 160.1L124.281 160.766L124.29 160.756L123.535 160.1ZM117.165 164.16L116.825 163.22L117.165 164.16ZM99.4551 164.65L99.2087 165.619L99.2165 165.621L99.2242 165.623L99.4551 164.65ZM91.9651 161.71L91.0326 161.349L90.7198 162.157L91.4749 162.582L91.9651 161.71ZM94.4851 155.2L94.9764 154.329L93.9698 153.761L93.5526 154.839L94.4851 155.2ZM100.645 157.58L100.407 158.551L100.645 157.58ZM114.365 157.09L114.842 157.969L114.851 157.964L114.365 157.09ZM114.925 149.95L114.392 150.796L114.399 150.801L114.406 150.805L114.925 149.95ZM102.255 148.76L101.255 148.76L101.255 149.76L102.255 149.76L102.255 148.76ZM102.255 142.88L102.255 141.88L101.255 141.88L101.255 142.88L102.255 142.88ZM113.945 141.76L113.435 140.9L113.428 140.904L113.421 140.908L113.945 141.76ZM113.595 135.39L113.126 136.273L113.595 135.39ZM95.6051 136.93L94.6606 137.259L95.0159 138.28L96.0065 137.846L95.6051 136.93ZM93.3651 130.49L92.9422 129.584L92.124 129.966L92.4206 130.819L93.3651 130.49ZM116.745 128.39L116.413 129.333L116.421 129.336L116.429 129.339L116.745 128.39ZM122.625 132.03L121.875 132.692L121.886 132.703L121.896 132.715L122.625 132.03ZM123.115 142.25L123.896 142.875L123.901 142.868L123.906 142.862L123.115 142.25ZM118.225 146.503C120.412 147.115 122.018 148.098 123.121 149.405L124.649 148.115C123.232 146.435 121.244 145.271 118.765 144.577L118.225 146.503ZM123.143 149.43C124.274 150.683 124.845 152.19 124.845 154.01L126.845 154.01C126.845 151.723 126.109 149.731 124.627 148.09L123.143 149.43ZM124.845 154.01C124.845 156.049 124.167 157.848 122.78 159.444L124.29 160.756C125.983 158.806 126.845 156.545 126.845 154.01L124.845 154.01ZM122.789 159.434C121.383 161.011 119.413 162.283 116.825 163.22L117.506 165.1C120.331 164.077 122.607 162.643 124.281 160.766L122.789 159.434ZM116.825 163.22C114.247 164.153 111.285 164.63 107.925 164.63L107.925 166.63C111.472 166.63 114.67 166.127 117.506 165.1L116.825 163.22ZM107.925 164.63C105.108 164.63 102.362 164.312 99.686 163.677L99.2242 165.623C102.055 166.295 104.956 166.63 107.925 166.63L107.925 164.63ZM99.7015 163.681C97.0246 163 94.6112 162.051 92.4554 160.838L91.4749 162.582C93.7991 163.889 96.379 164.9 99.2087 165.619L99.7015 163.681ZM92.8977 162.071L95.4177 155.561L93.5526 154.839L91.0326 161.349L92.8977 162.071ZM93.9938 156.071C95.9026 157.148 98.043 157.972 100.407 158.551L100.883 156.609C98.674 156.068 96.7076 155.306 94.9764 154.329L93.9938 156.071ZM100.407 158.551C102.769 159.13 105.136 159.42 107.505 159.42L107.505 157.42C105.301 157.42 103.094 157.15 100.883 156.609L100.407 158.551ZM107.505 159.42C110.524 159.42 113.001 158.968 114.842 157.969L113.888 156.211C112.462 156.985 110.366 157.42 107.505 157.42L107.505 159.42ZM114.851 157.964C116.769 156.899 117.885 155.343 117.885 153.31L115.885 153.31C115.885 154.451 115.322 155.415 113.879 156.216L114.851 157.964ZM117.885 153.31C117.885 151.491 117.029 150.057 115.444 149.095L114.406 150.805C115.435 151.429 115.885 152.236 115.885 153.31L117.885 153.31ZM115.458 149.104C113.972 148.168 111.959 147.76 109.535 147.76L109.535 149.76C111.778 149.76 113.358 150.145 114.392 150.796L115.458 149.104ZM109.535 147.76L102.255 147.76L102.255 149.76L109.535 149.76L109.535 147.76ZM103.255 148.76L103.255 142.88L101.255 142.88L101.255 148.76L103.255 148.76ZM102.255 143.88L108.835 143.88L108.835 141.88L102.255 141.88L102.255 143.88ZM108.835 143.88C111.122 143.88 113.035 143.494 114.469 142.612L113.421 140.908C112.429 141.519 110.935 141.88 108.835 141.88L108.835 143.88ZM114.455 142.62C115.989 141.712 116.835 140.35 116.835 138.61L114.835 138.61C114.835 139.576 114.422 140.315 113.435 140.9L114.455 142.62ZM116.835 138.61C116.835 136.789 115.788 135.423 114.064 134.507L113.126 136.273C114.389 136.944 114.835 137.724 114.835 138.61L116.835 138.61ZM114.064 134.507C112.369 133.606 110.131 133.2 107.435 133.2L107.435 135.2C109.966 135.2 111.835 135.587 113.126 136.273L114.064 134.507ZM107.435 133.2C103.537 133.2 99.4571 134.15 95.2038 136.014L96.0065 137.846C100.06 136.07 103.866 135.2 107.435 135.2L107.435 133.2ZM96.5496 136.601L94.3096 130.162L92.4206 130.819L94.6606 137.259L96.5496 136.601ZM93.788 131.396C98.5667 129.166 103.37 128.06 108.205 128.06L108.205 126.06C103.054 126.06 97.9635 127.241 92.9422 129.584L93.788 131.396ZM108.205 128.06C111.286 128.06 114.018 128.49 116.413 129.333L117.077 127.447C114.432 126.516 111.471 126.06 108.205 126.06L108.205 128.06ZM116.429 129.339C118.824 130.137 120.618 131.267 121.875 132.692L123.375 131.368C121.832 129.62 119.707 128.323 117.061 127.441L116.429 129.339ZM121.896 132.715C123.179 134.08 123.795 135.612 123.795 137.35L125.795 137.35C125.795 135.074 124.965 133.06 123.354 131.345L121.896 132.715ZM123.795 137.35C123.795 138.947 123.31 140.365 122.324 141.638L123.906 142.862C125.161 141.241 125.795 139.393 125.795 137.35L123.795 137.35ZM122.334 141.625C121.339 142.869 119.95 143.872 118.12 144.613L118.87 146.467C120.961 145.621 122.651 144.431 123.896 142.875L122.334 141.625ZM3.87996 190.62L3.87996 189.62L2.87996 189.62L2.87996 190.62L3.87996 190.62ZM12.63 190.62L13.63 190.62L13.63 189.62L12.63 189.62L12.63 190.62ZM12.63 215.26L11.63 215.26L11.63 218.01L13.3964 215.902L12.63 215.26ZM33.28 190.62L33.28 189.62L32.8133 189.62L32.5135 189.978L33.28 190.62ZM41.26 190.62L42.26 190.62L42.26 189.62L41.26 189.62L41.26 190.62ZM41.26 228L41.26 229L42.26 229L42.26 228L41.26 228ZM32.51 228L31.51 228L31.51 229L32.51 229L32.51 228ZM32.51 203.36L33.51 203.36L33.51 200.603L31.7425 202.719L32.51 203.36ZM11.93 228L11.93 229L12.3977 229L12.6975 228.641L11.93 228ZM3.87996 228L2.87996 228L2.87996 229L3.87996 229L3.87996 228ZM3.87996 191.62L12.63 191.62L12.63 189.62L3.87996 189.62L3.87996 191.62ZM11.63 190.62L11.63 215.26L13.63 215.26L13.63 190.62L11.63 190.62ZM13.3964 215.902L34.0464 191.262L32.5135 189.978L11.8635 214.618L13.3964 215.902ZM33.28 191.62L41.26 191.62L41.26 189.62L33.28 189.62L33.28 191.62ZM40.26 190.62L40.26 228L42.26 228L42.26 190.62L40.26 190.62ZM41.26 227L32.51 227L32.51 229L41.26 229L41.26 227ZM33.51 228L33.51 203.36L31.51 203.36L31.51 228L33.51 228ZM31.7425 202.719L11.1625 227.359L12.6975 228.641L33.2775 204.001L31.7425 202.719ZM11.93 227L3.87996 227L3.87996 229L11.93 229L11.93 227ZM4.87996 228L4.87996 190.62L2.87996 190.62L2.87996 228L4.87996 228ZM53.0304 190.62L53.0304 189.62L52.0304 189.62L52.0304 190.62L53.0304 190.62ZM61.7804 190.62L62.7804 190.62L62.7804 189.62L61.7804 189.62L61.7804 190.62ZM61.7804 205.81L60.7804 205.81L60.7804 206.81L61.7804 206.81L61.7804 205.81ZM80.6104 205.81L80.6104 206.81L81.6104 206.81L81.6104 205.81L80.6104 205.81ZM80.6104 190.62L80.6104 189.62L79.6104 189.62L79.6104 190.62L80.6104 190.62ZM89.3604 190.62L90.3604 190.62L90.3604 189.62L89.3604 189.62L89.3604 190.62ZM89.3604 228L89.3604 229L90.3604 229L90.3604 228L89.3604 228ZM80.6103 228L79.6103 228L79.6103 229L80.6103 229L80.6103 228ZM80.6103 213.23L81.6103 213.23L81.6103 212.23L80.6103 212.23L80.6103 213.23ZM61.7804 213.23L61.7804 212.23L60.7804 212.23L60.7804 213.23L61.7804 213.23ZM61.7803 228L61.7803 229L62.7803 229L62.7803 228L61.7803 228ZM53.0303 228L52.0303 228L52.0303 229L53.0303 229L53.0303 228ZM53.0304 191.62L61.7804 191.62L61.7804 189.62L53.0304 189.62L53.0304 191.62ZM60.7804 190.62L60.7804 205.81L62.7803 205.81L62.7804 190.62L60.7804 190.62ZM61.7804 206.81L80.6104 206.81L80.6104 204.81L61.7804 204.81L61.7804 206.81ZM81.6104 205.81L81.6104 190.62L79.6104 190.62L79.6104 205.81L81.6104 205.81ZM80.6104 191.62L89.3604 191.62L89.3604 189.62L80.6104 189.62L80.6104 191.62ZM88.3604 190.62L88.3604 228L90.3604 228L90.3604 190.62L88.3604 190.62ZM89.3604 227L80.6103 227L80.6103 229L89.3604 229L89.3604 227ZM81.6103 228L81.6103 213.23L79.6103 213.23L79.6103 228L81.6103 228ZM80.6103 212.23L61.7804 212.23L61.7804 214.23L80.6103 214.23L80.6103 212.23ZM60.7804 213.23L60.7803 228L62.7803 228L62.7803 213.23L60.7804 213.23ZM61.7803 227L53.0303 227L53.0303 229L61.7803 229L61.7803 227ZM54.0303 228L54.0304 190.62L52.0304 190.62L52.0303 228L54.0303 228ZM119.287 202.94L119.28 203.94L119.287 203.94L119.287 202.94ZM130.207 206.16L129.559 206.921L130.207 206.16ZM129.787 224.78L129.162 223.999L129.156 224.004L129.787 224.78ZM118.027 228.07L118.036 227.07L118.031 227.07L118.027 228.07ZM101.087 228L100.087 228L100.087 228.996L101.083 229L101.087 228ZM101.087 190.62L101.087 189.62L100.087 189.62L100.087 190.62L101.087 190.62ZM109.837 190.62L110.837 190.62L110.837 189.62L109.837 189.62L109.837 190.62ZM109.837 202.87L108.837 202.87L108.837 203.863L109.83 203.87L109.837 202.87ZM138.817 190.62L138.817 189.62L137.817 189.62L137.817 190.62L138.817 190.62ZM147.567 190.62L148.567 190.62L148.567 189.62L147.567 189.62L147.567 190.62ZM147.567 228L147.567 229L148.567 229L148.567 228L147.567 228ZM138.817 228L137.817 228L137.817 229L138.817 229L138.817 228ZM117.257 221.63L117.275 220.63L117.266 220.63L117.257 221.63ZM123.207 210.5L122.607 211.3L123.207 210.5ZM117.257 208.96L117.275 207.96L117.266 207.96L117.257 208.96ZM109.837 208.89L109.846 207.89L108.837 207.881L108.837 208.89L109.837 208.89ZM109.837 221.56L108.837 221.56L108.837 222.551L109.828 222.56L109.837 221.56ZM119.287 203.94C123.912 203.94 127.284 204.984 129.559 206.921L130.855 205.399C128.09 203.043 124.182 201.94 119.287 201.94L119.287 203.94ZM129.559 206.921C131.814 208.842 132.987 211.573 132.987 215.26L134.987 215.26C134.987 211.107 133.64 207.771 130.855 205.399L129.559 206.921ZM132.987 215.26C132.987 219.113 131.689 221.978 129.162 223.999L130.412 225.561C133.485 223.102 134.987 219.621 134.987 215.26L132.987 215.26ZM129.156 224.004C126.648 226.045 122.989 227.116 118.036 227.07L118.018 229.07C123.239 229.118 127.42 227.995 130.418 225.556L129.156 224.004ZM118.031 227.07L101.091 227L101.083 229L118.023 229.07L118.031 227.07ZM102.087 228L102.087 190.62L100.087 190.62L100.087 228L102.087 228ZM101.087 191.62L109.837 191.62L109.837 189.62L101.087 189.62L101.087 191.62ZM108.837 190.62L108.837 202.87L110.837 202.87L110.837 190.62L108.837 190.62ZM109.83 203.87L119.28 203.94L119.294 201.94L109.844 201.87L109.83 203.87ZM138.817 191.62L147.567 191.62L147.567 189.62L138.817 189.62L138.817 191.62ZM146.567 190.62L146.567 228L148.567 228L148.567 190.62L146.567 190.62ZM147.567 227L138.817 227L138.817 229L147.567 229L147.567 227ZM139.817 228L139.817 190.62L137.817 190.62L137.817 228L139.817 228ZM117.239 222.63C119.937 222.679 122.168 222.12 123.775 220.79L122.499 219.25C121.399 220.16 119.711 220.674 117.275 220.63L117.239 222.63ZM123.775 220.79C125.408 219.439 126.167 217.492 126.167 215.12L124.167 215.12C124.167 217.041 123.573 218.362 122.499 219.25L123.775 220.79ZM126.167 215.12C126.167 212.804 125.435 210.921 123.807 209.7L122.607 211.3C123.592 212.039 124.167 213.236 124.167 215.12L126.167 215.12ZM123.807 209.7C122.256 208.537 120.024 208.008 117.275 207.96L117.239 209.96C119.81 210.005 121.545 210.503 122.607 211.3L123.807 209.7ZM117.266 207.96L109.846 207.89L109.828 209.89L117.248 209.96L117.266 207.96ZM108.837 208.89L108.837 221.56L110.837 221.56L110.837 208.89L108.837 208.89ZM109.828 222.56L117.248 222.63L117.266 220.63L109.846 220.56L109.828 222.56Z" fill="white" fill-opacity="0.3"/>
</svg>
