<svg width="70" height="336" viewBox="0 0 70 336" fill="none" xmlns="http://www.w3.org/2000/svg">
<path d="M45.96 30.58L44.96 30.58L44.96 31.58L45.96 31.58L45.96 30.58ZM45.96 10.63L46.96 10.63L46.96 9.63L45.96 9.63L45.96 10.63ZM16 10.63L15 10.63L15 11.63L16 11.63L16 10.63ZM16 1.88L16 0.879998L15 0.879998L15 1.88L16 1.88ZM53.38 1.88L54.38 1.88L54.38 0.879999L53.38 0.879999L53.38 1.88ZM53.38 30.58L53.38 31.58L54.38 31.58L54.38 30.58L53.38 30.58ZM46.96 30.58L46.96 10.63L44.96 10.63L44.96 30.58L46.96 30.58ZM45.96 9.63L16 9.63L16 11.63L45.96 11.63L45.96 9.63ZM17 10.63L17 1.88L15 1.88L15 10.63L17 10.63ZM16 2.88L53.38 2.88L53.38 0.879999L16 0.879998L16 2.88ZM52.38 1.88L52.38 30.58L54.38 30.58L54.38 1.88L52.38 1.88ZM53.38 29.58L45.96 29.58L45.96 31.58L53.38 31.58L53.38 29.58ZM51.42 67.3984L50.5465 66.9115L50.5432 66.9175L51.42 67.3984ZM44.7 74.1884L45.1916 75.0592L44.7 74.1884ZM24.61 74.1884L24.1184 75.0592L24.1244 75.0625L24.61 74.1884ZM17.89 67.3984L18.7668 66.9175L18.7635 66.9115L17.89 67.3984ZM20.55 45.6984L21.2085 46.4509L23.2114 44.6984L20.55 44.6984L20.55 45.6984ZM2.42 45.6984L1.42 45.6984L1.42 46.6984L2.42 46.6984L2.42 45.6984ZM2.42 36.9484L2.42 35.9484L1.42 35.9484L1.42 36.9484L2.42 36.9484ZM53.38 36.9484L54.38 36.9484L54.38 35.9484L53.38 35.9484L53.38 36.9484ZM53.38 45.2784L53.38 46.2784L54.38 46.2784L54.38 45.2784L53.38 45.2784ZM48.48 45.2784L48.48 44.2784L45.6722 44.2784L47.8479 46.0532L48.48 45.2784ZM52.47 50.5984L53.3943 50.2166L53.3912 50.2094L52.47 50.5984ZM26.22 64.5984L26.9193 63.8835L26.9112 63.8757L26.22 64.5984ZM43.16 64.5984L42.4687 63.8757L42.4607 63.8835L43.16 64.5984ZM44.91 51.0184L44.0358 51.504L44.0409 51.5132L44.0462 51.5222L44.91 51.0184ZM40.85 47.0284L41.3337 46.1531L40.85 47.0284ZM24.4 51.0184L23.5362 50.5145L23.5309 50.5235L23.5258 50.5327L24.4 51.0184ZM52.8 57.6684C52.8 61.1583 52.0409 64.2305 50.5465 66.9115L52.2935 67.8852C53.9725 64.8729 54.8 61.4585 54.8 57.6684L52.8 57.6684ZM50.5432 66.9175C49.0467 69.6463 46.9407 71.7751 44.2084 73.3175L45.1916 75.0592C48.246 73.3349 50.6199 70.9371 52.2968 67.8792L50.5432 66.9175ZM44.2084 73.3175C41.4847 74.8551 38.3218 75.6384 34.69 75.6384L34.69 77.6384C38.6182 77.6384 42.1286 76.7883 45.1916 75.0592L44.2084 73.3175ZM34.69 75.6384C31.0585 75.6384 27.8694 74.8552 25.0956 73.3142L24.1244 75.0625C27.2306 76.7882 30.7615 77.6384 34.69 77.6384L34.69 75.6384ZM25.1016 73.3175C22.3693 71.7751 20.2633 69.6463 18.7668 66.9175L17.0132 67.8792C18.6901 70.937 21.064 73.3349 24.1184 75.0592L25.1016 73.3175ZM18.7635 66.9115C17.2691 64.2305 16.51 61.1583 16.51 57.6684L14.51 57.6684C14.51 61.4585 15.3375 64.8729 17.0165 67.8852L18.7635 66.9115ZM16.51 57.6684C16.51 52.8753 18.0949 49.1754 21.2085 46.4509L19.8915 44.9458C16.2851 48.1013 14.51 52.3814 14.51 57.6684L16.51 57.6684ZM20.55 44.6984L2.42 44.6984L2.42 46.6984L20.55 46.6984L20.55 44.6984ZM3.42 45.6984L3.42 36.9484L1.42 36.9484L1.42 45.6984L3.42 45.6984ZM2.42 37.9484L53.38 37.9484L53.38 35.9484L2.42 35.9484L2.42 37.9484ZM52.38 36.9484L52.38 45.2784L54.38 45.2784L54.38 36.9484L52.38 36.9484ZM53.38 44.2784L48.48 44.2784L48.48 46.2784L53.38 46.2784L53.38 44.2784ZM47.8479 46.0532C49.4953 47.3972 50.7258 49.0382 51.5487 50.9873L53.3912 50.2094C52.4409 47.9585 51.0113 46.0529 49.1121 44.5035L47.8479 46.0532ZM51.5457 50.9801C52.3774 52.9936 52.8 55.2189 52.8 57.6684L54.8 57.6684C54.8 54.9845 54.3359 52.4965 53.3943 50.2166L51.5457 50.9801ZM22 56.6884C22 60.1558 23.1672 63.0621 25.5288 65.321L26.9112 63.8757C24.9795 62.0279 24 59.6609 24 56.6884L22 56.6884ZM25.5207 65.3132C27.8851 67.6262 30.9752 68.7484 34.69 68.7484L34.69 66.7484C31.4048 66.7484 28.8483 65.7706 26.9193 63.8835L25.5207 65.3132ZM34.69 68.7484C38.4048 68.7484 41.4949 67.6262 43.8593 65.3132L42.4607 63.8835C40.5317 65.7706 37.9752 66.7484 34.69 66.7484L34.69 68.7484ZM43.8512 65.321C46.2128 63.0621 47.38 60.1558 47.38 56.6884L45.38 56.6884C45.38 59.6609 44.4005 62.0279 42.4688 63.8757L43.8512 65.321ZM47.38 56.6884C47.38 54.4259 46.8501 52.3595 45.7738 50.5145L44.0462 51.5222C44.9299 53.0372 45.38 54.7508 45.38 56.6884L47.38 56.6884ZM45.7842 50.5327C44.7547 48.6797 43.2618 47.2187 41.3337 46.1531L40.3663 47.9036C41.9849 48.7981 43.1986 49.997 44.0358 51.504L45.7842 50.5327ZM41.3337 46.1531C39.3911 45.0796 37.1666 44.5584 34.69 44.5584L34.69 46.5584C36.8801 46.5584 38.7622 47.0171 40.3663 47.9036L41.3337 46.1531ZM34.69 44.5584C32.2134 44.5584 29.9889 45.0796 28.0463 46.1531L29.0137 47.9036C30.6178 47.0171 32.4999 46.5584 34.69 46.5584L34.69 44.5584ZM28.0463 46.1531C26.122 47.2166 24.611 48.672 23.5362 50.5145L25.2638 51.5222C26.149 50.0047 27.3913 48.8002 29.0137 47.9036L28.0463 46.1531ZM23.5258 50.5327C22.5025 52.3748 22 54.4346 22 56.6884L24 56.6884C24 54.7421 24.4309 53.0219 25.2742 51.504L23.5258 50.5327ZM53.38 119.601L52.9824 120.519L54.38 121.125L54.38 119.601L53.38 119.601ZM12.99 102.101L13.3876 101.184L13.3755 101.179L13.3632 101.174L12.99 102.101ZM4.44999 96.1514L5.2693 95.5779L5.26153 95.5671L4.44999 96.1514ZM2.83999 82.1514L1.89132 81.8352L2.83999 82.1514ZM5.36 77.6714L5.83751 76.7928L5.15217 76.4203L4.62407 76.9943L5.36 77.6714ZM11.8 81.1714L12.527 81.858L13.4193 80.9133L12.2775 80.2928L11.8 81.1714ZM9.90999 84.1114L8.98692 83.7268L8.98417 83.7334L8.98152 83.74L9.90999 84.1114ZM10.4 91.3914L11.1913 90.78L11.1844 90.771L11.1772 90.7622L10.4 91.3914ZM14.39 94.1914L13.9796 95.1033L13.9878 95.107L13.9961 95.1105L14.39 94.1914ZM15.86 94.8214L15.4661 95.7406L15.8628 95.9106L16.2587 95.7385L15.86 94.8214ZM53.38 78.5114L54.38 78.5114L54.38 76.9863L52.9813 77.5943L53.38 78.5114ZM53.38 87.6114L53.7714 88.5316L54.38 88.2728L54.38 87.6114L53.38 87.6114ZM25.73 99.3714L25.3386 98.4512L23.1814 99.3687L25.3366 100.291L25.73 99.3714ZM53.38 111.201L54.38 111.201L54.38 110.542L53.7734 110.282L53.38 111.201ZM53.7776 118.684L13.3876 101.184L12.5924 103.019L52.9824 120.519L53.7776 118.684ZM13.3632 101.174C9.39361 99.5767 6.74664 97.6885 5.26923 95.5779L3.63076 96.7249C5.42002 99.2809 8.46638 101.359 12.6168 103.029L13.3632 101.174ZM5.26153 95.5671C3.7221 93.429 2.93 90.8181 2.93 87.6814L0.929996 87.6814C0.929996 91.1713 1.8179 94.2071 3.63846 96.7357L5.26153 95.5671ZM2.93 87.6814C2.93 85.9252 3.21505 84.1885 3.78868 82.4676L1.89132 81.8352C1.25161 83.7543 0.929996 85.7043 0.929996 87.6814L2.93 87.6814ZM3.78868 82.4676C4.3599 80.754 5.1361 79.3918 6.09593 78.3485L4.62407 76.9943C3.43723 78.2844 2.53343 79.9088 1.89132 81.8352L3.78868 82.4676ZM4.88248 78.55L11.3225 82.05L12.2775 80.2928L5.83751 76.7928L4.88248 78.55ZM11.073 80.4848C10.1924 81.4171 9.49777 82.5008 8.98692 83.7268L10.8331 84.496C11.2556 83.4821 11.8209 82.6057 12.527 81.858L11.073 80.4848ZM8.98152 83.74C8.47127 85.0156 8.21 86.308 8.21 87.6114L10.21 87.6114C10.21 86.5815 10.4154 85.5405 10.8385 84.4828L8.98152 83.74ZM8.21 87.6114C8.21 89.3281 8.65548 90.8257 9.62275 92.0206L11.1772 90.7622C10.5578 89.9971 10.21 88.9747 10.21 87.6114L8.21 87.6114ZM9.60871 92.0029C10.5442 93.2135 12.0412 94.231 13.9796 95.1033L14.8004 93.2795C13.0054 92.4718 11.8425 91.6227 11.1913 90.78L9.60871 92.0029ZM13.9961 95.1105L15.4661 95.7406L16.2539 93.9023L14.7839 93.2723L13.9961 95.1105ZM16.2587 95.7385L53.7787 79.4285L52.9813 77.5943L15.4613 93.9043L16.2587 95.7385ZM52.38 78.5114L52.38 87.6114L54.38 87.6114L54.38 78.5114L52.38 78.5114ZM52.9886 86.6912L25.3386 98.4512L26.1214 100.292L53.7714 88.5316L52.9886 86.6912ZM25.3366 100.291L52.9866 112.121L53.7734 110.282L26.1234 98.452L25.3366 100.291ZM52.38 111.201L52.38 119.601L54.38 119.601L54.38 111.201L52.38 111.201ZM35.46 147.12L36.3869 146.745L35.2873 144.028L34.497 146.851L35.46 147.12ZM32.24 152.51L31.5951 151.746L31.5822 151.757L31.5697 151.768L32.24 152.51ZM20.9 152.16L20.2343 152.907L20.2443 152.915L20.9 152.16ZM16.84 145.79L17.7803 145.45L16.84 145.79ZM16.35 128.08L15.3808 127.834L15.3789 127.842L15.377 127.849L16.35 128.08ZM19.29 120.59L19.651 119.658L18.8431 119.345L18.4184 120.1L19.29 120.59ZM25.8 123.11L26.671 123.601L27.2388 122.595L26.161 122.178L25.8 123.11ZM23.42 129.27L22.4487 129.032L23.42 129.27ZM23.91 142.99L23.0311 143.467L23.0358 143.476L23.91 142.99ZM31.05 143.55L30.2038 143.017L30.1994 143.024L30.1952 143.031L31.05 143.55ZM32.24 130.88L32.24 129.88L31.24 129.88L31.24 130.88L32.24 130.88ZM38.12 130.88L39.12 130.88L39.12 129.88L38.12 129.88L38.12 130.88ZM39.24 142.57L40.1003 142.06L40.096 142.053L40.0917 142.046L39.24 142.57ZM45.61 142.22L44.7269 141.751L44.7269 141.751L45.61 142.22ZM44.07 124.23L43.7415 123.286L42.72 123.641L43.1541 124.632L44.07 124.23ZM50.51 121.99L51.4162 121.567L51.0343 120.749L50.1815 121.046L50.51 121.99ZM52.61 145.37L51.6667 145.038L51.6639 145.046L51.6613 145.054L52.61 145.37ZM48.97 151.25L48.3084 150.5L48.2967 150.511L48.2853 150.521L48.97 151.25ZM38.75 151.74L38.1253 152.521L38.1315 152.526L38.1378 152.531L38.75 151.74ZM34.497 146.851C33.8847 149.037 32.902 150.643 31.5951 151.746L32.8849 153.274C34.5647 151.857 35.7286 149.87 36.423 147.39L34.497 146.851ZM31.5697 151.768C30.3173 152.899 28.8101 153.47 26.99 153.47L26.99 155.47C29.2765 155.47 31.2694 154.734 32.9103 153.252L31.5697 151.768ZM26.99 153.47C24.9513 153.47 23.1525 152.792 21.5557 151.405L20.2443 152.915C22.1941 154.608 24.4553 155.47 26.99 155.47L26.99 153.47ZM21.5656 151.414C19.9894 150.008 18.7174 148.038 17.7803 145.45L15.8997 146.131C16.9226 148.956 18.3572 151.232 20.2344 152.906L21.5656 151.414ZM17.7803 145.45C16.8468 142.872 16.37 139.91 16.37 136.55L14.37 136.55C14.37 140.097 14.8732 143.295 15.8997 146.131L17.7803 145.45ZM16.37 136.55C16.37 133.733 16.688 130.987 17.323 128.311L15.377 127.849C14.7053 130.68 14.37 133.581 14.37 136.55L16.37 136.55ZM17.3192 128.327C17.9998 125.65 18.9489 123.236 20.1616 121.08L18.4184 120.1C17.111 122.424 16.1002 125.004 15.3808 127.834L17.3192 128.327ZM18.929 121.523L25.439 124.043L26.161 122.178L19.651 119.658L18.929 121.523ZM24.929 122.619C23.8522 124.528 23.0277 126.668 22.4487 129.032L24.3913 129.508C24.9323 127.299 25.6944 125.333 26.671 123.601L24.929 122.619ZM22.4487 129.032C21.8702 131.394 21.58 133.761 21.58 136.13L23.58 136.13C23.58 133.926 23.8498 131.719 24.3913 129.508L22.4487 129.032ZM21.58 136.13C21.58 139.149 22.0317 141.626 23.0311 143.467L24.7888 142.513C24.015 141.087 23.58 138.991 23.58 136.13L21.58 136.13ZM23.0358 143.476C24.1014 145.394 25.6575 146.51 27.69 146.51L27.69 144.51C26.5492 144.51 25.5853 143.947 24.7842 142.505L23.0358 143.476ZM27.69 146.51C29.5095 146.51 30.9426 145.654 31.9048 144.069L30.1952 143.031C29.5707 144.06 28.7639 144.51 27.69 144.51L27.69 146.51ZM31.8962 144.083C32.8319 142.597 33.24 140.584 33.24 138.16L31.24 138.16C31.24 140.403 30.8548 141.983 30.2038 143.017L31.8962 144.083ZM33.24 138.16L33.24 130.88L31.24 130.88L31.24 138.16L33.24 138.16ZM32.24 131.88L38.12 131.88L38.12 129.88L32.24 129.88L32.24 131.88ZM37.12 130.88L37.12 137.46L39.12 137.46L39.12 130.88L37.12 130.88ZM37.12 137.46C37.12 139.747 37.5057 141.66 38.3883 143.094L40.0917 142.046C39.4809 141.054 39.12 139.56 39.12 137.46L37.12 137.46ZM38.3797 143.08C39.2885 144.614 40.6496 145.46 42.39 145.46L42.39 143.46C41.4237 143.46 40.6848 143.047 40.1003 142.06L38.3797 143.08ZM42.39 145.46C44.211 145.46 45.5775 144.413 46.4931 142.689L44.7269 141.751C44.0558 143.014 43.2757 143.46 42.39 143.46L42.39 145.46ZM46.4931 142.689C47.3939 140.994 47.8 138.756 47.8 136.06L45.8 136.06C45.8 138.591 45.4128 140.46 44.7269 141.751L46.4931 142.689ZM47.8 136.06C47.8 132.162 46.8497 128.082 44.9859 123.829L43.1541 124.632C44.9303 128.685 45.8 132.491 45.8 136.06L47.8 136.06ZM44.3985 125.175L50.8385 122.935L50.1815 121.046L43.7415 123.286L44.3985 125.175ZM49.6038 122.413C51.8339 127.192 52.94 131.995 52.94 136.83L54.94 136.83C54.94 131.679 53.7594 126.589 51.4162 121.567L49.6038 122.413ZM52.94 136.83C52.94 139.911 52.5095 142.643 51.6667 145.038L53.5533 145.702C54.4838 143.058 54.94 140.096 54.94 136.83L52.94 136.83ZM51.6613 145.054C50.863 147.449 49.733 149.243 48.3084 150.5L49.6316 152C51.3803 150.457 52.677 148.332 53.5587 145.686L51.6613 145.054ZM48.2853 150.521C46.9199 151.804 45.3878 152.42 43.65 152.42L43.65 154.42C45.9255 154.42 47.9401 153.59 49.6547 151.979L48.2853 150.521ZM43.65 152.42C42.0529 152.42 40.6346 151.935 39.3622 150.949L38.1378 152.531C39.7587 153.786 41.6071 154.42 43.65 154.42L43.65 152.42ZM39.3747 150.959C38.1307 149.964 37.1275 148.575 36.3869 146.745L34.533 147.495C35.3791 149.586 36.5692 151.276 38.1253 152.521L39.3747 150.959ZM17.96 169.99L18.8405 170.464L17.96 169.99ZM24.75 162.85L24.2539 161.982L24.2456 161.986L24.2375 161.991L24.75 162.85ZM44.56 162.85L45.0725 161.991L45.0621 161.985L44.56 162.85ZM51.35 169.99L50.4695 170.464L51.35 169.99ZM51.35 190.5L50.4695 190.026L51.35 190.5ZM44.56 197.57L44.0578 196.705L44.0475 196.711L44.56 197.57ZM24.75 197.57L25.2564 196.708L25.2521 196.705L24.75 197.57ZM17.96 190.5L18.8405 190.026L17.96 190.5ZM26.22 188.19L26.9193 187.475L26.22 188.19ZM43.16 188.19L42.4607 187.475L42.4607 187.475L43.16 188.19ZM43.16 172.23L43.8593 171.515L43.8512 171.507L43.16 172.23ZM26.22 172.23L25.5287 171.507L25.5207 171.515L26.22 172.23ZM16.51 180.21C16.51 176.579 17.293 173.338 18.8405 170.464L17.0795 169.516C15.3603 172.709 14.51 176.281 14.51 180.21L16.51 180.21ZM18.8405 170.464C20.3902 167.586 22.5279 165.341 25.2625 163.709L24.2375 161.991C21.1854 163.813 18.7965 166.327 17.0795 169.516L18.8405 170.464ZM25.2461 163.718C28.0218 162.132 31.1615 161.33 34.69 161.33L34.69 159.33C30.8452 159.33 27.3582 160.208 24.2539 161.982L25.2461 163.718ZM34.69 161.33C38.2188 161.33 41.3323 162.132 44.0579 163.715L45.0621 161.985C42.0011 160.208 38.5346 159.33 34.69 159.33L34.69 161.33ZM44.0475 163.709C46.7821 165.341 48.9198 167.586 50.4695 170.464L52.2305 169.516C50.5135 166.327 48.1246 163.813 45.0725 161.991L44.0475 163.709ZM50.4695 170.464C52.017 173.338 52.8 176.579 52.8 180.21L54.8 180.21C54.8 176.281 53.9497 172.709 52.2305 169.516L50.4695 170.464ZM52.8 180.21C52.8 183.89 52.016 187.154 50.4695 190.026L52.2305 190.974C53.9507 187.779 54.8 184.183 54.8 180.21L52.8 180.21ZM50.4695 190.026C48.921 192.902 46.7865 195.121 44.0579 196.705L45.0621 198.435C48.1202 196.659 50.5123 194.165 52.2305 190.974L50.4695 190.026ZM44.0475 196.711C41.3235 198.337 38.2138 199.16 34.69 199.16L34.69 201.16C38.5396 201.16 42.0098 200.256 45.0725 198.429L44.0475 196.711ZM34.69 199.16C31.1664 199.16 28.0305 198.337 25.2564 196.708L24.2436 198.432C27.3495 200.256 30.8402 201.16 34.69 201.16L34.69 199.16ZM25.2521 196.705C22.5235 195.121 20.3889 192.902 18.8405 190.026L17.0795 190.974C18.7977 194.165 21.1898 196.659 24.2479 198.435L25.2521 196.705ZM18.8405 190.026C17.294 187.154 16.51 183.89 16.51 180.21L14.51 180.21C14.51 184.183 15.3593 187.779 17.0795 190.974L18.8405 190.026ZM22 180.21C22 183.677 23.1668 186.602 25.5207 188.905L26.9193 187.475C24.9798 185.578 24 183.182 24 180.21L22 180.21ZM25.5207 188.905C27.8851 191.218 30.9751 192.34 34.69 192.34L34.69 190.34C31.4048 190.34 28.8483 189.362 26.9193 187.475L25.5207 188.905ZM34.69 192.34C38.4048 192.34 41.4949 191.218 43.8593 188.905L42.4607 187.475C40.5317 189.362 37.9751 190.34 34.69 190.34L34.69 192.34ZM43.8593 188.905C46.2132 186.602 47.38 183.677 47.38 180.21L45.38 180.21C45.38 183.182 44.4002 185.578 42.4607 187.475L43.8593 188.905ZM47.38 180.21C47.38 176.742 46.2132 173.818 43.8593 171.515L42.4607 172.945C44.4002 174.842 45.38 177.237 45.38 180.21L47.38 180.21ZM43.8512 171.507C41.4858 169.245 38.3984 168.15 34.69 168.15L34.69 170.15C37.9815 170.15 40.5409 171.108 42.4688 172.953L43.8512 171.507ZM34.69 168.15C30.9815 168.15 27.8942 169.245 25.5288 171.507L26.9112 172.953C28.8391 171.108 31.3984 170.15 34.69 170.15L34.69 168.15ZM25.5207 171.515C23.1668 173.818 22 176.742 22 180.21L24 180.21C24 177.237 24.9798 174.842 26.9193 172.945L25.5207 171.515ZM35.46 235.894L36.3767 235.494L35.291 233.003L34.503 235.604L35.46 235.894ZM16 208.804L16 207.804L15 207.804L15 208.804L16 208.804ZM53.38 208.804L54.38 208.804L54.38 207.804L53.38 207.804L53.38 208.804ZM50.86 237.784L50.0233 237.236L50.86 237.784ZM38.75 240.094L39.3414 239.287L39.3325 239.281L39.3235 239.275L38.75 240.094ZM37.77 217.134L37.77 216.134L36.77 216.134L36.77 217.134L37.77 217.134ZM47.01 217.134L48.01 217.134L48.01 216.134L47.01 216.134L47.01 217.134ZM30.7 232.674L29.9 232.074L29.8918 232.085L29.884 232.096L30.7 232.674ZM31.96 217.134L32.96 217.134L32.96 216.134L31.96 216.134L31.96 217.134ZM22.37 217.134L22.37 216.134L21.37 216.134L21.37 217.134L22.37 217.134ZM34.503 235.604C33.8464 237.77 32.8467 239.304 31.5582 240.3C30.2746 241.293 28.6134 241.824 26.5 241.824L26.5 243.824C28.96 243.824 31.0787 243.2 32.7818 241.882C34.48 240.569 35.6736 238.637 36.417 236.184L34.503 235.604ZM26.5 241.824C23.4308 241.824 21.1556 240.694 19.5407 238.458L17.9193 239.629C19.9444 242.433 22.8492 243.824 26.5 243.824L26.5 241.824ZM19.5407 238.458C17.8972 236.183 17 232.695 17 227.844L15 227.844C15 232.886 15.9227 236.865 17.9193 239.629L19.5407 238.458ZM17 227.844L17 208.804L15 208.804L15 227.844L17 227.844ZM16 209.804L53.38 209.804L53.38 207.804L16 207.804L16 209.804ZM52.38 208.804L52.38 227.074L54.38 227.074L54.38 208.804L52.38 208.804ZM52.38 227.074C52.38 231.542 51.5564 234.894 50.0233 237.236L51.6967 238.331C53.5235 235.54 54.38 231.752 54.38 227.074L52.38 227.074ZM50.0233 237.236C48.5289 239.519 46.4643 240.634 43.72 240.634L43.72 242.634C47.1357 242.634 49.831 241.182 51.6967 238.331L50.0233 237.236ZM43.72 240.634C41.9965 240.634 40.5523 240.175 39.3414 239.287L38.1586 240.9C39.7477 242.066 41.6168 242.634 43.72 242.634L43.72 240.634ZM39.3235 239.275C38.0973 238.416 37.1085 237.173 36.3767 235.494L34.5433 236.293C35.3981 238.254 36.6026 239.811 38.1765 240.913L39.3235 239.275ZM36.77 217.134L36.77 226.304L38.77 226.304L38.77 217.134L36.77 217.134ZM36.77 226.304C36.77 228.651 37.1697 230.589 38.1197 231.965C39.1158 233.407 40.6202 234.094 42.46 234.094L42.46 232.094C41.1731 232.094 40.3325 231.649 39.7653 230.828C39.1519 229.94 38.77 228.483 38.77 226.304L36.77 226.304ZM42.46 234.094C44.2658 234.094 45.7358 233.397 46.7032 231.953C47.6231 230.58 48.01 228.647 48.01 226.304L46.01 226.304C46.01 228.487 45.6385 229.949 45.0418 230.84C44.4925 231.659 43.6875 232.094 42.46 232.094L42.46 234.094ZM48.01 226.304L48.01 217.134L46.01 217.134L46.01 226.304L48.01 226.304ZM47.01 216.134L37.77 216.134L37.77 218.134L47.01 218.134L47.01 216.134ZM21.37 227.144C21.37 229.624 21.7675 231.657 22.7042 233.097C23.6894 234.611 25.1947 235.354 27.06 235.354L27.06 233.354C25.7986 233.354 24.9589 232.895 24.3807 232.006C23.7542 231.043 23.37 229.471 23.37 227.144L21.37 227.144ZM27.06 235.354C28.9475 235.354 30.498 234.689 31.516 233.252L29.884 232.096C29.3153 232.899 28.4392 233.354 27.06 233.354L27.06 235.354ZM31.5 233.274C32.533 231.896 32.96 229.884 32.96 227.424L30.96 227.424C30.96 229.724 30.547 231.211 29.9 232.074L31.5 233.274ZM32.96 227.424L32.96 217.134L30.96 217.134L30.96 227.424L32.96 227.424ZM31.96 216.134L22.37 216.134L22.37 218.134L31.96 218.134L31.96 216.134ZM21.37 217.134L21.37 227.144L23.37 227.144L23.37 217.134L21.37 217.134ZM17.96 258.584L18.8405 259.058L17.96 258.584ZM24.75 251.444L24.2538 250.575L24.2456 250.58L24.2375 250.585L24.75 251.444ZM44.56 251.444L45.0725 250.585L45.0621 250.579L44.56 251.444ZM51.35 258.584L50.4695 259.058L51.35 258.584ZM51.35 279.094L50.4695 278.62L51.35 279.094ZM44.56 286.164L44.0578 285.299L44.0475 285.305L44.56 286.164ZM24.75 286.164L25.2564 285.301L25.2521 285.299L24.75 286.164ZM17.96 279.094L18.8405 278.62L17.96 279.094ZM26.22 276.784L26.9193 276.069L26.22 276.784ZM43.16 276.784L42.4607 276.069L42.4607 276.069L43.16 276.784ZM43.16 260.824L43.8593 260.109L43.8512 260.101L43.16 260.824ZM26.22 260.824L25.5287 260.101L25.5207 260.109L26.22 260.824ZM16.51 268.804C16.51 265.173 17.293 261.932 18.8405 259.058L17.0795 258.11C15.3603 261.302 14.51 264.875 14.51 268.804L16.51 268.804ZM18.8405 259.058C20.3901 256.18 22.5279 253.934 25.2624 252.302L24.2375 250.585C21.1854 252.406 18.7965 254.921 17.0795 258.11L18.8405 259.058ZM25.2461 252.312C28.0218 250.726 31.1615 249.924 34.69 249.924L34.69 247.924C30.8452 247.924 27.3582 248.802 24.2538 250.575L25.2461 252.312ZM34.69 249.924C38.2187 249.924 41.3323 250.726 44.0579 252.308L45.0621 250.579C42.0011 248.801 38.5346 247.924 34.69 247.924L34.69 249.924ZM44.0475 252.302C46.7821 253.934 48.9198 256.18 50.4695 259.058L52.2305 258.11C50.5135 254.921 48.1246 252.406 45.0724 250.585L44.0475 252.302ZM50.4695 259.058C52.017 261.932 52.8 265.173 52.8 268.804L54.8 268.804C54.8 264.875 53.9497 261.302 52.2305 258.11L50.4695 259.058ZM52.8 268.804C52.8 272.484 52.016 275.748 50.4695 278.62L52.2305 279.568C53.9506 276.373 54.8 272.777 54.8 268.804L52.8 268.804ZM50.4695 278.62C48.921 281.495 46.7865 283.715 44.0579 285.299L45.0621 287.028C48.1202 285.253 50.5123 282.759 52.2305 279.568L50.4695 278.62ZM44.0475 285.305C41.3235 286.931 38.2137 287.754 34.69 287.754L34.69 289.754C38.5396 289.754 42.0098 288.85 45.0724 287.022L44.0475 285.305ZM34.69 287.754C31.1664 287.754 28.0305 286.931 25.2564 285.301L24.2436 287.026C27.3495 288.85 30.8402 289.754 34.69 289.754L34.69 287.754ZM25.2521 285.299C22.5235 283.715 20.3889 281.495 18.8405 278.62L17.0795 279.568C18.7977 282.759 21.1898 285.253 24.2479 287.028L25.2521 285.299ZM18.8405 278.62C17.294 275.748 16.51 272.484 16.51 268.804L14.51 268.804C14.51 272.777 15.3593 276.373 17.0795 279.568L18.8405 278.62ZM22 268.804C22 272.271 23.1668 275.196 25.5207 277.499L26.9193 276.069C24.9798 274.172 24 271.776 24 268.804L22 268.804ZM25.5207 277.499C27.8851 279.811 30.9751 280.934 34.69 280.934L34.69 278.934C31.4048 278.934 28.8482 277.956 26.9193 276.069L25.5207 277.499ZM34.69 280.934C38.4048 280.934 41.4949 279.811 43.8593 277.499L42.4607 276.069C40.5317 277.956 37.9751 278.934 34.69 278.934L34.69 280.934ZM43.8593 277.499C46.2132 275.196 47.38 272.271 47.38 268.804L45.38 268.804C45.38 271.776 44.4002 274.172 42.4607 276.069L43.8593 277.499ZM47.38 268.804C47.38 265.336 46.2132 262.412 43.8593 260.109L42.4607 261.539C44.4002 263.436 45.38 265.831 45.38 268.804L47.38 268.804ZM43.8512 260.101C41.4858 257.838 38.3984 256.744 34.69 256.744L34.69 258.744C37.9815 258.744 40.5409 259.702 42.4688 261.546L43.8512 260.101ZM34.69 256.744C30.9815 256.744 27.8942 257.838 25.5288 260.101L26.9112 261.546C28.8391 259.702 31.3984 258.744 34.69 258.744L34.69 256.744ZM25.5207 260.109C23.1668 262.412 22 265.336 22 268.804L24 268.804C24 265.831 24.9798 263.436 26.9193 261.539L25.5207 260.109ZM53.38 297.398L54.38 297.398L54.38 296.398L53.38 296.398L53.38 297.398ZM53.38 306.148L53.38 307.148L54.38 307.148L54.38 306.148L53.38 306.148ZM28.74 306.148L28.74 305.148L25.9899 305.148L28.0977 306.914L28.74 306.148ZM53.38 326.798L54.38 326.798L54.38 326.331L54.0223 326.031L53.38 326.798ZM53.38 334.778L53.38 335.778L54.38 335.778L54.38 334.778L53.38 334.778ZM16 334.778L15 334.778L15 335.778L16 335.778L16 334.778ZM16 326.028L16 325.028L15 325.028L15 326.028L16 326.028ZM40.64 326.028L40.64 327.028L43.3972 327.028L41.281 325.26L40.64 326.028ZM16 305.448L15 305.448L15 305.915L15.3589 306.215L16 305.448ZM16 297.398L16 296.398L15 296.398L15 297.398L16 297.398ZM60.38 306.848L59.6385 306.177L59.6301 306.186L59.622 306.195L60.38 306.848ZM68.08 303.838L69.08 303.838L69.08 302.824L68.0661 302.838L68.08 303.838ZM68.08 309.648L68.1078 310.647L69.08 310.62L69.08 309.648L68.08 309.648ZM64.09 311.188L63.3829 310.48L63.3747 310.489L63.3666 310.497L64.09 311.188ZM64.09 319.658L64.8285 318.983L64.821 318.975L64.8133 318.967L64.09 319.658ZM68.08 321.338L69.08 321.338L69.08 320.365L68.1078 320.338L68.08 321.338ZM68.08 327.288L68.0661 328.287L69.08 328.302L69.08 327.288L68.08 327.288ZM60.38 324.208L59.6219 324.86L59.6307 324.87L60.38 324.208ZM52.38 297.398L52.38 306.148L54.38 306.148L54.38 297.398L52.38 297.398ZM53.38 305.148L28.74 305.148L28.74 307.148L53.38 307.148L53.38 305.148ZM28.0977 306.914L52.7377 327.564L54.0223 326.031L29.3823 305.381L28.0977 306.914ZM52.38 326.798L52.38 334.778L54.38 334.778L54.38 326.798L52.38 326.798ZM53.38 333.778L16 333.778L16 335.778L53.38 335.778L53.38 333.778ZM17 334.778L17 326.028L15 326.028L15 334.778L17 334.778ZM16 327.028L40.64 327.028L40.64 325.028L16 325.028L16 327.028ZM41.281 325.26L16.641 304.68L15.3589 306.215L39.9989 326.795L41.281 325.26ZM17 305.448L17 297.398L15 297.398L15 305.448L17 305.448ZM16 298.398L53.38 298.398L53.38 296.398L16 296.398L16 298.398ZM58.79 315.528C58.79 311.886 59.6227 309.261 61.138 307.5L59.622 306.195C57.684 308.448 56.79 311.609 56.79 315.528L58.79 315.528ZM61.1215 307.518C62.6609 305.817 64.9315 304.881 68.0939 304.837L68.0661 302.838C64.5084 302.887 61.6458 303.958 59.6385 306.177L61.1215 307.518ZM67.08 303.838L67.08 309.648L69.08 309.648L69.08 303.838L67.08 303.838ZM68.0522 308.648C66.1742 308.7 64.5805 309.283 63.3829 310.48L64.7971 311.895C65.5594 311.132 66.6258 310.688 68.1078 310.647L68.0522 308.648ZM63.3666 310.497C62.163 311.758 61.62 313.456 61.62 315.458L63.62 315.458C63.62 313.819 64.057 312.67 64.8133 311.878L63.3666 310.497ZM61.62 315.458C61.62 317.421 62.1675 319.092 63.3666 320.348L64.8133 318.967C64.0525 318.17 63.62 317.041 63.62 315.458L61.62 315.458ZM63.3515 320.332C64.5434 321.637 66.1472 322.284 68.0522 322.337L68.1078 320.338C66.6528 320.298 65.5966 319.825 64.8285 318.983L63.3515 320.332ZM67.08 321.338L67.08 327.288L69.08 327.288L69.08 321.338L67.08 321.338ZM68.0939 326.288C64.9387 326.244 62.6705 325.289 61.1293 323.545L59.6307 324.87C61.6361 327.139 64.5012 328.238 68.0661 328.287L68.0939 326.288ZM61.138 323.555C59.6227 321.794 58.79 319.169 58.79 315.528L56.79 315.528C56.79 319.446 57.684 322.608 59.622 324.86L61.138 323.555Z" fill="white" fill-opacity="0.3"/>
</svg>
