<svg width="193" height="41" viewBox="0 0 193 41" fill="none" xmlns="http://www.w3.org/2000/svg">
<path d="M17.7834 13.88L17.7834 14.88L18.7834 14.88L18.7834 13.88L17.7834 13.88ZM6.38344 13.88L6.38344 12.88L5.38343 12.88L5.38343 13.88L6.38344 13.88ZM6.38343 31L6.38343 32L7.38343 32L7.38343 31L6.38343 31ZM1.38343 31L0.383432 31L0.383432 32L1.38343 32L1.38343 31ZM1.38344 9.64L1.38344 8.64L0.383436 8.64L0.383435 9.64L1.38344 9.64ZM17.7834 9.64L18.7834 9.64L18.7834 8.64L17.7834 8.64L17.7834 9.64ZM17.7834 12.88L6.38344 12.88L6.38343 14.88L17.7834 14.88L17.7834 12.88ZM5.38343 13.88L5.38343 31L7.38343 31L7.38344 13.88L5.38343 13.88ZM6.38343 30L1.38343 30L1.38343 32L6.38343 32L6.38343 30ZM2.38343 31L2.38344 9.64L0.383435 9.64L0.383432 31L2.38343 31ZM1.38344 10.64L17.7834 10.64L17.7834 8.64L1.38344 8.64L1.38344 10.64ZM16.7834 9.64L16.7834 13.88L18.7834 13.88L18.7834 9.64L16.7834 9.64ZM38.8225 10.76L38.3356 11.6335L38.3417 11.6368L38.8225 10.76ZM42.7025 14.6L43.5733 14.1084L42.7025 14.6ZM42.7025 26.08L43.5733 26.5716L43.5767 26.5657L42.7025 26.08ZM38.8225 29.92L38.3417 29.0432L38.3356 29.0465L38.8225 29.92ZM26.4225 28.4L27.1751 27.7415L25.4225 25.7386L25.4225 28.4L26.4225 28.4ZM26.4225 38.76L26.4225 39.76L27.4225 39.76L27.4225 38.76L26.4225 38.76ZM21.4225 38.76L20.4225 38.76L20.4225 39.76L21.4225 39.76L21.4225 38.76ZM21.4225 9.64L21.4225 8.64L20.4225 8.64L20.4225 9.64L21.4225 9.64ZM26.1825 9.64L27.1825 9.64L27.1825 8.64L26.1825 8.64L26.1825 9.64ZM26.1825 12.44L25.1825 12.44L25.1825 15.2478L26.9574 13.0721L26.1825 12.44ZM29.2225 10.16L28.8407 9.23571L28.8335 9.23875L29.2225 10.16ZM37.2225 25.16L36.5076 24.4607L36.4999 24.4688L37.2225 25.16ZM37.2225 15.48L36.4998 16.1713L36.5077 16.1793L37.2225 15.48ZM29.4625 14.48L29.9481 15.3542L29.9573 15.3491L29.9664 15.3438L29.4625 14.48ZM27.1825 16.8L26.3073 16.3163L27.1825 16.8ZM29.4625 26.2L28.9586 27.0638L28.9677 27.0691L28.9769 27.0742L29.4625 26.2ZM33.2625 10.4C35.1924 10.4 36.8746 10.8191 38.3356 11.6335L39.3094 9.88652C37.517 8.88753 35.4926 8.40001 33.2625 8.40001L33.2625 10.4ZM38.3417 11.6368C39.8305 12.4533 40.9893 13.5993 41.8317 15.0916L43.5733 14.1084C42.5491 12.294 41.1212 10.8801 39.3033 9.88319L38.3417 11.6368ZM41.8317 15.0916C42.6692 16.5753 43.1025 18.3082 43.1025 20.32L45.1025 20.32C45.1025 18.0118 44.6024 15.9314 43.5733 14.1084L41.8317 15.0916ZM43.1025 20.32C43.1025 22.3315 42.6693 24.0806 41.8283 25.5944L43.5767 26.5657C44.6023 24.7194 45.1025 22.6285 45.1025 20.32L43.1025 20.32ZM41.8317 25.5884C40.9893 27.0807 39.8305 28.2268 38.3417 29.0432L39.3033 30.7968C41.1212 29.7999 42.5491 28.386 43.5733 26.5716L41.8317 25.5884ZM38.3356 29.0465C36.8746 29.8609 35.1924 30.28 33.2625 30.28L33.2625 32.28C35.4926 32.28 37.517 31.7925 39.3094 30.7935L38.3356 29.0465ZM33.2625 30.28C30.6294 30.28 28.6395 29.4151 27.1751 27.7415L25.6699 29.0585C27.5655 31.2249 30.1355 32.28 33.2625 32.28L33.2625 30.28ZM25.4225 28.4L25.4225 38.76L27.4225 38.76L27.4225 28.4L25.4225 28.4ZM26.4225 37.76L21.4225 37.76L21.4225 39.76L26.4225 39.76L26.4225 37.76ZM22.4225 38.76L22.4225 9.64L20.4225 9.64L20.4225 38.76L22.4225 38.76ZM21.4225 10.64L26.1825 10.64L26.1825 8.64L21.4225 8.64L21.4225 10.64ZM25.1825 9.64L25.1825 12.44L27.1825 12.44L27.1825 9.64L25.1825 9.64ZM26.9574 13.0721C27.6813 12.1847 28.5624 11.5242 29.6115 11.0813L28.8335 9.23875C27.4826 9.80914 26.337 10.6687 25.4076 11.8079L26.9574 13.0721ZM29.6043 11.0843C30.6977 10.6326 31.913 10.4 33.2625 10.4L33.2625 8.40001C31.6786 8.40001 30.2006 8.67406 28.8407 9.23574L29.6043 11.0843ZM32.7025 28C34.79 28 36.5662 27.2928 37.9451 25.8512L36.4999 24.4688C35.5321 25.4806 34.295 26 32.7025 26L32.7025 28ZM37.9373 25.8593C39.3503 24.4149 40.0225 22.5349 40.0225 20.32L38.0225 20.32C38.0225 22.1052 37.4947 23.4517 36.5077 24.4607L37.9373 25.8593ZM40.0225 20.32C40.0225 18.1052 39.3503 16.2251 37.9373 14.7807L36.5077 16.1793C37.4947 17.1883 38.0225 18.5349 38.0225 20.32L40.0225 20.32ZM37.9451 14.7888C36.5663 13.3472 34.79 12.64 32.7025 12.64L32.7025 14.64C34.295 14.64 35.5321 15.1595 36.4999 16.1712L37.9451 14.7888ZM32.7025 12.64C31.34 12.64 30.0837 12.9599 28.9586 13.6162L29.9664 15.3438C30.7613 14.8801 31.665 14.64 32.7025 14.64L32.7025 12.64ZM28.9769 13.6058C27.8439 14.2353 26.9528 15.1482 26.3073 16.3163L28.0577 17.2837C28.5322 16.4251 29.1611 15.7914 29.9481 15.3542L28.9769 13.6058ZM26.3073 16.3163C25.6537 17.4989 25.3425 18.8434 25.3425 20.32L27.3425 20.32C27.3425 19.13 27.5912 18.1278 28.0577 17.2837L26.3073 16.3163ZM25.3425 20.32C25.3425 21.7966 25.6537 23.1411 26.3073 24.3237L28.0577 23.3563C27.5912 22.5122 27.3425 21.5101 27.3425 20.32L25.3425 20.32ZM26.3073 24.3237C26.9507 25.488 27.8362 26.409 28.9586 27.0638L29.9664 25.3362C29.1688 24.871 28.5343 24.2187 28.0577 23.3563L26.3073 24.3237ZM28.9769 27.0742C30.0989 27.6975 31.3487 28 32.7025 28L32.7025 26C31.6563 26 30.7461 25.7691 29.9481 25.3258L28.9769 27.0742ZM68.6528 9.64001L69.5704 10.0376L70.1759 8.64001L68.6528 8.64001L68.6528 9.64001ZM58.6528 32.72L57.7352 32.3224L57.73 32.3345L57.7251 32.3468L58.6528 32.72ZM55.2528 37.6L54.6793 36.7807L54.6685 36.7885L55.2528 37.6ZM47.2528 38.52L46.9366 39.4687L47.2528 38.52ZM44.6928 37.08L43.8142 36.6025L43.4417 37.2878L44.0157 37.8159L44.6928 37.08ZM46.6928 33.4L47.3794 32.673L46.4347 31.7807L45.8142 32.9225L46.6928 33.4ZM48.3728 34.48L47.9882 35.4031L47.9948 35.4058L48.0014 35.4085L48.3728 34.48ZM52.5328 34.2L51.9214 33.4087L51.9124 33.4156L51.9036 33.4228L52.5328 34.2ZM54.1328 31.92L55.0447 32.3304L55.0484 32.3222L55.052 32.3139L54.1328 31.92ZM54.4928 31.08L55.412 31.4739L55.582 31.0772L55.4099 30.6813L54.4928 31.08ZM45.1728 9.64001L45.1728 8.64001L43.6477 8.64001L44.2557 10.0387L45.1728 9.64001ZM50.3728 9.64001L51.293 9.24862L51.0342 8.64001L50.3728 8.64001L50.3728 9.64001ZM57.0928 25.44L56.1726 25.8314L57.0901 27.9886L58.0122 25.8334L57.0928 25.44ZM63.8528 9.64001L63.8528 8.64001L63.193 8.64001L62.9334 9.24665L63.8528 9.64001ZM67.7352 9.24245L57.7352 32.3224L59.5704 33.1176L69.5704 10.0376L67.7352 9.24245ZM57.7251 32.3468C56.8281 34.5764 55.7899 36.0034 54.6793 36.7808L55.8263 38.4192C57.3823 37.33 58.6108 35.5036 59.5805 33.0932L57.7251 32.3468ZM54.6685 36.7885C53.5304 37.6079 52.1295 38.04 50.4128 38.04L50.4128 40.04C52.4827 40.04 54.3086 39.5121 55.8371 38.4115L54.6685 36.7885ZM50.4128 38.04C49.4566 38.04 48.5099 37.885 47.569 37.5713L46.9366 39.4687C48.0757 39.8484 49.2357 40.04 50.4128 40.04L50.4128 38.04ZM47.569 37.5713C46.6354 37.2601 45.9132 36.8439 45.3699 36.3441L44.0157 37.8159C44.8058 38.5428 45.7902 39.0866 46.9366 39.4687L47.569 37.5713ZM45.5714 37.5575L47.5714 33.8775L45.8142 32.9225L43.8142 36.6025L45.5714 37.5575ZM46.0062 34.127C46.5785 34.6676 47.2422 35.0922 47.9882 35.4031L48.7574 33.5569C48.2235 33.3344 47.7671 33.0391 47.3794 32.673L46.0062 34.127ZM48.0014 35.4085C48.777 35.7187 49.5694 35.88 50.3728 35.88L50.3728 33.88C49.8429 33.88 49.3019 33.7746 48.7442 33.5515L48.0014 35.4085ZM50.3728 35.88C51.4295 35.88 52.3871 35.6045 53.162 34.9773L51.9036 33.4228C51.5585 33.7022 51.0761 33.88 50.3728 33.88L50.3728 35.88ZM53.1443 34.9913C53.9149 34.3958 54.5324 33.4688 55.0447 32.3304L53.2209 31.5096C52.7732 32.5046 52.3241 33.0975 51.9214 33.4087L53.1443 34.9913ZM55.052 32.3139L55.412 31.4739L53.5737 30.6861L53.2137 31.5261L55.052 32.3139ZM55.4099 30.6813L46.0899 9.24134L44.2557 10.0387L53.5757 31.4787L55.4099 30.6813ZM45.1728 10.64L50.3728 10.64L50.3728 8.64001L45.1728 8.64001L45.1728 10.64ZM49.4526 10.0314L56.1726 25.8314L58.013 25.0486L51.293 9.24862L49.4526 10.0314ZM58.0122 25.8334L64.7722 10.0334L62.9334 9.24665L56.1734 25.0467L58.0122 25.8334ZM63.8528 10.64L68.6528 10.64L68.6528 8.64001L63.8528 8.64001L63.8528 10.64ZM84.3778 19.88L84.0026 18.9531L81.2858 20.0527L84.1082 20.843L84.3778 19.88ZM87.4578 21.72L86.6935 22.3649L86.7044 22.3778L86.7157 22.3903L87.4578 21.72ZM87.2578 28.2L88.0042 28.8657L88.0128 28.8557L87.2578 28.2ZM83.6178 30.52L83.2774 29.5797L83.6178 30.52ZM73.4978 30.8L73.2514 31.7692L73.2592 31.7712L73.2669 31.773L73.4978 30.8ZM69.2178 29.12L68.2852 28.759L67.9725 29.5669L68.7275 29.9916L69.2178 29.12ZM70.6578 25.4L71.1491 24.529L70.1425 23.9612L69.7252 25.039L70.6578 25.4ZM74.1778 26.76L73.9399 27.7313L74.1778 26.76ZM82.0178 26.48L82.4949 27.3589L82.5035 27.3542L82.0178 26.48ZM82.3378 22.4L81.805 23.2462L81.8119 23.2506L81.8188 23.2548L82.3378 22.4ZM75.0978 21.72L74.0978 21.72L74.0978 22.72L75.0978 22.72L75.0978 21.72ZM75.0978 18.36L75.0978 17.36L74.0978 17.36L74.0978 18.36L75.0978 18.36ZM81.7778 17.72L81.268 16.8597L81.2608 16.864L81.2537 16.8684L81.7778 17.72ZM81.5778 14.08L81.1087 14.9631L81.5778 14.08ZM71.2978 14.96L70.3533 15.2885L70.7086 16.31L71.6992 15.8759L71.2978 14.96ZM70.0178 11.28L69.5949 10.3738L68.7767 10.7557L69.0733 11.6085L70.0178 11.28ZM83.3778 10.08L83.0459 11.0233L83.0537 11.0261L83.0616 11.0287L83.3778 10.08ZM86.7378 12.16L85.988 12.8216L85.9983 12.8333L86.009 12.8447L86.7378 12.16ZM87.0178 18L87.7987 18.6247L87.8037 18.6185L87.8085 18.6122L87.0178 18ZM84.1082 20.843C85.2951 21.1753 86.1309 21.698 86.6935 22.3649L88.2221 21.0751C87.3448 20.0353 86.1272 19.3314 84.6474 18.917L84.1082 20.843ZM86.7157 22.3903C87.2869 23.0227 87.5778 23.7799 87.5778 24.72L89.5778 24.72C89.5778 23.3135 89.122 22.0706 88.1999 21.0497L86.7157 22.3903ZM87.5778 24.72C87.5778 25.7787 87.2295 26.7075 86.5028 27.5443L88.0128 28.8557C89.0461 27.6659 89.5778 26.2747 89.5778 24.72L87.5778 24.72ZM86.5115 27.5344C85.7657 28.3706 84.7055 29.0627 83.2774 29.5797L83.9582 31.4603C85.6234 30.8574 86.9899 30.0028 88.0041 28.8656L86.5115 27.5344ZM83.2774 29.5797C81.8592 30.0932 80.2176 30.36 78.3378 30.36L78.3378 32.36C80.4047 32.36 82.2831 32.0668 83.9582 31.4603L83.2774 29.5797ZM78.3378 30.36C76.7605 30.36 75.2247 30.182 73.7287 29.827L73.2669 31.773C74.9176 32.1647 76.6085 32.36 78.3378 32.36L78.3378 30.36ZM73.7442 29.8308C72.2472 29.4503 70.9038 28.9211 69.7081 28.2484L68.7275 29.9916C70.0918 30.759 71.6017 31.3498 73.2514 31.7692L73.7442 29.8308ZM70.1504 29.481L71.5904 25.761L69.7252 25.039L68.2852 28.759L70.1504 29.481ZM70.1665 26.271C71.2953 26.9078 72.5556 27.3923 73.9399 27.7313L74.4157 25.7887C73.1866 25.4877 72.1003 25.0656 71.1491 24.529L70.1665 26.271ZM73.9399 27.7313C75.3221 28.0698 76.7086 28.24 78.0978 28.24L78.0978 26.24C76.8736 26.24 75.6468 26.0902 74.4157 25.7887L73.9399 27.7313ZM78.0978 28.24C79.857 28.24 81.3538 27.9783 82.4949 27.3589L81.5407 25.6012C80.8151 25.995 79.6986 26.24 78.0978 26.24L78.0978 28.24ZM82.5035 27.3542C83.7014 26.6886 84.4578 25.6725 84.4578 24.32L82.4578 24.32C82.4578 24.7808 82.2542 25.2047 81.5322 25.6059L82.5035 27.3542ZM84.4578 24.32C84.4578 23.1206 83.8816 22.1674 82.8568 21.5452L81.8188 23.2548C82.2874 23.5393 82.4578 23.8661 82.4578 24.32L84.4578 24.32ZM82.8706 21.5538C81.9246 20.9581 80.6817 20.72 79.2578 20.72L79.2578 22.72C80.5006 22.72 81.311 22.9352 81.805 23.2462L82.8706 21.5538ZM79.2578 20.72L75.0978 20.72L75.0978 22.72L79.2578 22.72L79.2578 20.72ZM76.0978 21.72L76.0978 18.36L74.0978 18.36L74.0978 21.72L76.0978 21.72ZM75.0978 19.36L78.8578 19.36L78.8578 17.36L75.0978 17.36L75.0978 19.36ZM78.8578 19.36C80.2042 19.36 81.3876 19.1343 82.3019 18.5717L81.2537 16.8684C80.7813 17.1591 80.0181 17.36 78.8578 17.36L78.8578 19.36ZM82.2876 18.5803C83.2812 17.9915 83.8578 17.0804 83.8578 15.92L81.8578 15.92C81.8578 16.3063 81.7144 16.5952 81.268 16.8597L82.2876 18.5803ZM83.8578 15.92C83.8578 14.679 83.1305 13.7725 82.047 13.1969L81.1087 14.9631C81.7318 15.2942 81.8578 15.6143 81.8578 15.92L83.8578 15.92ZM82.047 13.1969C80.9914 12.6361 79.6336 12.4 78.0578 12.4L78.0578 14.4C79.4686 14.4 80.4576 14.6172 81.1087 14.9631L82.047 13.1969ZM78.0578 12.4C75.76 12.4 73.3698 12.9603 70.8965 14.0441L71.6992 15.8759C73.9725 14.8797 76.0889 14.4 78.0578 14.4L78.0578 12.4ZM72.2423 14.6315L70.9623 10.9515L69.0733 11.6085L70.3533 15.2885L72.2423 14.6315ZM70.4407 12.1862C73.1194 10.9361 75.8024 10.32 78.4978 10.32L78.4978 8.32001C75.4865 8.32001 72.5162 9.01057 69.5949 10.3738L70.4407 12.1862ZM78.4978 10.32C80.2188 10.32 81.7305 10.5605 83.0459 11.0233L83.7097 9.1367C82.1452 8.58621 80.4035 8.32001 78.4978 8.32001L78.4978 10.32ZM83.0616 11.0287C84.3764 11.467 85.3309 12.077 85.988 12.8216L87.4876 11.4984C86.5447 10.4297 85.2592 9.65305 83.694 9.13133L83.0616 11.0287ZM86.009 12.8447C86.6716 13.5501 86.9778 14.3222 86.9778 15.2L88.9778 15.2C88.9778 13.7845 88.4574 12.5299 87.4667 11.4753L86.009 12.8447ZM86.9778 15.2C86.9778 16.0171 86.7322 16.7354 86.2271 17.3878L87.8085 18.6122C88.5834 17.6113 88.9778 16.4629 88.9778 15.2L86.9778 15.2ZM86.2369 17.3753C85.7218 18.0193 84.9923 18.5525 84.0026 18.9531L84.753 20.807C86.0033 20.3009 87.0338 19.5808 87.7987 18.6247L86.2369 17.3753ZM97.4462 29.88L97.9203 28.9995L97.4462 29.88ZM93.3662 26L92.498 26.4962L92.5027 26.5044L92.5075 26.5125L93.3662 26ZM93.3662 14.68L92.5075 14.1675L92.5015 14.1779L93.3662 14.68ZM97.4462 10.8L97.9203 11.6805L97.4462 10.8ZM109.166 10.8L108.692 11.6805L109.166 10.8ZM113.206 14.68L112.341 15.1822L112.348 15.1925L113.206 14.68ZM113.206 26L112.344 25.4936L112.341 25.4979L113.206 26ZM109.166 29.88L108.692 28.9995L109.166 29.88ZM107.846 25.16L107.131 24.4607L107.846 25.16ZM107.846 15.48L107.131 16.1793L107.131 16.1793L107.846 15.48ZM98.7262 15.48L98.0114 14.7807L98.0036 14.7888L98.7262 15.48ZM98.7262 25.16L98.0036 25.8513L98.0114 25.8593L98.7262 25.16ZM103.286 30.28C101.275 30.28 99.4942 29.847 97.9203 28.9995L96.9721 30.7605C98.865 31.7797 100.977 32.28 103.286 32.28L103.286 30.28ZM97.9203 28.9995C96.3424 28.1499 95.1169 26.9821 94.225 25.4876L92.5075 26.5125C93.589 28.3246 95.0835 29.7435 96.9721 30.7605L97.9203 28.9995ZM94.2345 25.5039C93.3684 23.9882 92.9262 22.2686 92.9262 20.32L90.9262 20.32C90.9262 22.5848 91.4441 24.6518 92.498 26.4962L94.2345 25.5039ZM92.9262 20.32C92.9262 18.3713 93.3684 16.6677 94.231 15.1822L92.5015 14.1779C91.4441 15.999 90.9262 18.0554 90.9262 20.32L92.9262 20.32ZM94.225 15.1925C95.1169 13.6979 96.3424 12.5302 97.9203 11.6805L96.9722 9.91955C95.0835 10.9365 93.589 12.3554 92.5075 14.1676L94.225 15.1925ZM97.9203 11.6805C99.4942 10.8331 101.275 10.4 103.286 10.4L103.286 8.40002C100.977 8.40002 98.865 8.90031 96.9722 9.91955L97.9203 11.6805ZM103.286 10.4C105.326 10.4 107.12 10.834 108.692 11.6805L109.64 9.91955C107.746 8.89936 105.62 8.40002 103.286 8.40002L103.286 10.4ZM108.692 11.6805C110.268 12.529 111.477 13.6935 112.341 15.1822L114.071 14.1779C113.015 12.3598 111.531 10.9377 109.64 9.91955L108.692 11.6805ZM112.348 15.1925C113.233 16.6765 113.686 18.3763 113.686 20.32L115.686 20.32C115.686 18.0504 115.153 15.9902 114.065 14.1676L112.348 15.1925ZM113.686 20.32C113.686 22.2636 113.233 23.9795 112.344 25.4936L114.069 26.5064C115.153 24.6605 115.686 22.5898 115.686 20.32L113.686 20.32ZM112.341 25.4979C111.477 26.9865 110.268 28.1511 108.692 28.9995L109.64 30.7605C111.531 29.7423 113.015 28.3202 114.071 26.5022L112.341 25.4979ZM108.692 28.9995C107.12 29.846 105.326 30.28 103.286 30.28L103.286 32.28C105.62 32.28 107.746 31.7807 109.64 30.7605L108.692 28.9995ZM103.286 28C105.374 28 107.158 27.2932 108.561 25.8593L107.131 24.4607C106.134 25.4802 104.879 26 103.286 26L103.286 28ZM108.561 25.8593C109.974 24.4149 110.646 22.5349 110.646 20.32L108.646 20.32C108.646 22.1052 108.118 23.4518 107.131 24.4607L108.561 25.8593ZM110.646 20.32C110.646 18.1052 109.974 16.2251 108.561 14.7807L107.131 16.1793C108.118 17.1883 108.646 18.5349 108.646 20.32L110.646 20.32ZM108.561 14.7807C107.158 13.3468 105.374 12.64 103.286 12.64L103.286 14.64C104.879 14.64 106.134 15.1599 107.131 16.1793L108.561 14.7807ZM103.286 12.64C101.199 12.64 99.4141 13.3468 98.0114 14.7807L99.4411 16.1793C100.438 15.1599 101.694 14.64 103.286 14.64L103.286 12.64ZM98.0036 14.7888C96.621 16.2342 95.9662 18.1116 95.9662 20.32L97.9662 20.32C97.9662 18.5285 98.4848 17.1791 99.4489 16.1712L98.0036 14.7888ZM95.9662 20.32C95.9662 22.5285 96.621 24.4058 98.0036 25.8512L99.4489 24.4688C98.4848 23.4609 97.9662 22.1116 97.9662 20.32L95.9662 20.32ZM98.0114 25.8593C99.4141 27.2932 101.199 28 103.286 28L103.286 26C101.694 26 100.438 25.4802 99.4411 24.4607L98.0114 25.8593ZM135.106 19.88L134.706 18.9633L132.215 20.0491L134.816 20.837L135.106 19.88ZM119.626 31L118.626 31L118.626 32L119.626 32L119.626 31ZM119.626 9.64002L119.626 8.64002L118.626 8.64002L118.626 9.64002L119.626 9.64002ZM136.186 11.08L135.638 11.9167L136.186 11.08ZM137.506 18L136.699 17.4087L136.693 17.4175L136.686 17.4266L137.506 18ZM124.386 18.56L123.386 18.56L123.386 19.56L124.386 19.56L124.386 18.56ZM124.386 13.28L124.386 12.28L123.386 12.28L123.386 13.28L124.386 13.28ZM133.266 22.6L132.666 23.4L132.677 23.4082L132.688 23.416L133.266 22.6ZM124.386 21.88L124.386 20.88L123.386 20.88L123.386 21.88L124.386 21.88ZM124.386 27.36L123.386 27.36L123.386 28.36L124.386 28.36L124.386 27.36ZM134.816 20.837C135.992 21.1936 136.783 21.7234 137.285 22.3718C137.782 23.0154 138.066 23.8667 138.066 25L140.066 25C140.066 23.5201 139.689 22.2113 138.867 21.1482C138.048 20.09 136.859 19.3664 135.396 18.923L134.816 20.837ZM138.066 25C138.066 26.6293 137.476 27.7944 136.32 28.6293L137.491 30.2507C139.215 29.0056 140.066 27.2108 140.066 25L138.066 25ZM136.32 28.6293C135.125 29.4928 133.237 30 130.506 30L130.506 32C133.428 32 135.807 31.4673 137.491 30.2507L136.32 28.6293ZM130.506 30L119.626 30L119.626 32L130.506 32L130.506 30ZM120.626 31L120.626 9.64002L118.626 9.64002L118.626 31L120.626 31ZM119.626 10.64L130.066 10.64L130.066 8.64002L119.626 8.64002L119.626 10.64ZM130.066 10.64C132.574 10.64 134.396 11.1036 135.638 11.9167L136.733 10.2433C135.042 9.13648 132.784 8.64002 130.066 8.64002L130.066 10.64ZM135.638 11.9167C136.821 12.6911 137.386 13.7357 137.386 15.16L139.386 15.16C139.386 13.0643 138.484 11.389 136.733 10.2433L135.638 11.9167ZM137.386 15.16C137.386 16.0635 137.147 16.7977 136.699 17.4087L138.312 18.5914C139.037 17.6023 139.386 16.4432 139.386 15.16L137.386 15.16ZM136.686 17.4266C136.248 18.0527 135.605 18.5715 134.706 18.9633L135.505 20.7967C136.686 20.2819 137.643 19.5474 138.325 18.5735L136.686 17.4266ZM124.386 19.56L129.626 19.56L129.626 17.56L124.386 17.56L124.386 19.56ZM129.626 19.56C131.003 19.56 132.214 19.3278 133.104 18.7128C134.061 18.0517 134.506 17.0498 134.506 15.88L132.506 15.88C132.506 16.4969 132.303 16.835 131.967 17.0672C131.564 17.3456 130.835 17.56 129.626 17.56L129.626 19.56ZM134.506 15.88C134.506 14.7242 134.051 13.7417 133.092 13.0993C132.205 12.5044 130.999 12.28 129.626 12.28L129.626 14.28C130.839 14.28 131.573 14.489 131.979 14.7608C132.314 14.985 132.506 15.3025 132.506 15.88L134.506 15.88ZM129.626 12.28L124.386 12.28L124.386 14.28L129.626 14.28L129.626 12.28ZM123.386 13.28L123.386 18.56L125.386 18.56L125.386 13.28L123.386 13.28ZM130.106 28.36C131.555 28.36 132.816 28.13 133.741 27.5283C134.74 26.8781 135.226 25.8753 135.226 24.68L133.226 24.68C133.226 25.2714 133.024 25.6086 132.65 25.8518C132.202 26.1433 131.402 26.36 130.106 26.36L130.106 28.36ZM135.226 24.68C135.226 23.4925 134.801 22.462 133.844 21.784L132.688 23.416C133.01 23.6447 133.226 24.0008 133.226 24.68L135.226 24.68ZM133.866 21.8C132.968 21.127 131.705 20.88 130.266 20.88L130.266 22.88C131.546 22.88 132.283 23.1131 132.666 23.4L133.866 21.8ZM130.266 20.88L124.386 20.88L124.386 22.88L130.266 22.88L130.266 20.88ZM123.386 21.88L123.386 27.36L125.386 27.36L125.386 21.88L123.386 21.88ZM124.386 28.36L130.106 28.36L130.106 26.36L124.386 26.36L124.386 28.36ZM148.071 29.88L148.545 28.9996L148.071 29.88ZM143.991 26L143.123 26.4962L143.128 26.5044L143.133 26.5125L143.991 26ZM143.991 14.68L143.132 14.1675L143.126 14.1779L143.991 14.68ZM148.071 10.8L148.545 11.6805L148.071 10.8ZM159.791 10.8L159.317 11.6805L159.791 10.8ZM163.831 14.68L162.966 15.1822L162.973 15.1925L163.831 14.68ZM163.831 26L162.969 25.4936L162.966 25.4979L163.831 26ZM159.791 29.88L159.317 28.9996L159.791 29.88ZM158.471 25.16L157.756 24.4607L158.471 25.16ZM158.471 15.48L157.756 16.1793L157.756 16.1793L158.471 15.48ZM149.351 15.48L148.636 14.7807L148.629 14.7888L149.351 15.48ZM149.351 25.16L148.629 25.8513L148.636 25.8593L149.351 25.16ZM153.911 30.28C151.9 30.28 150.119 29.847 148.545 28.9996L147.597 30.7605C149.49 31.7797 151.602 32.28 153.911 32.28L153.911 30.28ZM148.545 28.9996C146.967 28.1499 145.742 26.9821 144.85 25.4876L143.133 26.5125C144.214 28.3246 145.708 29.7435 147.597 30.7605L148.545 28.9996ZM144.859 25.5039C143.993 23.9882 143.551 22.2686 143.551 20.32L141.551 20.32C141.551 22.5848 142.069 24.6518 143.123 26.4962L144.859 25.5039ZM143.551 20.32C143.551 18.3713 143.993 16.6678 144.856 15.1822L143.126 14.1779C142.069 15.999 141.551 18.0554 141.551 20.32L143.551 20.32ZM144.85 15.1925C145.742 13.6979 146.967 12.5302 148.545 11.6805L147.597 9.91956C145.708 10.9365 144.214 12.3554 143.133 14.1676L144.85 15.1925ZM148.545 11.6805C150.119 10.8331 151.9 10.4 153.911 10.4L153.911 8.40003C151.602 8.40003 149.49 8.90032 147.597 9.91956L148.545 11.6805ZM153.911 10.4C155.951 10.4 157.745 10.834 159.317 11.6805L160.265 9.91956C158.371 8.89937 156.245 8.40003 153.911 8.40003L153.911 10.4ZM159.317 11.6805C160.893 12.529 162.102 13.6935 162.966 15.1822L164.696 14.1779C163.64 12.3599 162.156 10.9377 160.265 9.91956L159.317 11.6805ZM162.973 15.1925C163.858 16.6765 164.311 18.3763 164.311 20.32L166.311 20.32C166.311 18.0505 165.778 15.9902 164.69 14.1676L162.973 15.1925ZM164.311 20.32C164.311 22.2636 163.858 23.9795 162.969 25.4936L164.694 26.5065C165.778 24.6605 166.311 22.5898 166.311 20.32L164.311 20.32ZM162.966 25.4979C162.102 26.9865 160.893 28.1511 159.317 28.9996L160.265 30.7605C162.156 29.7423 163.64 28.3202 164.696 26.5022L162.966 25.4979ZM159.317 28.9996C157.745 29.846 155.951 30.28 153.911 30.28L153.911 32.28C156.245 32.28 158.371 31.7807 160.265 30.7605L159.317 28.9996ZM153.911 28C155.999 28 157.783 27.2932 159.186 25.8593L157.756 24.4607C156.759 25.4802 155.504 26 153.911 26L153.911 28ZM159.186 25.8593C160.599 24.415 161.271 22.5349 161.271 20.32L159.271 20.32C159.271 22.1052 158.743 23.4518 157.756 24.4607L159.186 25.8593ZM161.271 20.32C161.271 18.1052 160.599 16.2251 159.186 14.7807L157.756 16.1793C158.743 17.1883 159.271 18.5349 159.271 20.32L161.271 20.32ZM159.186 14.7807C157.783 13.3469 155.999 12.64 153.911 12.64L153.911 14.64C155.504 14.64 156.759 15.1599 157.756 16.1793L159.186 14.7807ZM153.911 12.64C151.824 12.64 150.039 13.3469 148.636 14.7807L150.066 16.1793C151.063 15.1599 152.319 14.64 153.911 14.64L153.911 12.64ZM148.629 14.7888C147.246 16.2342 146.591 18.1116 146.591 20.32L148.591 20.32C148.591 18.5285 149.11 17.1791 150.074 16.1712L148.629 14.7888ZM146.591 20.32C146.591 22.5285 147.246 24.4058 148.629 25.8512L150.074 24.4688C149.11 23.4609 148.591 22.1116 148.591 20.32L146.591 20.32ZM148.636 25.8593C150.039 27.2932 151.824 28 153.911 28L153.911 26C152.319 26 151.063 25.4802 150.066 24.4607L148.636 25.8593ZM170.251 9.64003L170.251 8.64003L169.251 8.64003L169.251 9.64003L170.251 9.64003ZM175.251 9.64003L176.251 9.64003L176.251 8.64003L175.251 8.64003L175.251 9.64003ZM175.251 23.72L174.251 23.72L174.251 26.4701L176.017 24.3624L175.251 23.72ZM187.051 9.64003L187.051 8.64003L186.584 8.64003L186.284 8.99771L187.051 9.64003ZM191.611 9.64003L192.611 9.64003L192.611 8.64003L191.611 8.64003L191.611 9.64003ZM191.611 31L191.611 32L192.611 32L192.611 31L191.611 31ZM186.611 31L185.611 31L185.611 32L186.611 32L186.611 31ZM186.611 16.92L187.611 16.92L187.611 14.1628L185.843 16.279L186.611 16.92ZM174.851 31L174.851 32L175.318 32L175.618 31.6411L174.851 31ZM170.251 31L169.251 31L169.251 32L170.251 32L170.251 31ZM175.651 5.64003L174.98 6.38157L174.989 6.38992L174.998 6.39804L175.651 5.64003ZM173.931 1.24003L173.931 0.24003L172.917 0.24003L172.931 1.25392L173.931 1.24003ZM177.251 1.24003L178.25 1.21226L178.223 0.240031L177.251 0.240031L177.251 1.24003ZM178.131 3.52003L177.424 4.22714L177.432 4.23536L177.44 4.24338L178.131 3.52003ZM182.971 3.52003L182.296 2.78154L182.288 2.78902L182.28 2.79668L182.971 3.52003ZM183.931 1.24003L183.931 0.240032L182.958 0.240032L182.931 1.21226L183.931 1.24003ZM187.331 1.24003L188.331 1.25392L188.345 0.240033L187.331 0.240032L187.331 1.24003ZM185.571 5.64003L186.223 6.39811L186.233 6.38936L185.571 5.64003ZM170.251 10.64L175.251 10.64L175.251 8.64003L170.251 8.64003L170.251 10.64ZM174.251 9.64003L174.251 23.72L176.251 23.72L176.251 9.64003L174.251 9.64003ZM176.017 24.3624L187.817 10.2824L186.284 8.99771L174.484 23.0777L176.017 24.3624ZM187.051 10.64L191.611 10.64L191.611 8.64003L187.051 8.64003L187.051 10.64ZM190.611 9.64003L190.611 31L192.611 31L192.611 9.64003L190.611 9.64003ZM191.611 30L186.611 30L186.611 32L191.611 32L191.611 30ZM187.611 31L187.611 16.92L185.611 16.92L185.611 31L187.611 31ZM185.843 16.279L174.083 30.359L175.618 31.6411L187.378 17.5611L185.843 16.279ZM174.851 30L170.251 30L170.251 32L174.851 32L174.851 30ZM171.251 31L171.251 9.64003L169.251 9.64003L169.251 31L171.251 31ZM180.611 6.12003C178.589 6.12003 177.204 5.65737 176.303 4.88202L174.998 6.39804C176.391 7.59603 178.312 8.12003 180.611 8.12003L180.611 6.12003ZM176.322 4.8985C175.46 4.11916 174.954 2.94849 174.931 1.22614L172.931 1.25392C172.96 3.37157 173.601 5.13423 174.98 6.38157L176.322 4.8985ZM173.931 2.24003L177.251 2.24003L177.251 0.240031L173.931 0.24003L173.931 2.24003ZM176.251 1.2678C176.283 2.42584 176.646 3.44947 177.424 4.22714L178.838 2.81292C178.495 2.47059 178.271 1.97423 178.25 1.21226L176.251 1.2678ZM177.44 4.24338C178.261 5.02701 179.349 5.36003 180.571 5.36003L180.571 3.36003C179.712 3.36003 179.173 3.13305 178.821 2.79668L177.44 4.24338ZM180.571 5.36003C181.774 5.36003 182.845 5.02254 183.661 4.24339L182.28 2.79668C181.923 3.13753 181.394 3.36003 180.571 3.36003L180.571 5.36003ZM183.645 4.25852C184.49 3.4866 184.897 2.45287 184.93 1.2678L182.931 1.21226C182.911 1.9472 182.678 2.43346 182.296 2.78154L183.645 4.25852ZM183.931 2.24003L187.331 2.24003L187.331 0.240032L183.931 0.240032L183.931 2.24003ZM186.331 1.22614C186.307 2.94128 185.792 4.10948 184.908 4.8907L186.233 6.38936C187.642 5.14392 188.301 3.37878 188.331 1.25392L186.331 1.22614ZM184.918 4.88202C184.017 5.65737 182.632 6.12003 180.611 6.12003L180.611 8.12003C182.909 8.12003 184.831 7.59603 186.223 6.39804L184.918 4.88202Z" fill="white" fill-opacity="0.3"/>
</svg>
