<svg width="56" height="347" viewBox="0 0 56 347" fill="none" xmlns="http://www.w3.org/2000/svg">
<path d="M39.38 40.76L39.38 41.76L40.38 41.76L40.38 40.76L39.38 40.76ZM2 40.76L0.999998 40.76L0.999998 41.76L2 41.76L2 40.76ZM2 32.01L2 31.01L0.999999 31.01L0.999999 32.01L2 32.01ZM31.96 32.01L31.96 33.01L32.96 33.01L32.96 32.01L31.96 32.01ZM31.96 18.01L32.96 18.01L32.96 17.0561L32.0071 17.0111L31.96 18.01ZM24.54 17.66L24.5871 16.6611L24.54 17.66ZM12.08 16.26L12.284 15.281L12.2735 15.2789L12.08 16.26ZM4.17 12.83L4.81019 12.0618L4.80833 12.0602L4.17 12.83ZM2.07 1.42L2.12705 0.421626L1.31494 0.375219L1.10416 1.16087L2.07 1.42ZM9.42 1.84L10.3978 2.04953L10.6424 0.908216L9.47705 0.841626L9.42 1.84ZM11.31 7.51L10.7749 8.35482L10.7812 8.35875L10.7874 8.3626L11.31 7.51ZM16.42 9.19L16.5582 8.19959L16.5482 8.1982L16.5382 8.19701L16.42 9.19ZM24.96 9.89L24.9094 10.8887L24.9164 10.889L24.96 9.89ZM39.38 10.52L40.38 10.52L40.38 9.56273L39.4237 9.52095L39.38 10.52ZM39.38 39.76L2 39.76L2 41.76L39.38 41.76L39.38 39.76ZM3 40.76L3 32.01L0.999999 32.01L0.999998 40.76L3 40.76ZM2 33.01L31.96 33.01L31.96 31.01L2 31.01L2 33.01ZM32.96 32.01L32.96 18.01L30.96 18.01L30.96 32.01L32.96 32.01ZM32.0071 17.0111L24.5871 16.6611L24.4929 18.6589L31.9129 19.0089L32.0071 17.0111ZM24.5871 16.6611C19.6722 16.4293 15.5752 15.9667 12.284 15.281L11.876 17.239C15.3048 17.9533 19.5144 18.4241 24.4929 18.6589L24.5871 16.6611ZM12.2735 15.2789C9.07318 14.6478 6.6065 13.5587 4.81018 12.0618L3.52982 13.5982C5.6535 15.368 8.46015 16.5655 11.8865 17.2411L12.2735 15.2789ZM4.80833 12.0602C3.15483 10.689 2.3 8.79475 2.3 6.25L0.300003 6.25C0.300003 9.30524 1.3585 11.7976 3.53166 13.5998L4.80833 12.0602ZM2.3 6.25C2.3 5.06345 2.5348 3.54665 3.03584 1.67913L1.10416 1.16087C0.578537 3.12001 0.300003 4.82321 0.300003 6.25L2.3 6.25ZM2.01295 2.41837L9.36295 2.83837L9.47705 0.841626L2.12705 0.421626L2.01295 2.41837ZM8.4422 1.63047C8.29319 2.32582 8.21 2.95992 8.21 3.52L10.21 3.52C10.21 3.14674 10.2668 2.66084 10.3978 2.04953L8.4422 1.63047ZM8.21 3.52C8.21 5.60716 9.0619 7.26989 10.7749 8.35482L11.8451 6.66518C10.7581 5.97677 10.21 4.9795 10.21 3.52L8.21 3.52ZM10.7874 8.3626C12.3757 9.33605 14.2217 9.93536 16.3018 10.183L16.5382 8.19701C14.6983 7.97797 13.1376 7.45728 11.8326 6.6574L10.7874 8.3626ZM16.2818 10.1804C18.332 10.4665 21.213 10.7016 24.9094 10.8887L25.0106 8.89128C21.3336 8.7051 18.5213 8.47351 16.5582 8.19959L16.2818 10.1804ZM24.9164 10.889L39.3364 11.519L39.4237 9.52095L25.0036 8.89095L24.9164 10.889ZM38.38 10.52L38.38 40.76L40.38 40.76L40.38 10.52L38.38 10.52ZM17.89 87.4041L16.89 87.4041L16.89 88.3242L17.8069 88.4006L17.89 87.4041ZM17.89 58.0741L18.89 58.0741L18.89 56.8704L17.7067 57.091L17.89 58.0741ZM11.31 62.0641L10.5142 61.4585L10.5069 61.4682L10.4998 61.4779L11.31 62.0641ZM12.99 80.3341L13.6464 81.0885L14.4621 80.3787L13.6909 79.6208L12.99 80.3341ZM7.6 85.0241L6.95806 85.7908L7.61251 86.3387L8.25642 85.7785L7.6 85.0241ZM3.05 78.6541L3.97847 78.2827L3.05 78.6541ZM3.96 59.1241L3.07365 58.661L3.96 59.1241ZM10.75 51.8441L10.2539 50.9758L10.2457 50.9805L10.2375 50.9853L10.75 51.8441ZM30.49 51.7741L30.9861 50.9058L30.9816 50.9032L30.49 51.7741ZM37.35 58.7041L36.4758 59.1897L37.35 58.7041ZM37.35 78.3741L36.4826 77.8764L36.4778 77.8848L36.4732 77.8932L37.35 78.3741ZM30.56 85.0941L30.0851 84.214L30.0767 84.2186L30.0684 84.2232L30.56 85.0941ZM30.28 61.5041L29.5194 62.1533L29.5207 62.1549L30.28 61.5041ZM23.7 58.0041L23.8508 57.0155L22.7 56.8399L22.7 58.0041L23.7 58.0041ZM23.7 79.2141L22.7 79.2141L22.7 80.3615L23.8366 80.2047L23.7 79.2141ZM30.28 75.7841L29.5286 75.1243L30.28 75.7841ZM20.48 86.5441C19.9152 86.5441 19.0844 86.5001 17.973 86.4075L17.8069 88.4006C18.9356 88.4947 19.8315 88.5441 20.48 88.5441L20.48 86.5441ZM18.89 87.4041L18.89 58.0741L16.89 58.0741L16.89 87.4041L18.89 87.4041ZM17.7067 57.091C14.7197 57.6479 12.304 59.1062 10.5142 61.4585L12.1058 62.6696C13.5827 60.7286 15.5536 59.5269 18.0733 59.0571L17.7067 57.091ZM10.4998 61.4779C8.76773 63.8722 7.93 66.7945 7.93 70.1841L9.93 70.1841C9.93 67.1336 10.6789 64.6426 12.1202 62.6502L10.4998 61.4779ZM7.93 70.1841C7.93 74.5346 9.37437 78.1829 12.2891 81.0473L13.6909 79.6208C11.1923 77.1653 9.93 74.0469 9.93 70.1841L7.93 70.1841ZM12.3336 79.5797L6.94358 84.2697L8.25642 85.7785L13.6464 81.0885L12.3336 79.5797ZM8.24193 84.2573C6.36915 82.6894 4.94733 80.7048 3.97847 78.2827L2.12152 79.0254C3.206 81.7366 4.81751 83.9987 6.95806 85.7908L8.24193 84.2573ZM3.97847 78.2827C3.00617 75.8519 2.51 73.0875 2.51 69.9741L0.509999 69.9741C0.509999 73.3006 1.04049 76.3229 2.12152 79.0254L3.97847 78.2827ZM2.51 69.9741C2.51 66.0021 3.29905 62.549 4.84635 59.5871L3.07365 58.661C1.35427 61.9524 0.509999 65.7327 0.509999 69.9741L2.51 69.9741ZM4.84635 59.5871C6.39825 56.6163 8.53558 54.3301 11.2625 52.7028L10.2375 50.9853C7.17775 52.8114 4.78841 55.3785 3.07365 58.661L4.84635 59.5871ZM11.2461 52.7123C14.0218 51.1262 17.1615 50.3241 20.69 50.3241L20.69 48.3241C16.8452 48.3241 13.3582 49.2019 10.2539 50.9758L11.2461 52.7123ZM20.69 50.3241C24.1746 50.3241 27.2691 51.1042 29.9984 52.6449L30.9816 50.9032C27.9242 49.1773 24.4854 48.3241 20.69 48.3241L20.69 50.3241ZM29.9939 52.6423C32.7764 54.2323 34.9318 56.4105 36.4758 59.1897L38.2242 58.2184C36.5015 55.1176 34.0836 52.6758 30.9861 50.9058L29.9939 52.6423ZM36.4758 59.1897C38.0189 61.9672 38.8 65.1106 38.8 68.6441L40.8 68.6441C40.8 64.8042 39.9478 61.321 38.2242 58.2184L36.4758 59.1897ZM38.8 68.6441C38.8 72.129 38.0198 75.1973 36.4826 77.8764L38.2174 78.8717C39.9468 75.8575 40.8 72.4392 40.8 68.6441L38.8 68.6441ZM36.4732 77.8932C34.9804 80.6153 32.8577 82.7177 30.0851 84.214L31.0349 85.9741C34.1423 84.2971 36.5462 81.9195 38.2268 78.8549L36.4732 77.8932ZM30.0684 84.2232C27.3465 85.7598 24.1609 86.5441 20.48 86.5441L20.48 88.5441C24.4525 88.5441 27.9868 87.695 31.0516 85.9649L30.0684 84.2232ZM33.8 68.6441C33.8 65.6271 32.8882 63.0104 31.0393 60.8533L29.5207 62.1549C31.0318 63.9177 31.8 66.061 31.8 68.6441L33.8 68.6441ZM31.0406 60.8548C29.2343 58.7389 26.8142 57.4675 23.8508 57.0155L23.5492 58.9926C26.0924 59.3806 28.0591 60.4426 29.5194 62.1533L31.0406 60.8548ZM22.7 58.0041L22.7 79.2141L24.7 79.2141L24.7 58.0041L22.7 58.0041ZM23.8366 80.2047C26.7625 79.8011 29.1808 78.5515 31.0314 76.4439L29.5286 75.1243C28.0192 76.8433 26.0508 77.8803 23.5634 78.2234L23.8366 80.2047ZM31.0314 76.4439C32.8908 74.3262 33.8 71.7028 33.8 68.6441L31.8 68.6441C31.8 71.2786 31.0292 73.4152 29.5286 75.1243L31.0314 76.4439ZM31.96 125.814L30.96 125.814L30.96 126.814L31.96 126.814L31.96 125.814ZM31.96 105.864L32.96 105.864L32.96 104.864L31.96 104.864L31.96 105.864ZM2 105.864L0.999995 105.864L0.999995 106.864L2 106.864L2 105.864ZM2 97.1144L2 96.1144L0.999996 96.1144L0.999996 97.1144L2 97.1144ZM39.38 97.1144L40.38 97.1144L40.38 96.1144L39.38 96.1144L39.38 97.1144ZM39.38 125.814L39.38 126.814L40.38 126.814L40.38 125.814L39.38 125.814ZM32.96 125.814L32.96 105.864L30.96 105.864L30.96 125.814L32.96 125.814ZM31.96 104.864L2 104.864L2 106.864L31.96 106.864L31.96 104.864ZM3 105.864L3 97.1144L0.999996 97.1144L0.999995 105.864L3 105.864ZM2 98.1144L39.38 98.1144L39.38 96.1144L2 96.1144L2 98.1144ZM38.38 97.1144L38.38 125.814L40.38 125.814L40.38 97.1144L38.38 97.1144ZM39.38 124.814L31.96 124.814L31.96 126.814L39.38 126.814L39.38 124.814ZM16.98 147.723L17.5812 148.522L17.98 148.222L17.98 147.723L16.98 147.723ZM16.98 140.933L17.98 140.933L17.98 139.933L16.98 139.933L16.98 140.933ZM1.99999 140.933L0.999994 140.933L0.999994 141.933L1.99999 141.933L1.99999 140.933ZM1.99999 132.183L1.99999 131.183L0.999994 131.183L0.999994 132.183L1.99999 132.183ZM39.38 132.183L40.38 132.183L40.38 131.183L39.38 131.183L39.38 132.183ZM39.38 140.933L39.38 141.933L40.38 141.933L40.38 140.933L39.38 140.933ZM24.26 140.933L24.26 139.933L23.26 139.933L23.26 140.933L24.26 140.933ZM24.26 147.933L23.26 147.933L23.26 148.44L23.6696 148.74L24.26 147.933ZM39.38 158.993L40.38 158.993L40.38 158.485L39.9704 158.186L39.38 158.993ZM39.38 168.373L38.7775 169.171L40.38 170.381L40.38 168.373L39.38 168.373ZM21.39 154.793L21.9925 153.995L21.393 153.542L20.7914 153.992L21.39 154.793ZM1.99999 169.283L0.999993 169.283L0.999993 171.278L2.5986 170.084L1.99999 169.283ZM1.99999 158.993L1.3988 158.194L0.999993 158.494L0.999993 158.993L1.99999 158.993ZM17.98 147.723L17.98 140.933L15.98 140.933L15.98 147.723L17.98 147.723ZM16.98 139.933L1.99999 139.933L1.99999 141.933L16.98 141.933L16.98 139.933ZM2.99999 140.933L2.99999 132.183L0.999994 132.183L0.999994 140.933L2.99999 140.933ZM1.99999 133.183L39.38 133.183L39.38 131.183L1.99999 131.183L1.99999 133.183ZM38.38 132.183L38.38 140.933L40.38 140.933L40.38 132.183L38.38 132.183ZM39.38 139.933L24.26 139.933L24.26 141.933L39.38 141.933L39.38 139.933ZM23.26 140.933L23.26 147.933L25.26 147.933L25.26 140.933L23.26 140.933ZM23.6696 148.74L38.7896 159.8L39.9704 158.186L24.8504 147.126L23.6696 148.74ZM38.38 158.993L38.38 168.373L40.38 168.373L40.38 158.993L38.38 158.993ZM39.9825 167.575L21.9925 153.995L20.7875 155.591L38.7775 169.171L39.9825 167.575ZM20.7914 153.992L1.40138 168.482L2.5986 170.084L21.9886 155.594L20.7914 153.992ZM2.99999 169.283L2.99999 158.993L0.999993 158.993L0.999993 169.283L2.99999 169.283ZM2.60119 159.792L17.5812 148.522L16.3788 146.924L1.3988 158.194L2.60119 159.792ZM3.95999 180.664L4.84046 181.138L3.95999 180.664ZM10.75 173.524L10.2539 172.655L10.2456 172.66L10.2375 172.665L10.75 173.524ZM30.56 173.524L31.0725 172.665L31.0621 172.659L30.56 173.524ZM37.35 180.664L36.4695 181.138L37.35 180.664ZM37.35 201.174L36.4695 200.7L37.35 201.174ZM30.56 208.244L30.0578 207.379L30.0475 207.385L30.56 208.244ZM10.75 208.244L11.2564 207.381L11.2521 207.379L10.75 208.244ZM3.95999 201.174L4.84046 200.7L3.95999 201.174ZM12.22 198.864L12.9193 198.149L12.22 198.864ZM29.16 198.864L28.4607 198.149L28.4607 198.149L29.16 198.864ZM29.16 182.904L29.8593 182.189L29.8512 182.181L29.16 182.904ZM12.22 182.904L11.5287 182.181L11.5207 182.189L12.22 182.904ZM2.50999 190.884C2.50999 187.253 3.29303 184.012 4.84046 181.138L3.07952 180.19C1.36029 183.383 0.509994 186.955 0.509994 190.884L2.50999 190.884ZM4.84046 181.138C6.39015 178.26 8.52791 176.014 11.2625 174.382L10.2375 172.665C7.18541 174.486 4.7965 177.001 3.07952 180.19L4.84046 181.138ZM11.2461 174.392C14.0218 172.806 17.1615 172.004 20.69 172.004L20.69 170.004C16.8452 170.004 13.3582 170.882 10.2539 172.655L11.2461 174.392ZM20.69 172.004C24.2188 172.004 27.3323 172.806 30.0579 174.389L31.0621 172.659C28.0011 170.882 24.5346 170.004 20.69 170.004L20.69 172.004ZM30.0475 174.382C32.7821 176.014 34.9198 178.26 36.4695 181.138L38.2305 180.19C36.5135 177.001 34.1246 174.486 31.0725 172.665L30.0475 174.382ZM36.4695 181.138C38.017 184.012 38.8 187.253 38.8 190.884L40.8 190.884C40.8 186.955 39.9497 183.383 38.2305 180.19L36.4695 181.138ZM38.8 190.884C38.8 194.564 38.016 197.828 36.4695 200.7L38.2305 201.648C39.9507 198.453 40.8 194.857 40.8 190.884L38.8 190.884ZM36.4695 200.7C34.921 203.575 32.7865 205.795 30.0579 207.379L31.0621 209.109C34.1202 207.333 36.5123 204.839 38.2305 201.648L36.4695 200.7ZM30.0475 207.385C27.3235 209.011 24.2138 209.834 20.69 209.834L20.69 211.834C24.5396 211.834 28.0098 210.93 31.0725 209.102L30.0475 207.385ZM20.69 209.834C17.1664 209.834 14.0305 209.011 11.2564 207.381L10.2436 209.106C13.3495 210.93 16.8402 211.834 20.69 211.834L20.69 209.834ZM11.2521 207.379C8.5235 205.795 6.38894 203.575 4.84046 200.7L3.07952 201.648C4.79771 204.839 7.18982 207.333 10.2479 209.109L11.2521 207.379ZM4.84046 200.7C3.29398 197.828 2.50999 194.564 2.50999 190.884L0.509994 190.884C0.509994 194.857 1.35933 198.453 3.07952 201.648L4.84046 200.7ZM7.99999 190.884C7.99999 194.351 9.16682 197.276 11.5207 199.579L12.9193 198.149C10.9798 196.252 9.99999 193.856 9.99999 190.884L7.99999 190.884ZM11.5207 199.579C13.8851 201.892 16.9751 203.014 20.69 203.014L20.69 201.014C17.4048 201.014 14.8483 200.036 12.9193 198.149L11.5207 199.579ZM20.69 203.014C24.4048 203.014 27.4949 201.892 29.8593 199.579L28.4607 198.149C26.5317 200.036 23.9751 201.014 20.69 201.014L20.69 203.014ZM29.8593 199.579C32.2132 197.276 33.38 194.351 33.38 190.884L31.38 190.884C31.38 193.856 30.4002 196.252 28.4607 198.149L29.8593 199.579ZM33.38 190.884C33.38 187.416 32.2132 184.492 29.8593 182.189L28.4607 183.619C30.4002 185.516 31.38 187.911 31.38 190.884L33.38 190.884ZM29.8512 182.181C27.4858 179.919 24.3984 178.824 20.69 178.824L20.69 180.824C23.9815 180.824 26.5409 181.782 28.4688 183.626L29.8512 182.181ZM20.69 178.824C16.9815 178.824 13.8942 179.919 11.5288 182.181L12.9112 183.626C14.8391 181.782 17.3984 180.824 20.69 180.824L20.69 178.824ZM11.5207 182.189C9.16682 184.492 7.99999 187.416 7.99999 190.884L9.99999 190.884C9.99999 187.911 10.9798 185.516 12.9193 183.619L11.5207 182.189ZM21.46 246.568L22.3767 246.168L21.291 243.677L20.503 246.278L21.46 246.568ZM1.99999 219.478L1.99999 218.478L0.99999 218.478L0.99999 219.478L1.99999 219.478ZM39.38 219.478L40.38 219.478L40.38 218.478L39.38 218.478L39.38 219.478ZM36.86 248.458L36.0233 247.91L36.86 248.458ZM24.75 250.768L25.3414 249.961L25.3325 249.955L25.3235 249.948L24.75 250.768ZM23.77 227.808L23.77 226.808L22.77 226.808L22.77 227.808L23.77 227.808ZM33.01 227.808L34.01 227.808L34.01 226.808L33.01 226.808L33.01 227.808ZM16.7 243.348L15.9 242.748L15.8918 242.759L15.884 242.77L16.7 243.348ZM17.96 227.808L18.96 227.808L18.96 226.808L17.96 226.808L17.96 227.808ZM8.36999 227.808L8.36999 226.808L7.36999 226.808L7.36999 227.808L8.36999 227.808ZM20.503 246.278C19.8464 248.444 18.8467 249.978 17.5582 250.974C16.2746 251.967 14.6134 252.498 12.5 252.498L12.5 254.498C14.96 254.498 17.0787 253.873 18.7818 252.556C20.48 251.243 21.6736 249.311 22.417 246.858L20.503 246.278ZM12.5 252.498C9.43075 252.498 7.15558 251.368 5.54067 249.132L3.91931 250.303C5.9444 253.107 8.84923 254.498 12.5 254.498L12.5 252.498ZM5.54067 249.132C3.89724 246.857 2.99999 243.369 2.99999 238.518L0.99999 238.518C0.999989 243.56 1.92273 247.539 3.91931 250.303L5.54067 249.132ZM2.99999 238.518L2.99999 219.478L0.99999 219.478L0.99999 238.518L2.99999 238.518ZM1.99999 220.478L39.38 220.478L39.38 218.478L1.99999 218.478L1.99999 220.478ZM38.38 219.478L38.38 237.748L40.38 237.748L40.38 219.478L38.38 219.478ZM38.38 237.748C38.38 242.216 37.5564 245.568 36.0233 247.91L37.6967 249.005C39.5235 246.214 40.38 242.426 40.38 237.748L38.38 237.748ZM36.0233 247.91C34.5289 250.193 32.4643 251.308 29.72 251.308L29.72 253.308C33.1357 253.308 35.831 251.856 37.6967 249.005L36.0233 247.91ZM29.72 251.308C27.9965 251.308 26.5523 250.849 25.3414 249.961L24.1586 251.574C25.7477 252.739 27.6168 253.308 29.72 253.308L29.72 251.308ZM25.3235 249.948C24.0973 249.09 23.1085 247.847 22.3767 246.168L20.5433 246.967C21.3981 248.928 22.6026 250.485 24.1765 251.587L25.3235 249.948ZM22.77 227.808L22.77 236.978L24.77 236.978L24.77 227.808L22.77 227.808ZM22.77 236.978C22.77 239.325 23.1697 241.263 24.1197 242.638C25.1158 244.081 26.6202 244.768 28.46 244.768L28.46 242.768C27.1731 242.768 26.3325 242.323 25.7653 241.502C25.1519 240.614 24.77 239.157 24.77 236.978L22.77 236.978ZM28.46 244.768C30.2658 244.768 31.7358 244.071 32.7032 242.627C33.6231 241.254 34.01 239.321 34.01 236.978L32.01 236.978C32.01 239.161 31.6385 240.623 31.0418 241.513C30.4925 242.333 29.6875 242.768 28.46 242.768L28.46 244.768ZM34.01 236.978L34.01 227.808L32.01 227.808L32.01 236.978L34.01 236.978ZM33.01 226.808L23.77 226.808L23.77 228.808L33.01 228.808L33.01 226.808ZM7.36999 237.818C7.36999 240.297 7.76747 242.33 8.70423 243.77C9.6894 245.285 11.1947 246.028 13.06 246.028L13.06 244.028C11.7986 244.028 10.9589 243.569 10.3807 242.68C9.75418 241.717 9.36999 240.145 9.36999 237.818L7.36999 237.818ZM13.06 246.028C14.9475 246.028 16.498 245.363 17.516 243.926L15.884 242.77C15.3153 243.572 14.4392 244.028 13.06 244.028L13.06 246.028ZM17.5 243.948C18.533 242.57 18.96 240.557 18.96 238.098L16.96 238.098C16.96 240.398 16.547 241.885 15.9 242.748L17.5 243.948ZM18.96 238.098L18.96 227.808L16.96 227.808L16.96 238.098L18.96 238.098ZM17.96 226.808L8.36999 226.808L8.36999 228.808L17.96 228.808L17.96 226.808ZM7.36999 227.808L7.36999 237.818L9.36999 237.818L9.36999 227.808L7.36999 227.808ZM3.95999 269.258L4.84046 269.732L3.95999 269.258ZM10.75 262.117L10.2538 261.249L10.2456 261.254L10.2375 261.259L10.75 262.117ZM30.56 262.117L31.0725 261.259L31.0621 261.253L30.56 262.117ZM37.35 269.258L36.4695 269.732L37.35 269.258ZM37.35 289.767L36.4695 289.293L37.35 289.767ZM30.56 296.837L30.0578 295.973L30.0475 295.979L30.56 296.837ZM10.75 296.837L11.2564 295.975L11.2521 295.973L10.75 296.837ZM3.95999 289.767L4.84046 289.293L3.95999 289.767ZM12.22 287.457L12.9193 286.743L12.22 287.457ZM29.16 287.457L28.4607 286.743L28.4607 286.743L29.16 287.457ZM29.16 271.497L29.8593 270.783L29.8512 270.775L29.16 271.497ZM12.22 271.497L11.5287 270.775L11.5207 270.783L12.22 271.497ZM2.50999 279.478C2.50999 275.847 3.29303 272.605 4.84046 269.732L3.07952 268.783C1.36029 271.976 0.50999 275.548 0.50999 279.478L2.50999 279.478ZM4.84046 269.732C6.39015 266.854 8.5279 264.608 11.2624 262.976L10.2375 261.259C7.18541 263.08 4.7965 265.595 3.07952 268.783L4.84046 269.732ZM11.2461 262.986C14.0218 261.4 17.1615 260.598 20.69 260.598L20.69 258.598C16.8452 258.598 13.3582 259.475 10.2538 261.249L11.2461 262.986ZM20.69 260.598C24.2187 260.598 27.3323 261.4 30.0579 262.982L31.0621 261.253C28.0011 259.475 24.5346 258.598 20.69 258.598L20.69 260.598ZM30.0475 262.976C32.7821 264.608 34.9198 266.854 36.4695 269.732L38.2305 268.783C36.5135 265.595 34.1246 263.08 31.0724 261.259L30.0475 262.976ZM36.4695 269.732C38.017 272.605 38.8 275.847 38.8 279.478L40.8 279.478C40.8 275.548 39.9497 271.976 38.2305 268.783L36.4695 269.732ZM38.8 279.478C38.8 283.157 38.016 286.421 36.4695 289.293L38.2305 290.242C39.9506 287.047 40.8 283.451 40.8 279.478L38.8 279.478ZM36.4695 289.293C34.921 292.169 32.7865 294.388 30.0579 295.973L31.0621 297.702C34.1202 295.927 36.5123 293.433 38.2305 290.242L36.4695 289.293ZM30.0475 295.979C27.3235 297.604 24.2137 298.427 20.69 298.427L20.69 300.427C24.5396 300.427 28.0098 299.524 31.0724 297.696L30.0475 295.979ZM20.69 298.427C17.1664 298.427 14.0305 297.604 11.2564 295.975L10.2436 297.7C13.3495 299.524 16.8402 300.427 20.69 300.427L20.69 298.427ZM11.2521 295.973C8.52349 294.388 6.38893 292.169 4.84046 289.293L3.07952 290.242C4.79771 293.433 7.18981 295.927 10.2479 297.702L11.2521 295.973ZM4.84046 289.293C3.29398 286.421 2.50999 283.157 2.50999 279.478L0.50999 279.478C0.50999 283.451 1.35932 287.047 3.07952 290.242L4.84046 289.293ZM7.99999 279.478C7.99999 282.945 9.16682 285.87 11.5207 288.172L12.9193 286.743C10.9798 284.845 9.99999 282.45 9.99999 279.478L7.99999 279.478ZM11.5207 288.172C13.8851 290.485 16.9751 291.608 20.69 291.608L20.69 289.608C17.4048 289.608 14.8482 288.63 12.9193 286.743L11.5207 288.172ZM20.69 291.608C24.4048 291.608 27.4949 290.485 29.8593 288.172L28.4607 286.743C26.5317 288.63 23.9751 289.608 20.69 289.608L20.69 291.608ZM29.8593 288.172C32.2132 285.87 33.38 282.945 33.38 279.478L31.38 279.478C31.38 282.45 30.4002 284.845 28.4607 286.743L29.8593 288.172ZM33.38 279.478C33.38 276.01 32.2132 273.085 29.8593 270.783L28.4607 272.212C30.4002 274.11 31.38 276.505 31.38 279.478L33.38 279.478ZM29.8512 270.775C27.4858 268.512 24.3984 267.418 20.69 267.418L20.69 269.418C23.9815 269.418 26.5409 270.376 28.4688 272.22L29.8512 270.775ZM20.69 267.418C16.9815 267.418 13.8942 268.512 11.5288 270.775L12.9112 272.22C14.8391 270.376 17.3984 269.418 20.69 269.418L20.69 267.418ZM11.5207 270.783C9.16682 273.085 7.99999 276.01 7.99999 279.478L9.99999 279.478C9.99999 276.505 10.9798 274.11 12.9193 272.212L11.5207 270.783ZM39.38 308.071L40.38 308.071L40.38 307.071L39.38 307.071L39.38 308.071ZM39.38 316.821L39.38 317.821L40.38 317.821L40.38 316.821L39.38 316.821ZM14.74 316.821L14.74 315.821L11.9899 315.821L14.0977 317.588L14.74 316.821ZM39.38 337.471L40.38 337.471L40.38 337.005L40.0223 336.705L39.38 337.471ZM39.38 345.451L39.38 346.451L40.38 346.451L40.38 345.451L39.38 345.451ZM1.99998 345.451L0.999985 345.451L0.999985 346.451L1.99998 346.451L1.99998 345.451ZM1.99999 336.701L1.99999 335.701L0.999985 335.701L0.999985 336.701L1.99999 336.701ZM26.64 336.701L26.64 337.701L29.3972 337.701L27.281 335.934L26.64 336.701ZM1.99999 316.121L0.999986 316.121L0.999986 316.589L1.35894 316.889L1.99999 316.121ZM1.99999 308.071L1.99999 307.071L0.999987 307.071L0.999987 308.071L1.99999 308.071ZM46.38 317.521L45.6385 316.85L45.6301 316.86L45.622 316.869L46.38 317.521ZM54.08 314.511L55.08 314.511L55.08 313.497L54.0661 313.512L54.08 314.511ZM54.08 320.321L54.1078 321.321L55.08 321.294L55.08 320.321L54.08 320.321ZM50.09 321.861L49.3829 321.154L49.3747 321.163L49.3666 321.171L50.09 321.861ZM50.09 330.331L50.8285 329.657L50.821 329.649L50.8133 329.641L50.09 330.331ZM54.08 332.011L55.08 332.011L55.08 331.039L54.1078 331.012L54.08 332.011ZM54.08 337.961L54.0661 338.961L55.08 338.975L55.08 337.961L54.08 337.961ZM46.38 334.881L45.6219 335.534L45.6307 335.544L46.38 334.881ZM38.38 308.071L38.38 316.821L40.38 316.821L40.38 308.071L38.38 308.071ZM39.38 315.821L14.74 315.821L14.74 317.821L39.38 317.821L39.38 315.821ZM14.0977 317.588L38.7377 338.238L40.0223 336.705L15.3823 316.055L14.0977 317.588ZM38.38 337.471L38.38 345.451L40.38 345.451L40.38 337.471L38.38 337.471ZM39.38 344.451L1.99998 344.451L1.99998 346.451L39.38 346.451L39.38 344.451ZM2.99998 345.451L2.99999 336.701L0.999985 336.701L0.999985 345.451L2.99998 345.451ZM1.99999 337.701L26.64 337.701L26.64 335.701L1.99999 335.701L1.99999 337.701ZM27.281 335.934L2.64103 315.354L1.35894 316.889L25.9989 337.469L27.281 335.934ZM2.99999 316.121L2.99999 308.071L0.999987 308.071L0.999986 316.121L2.99999 316.121ZM1.99999 309.071L39.38 309.071L39.38 307.071L1.99999 307.071L1.99999 309.071ZM44.79 326.201C44.79 322.56 45.6227 319.935 47.138 318.174L45.622 316.869C43.684 319.121 42.79 322.283 42.79 326.201L44.79 326.201ZM47.1215 318.192C48.6609 316.491 50.9315 315.555 54.0939 315.511L54.0661 313.512C50.5084 313.561 47.6458 314.632 45.6385 316.85L47.1215 318.192ZM53.08 314.511L53.08 320.321L55.08 320.321L55.08 314.511L53.08 314.511ZM54.0522 319.322C52.1742 319.374 50.5805 319.957 49.3829 321.154L50.7971 322.569C51.5594 321.806 52.6258 321.362 54.1078 321.321L54.0522 319.322ZM49.3666 321.171C48.163 322.432 47.62 324.13 47.62 326.131L49.62 326.131C49.62 324.493 50.057 323.344 50.8133 322.552L49.3666 321.171ZM47.62 326.131C47.62 328.095 48.1675 329.766 49.3666 331.022L50.8133 329.641C50.0525 328.844 49.62 327.715 49.62 326.131L47.62 326.131ZM49.3515 331.006C50.5434 332.311 52.1472 332.958 54.0522 333.011L54.1078 331.012C52.6528 330.971 51.5966 330.498 50.8285 329.657L49.3515 331.006ZM53.08 332.011L53.08 337.961L55.08 337.961L55.08 332.011L53.08 332.011ZM54.0939 336.962C50.9387 336.918 48.6705 335.963 47.1293 334.219L45.6307 335.544C47.6361 337.813 50.5012 338.912 54.0661 338.961L54.0939 336.962ZM47.138 334.229C45.6227 332.468 44.79 329.843 44.79 326.201L42.79 326.201C42.79 330.12 43.684 333.281 45.622 335.534L47.138 334.229Z" fill="white" fill-opacity="0.3"/>
</svg>
