<svg width="121" height="59" viewBox="0 0 121 59" fill="none" xmlns="http://www.w3.org/2000/svg">
<path d="M21.82 1.48V0.479996H21.1107L20.8762 1.14938L21.82 1.48ZM30.16 1.48L31.1038 1.81061L31.5699 0.479996H30.16V1.48ZM10.36 58V59H11.0693L11.3038 58.3306L10.36 58ZM2.02 58L1.07624 57.6694L0.610095 59H2.02V58ZM21.82 2.48H30.16V0.479996H21.82V2.48ZM29.2162 1.14938L9.41624 57.6694L11.3038 58.3306L31.1038 1.81061L29.2162 1.14938ZM10.36 57H2.02V59H10.36V57ZM2.96376 58.3306L22.7638 1.81061L20.8762 1.14938L1.07624 57.6694L2.96376 58.3306ZM37.3642 50.14L37.8987 49.2948L37.3642 50.14ZM30.9442 42.7L30.0369 43.1205L30.04 43.1272L30.0432 43.1338L30.9442 42.7ZM30.9442 19.36L30.0411 18.9305L30.0389 18.9353L30.9442 19.36ZM37.3642 11.86L37.8987 12.7052L37.3642 11.86ZM55.9642 11.86L55.4298 12.7052L55.9642 11.86ZM62.3242 19.36L61.4169 19.7805L61.42 19.7872L61.4232 19.7938L62.3242 19.36ZM62.3242 42.7L61.4211 42.2705L61.4189 42.2753L62.3242 42.7ZM55.9642 50.14L55.4298 49.2948L55.9642 50.14ZM52.6642 41.2L51.8344 40.6418L51.8275 40.6523L52.6642 41.2ZM52.6642 20.8L51.8274 21.3477L51.8345 21.3582L52.6642 20.8ZM40.6642 20.8L39.8344 20.2418L39.8275 20.2523L40.6642 20.8ZM40.6642 41.2L39.8274 41.7477L39.8345 41.7582L40.6642 41.2ZM46.6642 51.72C43.3574 51.72 40.4457 50.9054 37.8987 49.2948L36.8298 50.9852C39.7227 52.8146 43.011 53.72 46.6642 53.72V51.72ZM37.8987 49.2948C35.3551 47.6864 33.3338 45.3578 31.8452 42.2662L30.0432 43.1338C31.6746 46.5222 33.9334 49.1536 36.8298 50.9852L37.8987 49.2948ZM31.8515 42.2795C30.4059 39.16 29.6642 35.4101 29.6642 31H27.6642C27.6642 35.6299 28.4426 39.68 30.0369 43.1205L31.8515 42.2795ZM29.6642 31C29.6642 26.5894 30.406 22.8616 31.8495 19.7847L30.0389 18.9353C28.4424 22.3384 27.6642 26.3706 27.6642 31H29.6642ZM31.8473 19.7895C33.3369 16.6575 35.3582 14.3117 37.8987 12.7052L36.8298 11.0148C33.9302 12.8483 31.6716 15.5025 30.0412 18.9305L31.8473 19.7895ZM37.8987 12.7052C40.4457 11.0946 43.3574 10.28 46.6642 10.28V8.28C43.011 8.28 39.7227 9.18544 36.8298 11.0148L37.8987 12.7052ZM46.6642 10.28C49.971 10.28 52.8827 11.0946 55.4298 12.7052L56.4987 11.0148C53.6057 9.18544 50.3174 8.28 46.6642 8.28V10.28ZM55.4298 12.7052C57.9677 14.3101 59.9675 16.6527 61.4169 19.7805L63.2315 18.9395C61.641 15.5073 59.4007 12.8499 56.4987 11.0148L55.4298 12.7052ZM61.4232 19.7938C62.9035 22.8683 63.6642 26.5927 63.6642 31H65.6642C65.6642 26.3673 64.8649 22.3317 63.2252 18.9262L61.4232 19.7938ZM63.6642 31C63.6642 35.4068 62.9037 39.1534 61.4212 42.2705L63.2273 43.1295C64.8647 39.6866 65.6642 35.6332 65.6642 31H63.6642ZM61.4189 42.2753C59.9705 45.3626 57.9709 47.6879 55.4298 49.2948L56.4987 50.9852C59.3976 49.1521 61.6379 46.5174 63.2295 43.1247L61.4189 42.2753ZM55.4298 49.2948C52.8827 50.9054 49.971 51.72 46.6642 51.72V53.72C50.3174 53.72 53.6057 52.8146 56.4987 50.9852L55.4298 49.2948ZM46.6642 45.5C49.5724 45.5 51.8822 44.2207 53.5009 41.7477L51.8275 40.6523C50.5662 42.5793 48.876 43.5 46.6642 43.5V45.5ZM53.4939 41.7582C55.14 39.3114 55.8842 35.6697 55.8842 31H53.8842C53.8842 35.5303 53.1485 38.6886 51.8345 40.6418L53.4939 41.7582ZM55.8842 31C55.8842 26.3303 55.14 22.6886 53.4939 20.2418L51.8345 21.3582C53.1485 23.3114 53.8842 26.4697 53.8842 31H55.8842ZM53.5009 20.2523C51.8822 17.7793 49.5724 16.5 46.6642 16.5V18.5C48.876 18.5 50.5662 19.4207 51.8275 21.3477L53.5009 20.2523ZM46.6642 16.5C43.7912 16.5 41.4887 17.7828 39.8345 20.2418L41.4939 21.3582C42.7997 19.4172 44.4973 18.5 46.6642 18.5V16.5ZM39.8275 20.2523C38.2276 22.6966 37.5042 26.3335 37.5042 31H39.5042C39.5042 26.4665 40.2208 23.3034 41.5009 21.3477L39.8275 20.2523ZM37.5042 31C37.5042 35.6665 38.2276 39.3034 39.8275 41.7477L41.5009 40.6523C40.2208 38.6966 39.5042 35.5335 39.5042 31H37.5042ZM39.8345 41.7582C41.4887 44.2172 43.7912 45.5 46.6642 45.5V43.5C44.4973 43.5 42.7997 42.5828 41.4939 40.6418L39.8345 41.7582ZM96.9269 27.28L97.3675 26.3823L96.9269 27.28ZM102.147 31.9L101.305 32.4391L101.31 32.4468L102.147 31.9ZM101.967 46.12L101.132 45.5689L101.967 46.12ZM96.2069 51.04L96.6298 51.9462L96.6362 51.9431L96.2069 51.04ZM74.3669 47.32L73.6318 47.9979L74.3669 47.32ZM72.0869 19.66L71.2031 19.1921L72.0869 19.66ZM79.5869 11.92L79.1095 11.0413L79.105 11.0438L79.5869 11.92ZM97.2269 10.06L96.9799 11.029L96.9909 11.0318L97.002 11.0344L97.2269 10.06ZM102.507 12.16L103.4 12.6102L103.806 11.8036L103.045 11.3173L102.507 12.16ZM98.9069 19.3L98.3485 20.1296L99.2893 20.7628L99.7998 19.7502L98.9069 19.3ZM82.5869 20.32L83.294 21.0271L82.5869 20.32ZM79.2269 29.38L78.2277 29.3396L78.1244 31.8967L79.934 30.0871L79.2269 29.38ZM92.6669 43.78L92.0199 43.0175L92.0141 43.0224L92.0084 43.0274L92.6669 43.78ZM92.6669 34.66L91.9954 35.401L92.0075 35.4119L92.0199 35.4225L92.6669 34.66ZM82.2869 34.72L82.9358 35.4808L82.9422 35.4754L82.9485 35.4698L82.2869 34.72ZM82.2269 43.72L82.887 42.9688L82.2269 43.72ZM89.6069 26.66C92.1486 26.66 94.4358 27.1711 96.4862 28.1777L97.3675 26.3823C95.0179 25.2289 92.4251 24.66 89.6069 24.66V26.66ZM96.4862 28.1777C98.5276 29.1798 100.126 30.5982 101.305 32.4391L102.989 31.3609C101.607 29.2018 99.7262 27.5402 97.3675 26.3823L96.4862 28.1777ZM101.31 32.4468C102.472 34.2265 103.067 36.3119 103.067 38.74H105.067C105.067 35.9681 104.382 33.4935 102.984 31.3532L101.31 32.4468ZM103.067 38.74C103.067 41.3649 102.414 43.629 101.132 45.5689L102.801 46.6711C104.32 44.371 105.067 41.7151 105.067 38.74H103.067ZM101.132 45.5689C99.8393 47.5271 98.0638 49.0499 95.7775 50.1369L96.6362 51.9431C99.23 50.7101 101.294 48.9529 102.801 46.6711L101.132 45.5689ZM95.784 50.1338C93.5312 51.1851 90.998 51.72 88.1669 51.72V53.72C91.2557 53.72 94.0825 53.1349 96.6298 51.9462L95.784 50.1338ZM88.1669 51.72C82.5054 51.72 78.1951 49.996 75.102 46.6421L73.6318 47.9979C77.1787 51.844 82.0684 53.72 88.1669 53.72V51.72ZM75.102 46.6421C72.0061 43.2851 70.3869 38.4214 70.3869 31.9H68.3869C68.3869 38.7386 70.0876 44.1549 73.6318 47.9979L75.102 46.6421ZM70.3869 31.9C70.3869 27.265 71.263 23.3535 72.9707 20.1279L71.2031 19.1921C69.3107 22.7665 68.3869 27.015 68.3869 31.9H70.3869ZM72.9707 20.1279C74.6845 16.8906 77.0491 14.4571 80.0688 12.7962L79.105 11.0438C75.7247 12.9029 73.0892 15.6294 71.2031 19.1921L72.9707 20.1279ZM80.0642 12.7987C83.137 11.1295 86.7084 10.28 90.8069 10.28V8.28C86.4254 8.28 82.5167 9.19046 79.1095 11.0413L80.0642 12.7987ZM90.8069 10.28C92.9689 10.28 95.0256 10.5309 96.9799 11.029L97.4739 9.09098C95.3482 8.54914 93.1249 8.28 90.8069 8.28V10.28ZM97.002 11.0344C98.9974 11.4949 100.645 12.1573 101.968 13.0027L103.045 11.3173C101.488 10.3227 99.6164 9.58514 97.4517 9.08561L97.002 11.0344ZM101.614 11.7098L98.014 18.8498L99.7998 19.7502L103.4 12.6102L101.614 11.7098ZM99.4653 18.4704C97.1819 16.9336 94.354 16.2 91.0469 16.2V18.2C94.0597 18.2 96.4718 18.8664 98.3485 20.1296L99.4653 18.4704ZM91.0469 16.2C87.2812 16.2 84.1856 17.3071 81.8798 19.6129L83.294 21.0271C85.1482 19.1729 87.6926 18.2 91.0469 18.2V16.2ZM81.8798 19.6129C79.568 21.9247 78.3942 25.2172 78.2277 29.3396L80.2261 29.4204C80.3795 25.6228 81.4458 22.8753 83.294 21.0271L81.8798 19.6129ZM79.934 30.0871C82.1798 27.8413 85.3579 26.66 89.6069 26.66V24.66C84.9758 24.66 81.234 25.9587 78.5198 28.6729L79.934 30.0871ZM87.6269 46.46C89.8928 46.46 91.8247 45.8456 93.3254 44.5326L92.0084 43.0274C90.949 43.9544 89.521 44.46 87.6269 44.46V46.46ZM93.3139 44.5425C94.8839 43.2103 95.6469 41.3976 95.6469 39.22H93.6469C93.6469 40.8824 93.0898 42.1097 92.0199 43.0175L93.3139 44.5425ZM95.6469 39.22C95.6469 37.0424 94.8839 35.2297 93.3139 33.8975L92.0199 35.4225C93.0898 36.3303 93.6469 37.5576 93.6469 39.22H95.6469ZM93.3384 33.919C91.8316 32.5535 89.8504 31.92 87.5069 31.92V33.92C89.4833 33.92 90.9422 34.4465 91.9954 35.401L93.3384 33.919ZM87.5069 31.92C85.1868 31.92 83.1982 32.5823 81.6253 33.9702L82.9485 35.4698C84.0956 34.4577 85.587 33.92 87.5069 33.92V31.92ZM81.6379 33.9592C80.0478 35.3155 79.2469 37.0971 79.2469 39.22H81.2469C81.2469 37.6629 81.806 36.4445 82.9358 35.4808L81.6379 33.9592ZM79.2469 39.22C79.2469 41.3322 80.0194 43.1114 81.5668 44.4712L82.887 42.9688C81.7943 42.0086 81.2469 40.7878 81.2469 39.22H79.2469ZM81.5668 44.4712C83.1181 45.8344 85.1779 46.46 87.6269 46.46V44.46C85.5159 44.46 83.9757 43.9256 82.887 42.9688L81.5668 44.4712ZM109.556 50.8L110.263 50.0929L109.556 50.8ZM109.556 42.46L110.236 43.1928L110.243 43.1864L110.25 43.1798L109.556 42.46ZM117.836 42.46L117.142 43.1798L117.149 43.1864L117.155 43.1928L117.836 42.46ZM117.836 50.8L117.129 50.0929L117.836 50.8ZM113.696 51.48C112.311 51.48 111.188 51.0181 110.263 50.0929L108.849 51.5071C110.164 52.8219 111.801 53.48 113.696 53.48V51.48ZM110.263 50.0929C109.343 49.1727 108.876 48.0326 108.876 46.6H106.876C106.876 48.5274 107.529 50.1873 108.849 51.5071L110.263 50.0929ZM108.876 46.6C108.876 45.1196 109.347 44.0189 110.236 43.1928L108.875 41.7272C107.525 42.9811 106.876 44.6404 106.876 46.6H108.876ZM110.25 43.1798C111.173 42.29 112.299 41.84 113.696 41.84V39.84C111.812 39.84 110.179 40.47 108.862 41.7402L110.25 43.1798ZM113.696 41.84C115.092 41.84 116.219 42.29 117.142 43.1798L118.53 41.7402C117.213 40.47 115.579 39.84 113.696 39.84V41.84ZM117.155 43.1928C118.045 44.0189 118.516 45.1196 118.516 46.6H120.516C120.516 44.6404 119.867 42.9811 118.516 41.7272L117.155 43.1928ZM118.516 46.6C118.516 48.0326 118.049 49.1727 117.129 50.0929L118.543 51.5071C119.863 50.1873 120.516 48.5274 120.516 46.6H118.516ZM117.129 50.0929C116.204 51.0181 115.081 51.48 113.696 51.48V53.48C115.591 53.48 117.228 52.8219 118.543 51.5071L117.129 50.0929Z" fill="#445066" fill-opacity="0.7"/>
</svg>
