<svg width="64" height="366" viewBox="0 0 64 366" fill="none" xmlns="http://www.w3.org/2000/svg">
<path d="M29.46 28.97L30.3767 28.5704L29.291 26.0796L28.503 28.68L29.46 28.97ZM10 1.88L10 0.879998L9 0.879998L9 1.88L10 1.88ZM47.38 1.88L48.38 1.88L48.38 0.879999L47.38 0.879999L47.38 1.88ZM44.86 30.86L44.0233 30.3123L44.86 30.86ZM32.75 33.17L33.3414 32.3636L33.3325 32.3571L33.3235 32.3508L32.75 33.17ZM31.77 10.21L31.77 9.21L30.77 9.21L30.77 10.21L31.77 10.21ZM41.01 10.21L42.01 10.21L42.01 9.21L41.01 9.21L41.01 10.21ZM24.7 25.75L23.9 25.15L23.8918 25.1609L23.884 25.172L24.7 25.75ZM25.96 10.21L26.96 10.21L26.96 9.21L25.96 9.21L25.96 10.21ZM16.37 10.21L16.37 9.21L15.37 9.21L15.37 10.21L16.37 10.21ZM28.503 28.68C27.8464 30.8466 26.8467 32.3799 25.5582 33.3765C24.2746 34.3692 22.6134 34.9 20.5 34.9L20.5 36.9C22.96 36.9 25.0787 36.2758 26.7818 34.9585C28.48 33.6451 29.6736 31.7134 30.417 29.26L28.503 28.68ZM20.5 34.9C17.4308 34.9 15.1556 33.7705 13.5407 31.5345L11.9193 32.7055C13.9444 35.5095 16.8492 36.9 20.5 36.9L20.5 34.9ZM13.5407 31.5345C11.8973 29.259 11 25.7713 11 20.92L9 20.92C9 25.962 9.92274 29.941 11.9193 32.7055L13.5407 31.5345ZM11 20.92L11 1.88L9 1.88L9 20.92L11 20.92ZM10 2.88L47.38 2.88L47.38 0.879999L10 0.879998L10 2.88ZM46.38 1.88L46.38 20.15L48.38 20.15L48.38 1.88L46.38 1.88ZM46.38 20.15C46.38 24.6184 45.5565 27.97 44.0233 30.3123L45.6967 31.4077C47.5235 28.6166 48.38 24.8282 48.38 20.15L46.38 20.15ZM44.0233 30.3123C42.529 32.5954 40.4643 33.71 37.72 33.71L37.72 35.71C41.1357 35.71 43.831 34.258 45.6967 31.4077L44.0233 30.3123ZM37.72 33.71C35.9965 33.71 34.5523 33.2516 33.3414 32.3636L32.1586 33.9764C33.7477 35.1417 35.6168 35.71 37.72 35.71L37.72 33.71ZM33.3235 32.3508C32.0973 31.4925 31.1085 30.2494 30.3767 28.5704L28.5433 29.3696C29.3981 31.3306 30.6027 32.8875 32.1765 33.9892L33.3235 32.3508ZM30.77 10.21L30.77 19.38L32.77 19.38L32.77 10.21L30.77 10.21ZM30.77 19.38C30.77 21.7275 31.1698 23.6655 32.1197 25.0408C33.1159 26.483 34.6202 27.17 36.46 27.17L36.46 25.17C35.1731 25.17 34.3325 24.7253 33.7653 23.9042C33.1519 23.0161 32.77 21.5592 32.77 19.38L30.77 19.38ZM36.46 27.17C38.2658 27.17 39.7358 26.4729 40.7032 25.0292C41.6231 23.6564 42.01 21.7235 42.01 19.38L40.01 19.38C40.01 21.5631 39.6385 23.0253 39.0418 23.9158C38.4925 24.7355 37.6876 25.17 36.46 25.17L36.46 27.17ZM42.01 19.38L42.01 10.21L40.01 10.21L40.01 19.38L42.01 19.38ZM41.01 9.21L31.77 9.21L31.77 11.21L41.01 11.21L41.01 9.21ZM15.37 20.22C15.37 22.6998 15.7675 24.7327 16.7042 26.1728C17.6894 27.6873 19.1947 28.43 21.06 28.43L21.06 26.43C19.7986 26.43 18.9589 25.971 18.3808 25.0822C17.7542 24.119 17.37 22.5469 17.37 20.22L15.37 20.22ZM21.06 28.43C22.9475 28.43 24.498 27.7652 25.516 26.328L23.884 25.172C23.3153 25.9748 22.4392 26.43 21.06 26.43L21.06 28.43ZM25.5 26.35C26.533 24.9726 26.96 22.9597 26.96 20.5L24.96 20.5C24.96 22.8003 24.547 24.2874 23.9 25.15L25.5 26.35ZM26.96 20.5L26.96 10.21L24.96 10.21L24.96 20.5L26.96 20.5ZM25.96 9.21L16.37 9.21L16.37 11.21L25.96 11.21L25.96 9.21ZM15.37 10.21L15.37 20.22L17.37 20.22L17.37 10.21L15.37 10.21ZM35.06 63.4198L34.06 63.4124L34.06 63.4198L35.06 63.4198ZM31.84 74.3398L31.0788 73.6914L31.84 74.3398ZM13.22 73.9198L14.0009 73.2951L13.9957 73.2888L13.22 73.9198ZM9.93 62.1598L10.93 62.169L10.93 62.164L9.93 62.1598ZM10 45.2198L10 44.2198L9.00413 44.2198L9.00001 45.2157L10 45.2198ZM47.38 45.2198L48.38 45.2198L48.38 44.2198L47.38 44.2198L47.38 45.2198ZM47.38 53.9698L47.38 54.9698L48.38 54.9698L48.38 53.9698L47.38 53.9698ZM35.13 53.9698L35.13 52.9698L34.1374 52.9698L34.13 53.9624L35.13 53.9698ZM47.38 82.9498L48.38 82.9498L48.38 81.9498L47.38 81.9498L47.38 82.9498ZM47.38 91.6998L47.38 92.6998L48.38 92.6998L48.38 91.6998L47.38 91.6998ZM10 91.6998L9 91.6998L9 92.6998L10 92.6998L10 91.6998ZM10 82.9498L10 81.9498L9 81.9498L9 82.9498L10 82.9498ZM16.37 61.3898L17.3699 61.408L17.37 61.3993L16.37 61.3898ZM27.5 67.3398L26.7 66.7398L27.5 67.3398ZM29.04 61.3898L30.0399 61.4074L30.04 61.3993L29.04 61.3898ZM29.11 53.9698L30.11 53.9793L30.1195 52.9698L29.11 52.9698L29.11 53.9698ZM16.44 53.9698L16.44 52.9698L15.4494 52.9698L15.44 53.9604L16.44 53.9698ZM34.06 63.4198C34.06 68.0444 33.016 71.4173 31.0788 73.6914L32.6012 74.9883C34.9574 72.2224 36.06 68.3153 36.06 63.4198L34.06 63.4198ZM31.0788 73.6914C29.1576 75.9467 26.4265 77.1198 22.74 77.1198L22.74 79.1198C26.8934 79.1198 30.2291 77.773 32.6012 74.9883L31.0788 73.6914ZM22.74 77.1198C18.8874 77.1198 16.022 75.8216 14.0009 73.2951L12.4391 74.5445C14.8979 77.6181 18.3793 79.1198 22.74 79.1198L22.74 77.1198ZM13.9957 73.2888C11.955 70.7804 10.8845 67.1215 10.93 62.169L8.93004 62.1507C8.88214 67.3715 10.005 71.5527 12.4443 74.5509L13.9957 73.2888ZM10.93 62.164L11 45.224L9.00001 45.2157L8.93001 62.1557L10.93 62.164ZM10 46.2198L47.38 46.2198L47.38 44.2198L10 44.2198L10 46.2198ZM46.38 45.2198L46.38 53.9698L48.38 53.9698L48.38 45.2198L46.38 45.2198ZM47.38 52.9698L35.13 52.9698L35.13 54.9698L47.38 54.9698L47.38 52.9698ZM34.13 53.9624L34.06 63.4124L36.06 63.4273L36.13 53.9773L34.13 53.9624ZM46.38 82.9498L46.38 91.6998L48.38 91.6998L48.38 82.9498L46.38 82.9498ZM47.38 90.6998L10 90.6998L10 92.6998L47.38 92.6998L47.38 90.6998ZM11 91.6998L11 82.9498L9 82.9498L9 91.6998L11 91.6998ZM10 83.9498L47.38 83.9498L47.38 81.9498L10 81.9498L10 83.9498ZM15.3702 61.3717C15.3211 64.0696 15.8803 66.3012 17.2096 67.9074L18.7504 66.6323C17.8397 65.5319 17.3256 63.8434 17.3698 61.408L15.3702 61.3717ZM17.2096 67.9074C18.5615 69.5409 20.508 70.2998 22.88 70.2998L22.88 68.2998C20.9587 68.2998 19.6385 67.7054 18.7504 66.6323L17.2096 67.9074ZM22.88 70.2998C25.196 70.2998 27.0788 69.5681 28.3 67.9398L26.7 66.7398C25.9612 67.725 24.764 68.2998 22.88 68.2998L22.88 70.2998ZM28.3 67.9398C29.4634 66.3887 29.9916 64.1567 30.0398 61.4074L28.0402 61.3723C27.9951 63.943 27.4966 65.6777 26.7 66.7398L28.3 67.9398ZM30.04 61.3993L30.11 53.9793L28.11 53.9604L28.04 61.3804L30.04 61.3993ZM29.11 52.9698L16.44 52.9698L16.44 54.9698L29.11 54.9698L29.11 52.9698ZM15.44 53.9604L15.37 61.3804L17.37 61.3993L17.44 53.9793L15.44 53.9604ZM25.89 138.322L24.89 138.322L24.89 139.242L25.8069 139.319L25.89 138.322ZM25.89 108.992L26.89 108.992L26.89 107.788L25.7067 108.009L25.89 108.992ZM19.31 112.982L18.5142 112.377L18.5068 112.386L18.4998 112.396L19.31 112.982ZM20.99 131.252L21.6464 132.006L22.4621 131.297L21.6909 130.539L20.99 131.252ZM15.6 135.942L14.9581 136.709L15.6125 137.257L16.2564 136.696L15.6 135.942ZM11.05 129.572L11.9785 129.201L11.05 129.572ZM11.96 110.042L11.0736 109.579L11.96 110.042ZM18.75 102.762L18.2539 101.894L18.2457 101.898L18.2375 101.903L18.75 102.762ZM38.49 102.692L38.9861 101.824L38.9816 101.821L38.49 102.692ZM45.35 109.622L44.4758 110.108L45.35 109.622ZM45.35 129.292L44.4826 128.794L44.4778 128.803L44.4732 128.811L45.35 129.292ZM38.56 136.012L38.0851 135.132L38.0767 135.137L38.0684 135.141L38.56 136.012ZM38.28 112.422L37.5194 113.071L37.5207 113.073L38.28 112.422ZM31.7 108.922L31.8508 107.933L30.7 107.758L30.7 108.922L31.7 108.922ZM31.7 130.132L30.7 130.132L30.7 131.279L31.8366 131.123L31.7 130.132ZM38.28 126.702L37.5286 126.042L38.28 126.702ZM28.48 137.462C27.9152 137.462 27.0844 137.418 25.973 137.325L25.8069 139.319C26.9356 139.413 27.8315 139.462 28.48 139.462L28.48 137.462ZM26.89 138.322L26.89 108.992L24.89 108.992L24.89 138.322L26.89 138.322ZM25.7067 108.009C22.7197 108.566 20.304 110.024 18.5142 112.377L20.1058 113.588C21.5827 111.647 23.5536 110.445 26.0733 109.975L25.7067 108.009ZM18.4998 112.396C16.7677 114.79 15.93 117.713 15.93 121.102L17.93 121.102C17.93 118.052 18.6789 115.561 20.1202 113.568L18.4998 112.396ZM15.93 121.102C15.93 125.453 17.3744 129.101 20.2891 131.965L21.6909 130.539C19.1923 128.083 17.93 124.965 17.93 121.102L15.93 121.102ZM20.3336 130.498L14.9436 135.188L16.2564 136.696L21.6464 132.006L20.3336 130.498ZM16.2419 135.175C14.3691 133.607 12.9473 131.623 11.9785 129.201L10.1215 129.943C11.206 132.655 12.8175 134.917 14.9581 136.709L16.2419 135.175ZM11.9785 129.201C11.0062 126.77 10.51 124.005 10.51 120.892L8.51 120.892C8.51 124.219 9.04049 127.241 10.1215 129.943L11.9785 129.201ZM10.51 120.892C10.51 116.92 11.2991 113.467 12.8463 110.505L11.0736 109.579C9.35427 112.87 8.51 116.651 8.51 120.892L10.51 120.892ZM12.8463 110.505C14.3982 107.534 16.5356 105.248 19.2625 103.621L18.2375 101.903C15.1777 103.729 12.7884 106.296 11.0736 109.579L12.8463 110.505ZM19.2461 103.63C22.0218 102.044 25.1615 101.242 28.69 101.242L28.69 99.242C24.8452 99.242 21.3582 100.12 18.2539 101.894L19.2461 103.63ZM28.69 101.242C32.1746 101.242 35.2691 102.022 37.9984 103.563L38.9816 101.821C35.9242 100.095 32.4854 99.242 28.69 99.242L28.69 101.242ZM37.9939 103.56C40.7764 105.15 42.9318 107.328 44.4758 110.108L46.2242 109.136C44.5015 106.036 42.0836 103.594 38.9861 101.824L37.9939 103.56ZM44.4758 110.108C46.0189 112.885 46.8 116.029 46.8 119.562L48.8 119.562C48.8 115.722 47.9478 112.239 46.2242 109.136L44.4758 110.108ZM46.8 119.562C46.8 123.047 46.0198 126.115 44.4826 128.794L46.2174 129.79C47.9468 126.775 48.8 123.357 48.8 119.562L46.8 119.562ZM44.4732 128.811C42.9804 131.533 40.8577 133.636 38.0851 135.132L39.0349 136.892C42.1423 135.215 44.5462 132.837 46.2268 129.773L44.4732 128.811ZM38.0684 135.141C35.3465 136.678 32.1608 137.462 28.48 137.462L28.48 139.462C32.4525 139.462 35.9868 138.613 39.0516 136.883L38.0684 135.141ZM41.8 119.562C41.8 116.545 40.8882 113.928 39.0393 111.771L37.5207 113.073C39.0318 114.836 39.8 116.979 39.8 119.562L41.8 119.562ZM39.0406 111.773C37.2343 109.657 34.8142 108.386 31.8508 107.933L31.5492 109.911C34.0924 110.299 36.0591 111.361 37.5194 113.071L39.0406 111.773ZM30.7 108.922L30.7 130.132L32.7 130.132L32.7 108.922L30.7 108.922ZM31.8366 131.123C34.7625 130.719 37.1808 129.47 39.0314 127.362L37.5286 126.042C36.0192 127.761 34.0508 128.798 31.5634 129.141L31.8366 131.123ZM39.0314 127.362C40.8908 125.244 41.8 122.621 41.8 119.562L39.8 119.562C39.8 122.197 39.0292 124.333 37.5286 126.042L39.0314 127.362ZM29.46 169.679L30.3869 169.304L29.2873 166.587L28.497 169.409L29.46 169.679ZM26.24 175.069L25.5951 174.304L25.5822 174.315L25.5697 174.327L26.24 175.069ZM14.9 174.719L14.2343 175.465L14.2443 175.474L14.9 174.719ZM10.84 168.349L11.7803 168.008L10.84 168.349ZM10.35 150.639L9.38082 150.392L9.37885 150.4L9.37701 150.408L10.35 150.639ZM13.29 143.149L13.651 142.216L12.8431 141.903L12.4184 142.658L13.29 143.149ZM19.8 145.669L20.671 146.16L21.2388 145.153L20.161 144.736L19.8 145.669ZM17.42 151.829L16.4487 151.591L17.42 151.829ZM17.91 165.549L17.0311 166.026L17.0358 166.034L17.91 165.549ZM25.05 166.109L24.2038 165.576L24.1994 165.583L24.1952 165.59L25.05 166.109ZM26.24 153.439L26.24 152.439L25.24 152.439L25.24 153.439L26.24 153.439ZM32.12 153.439L33.12 153.439L33.12 152.439L32.12 152.439L32.12 153.439ZM33.24 165.129L34.1003 164.619L34.096 164.612L34.0917 164.605L33.24 165.129ZM39.61 164.779L38.7269 164.31L38.7269 164.31L39.61 164.779ZM38.07 146.789L37.7415 145.844L36.72 146.2L37.1541 147.19L38.07 146.789ZM44.51 144.549L45.4162 144.126L45.0343 143.308L44.1815 143.604L44.51 144.549ZM46.61 167.929L45.6667 167.597L45.6639 167.605L45.6613 167.613L46.61 167.929ZM42.97 173.809L42.3084 173.059L42.2967 173.069L42.2853 173.08L42.97 173.809ZM32.75 174.299L32.1253 175.08L32.1315 175.085L32.1378 175.089L32.75 174.299ZM28.497 169.409C27.8847 171.596 26.902 173.202 25.5951 174.304L26.8849 175.833C28.5647 174.416 29.7286 172.428 30.423 169.948L28.497 169.409ZM25.5697 174.327C24.3173 175.458 22.8101 176.029 20.99 176.029L20.99 178.029C23.2765 178.029 25.2694 177.293 26.9103 175.811L25.5697 174.327ZM20.99 176.029C18.9513 176.029 17.1525 175.35 15.5557 173.964L14.2443 175.474C16.1941 177.167 18.4553 178.029 20.99 178.029L20.99 176.029ZM15.5656 173.972C13.9894 172.567 12.7174 170.596 11.7803 168.008L9.89973 168.689C10.9226 171.514 12.3572 173.791 14.2344 175.465L15.5656 173.972ZM11.7803 168.008C10.8468 165.43 10.37 162.469 10.37 159.109L8.37 159.109C8.37 162.656 8.8732 165.854 9.89973 168.689L11.7803 168.008ZM10.37 159.109C10.37 156.291 10.688 153.546 11.323 150.87L9.37701 150.408C8.70532 153.239 8.37 156.139 8.37 159.109L10.37 159.109ZM11.3192 150.885C11.9997 148.208 12.9489 145.795 14.1616 143.639L12.4184 142.658C11.111 144.983 10.1002 147.563 9.38082 150.392L11.3192 150.885ZM12.929 144.081L19.439 146.601L20.161 144.736L13.651 142.216L12.929 144.081ZM18.929 145.177C17.8522 147.086 17.0277 149.227 16.4487 151.591L18.3913 152.067C18.9323 149.858 19.6944 147.891 20.671 146.16L18.929 145.177ZM16.4487 151.591C15.8702 153.953 15.58 156.32 15.58 158.689L17.58 158.689C17.58 156.485 17.8498 154.278 18.3913 152.067L16.4487 151.591ZM15.58 158.689C15.58 161.708 16.0317 164.185 17.0311 166.026L18.7888 165.072C18.015 163.646 17.58 161.55 17.58 158.689L15.58 158.689ZM17.0358 166.034C18.1014 167.952 19.6575 169.069 21.69 169.069L21.69 167.069C20.5492 167.069 19.5853 166.505 18.7841 165.063L17.0358 166.034ZM21.69 169.069C23.5094 169.069 24.9426 168.213 25.9048 166.628L24.1952 165.59C23.5707 166.618 22.7639 167.069 21.69 167.069L21.69 169.069ZM25.8962 166.642C26.8319 165.156 27.24 163.143 27.24 160.719L25.24 160.719C25.24 162.962 24.8548 164.542 24.2038 165.576L25.8962 166.642ZM27.24 160.719L27.24 153.439L25.24 153.439L25.24 160.719L27.24 160.719ZM26.24 154.439L32.12 154.439L32.12 152.439L26.24 152.439L26.24 154.439ZM31.12 153.439L31.12 160.019L33.12 160.019L33.12 153.439L31.12 153.439ZM31.12 160.019C31.12 162.305 31.5057 164.219 32.3883 165.653L34.0917 164.605C33.4809 163.612 33.12 162.119 33.12 160.019L31.12 160.019ZM32.3797 165.639C33.2885 167.172 34.6496 168.019 36.39 168.019L36.39 166.019C35.4237 166.019 34.6848 165.605 34.1003 164.619L32.3797 165.639ZM36.39 168.019C38.211 168.019 39.5775 166.971 40.4931 165.248L38.7269 164.31C38.0558 165.573 37.2757 166.019 36.39 166.019L36.39 168.019ZM40.4931 165.248C41.3939 163.552 41.8 161.315 41.8 158.619L39.8 158.619C39.8 161.15 39.4128 163.018 38.7269 164.31L40.4931 165.248ZM41.8 158.619C41.8 154.721 40.8497 150.641 38.9859 146.387L37.1541 147.19C38.9303 151.243 39.8 155.05 39.8 158.619L41.8 158.619ZM38.3985 147.733L44.8385 145.493L44.1815 143.604L37.7415 145.844L38.3985 147.733ZM43.6038 144.972C45.8339 149.75 46.94 154.553 46.94 159.389L48.94 159.389C48.94 154.237 47.7594 149.147 45.4162 144.126L43.6038 144.972ZM46.94 159.389C46.94 162.47 46.5095 165.201 45.6667 167.597L47.5533 168.261C48.4838 165.616 48.94 162.654 48.94 159.389L46.94 159.389ZM45.6613 167.613C44.863 170.007 43.733 171.802 42.3084 173.059L43.6316 174.559C45.3803 173.016 46.677 170.89 47.5587 168.245L45.6613 167.613ZM42.2853 173.08C40.9199 174.363 39.3878 174.979 37.65 174.979L37.65 176.979C39.9255 176.979 41.9401 176.148 43.6547 174.538L42.2853 173.08ZM37.65 174.979C36.0529 174.979 34.6346 174.493 33.3622 173.508L32.1378 175.089C33.7587 176.344 35.6071 176.979 37.65 176.979L37.65 174.979ZM33.3747 173.518C32.1307 172.523 31.1275 171.133 30.3869 169.304L28.533 170.054C29.3791 172.144 30.5692 173.835 32.1253 175.08L33.3747 173.518ZM17.42 226.009L17.42 227.009L18.42 227.009L18.42 226.009L17.42 226.009ZM1.66999 226.009L0.669988 226.009L0.669988 227.009L1.66999 227.009L1.66999 226.009ZM1.66999 217.819L1.66999 216.819L0.669989 216.819L0.669988 217.819L1.66999 217.819ZM9.99999 217.819L9.99999 218.819L11 218.819L11 217.819L9.99999 217.819ZM9.99999 188.979L11 188.979L11 187.979L9.99999 187.979L9.99999 188.979ZM1.66999 188.979L0.66999 188.979L0.66999 189.979L1.66999 189.979L1.66999 188.979ZM1.66999 180.859L1.66999 179.859L0.66999 179.859L0.66999 180.859L1.66999 180.859ZM17.42 180.859L18.42 180.859L18.42 179.859L17.42 179.859L17.42 180.859ZM17.42 182.609L16.42 182.609L16.42 182.628L16.4208 182.648L17.42 182.609ZM21.97 187.439L22.2546 186.48L22.2447 186.477L21.97 187.439ZM34.57 189.189L34.5183 190.187L34.5318 190.188L34.57 189.189ZM47.38 189.679L48.38 189.679L48.38 188.716L47.4182 188.679L47.38 189.679ZM47.38 220.479L47.38 221.479L48.38 221.479L48.38 220.479L47.38 220.479ZM17.42 220.479L17.42 219.479L16.42 219.479L16.42 220.479L17.42 220.479ZM33.94 197.169L33.8966 198.168L33.9051 198.168L33.94 197.169ZM23.44 196.119L23.2537 197.101L23.44 196.119ZM17.42 193.319L18.1394 192.624L16.42 190.843L16.42 193.319L17.42 193.319ZM17.42 211.729L16.42 211.729L16.42 212.729L17.42 212.729L17.42 211.729ZM39.96 211.729L39.96 212.729L40.96 212.729L40.96 211.729L39.96 211.729ZM39.96 197.379L40.96 197.379L40.96 196.413L39.9949 196.379L39.96 197.379ZM17.42 225.009L1.66999 225.009L1.66999 227.009L17.42 227.009L17.42 225.009ZM2.66999 226.009L2.66999 217.819L0.669988 217.819L0.669988 226.009L2.66999 226.009ZM1.66999 218.819L9.99999 218.819L9.99999 216.819L1.66999 216.819L1.66999 218.819ZM11 217.819L11 188.979L8.99999 188.979L8.99999 217.819L11 217.819ZM9.99999 187.979L1.66999 187.979L1.66999 189.979L9.99999 189.979L9.99999 187.979ZM2.66999 188.979L2.66999 180.859L0.66999 180.859L0.66999 188.979L2.66999 188.979ZM1.66999 181.859L17.42 181.859L17.42 179.859L1.66999 179.859L1.66999 181.859ZM16.42 180.859L16.42 182.609L18.42 182.609L18.42 180.859L16.42 180.859ZM16.4208 182.648C16.4761 184.059 16.9625 185.292 17.8996 186.287C18.8199 187.264 20.1155 187.949 21.6953 188.4L22.2447 186.477C20.8845 186.088 19.9518 185.548 19.3554 184.915C18.7758 184.3 18.4572 183.538 18.4192 182.569L16.4208 182.648ZM21.6854 188.397C24.7836 189.317 29.0749 189.906 34.5183 190.187L34.6216 188.19C29.2384 187.911 25.1297 187.333 22.2546 186.48L21.6854 188.397ZM34.5318 190.188L47.3418 190.678L47.4182 188.679L34.6082 188.189L34.5318 190.188ZM46.38 189.679L46.38 220.479L48.38 220.479L48.38 189.679L46.38 189.679ZM47.38 219.479L17.42 219.479L17.42 221.479L47.38 221.479L47.38 219.479ZM16.42 220.479L16.42 226.009L18.42 226.009L18.42 220.479L16.42 220.479ZM33.9834 196.169C29.7147 195.984 26.2674 195.637 23.6263 195.136L23.2537 197.101C26.0259 197.627 29.5786 197.98 33.8966 198.168L33.9834 196.169ZM23.6263 195.136C21.0329 194.644 19.2498 193.774 18.1394 192.624L16.7006 194.013C18.2035 195.57 20.4337 196.566 23.2537 197.101L23.6263 195.136ZM16.42 193.319L16.42 211.729L18.42 211.729L18.42 193.319L16.42 193.319ZM17.42 212.729L39.96 212.729L39.96 210.729L17.42 210.729L17.42 212.729ZM40.96 211.729L40.96 197.379L38.96 197.379L38.96 211.729L40.96 211.729ZM39.9949 196.379L33.9749 196.169L33.9051 198.168L39.9251 198.378L39.9949 196.379ZM47.38 233.823L48.38 233.823L48.38 232.823L47.38 232.823L47.38 233.823ZM47.38 242.573L47.38 243.573L48.38 243.573L48.38 242.573L47.38 242.573ZM32.19 242.573L32.19 241.573L31.19 241.573L31.19 242.573L32.19 242.573ZM32.19 261.403L31.19 261.403L31.19 262.403L32.19 262.403L32.19 261.403ZM47.38 261.403L48.38 261.403L48.38 260.403L47.38 260.403L47.38 261.403ZM47.38 270.153L47.38 271.153L48.38 271.153L48.38 270.153L47.38 270.153ZM9.99999 270.153L8.99999 270.153L8.99999 271.153L9.99999 271.153L9.99999 270.153ZM9.99999 261.403L9.99999 260.403L8.99999 260.403L8.99999 261.403L9.99999 261.403ZM24.77 261.403L24.77 262.403L25.77 262.403L25.77 261.403L24.77 261.403ZM24.77 242.573L25.77 242.573L25.77 241.573L24.77 241.573L24.77 242.573ZM9.99999 242.573L8.99999 242.573L8.99999 243.573L9.99999 243.573L9.99999 242.573ZM9.99999 233.823L9.99999 232.823L8.99999 232.823L8.99999 233.823L9.99999 233.823ZM46.38 233.823L46.38 242.573L48.38 242.573L48.38 233.823L46.38 233.823ZM47.38 241.573L32.19 241.573L32.19 243.573L47.38 243.573L47.38 241.573ZM31.19 242.573L31.19 261.403L33.19 261.403L33.19 242.573L31.19 242.573ZM32.19 262.403L47.38 262.403L47.38 260.403L32.19 260.403L32.19 262.403ZM46.38 261.403L46.38 270.153L48.38 270.153L48.38 261.403L46.38 261.403ZM47.38 269.153L9.99999 269.153L9.99999 271.153L47.38 271.153L47.38 269.153ZM11 270.153L11 261.403L8.99999 261.403L8.99999 270.153L11 270.153ZM9.99999 262.403L24.77 262.403L24.77 260.403L9.99999 260.403L9.99999 262.403ZM25.77 261.403L25.77 242.573L23.77 242.573L23.77 261.403L25.77 261.403ZM24.77 241.573L9.99999 241.573L9.99999 243.573L24.77 243.573L24.77 241.573ZM11 242.573L11 233.823L8.99999 233.823L8.99999 242.573L11 242.573ZM9.99999 234.823L47.38 234.823L47.38 232.823L9.99999 232.823L9.99999 234.823ZM11.96 288.32L12.8405 288.794L11.96 288.32ZM18.75 281.18L18.2538 280.312L18.2456 280.316L18.2375 280.321L18.75 281.18ZM38.56 281.18L39.0725 280.321L39.0621 280.315L38.56 281.18ZM45.35 288.32L44.4695 288.794L45.35 288.32ZM45.35 308.83L44.4695 308.356L45.35 308.83ZM38.56 315.9L38.0578 315.035L38.0475 315.041L38.56 315.9ZM18.75 315.9L19.2564 315.038L19.2521 315.035L18.75 315.9ZM11.96 308.83L12.8405 308.356L11.96 308.83ZM20.22 306.52L20.9193 305.805L20.22 306.52ZM37.16 306.52L36.4607 305.805L36.4607 305.805L37.16 306.52ZM37.16 290.56L37.8593 289.845L37.8512 289.837L37.16 290.56ZM20.22 290.56L19.5287 289.837L19.5207 289.845L20.22 290.56ZM10.51 298.54C10.51 294.909 11.293 291.668 12.8405 288.794L11.0795 287.846C9.36029 291.039 8.50999 294.611 8.50999 298.54L10.51 298.54ZM12.8405 288.794C14.3901 285.916 16.5279 283.671 19.2624 282.039L18.2375 280.321C15.1854 282.143 12.7965 284.657 11.0795 287.846L12.8405 288.794ZM19.2461 282.048C22.0218 280.462 25.1615 279.66 28.69 279.66L28.69 277.66C24.8452 277.66 21.3582 278.538 18.2538 280.312L19.2461 282.048ZM28.69 279.66C32.2187 279.66 35.3323 280.462 38.0579 282.045L39.0621 280.315C36.0011 278.538 32.5346 277.66 28.69 277.66L28.69 279.66ZM38.0475 282.039C40.7821 283.671 42.9198 285.916 44.4695 288.794L46.2305 287.846C44.5135 284.657 42.1246 282.143 39.0724 280.321L38.0475 282.039ZM44.4695 288.794C46.017 291.668 46.8 294.909 46.8 298.54L48.8 298.54C48.8 294.611 47.9497 291.039 46.2305 287.846L44.4695 288.794ZM46.8 298.54C46.8 302.22 46.016 305.484 44.4695 308.356L46.2305 309.304C47.9506 306.109 48.8 302.513 48.8 298.54L46.8 298.54ZM44.4695 308.356C42.921 311.232 40.7865 313.451 38.0579 315.035L39.0621 316.765C42.1202 314.989 44.5123 312.495 46.2305 309.304L44.4695 308.356ZM38.0475 315.041C35.3235 316.667 32.2137 317.49 28.69 317.49L28.69 319.49C32.5396 319.49 36.0098 318.586 39.0724 316.759L38.0475 315.041ZM28.69 317.49C25.1664 317.49 22.0305 316.667 19.2564 315.038L18.2436 316.762C21.3495 318.586 24.8402 319.49 28.69 319.49L28.69 317.49ZM19.2521 315.035C16.5235 313.451 14.3889 311.232 12.8405 308.356L11.0795 309.304C12.7977 312.495 15.1898 314.989 18.2478 316.765L19.2521 315.035ZM12.8405 308.356C11.294 305.484 10.51 302.22 10.51 298.54L8.50999 298.54C8.50999 302.513 9.35932 306.109 11.0795 309.304L12.8405 308.356ZM16 298.54C16 302.007 17.1668 304.932 19.5207 307.235L20.9193 305.805C18.9798 303.908 18 301.513 18 298.54L16 298.54ZM19.5207 307.235C21.8851 309.548 24.9751 310.67 28.69 310.67L28.69 308.67C25.4048 308.67 22.8482 307.692 20.9193 305.805L19.5207 307.235ZM28.69 310.67C32.4048 310.67 35.4949 309.548 37.8593 307.235L36.4607 305.805C34.5317 307.692 31.9751 308.67 28.69 308.67L28.69 310.67ZM37.8593 307.235C40.2132 304.932 41.38 302.007 41.38 298.54L39.38 298.54C39.38 301.513 38.4002 303.908 36.4607 305.805L37.8593 307.235ZM41.38 298.54C41.38 295.073 40.2132 292.148 37.8593 289.845L36.4607 291.275C38.4002 293.172 39.38 295.567 39.38 298.54L41.38 298.54ZM37.8512 289.837C35.4858 287.575 32.3984 286.48 28.69 286.48L28.69 288.48C31.9815 288.48 34.5409 289.439 36.4688 291.283L37.8512 289.837ZM28.69 286.48C24.9815 286.48 21.8942 287.575 19.5288 289.837L20.9112 291.283C22.8391 289.439 25.3984 288.48 28.69 288.48L28.69 286.48ZM19.5207 289.845C17.1668 292.148 16 295.073 16 298.54L18 298.54C18 295.567 18.9798 293.172 20.9193 291.275L19.5207 289.845ZM47.38 327.134L48.38 327.134L48.38 326.134L47.38 326.134L47.38 327.134ZM47.38 335.884L47.38 336.884L48.38 336.884L48.38 335.884L47.38 335.884ZM22.74 335.884L22.74 334.884L19.9899 334.884L22.0977 336.65L22.74 335.884ZM47.38 356.534L48.38 356.534L48.38 356.067L48.0223 355.767L47.38 356.534ZM47.38 364.514L47.38 365.514L48.38 365.514L48.38 364.514L47.38 364.514ZM9.99998 364.514L8.99998 364.514L8.99998 365.514L9.99998 365.514L9.99998 364.514ZM9.99998 355.764L9.99998 354.764L8.99998 354.764L8.99998 355.764L9.99998 355.764ZM34.64 355.764L34.64 356.764L37.3972 356.764L35.281 354.996L34.64 355.764ZM9.99999 335.184L8.99999 335.184L8.99999 335.652L9.35894 335.951L9.99999 335.184ZM9.99999 327.134L9.99999 326.134L8.99999 326.134L8.99999 327.134L9.99999 327.134ZM54.38 336.584L53.6384 335.913L53.6301 335.922L53.622 335.932L54.38 336.584ZM62.08 333.574L63.08 333.574L63.08 332.56L62.0661 332.574L62.08 333.574ZM62.08 339.384L62.1078 340.384L63.08 340.357L63.08 339.384L62.08 339.384ZM58.09 340.924L57.3829 340.217L57.3747 340.225L57.3666 340.233L58.09 340.924ZM58.09 349.394L58.8285 348.72L58.821 348.711L58.8133 348.703L58.09 349.394ZM62.08 351.074L63.08 351.074L63.08 350.101L62.1078 350.074L62.08 351.074ZM62.08 357.024L62.0661 358.024L63.08 358.038L63.08 357.024L62.08 357.024ZM54.38 353.944L53.6219 354.596L53.6307 354.606L54.38 353.944ZM46.38 327.134L46.38 335.884L48.38 335.884L48.38 327.134L46.38 327.134ZM47.38 334.884L22.74 334.884L22.74 336.884L47.38 336.884L47.38 334.884ZM22.0977 336.65L46.7377 357.3L48.0223 355.767L23.3823 335.117L22.0977 336.65ZM46.38 356.534L46.38 364.514L48.38 364.514L48.38 356.534L46.38 356.534ZM47.38 363.514L9.99998 363.514L9.99998 365.514L47.38 365.514L47.38 363.514ZM11 364.514L11 355.764L8.99998 355.764L8.99998 364.514L11 364.514ZM9.99998 356.764L34.64 356.764L34.64 354.764L9.99998 354.764L9.99998 356.764ZM35.281 354.996L10.641 334.416L9.35894 335.951L33.9989 356.531L35.281 354.996ZM11 335.184L11 327.134L8.99999 327.134L8.99999 335.184L11 335.184ZM9.99999 328.134L47.38 328.134L47.38 326.134L9.99999 326.134L9.99999 328.134ZM52.79 345.264C52.79 341.622 53.6227 338.997 55.138 337.236L53.622 335.932C51.684 338.184 50.79 341.345 50.79 345.264L52.79 345.264ZM55.1215 337.255C56.6609 335.553 58.9315 334.618 62.0939 334.574L62.0661 332.574C58.5084 332.623 55.6458 333.694 53.6384 335.913L55.1215 337.255ZM61.08 333.574L61.08 339.384L63.08 339.384L63.08 333.574L61.08 333.574ZM62.0522 338.384C60.1742 338.436 58.5805 339.019 57.3829 340.217L58.7971 341.631C59.5594 340.869 60.6258 340.425 62.1078 340.384L62.0522 338.384ZM57.3666 340.233C56.163 341.494 55.62 343.192 55.62 345.194L57.62 345.194C57.62 343.556 58.057 342.407 58.8133 341.614L57.3666 340.233ZM55.62 345.194C55.62 347.157 56.1675 348.828 57.3666 350.084L58.8133 348.703C58.0525 347.906 57.62 346.777 57.62 345.194L55.62 345.194ZM57.3515 350.068C58.5434 351.374 60.1472 352.021 62.0522 352.074L62.1078 350.074C60.6528 350.034 59.5966 349.561 58.8285 348.72L57.3515 350.068ZM61.08 351.074L61.08 357.024L63.08 357.024L63.08 351.074L61.08 351.074ZM62.0939 356.024C58.9387 355.98 56.6705 355.026 55.1293 353.282L53.6307 354.606C55.6361 356.875 58.5012 357.974 62.0661 358.024L62.0939 356.024ZM55.138 353.292C53.6226 351.531 52.79 348.905 52.79 345.264L50.79 345.264C50.79 349.182 51.684 352.344 53.622 354.596L55.138 353.292Z" fill="white" fill-opacity="0.3"/>
</svg>
