<svg width="131" height="65" viewBox="0 0 131 65" fill="none" xmlns="http://www.w3.org/2000/svg">
<path d="M17.0705 11.88L16.6709 10.9633L14.1801 12.049L16.7805 12.837L17.0705 11.88ZM1.59047 23H0.590469L0.590469 24H1.59047L1.59047 23ZM1.59047 1.64L1.59047 0.639998H0.590469L0.590469 1.64H1.59047ZM18.1505 3.08L17.6028 3.9167L18.1505 3.08ZM19.4705 10L18.6641 9.40864L18.6576 9.41752L18.6512 9.42654L19.4705 10ZM6.35047 10.56H5.35047V11.56H6.35047V10.56ZM6.35047 5.28V4.28H5.35047V5.28H6.35047ZM15.2305 14.6L14.6305 15.4L14.6414 15.4082L14.6525 15.416L15.2305 14.6ZM6.35047 13.88V12.88H5.35047L5.35047 13.88H6.35047ZM6.35047 19.36H5.35047L5.35047 20.36H6.35047V19.36ZM16.7805 12.837C17.9571 13.1936 18.7479 13.7233 19.2495 14.3718C19.7472 15.0154 20.0305 15.8666 20.0305 17H22.0305C22.0305 15.52 21.6537 14.2113 20.8315 13.1482C20.013 12.09 18.8238 11.3664 17.3605 10.923L16.7805 12.837ZM20.0305 17C20.0305 18.6292 19.441 19.7944 18.285 20.6293L19.456 22.2507C21.1799 21.0056 22.0305 19.2108 22.0305 17H20.0305ZM18.285 20.6293C17.0895 21.4927 15.2018 22 12.4705 22V24C15.3925 24 17.7715 23.4673 19.456 22.2507L18.285 20.6293ZM12.4705 22H1.59047L1.59047 24H12.4705V22ZM2.59047 23L2.59047 1.64H0.590469L0.590469 23H2.59047ZM1.59047 2.64L12.0305 2.64V0.639998L1.59047 0.639998L1.59047 2.64ZM12.0305 2.64C14.5389 2.64 16.3605 3.10354 17.6028 3.9167L18.6981 2.2433C17.0071 1.13645 14.7487 0.639998 12.0305 0.639998V2.64ZM17.6028 3.9167C18.7858 4.69105 19.3505 5.73569 19.3505 7.16H21.3505C21.3505 5.06431 20.4484 3.38895 18.6981 2.2433L17.6028 3.9167ZM19.3505 7.16C19.3505 8.06348 19.1121 8.7977 18.6641 9.40864L20.2769 10.5914C21.0022 9.6023 21.3505 8.44318 21.3505 7.16H19.3505ZM18.6512 9.42654C18.213 10.0527 17.5698 10.5715 16.6709 10.9633L17.4701 12.7967C18.6511 12.2819 19.608 11.5473 20.2897 10.5735L18.6512 9.42654ZM6.35047 11.56L11.5905 11.56V9.56L6.35047 9.56V11.56ZM11.5905 11.56C12.968 11.56 14.1785 11.3277 15.0688 10.7128C16.026 10.0516 16.4705 9.04975 16.4705 7.88H14.4705C14.4705 8.49692 14.2683 8.83502 13.9321 9.0672C13.5291 9.34559 12.7996 9.56 11.5905 9.56V11.56ZM16.4705 7.88C16.4705 6.72422 16.0158 5.74169 15.0571 5.09927C14.1694 4.50438 12.964 4.28 11.5905 4.28L11.5905 6.28C12.8036 6.28 13.5382 6.48895 13.9438 6.76073C14.2784 6.98498 14.4705 7.30244 14.4705 7.88H16.4705ZM11.5905 4.28H6.35047L6.35047 6.28L11.5905 6.28L11.5905 4.28ZM5.35047 5.28L5.35047 10.56H7.35047L7.35047 5.28H5.35047ZM12.0705 20.36C13.5203 20.36 14.7806 20.13 15.7057 19.5283C16.7053 18.8781 17.1905 17.8753 17.1905 16.68H15.1905C15.1905 17.2714 14.989 17.6086 14.6152 17.8517C14.167 18.1433 13.3673 18.36 12.0705 18.36V20.36ZM17.1905 16.68C17.1905 15.4925 16.7657 14.462 15.8085 13.784L14.6525 15.416C14.9753 15.6447 15.1905 16.0008 15.1905 16.68H17.1905ZM15.8305 13.8C14.9331 13.127 13.6702 12.88 12.2305 12.88V14.88C13.5108 14.88 14.2478 15.113 14.6305 15.4L15.8305 13.8ZM12.2305 12.88L6.35047 12.88V14.88L12.2305 14.88V12.88ZM5.35047 13.88V19.36H7.35047L7.35047 13.88H5.35047ZM6.35047 20.36L12.0705 20.36V18.36L6.35047 18.36V20.36ZM36.7561 8.68L36.7487 9.68H36.7561V8.68ZM42.9961 10.52L42.3476 11.2812L42.9961 10.52ZM42.7561 21.16L42.1314 20.3791L42.125 20.3843L42.7561 21.16ZM36.0361 23.04L36.0453 22.04L36.0402 22.04L36.0361 23.04ZM26.3561 23H25.3561V23.9959L26.352 24L26.3561 23ZM26.3561 1.64V0.639998L25.3561 0.639998V1.64L26.3561 1.64ZM31.3561 1.64H32.3561V0.639998H31.3561V1.64ZM31.3561 8.64L30.3561 8.64V9.63262L31.3487 9.63997L31.3561 8.64ZM47.9161 1.64V0.639998L46.9161 0.639998V1.64L47.9161 1.64ZM52.9161 1.64H53.9161V0.639998H52.9161V1.64ZM52.9161 23V24H53.9161V23H52.9161ZM47.9161 23H46.9161V24H47.9161V23ZM35.5961 19.36L35.6143 18.3601L35.6055 18.36L35.5961 19.36ZM38.9961 13L38.3961 13.8V13.8L38.9961 13ZM35.5961 12.12L35.6136 11.1201L35.6055 11.12L35.5961 12.12ZM31.3561 12.08L31.3655 11.08L30.3561 11.0705L30.3561 12.08L31.3561 12.08ZM31.3561 19.32L30.3561 19.32V20.3106L31.3467 20.32L31.3561 19.32ZM36.7561 9.68C39.3406 9.68 41.1535 10.264 42.3476 11.2812L43.6446 9.75876C41.9587 8.32263 39.6116 7.68 36.7561 7.68V9.68ZM42.3476 11.2812C43.5229 12.2824 44.1561 13.7134 44.1561 15.72H46.1561C46.1561 13.2466 45.3493 11.2109 43.6446 9.75876L42.3476 11.2812ZM44.1561 15.72C44.1561 17.8126 43.4579 19.3179 42.1314 20.3791L43.3808 21.9409C45.2543 20.4421 46.1561 18.3207 46.1561 15.72H44.1561ZM42.125 20.3843C40.7966 21.465 38.8178 22.0655 36.0453 22.04L36.0269 24.04C39.0678 24.0679 41.5689 23.415 43.3872 21.9357L42.125 20.3843ZM36.0402 22.04L26.3602 22L26.352 24L36.032 24.04L36.0402 22.04ZM27.3561 23L27.3561 1.64L25.3561 1.64L25.3561 23H27.3561ZM26.3561 2.64H31.3561V0.639998H26.3561V2.64ZM30.3561 1.64V8.64L32.3561 8.64V1.64H30.3561ZM31.3487 9.63997L36.7487 9.67997L36.7635 7.68003L31.3635 7.64003L31.3487 9.63997ZM47.9161 2.64H52.9161V0.639998H47.9161V2.64ZM51.9161 1.64L51.9161 23H53.9161L53.9161 1.64H51.9161ZM52.9161 22H47.9161V24H52.9161V22ZM48.9161 23L48.9161 1.64L46.9161 1.64L46.9161 23H48.9161ZM35.5779 20.3598C37.1759 20.3889 38.5674 20.0597 39.5937 19.2104L38.3185 17.6696C37.7981 18.1003 36.9496 18.3844 35.6143 18.3602L35.5779 20.3598ZM39.5937 19.2104C40.6472 18.3385 41.1161 17.092 41.1161 15.64H39.1161C39.1161 16.6413 38.8117 17.2615 38.3185 17.6696L39.5937 19.2104ZM41.1161 15.64C41.1161 14.224 40.6643 13.0012 39.5961 12.2L38.3961 13.8C38.8212 14.1188 39.1161 14.656 39.1161 15.64H41.1161ZM39.5961 12.2C38.6049 11.4566 37.2229 11.1484 35.6136 11.1202L35.5786 13.1198C37.0093 13.1449 37.8939 13.4234 38.3961 13.8L39.5961 12.2ZM35.6055 11.12L31.3655 11.08L31.3467 13.08L35.5867 13.12L35.6055 11.12ZM30.3561 12.08V19.32L32.3561 19.32V12.08L30.3561 12.08ZM31.3467 20.32L35.5867 20.36L35.6055 18.36L31.3655 18.32L31.3467 20.32ZM79.5573 13.92V14.92H80.4775L80.5539 14.003L79.5573 13.92ZM62.7973 13.92V12.92H61.5937L61.8143 14.1033L62.7973 13.92ZM65.0773 17.68L64.4718 18.4758L64.4814 18.4831L64.4912 18.4902L65.0773 17.68ZM75.5173 16.72L76.2717 16.0636L75.562 15.2479L74.8041 16.0191L75.5173 16.72ZM78.1973 19.8L78.9641 20.4419L79.512 19.7875L78.9517 19.1436L78.1973 19.8ZM74.5573 22.4L74.186 21.4715L74.5573 22.4ZM63.3973 21.88L62.9343 22.7663L63.3973 21.88ZM59.2373 18L58.3691 18.4961L58.3738 18.5043L58.3786 18.5125L59.2373 18ZM59.1973 6.72L58.3291 6.22385L58.3265 6.2284L59.1973 6.72ZM63.1573 2.8L63.643 3.67416V3.67416L63.1573 2.8ZM74.3973 2.8L73.8997 3.66737L73.9081 3.67217L73.9165 3.67681L74.3973 2.8ZM78.2373 6.68L77.3573 7.15493L77.3618 7.16331L77.3665 7.17159L78.2373 6.68ZM64.7573 6.84L65.4066 7.60056L65.4081 7.59926L64.7573 6.84ZM62.7573 10.6L61.7688 10.4492L61.5932 11.6H62.7573V10.6ZM74.8773 10.6V11.6L76.0247 11.6L75.868 10.4634L74.8773 10.6ZM72.9173 6.84L72.2575 7.59144L72.9173 6.84ZM78.6373 12.44C78.6373 12.7448 78.6134 13.2056 78.5608 13.837L80.5539 14.003C80.6079 13.3544 80.6373 12.8285 80.6373 12.44H78.6373ZM79.5573 12.92L62.7973 12.92V14.92L79.5573 14.92V12.92ZM61.8143 14.1033C62.1512 15.9103 63.0395 17.386 64.4718 18.4758L65.6829 16.8842C64.6619 16.1073 64.0302 15.0764 63.7804 13.7367L61.8143 14.1033ZM64.4912 18.4902C65.9455 19.5423 67.7078 20.04 69.7173 20.04V18.04C68.0469 18.04 66.7158 17.6311 65.6635 16.8698L64.4912 18.4902ZM69.7173 20.04C72.3079 20.04 74.5061 19.1756 76.2306 17.4209L74.8041 16.0191C73.4886 17.3577 71.8202 18.04 69.7173 18.04V20.04ZM74.7629 17.3764L77.4429 20.4564L78.9517 19.1436L76.2717 16.0636L74.7629 17.3764ZM77.4306 19.1581C76.5827 20.1708 75.5081 20.9427 74.186 21.4715L74.9287 23.3285C76.5399 22.684 77.892 21.7225 78.9641 20.4419L77.4306 19.1581ZM74.186 21.4715C72.8552 22.0038 71.3308 22.28 69.5973 22.28V24.28C71.5439 24.28 73.3262 23.9695 74.9287 23.3285L74.186 21.4715ZM69.5973 22.28C67.3854 22.28 65.4823 21.8409 63.8604 20.9937L62.9343 22.7663C64.8857 23.7857 67.116 24.28 69.5973 24.28V22.28ZM63.8604 20.9937C62.2296 20.1417 60.9834 18.9744 60.0961 17.4875L58.3786 18.5125C59.4646 20.3322 60.9918 21.7516 62.9343 22.7663L63.8604 20.9937ZM60.1056 17.5039C59.2395 15.9882 58.7973 14.2685 58.7973 12.32H56.7973C56.7973 14.5848 57.3152 16.6518 58.3691 18.4961L60.1056 17.5039ZM58.7973 12.32C58.7973 10.3954 59.2274 8.70087 60.0682 7.21159L58.3265 6.2284C57.3006 8.0458 56.7973 10.0846 56.7973 12.32H58.7973ZM60.0656 7.21614C60.9356 5.69358 62.1238 4.51815 63.643 3.67416L62.6717 1.92584C60.8309 2.94851 59.3791 4.38642 58.3291 6.22386L60.0656 7.21614ZM63.643 3.67416C65.1604 2.83112 66.8839 2.4 68.8373 2.4V0.4C66.5775 0.4 64.5142 0.902207 62.6717 1.92584L63.643 3.67416ZM68.8373 2.4C70.7622 2.4 72.4405 2.83016 73.8997 3.66737L74.895 1.93263C73.1008 0.903173 71.0725 0.4 68.8373 0.4V2.4ZM73.9165 3.67681C75.3986 4.48958 76.541 5.64233 77.3573 7.15493L79.1174 6.20507C78.1204 4.35767 76.7027 2.92375 74.8782 1.92319L73.9165 3.67681ZM77.3665 7.17159C78.2031 8.65347 78.6373 10.3991 78.6373 12.44H80.6373C80.6373 10.1075 80.1383 8.0132 79.1082 6.1884L77.3665 7.17159ZM68.8373 4.4C67.0204 4.4 65.4237 4.95178 64.1066 6.08074L65.4081 7.59926C66.331 6.80822 67.4543 6.4 68.8373 6.4V4.4ZM64.1081 6.07944C62.8121 7.18573 62.0408 8.66576 61.7688 10.4492L63.7459 10.7508C63.9539 9.38757 64.5159 8.36094 65.4066 7.60056L64.1081 6.07944ZM62.7573 11.6H74.8773V9.6H62.7573V11.6ZM75.868 10.4634C75.6244 8.6975 74.8648 7.2192 73.5771 6.08856L72.2575 7.59144C73.1565 8.38079 73.7036 9.40916 73.8867 10.7366L75.868 10.4634ZM73.5771 6.08856C72.2795 4.94917 70.6761 4.4 68.8373 4.4V6.4C70.2519 6.4 71.3685 6.81083 72.2575 7.59144L73.5771 6.08856ZM97.4755 11.88L97.1003 10.9531L94.3835 12.0527L97.2058 12.843L97.4755 11.88ZM100.555 13.72L99.7912 14.3649L99.8021 14.3778L99.8134 14.3903L100.555 13.72ZM100.355 20.2L101.102 20.8657L101.111 20.8557L100.355 20.2ZM96.7155 22.52L96.375 21.5797L96.7155 22.52ZM86.5955 22.8L86.3491 23.7692L86.3568 23.7711L86.3646 23.773L86.5955 22.8ZM82.3155 21.12L81.3829 20.759L81.0702 21.5669L81.8252 21.9916L82.3155 21.12ZM83.7555 17.4L84.2468 16.529L83.2401 15.9612L82.8229 17.039L83.7555 17.4ZM87.2755 18.76L87.0376 19.7313L87.2755 18.76ZM95.1155 18.48L95.5926 19.3589L95.6011 19.3542L95.1155 18.48ZM95.4355 14.4L94.9027 15.2462L94.9095 15.2506L94.9165 15.2548L95.4355 14.4ZM88.1955 13.72H87.1955V14.72H88.1955V13.72ZM88.1955 10.36V9.36H87.1955V10.36H88.1955ZM94.8755 9.72L94.3657 8.85971L94.3585 8.86396L94.3514 8.86834L94.8755 9.72ZM94.6755 6.08L94.2063 6.96312L94.6755 6.08ZM84.3955 6.96L83.451 7.28852L83.8063 8.30999L84.7968 7.87592L84.3955 6.96ZM83.1155 3.28L82.6926 2.37382L81.8743 2.75567L82.171 3.60852L83.1155 3.28ZM96.4755 2.08L96.1436 3.02331L96.1514 3.02606L96.1592 3.02868L96.4755 2.08ZM99.8355 4.16L99.0856 4.82162L99.0959 4.83331L99.1066 4.84468L99.8355 4.16ZM100.115 10L100.896 10.6247L100.901 10.6185L100.906 10.6122L100.115 10ZM97.2058 12.843C98.3928 13.1753 99.2285 13.698 99.7912 14.3649L101.32 13.0751C100.442 12.0353 99.2248 11.3314 97.7451 10.917L97.2058 12.843ZM99.8134 14.3903C100.385 15.0227 100.675 15.7799 100.675 16.72H102.675C102.675 15.3135 102.22 14.0706 101.298 13.0497L99.8134 14.3903ZM100.675 16.72C100.675 17.7787 100.327 18.7075 99.6004 19.5443L101.111 20.8557C102.144 19.6658 102.675 18.2747 102.675 16.72H100.675ZM99.6092 19.5344C98.8634 20.3706 97.8032 21.0626 96.375 21.5797L97.0559 23.4603C98.7211 22.8574 100.088 22.0028 101.102 20.8656L99.6092 19.5344ZM96.375 21.5797C94.9569 22.0932 93.3152 22.36 91.4355 22.36V24.36C93.5024 24.36 95.3807 24.0668 97.0559 23.4603L96.375 21.5797ZM91.4355 22.36C89.8581 22.36 88.3223 22.182 86.8263 21.827L86.3646 23.773C88.0153 24.1647 89.7061 24.36 91.4355 24.36V22.36ZM86.8419 21.8308C85.3449 21.4502 84.0015 20.921 82.8057 20.2484L81.8252 21.9916C83.1894 22.7589 84.6994 23.3498 86.3491 23.7692L86.8419 21.8308ZM83.248 21.481L84.688 17.761L82.8229 17.039L81.3829 20.759L83.248 21.481ZM83.2641 18.271C84.393 18.9078 85.6533 19.3923 87.0376 19.7313L87.5133 17.7887C86.2843 17.4877 85.198 17.0656 84.2468 16.529L83.2641 18.271ZM87.0376 19.7313C88.4198 20.0698 89.8063 20.24 91.1955 20.24V18.24C89.9713 18.24 88.7445 18.0902 87.5133 17.7887L87.0376 19.7313ZM91.1955 20.24C92.9547 20.24 94.4515 19.9783 95.5926 19.3589L94.6384 17.6011C93.9128 17.995 92.7963 18.24 91.1955 18.24V20.24ZM95.6011 19.3542C96.7991 18.6886 97.5555 17.6725 97.5555 16.32L95.5555 16.32C95.5555 16.7808 95.3519 17.2047 94.6298 17.6058L95.6011 19.3542ZM97.5555 16.32C97.5555 15.1205 96.9792 14.1674 95.9544 13.5452L94.9165 15.2548C95.3851 15.5393 95.5555 15.8661 95.5555 16.32L97.5555 16.32ZM95.9683 13.5538C95.0223 12.9581 93.7793 12.72 92.3555 12.72V14.72C93.5983 14.72 94.4087 14.9352 94.9027 15.2462L95.9683 13.5538ZM92.3555 12.72H88.1955V14.72H92.3555V12.72ZM89.1955 13.72V10.36H87.1955V13.72H89.1955ZM88.1955 11.36H91.9555V9.36H88.1955V11.36ZM91.9555 11.36C93.3019 11.36 94.4853 11.1343 95.3996 10.5717L94.3514 8.86834C93.879 9.15905 93.1157 9.36 91.9555 9.36V11.36ZM95.3853 10.5803C96.3789 9.9915 96.9555 9.08039 96.9555 7.92H94.9555C94.9555 8.30628 94.8121 8.59516 94.3657 8.85971L95.3853 10.5803ZM96.9555 7.92C96.9555 6.67902 96.2282 5.77251 95.1446 5.19688L94.2063 6.96312C94.8294 7.29415 94.9555 7.61432 94.9555 7.92H96.9555ZM95.1446 5.19688C94.0891 4.63611 92.7313 4.4 91.1555 4.4V6.4C92.5663 6.4 93.5552 6.61722 94.2063 6.96312L95.1446 5.19688ZM91.1555 4.4C88.8577 4.4 86.4674 4.96026 83.9941 6.04408L84.7968 7.87592C87.0702 6.87974 89.1866 6.4 91.1555 6.4V4.4ZM85.34 6.63148L84.06 2.95148L82.171 3.60852L83.451 7.28852L85.34 6.63148ZM83.5384 4.18618C86.2171 2.93611 88.9001 2.32 91.5955 2.32V0.319998C88.5842 0.319998 85.6139 1.01056 82.6926 2.37382L83.5384 4.18618ZM91.5955 2.32C93.3164 2.32 94.8281 2.56046 96.1436 3.02331L96.8074 1.13669C95.2428 0.586199 93.5012 0.319998 91.5955 0.319998V2.32ZM96.1592 3.02868C97.4741 3.46697 98.4286 4.07697 99.0856 4.82162L100.585 3.49838C99.6423 2.4297 98.3568 1.65303 96.7917 1.13132L96.1592 3.02868ZM99.1066 4.84468C99.7693 5.55006 100.075 6.3222 100.075 7.2H102.075C102.075 5.78447 101.555 4.52993 100.564 3.47532L99.1066 4.84468ZM100.075 7.2C100.075 8.01713 99.8299 8.73539 99.3247 9.38783L100.906 10.6122C101.681 9.61127 102.075 8.46287 102.075 7.2H100.075ZM99.3346 9.37531C98.8194 10.0192 98.09 10.5525 97.1003 10.9531L97.8507 12.8069C99.1009 12.3009 100.131 11.5807 100.896 10.6247L99.3346 9.37531ZM129.664 18.76H130.664V17.76H129.664V18.76ZM129.664 27.76V28.76H130.664V27.76H129.664ZM124.984 27.76H123.984V28.76H124.984V27.76ZM124.984 23H125.984V22H124.984V23ZM108.504 23V22L107.504 22V23L108.504 23ZM108.504 27.76V28.76H109.504V27.76H108.504ZM103.864 27.76H102.864V28.76H103.864V27.76ZM103.864 18.76V17.76H102.864V18.76H103.864ZM104.864 18.76V19.76H104.884L104.903 19.7592L104.864 18.76ZM107.624 16.16L106.665 15.8754L106.662 15.8853L107.624 16.16ZM108.624 8.96L109.623 9.01166L109.623 8.99822L108.624 8.96ZM108.904 1.64V0.639998H107.941L107.905 1.60178L108.904 1.64ZM126.504 1.64H127.504V0.639998H126.504V1.64ZM126.504 18.76H125.504V19.76H126.504V18.76ZM113.184 9.32L114.183 9.36344L114.183 9.35486L113.184 9.32ZM112.584 15.32L113.566 15.5063L112.584 15.32ZM110.984 18.76L110.289 18.0406L108.509 19.76H110.984V18.76ZM121.504 18.76V19.76H122.504V18.76H121.504ZM121.504 5.88H122.504V4.88H121.504V5.88ZM113.304 5.88V4.88H112.338L112.305 5.84514L113.304 5.88ZM128.664 18.76V27.76H130.664V18.76H128.664ZM129.664 26.76H124.984V28.76H129.664V26.76ZM125.984 27.76V23H123.984V27.76H125.984ZM124.984 22H108.504V24H124.984V22ZM107.504 23V27.76L109.504 27.76V23L107.504 23ZM108.504 26.76L103.864 26.76V28.76L108.504 28.76V26.76ZM104.864 27.76V18.76H102.864V27.76H104.864ZM103.864 19.76H104.864V17.76H103.864V19.76ZM104.903 19.7592C105.804 19.7239 106.61 19.41 107.26 18.7979C107.892 18.2026 108.314 17.3845 108.585 16.4347L106.662 15.8853C106.454 16.6155 106.176 17.0707 105.888 17.3421C105.618 17.5967 105.284 17.7428 104.825 17.7608L104.903 19.7592ZM108.583 16.4446C109.122 14.6264 109.461 12.1351 109.623 9.01165L107.625 8.90834C107.467 11.9716 107.139 14.2803 106.665 15.8754L108.583 16.4446ZM109.623 8.99822L109.903 1.67822L107.905 1.60178L107.625 8.92178L109.623 8.99822ZM108.904 2.64L126.504 2.64V0.639998L108.904 0.639998V2.64ZM125.504 1.64V18.76H127.504V1.64H125.504ZM126.504 19.76H129.664V17.76H126.504V19.76ZM112.185 9.27656C112.079 11.7053 111.882 13.6526 111.601 15.1337L113.566 15.5063C113.872 13.894 114.075 11.8414 114.183 9.36344L112.185 9.27656ZM111.601 15.1337C111.33 16.5671 110.859 17.4902 110.289 18.0406L111.678 19.4794C112.655 18.5365 113.252 17.1663 113.566 15.5063L111.601 15.1337ZM110.984 19.76L121.504 19.76V17.76L110.984 17.76V19.76ZM122.504 18.76V5.88H120.504V18.76H122.504ZM121.504 4.88L113.304 4.88V6.88L121.504 6.88V4.88ZM112.305 5.84514L112.185 9.28514L114.183 9.35486L114.303 5.91486L112.305 5.84514ZM27.1569 41.64V40.64H26.1569V41.64H27.1569ZM32.1569 41.64H33.1569V40.64H32.1569V41.64ZM32.1569 50.32H31.1569V51.32H32.1569V50.32ZM42.9169 50.32V51.32H43.9169V50.32H42.9169ZM42.9169 41.64V40.64H41.9169V41.64H42.9169ZM47.9169 41.64H48.9169V40.64H47.9169V41.64ZM47.9169 63V64H48.9169V63H47.9169ZM42.9169 63L41.9169 63V64L42.9169 64V63ZM42.9169 54.56H43.9169V53.56H42.9169V54.56ZM32.1569 54.56V53.56H31.1569V54.56H32.1569ZM32.1569 63V64H33.1569V63H32.1569ZM27.1569 63H26.1569V64H27.1569V63ZM27.1569 42.64H32.1569V40.64H27.1569V42.64ZM31.1569 41.64V50.32H33.1569V41.64H31.1569ZM32.1569 51.32H42.9169V49.32H32.1569V51.32ZM43.9169 50.32V41.64H41.9169V50.32H43.9169ZM42.9169 42.64H47.9169V40.64H42.9169V42.64ZM46.9169 41.64L46.9169 63H48.9169L48.9169 41.64H46.9169ZM47.9169 62H42.9169V64H47.9169V62ZM43.9169 63L43.9169 54.56L41.9169 54.56L41.9169 63L43.9169 63ZM42.9169 53.56L32.1569 53.56L32.1569 55.56L42.9169 55.56L42.9169 53.56ZM31.1569 54.56L31.1569 63H33.1569L33.1569 54.56H31.1569ZM32.1569 62H27.1569V64H32.1569V62ZM28.1569 63L28.1569 41.64H26.1569L26.1569 63H28.1569ZM58.2978 61.88L58.7719 60.9995L58.2978 61.88ZM54.2178 58L53.3496 58.4961L53.3543 58.5043L53.3591 58.5125L54.2178 58ZM54.2178 46.68L53.359 46.1675L53.353 46.1779L54.2178 46.68ZM58.2978 42.8L58.7719 43.6805V43.6805L58.2978 42.8ZM70.0178 42.8L69.5437 43.6805V43.6805L70.0178 42.8ZM74.0578 46.68L73.193 47.1822L73.1991 47.1925L74.0578 46.68ZM74.0578 58L73.1955 57.4936L73.193 57.4979L74.0578 58ZM70.0178 61.88L69.5437 60.9995L70.0178 61.88ZM68.6978 57.16L67.983 56.4607L68.6978 57.16ZM68.6978 47.48L67.983 48.1793L68.6978 47.48ZM59.5778 47.48L58.8629 46.7807L58.8552 46.7888L59.5778 47.48ZM59.5778 57.16L58.8551 57.8513L58.863 57.8593L59.5778 57.16ZM64.1378 62.28C62.1269 62.28 60.3457 61.847 58.7719 60.9995L57.8237 62.7605C59.7166 63.7797 61.8288 64.28 64.1378 64.28V62.28ZM58.7719 60.9995C57.1939 60.1498 55.9684 58.9821 55.0765 57.4875L53.3591 58.5125C54.4405 60.3246 55.935 61.7435 57.8237 62.7605L58.7719 60.9995ZM55.0861 57.5039C54.22 55.9882 53.7778 54.2685 53.7778 52.32H51.7778C51.7778 54.5848 52.2957 56.6518 53.3496 58.4961L55.0861 57.5039ZM53.7778 52.32C53.7778 50.3712 54.22 48.6677 55.0826 47.1821L53.353 46.1779C52.2956 47.9989 51.7778 50.0554 51.7778 52.32H53.7778ZM55.0765 47.1925C55.9684 45.6979 57.1939 44.5302 58.7719 43.6805L57.8237 41.9195C55.935 42.9365 54.4405 44.3554 53.3591 46.1675L55.0765 47.1925ZM58.7719 43.6805C60.3457 42.833 62.1269 42.4 64.1378 42.4V40.4C61.8288 40.4 59.7166 40.9003 57.8237 41.9195L58.7719 43.6805ZM64.1378 42.4C66.1777 42.4 67.9717 42.834 69.5437 43.6805L70.4919 41.9195C68.5973 40.8993 66.4713 40.4 64.1378 40.4V42.4ZM69.5437 43.6805C71.1195 44.5289 72.3287 45.6935 73.193 47.1821L74.9226 46.1779C73.867 44.3598 72.3828 42.9377 70.4919 41.9195L69.5437 43.6805ZM73.1991 47.1925C74.0847 48.6765 74.5378 50.3762 74.5378 52.32H76.5378C76.5378 50.0504 76.0042 47.9902 74.9165 46.1675L73.1991 47.1925ZM74.5378 52.32C74.5378 54.2636 74.0847 55.9795 73.1955 57.4936L74.9201 58.5064C76.0042 56.6605 76.5378 54.5898 76.5378 52.32H74.5378ZM73.193 57.4979C72.3287 58.9865 71.1195 60.1511 69.5437 60.9995L70.4919 62.7605C72.3828 61.7423 73.867 60.3202 74.9226 58.5021L73.193 57.4979ZM69.5437 60.9995C67.9717 61.846 66.1777 62.28 64.1378 62.28V64.28C66.4713 64.28 68.5973 63.7807 70.4919 62.7605L69.5437 60.9995ZM64.1378 60C66.2253 60 68.0099 59.2932 69.4127 57.8593L67.983 56.4607C66.9857 57.4802 65.7304 58 64.1378 58V60ZM69.4126 57.8593C70.8256 56.4149 71.4978 54.5348 71.4978 52.32H69.4978C69.4978 54.1052 68.97 55.4517 67.983 56.4607L69.4126 57.8593ZM71.4978 52.32C71.4978 50.1052 70.8256 48.2251 69.4126 46.7807L67.983 48.1793C68.97 49.1883 69.4978 50.5348 69.4978 52.32H71.4978ZM69.4127 46.7807C68.0099 45.3468 66.2253 44.64 64.1378 44.64V46.64C65.7304 46.64 66.9857 47.1598 67.983 48.1793L69.4127 46.7807ZM64.1378 44.64C62.0504 44.64 60.2657 45.3468 58.863 46.7807L60.2926 48.1793C61.2899 47.1598 62.5453 46.64 64.1378 46.64V44.64ZM58.8552 46.7888C57.4726 48.2342 56.8178 50.1115 56.8178 52.32H58.8178C58.8178 50.5285 59.3364 49.1791 60.3005 48.1712L58.8552 46.7888ZM56.8178 52.32C56.8178 54.5285 57.4726 56.4058 58.8552 57.8512L60.3005 56.4688C59.3364 55.4609 58.8178 54.1115 58.8178 52.32H56.8178ZM58.863 57.8593C60.2657 59.2932 62.0504 60 64.1378 60V58C62.5453 58 61.2899 57.4802 60.2926 56.4607L58.863 57.8593ZM80.4772 41.64V40.64H79.4772V41.64H80.4772ZM85.4772 41.64H86.4772V40.64H85.4772V41.64ZM85.4772 55.72H84.4772V58.4701L86.2436 56.3623L85.4772 55.72ZM97.2772 41.64V40.64H96.8105L96.5108 40.9977L97.2772 41.64ZM101.837 41.64H102.837V40.64H101.837V41.64ZM101.837 63V64H102.837V63H101.837ZM96.8372 63H95.8372V64H96.8372V63ZM96.8372 48.92H97.8372V46.1628L96.0697 48.279L96.8372 48.92ZM85.0772 63V64H85.5449L85.8447 63.641L85.0772 63ZM80.4772 63H79.4772V64H80.4772V63ZM85.8772 37.64L85.2063 38.3815L85.2155 38.3899L85.2249 38.398L85.8772 37.64ZM84.1572 33.24L84.1572 32.24H83.1432L83.1573 33.2539L84.1572 33.24ZM87.4772 33.24L88.4768 33.2122L88.4498 32.24H87.4772L87.4772 33.24ZM88.3572 35.52L87.6501 36.2271L87.6583 36.2353L87.6667 36.2434L88.3572 35.52ZM93.1972 35.52L92.5229 34.7815L92.5147 34.789L92.5067 34.7966L93.1972 35.52ZM94.1572 33.24L94.1572 32.24H93.1846L93.1576 33.2122L94.1572 33.24ZM97.5572 33.24L98.5571 33.2539L98.5712 32.24H97.5572L97.5572 33.24ZM95.7972 37.64L96.4495 38.3981L96.4594 38.3893L95.7972 37.64ZM80.4772 42.64H85.4772V40.64H80.4772V42.64ZM84.4772 41.64V55.72H86.4772V41.64H84.4772ZM86.2436 56.3623L98.0436 42.2823L96.5108 40.9977L84.7108 55.0777L86.2436 56.3623ZM97.2772 42.64H101.837V40.64H97.2772V42.64ZM100.837 41.64V63H102.837V41.64H100.837ZM101.837 62H96.8372V64H101.837V62ZM97.8372 63V48.92H95.8372V63H97.8372ZM96.0697 48.279L84.3097 62.359L85.8447 63.641L97.6047 49.561L96.0697 48.279ZM85.0772 62H80.4772V64H85.0772V62ZM81.4772 63V41.64H79.4772V63H81.4772ZM90.8372 38.12C88.8156 38.12 87.4305 37.6573 86.5294 36.882L85.2249 38.398C86.6172 39.596 88.5388 40.12 90.8372 40.12V38.12ZM86.5481 36.8985C85.6867 36.1191 85.181 34.9485 85.1571 33.2261L83.1573 33.2539C83.1867 35.3715 83.8276 37.1342 85.2063 38.3815L86.5481 36.8985ZM84.1572 34.24H87.4772L87.4772 32.24H84.1572L84.1572 34.24ZM86.4776 33.2678C86.5097 34.4258 86.8724 35.4494 87.6501 36.2271L89.0643 34.8129C88.722 34.4706 88.498 33.9742 88.4768 33.2122L86.4776 33.2678ZM87.6667 36.2434C88.4877 37.027 89.5755 37.36 90.7972 37.36V35.36C89.9389 35.36 89.4001 35.133 89.0477 34.7966L87.6667 36.2434ZM90.7972 37.36C92.0004 37.36 93.0714 37.0225 93.8877 36.2434L92.5067 34.7966C92.1496 35.1375 91.6206 35.36 90.7972 35.36V37.36ZM93.8715 36.2585C94.7169 35.4866 95.1239 34.4528 95.1568 33.2678L93.1576 33.2122C93.1372 33.9472 92.9042 34.4334 92.5229 34.7815L93.8715 36.2585ZM94.1572 34.24H97.5572L97.5572 32.24H94.1572L94.1572 34.24ZM96.5573 33.2261C96.5335 34.9412 96.019 36.1094 95.135 36.8907L96.4594 38.3893C97.8687 37.1439 98.5276 35.3787 98.5571 33.2539L96.5573 33.2261ZM95.1449 36.882C94.2439 37.6573 92.8588 38.12 90.8372 38.12V40.12C93.1356 40.12 95.0572 39.596 96.4494 38.398L95.1449 36.882Z" fill="white" fill-opacity="0.3"/>
</svg>
