<svg width="116" height="59" viewBox="0 0 116 59" fill="none" xmlns="http://www.w3.org/2000/svg">
<path d="M21.82 1.48V0.479996H21.1107L20.8762 1.14938L21.82 1.48ZM30.16 1.48L31.1038 1.81061L31.5699 0.479996H30.16V1.48ZM10.36 58V59H11.0693L11.3038 58.3306L10.36 58ZM2.02 58L1.07624 57.6694L0.610095 59H2.02V58ZM21.82 2.48H30.16V0.479996H21.82V2.48ZM29.2162 1.14938L9.41624 57.6694L11.3038 58.3306L31.1038 1.81061L29.2162 1.14938ZM10.36 57H2.02V59H10.36V57ZM2.96376 58.3306L22.7638 1.81061L20.8762 1.14938L1.07624 57.6694L2.96376 58.3306ZM37.3642 50.14L37.8987 49.2948L37.3642 50.14ZM30.9442 42.7L30.0369 43.1205L30.04 43.1272L30.0432 43.1338L30.9442 42.7ZM30.9442 19.36L30.0411 18.9305L30.0389 18.9353L30.9442 19.36ZM37.3642 11.86L37.8987 12.7052L37.3642 11.86ZM55.9642 11.86L55.4298 12.7052L55.9642 11.86ZM62.3242 19.36L61.4169 19.7805L61.42 19.7872L61.4232 19.7938L62.3242 19.36ZM62.3242 42.7L61.4211 42.2705L61.4189 42.2753L62.3242 42.7ZM55.9642 50.14L55.4298 49.2948L55.9642 50.14ZM52.6642 41.2L51.8344 40.6418L51.8275 40.6523L52.6642 41.2ZM52.6642 20.8L51.8274 21.3477L51.8345 21.3582L52.6642 20.8ZM40.6642 20.8L39.8344 20.2418L39.8275 20.2523L40.6642 20.8ZM40.6642 41.2L39.8274 41.7477L39.8345 41.7582L40.6642 41.2ZM46.6642 51.72C43.3574 51.72 40.4457 50.9054 37.8987 49.2948L36.8298 50.9852C39.7227 52.8146 43.011 53.72 46.6642 53.72V51.72ZM37.8987 49.2948C35.3551 47.6864 33.3338 45.3578 31.8452 42.2662L30.0432 43.1338C31.6746 46.5222 33.9334 49.1536 36.8298 50.9852L37.8987 49.2948ZM31.8515 42.2795C30.4059 39.16 29.6642 35.4101 29.6642 31H27.6642C27.6642 35.6299 28.4426 39.68 30.0369 43.1205L31.8515 42.2795ZM29.6642 31C29.6642 26.5894 30.406 22.8616 31.8495 19.7847L30.0389 18.9353C28.4424 22.3384 27.6642 26.3706 27.6642 31H29.6642ZM31.8473 19.7895C33.3369 16.6575 35.3582 14.3117 37.8987 12.7052L36.8298 11.0148C33.9302 12.8483 31.6716 15.5025 30.0412 18.9305L31.8473 19.7895ZM37.8987 12.7052C40.4457 11.0946 43.3574 10.28 46.6642 10.28V8.28C43.011 8.28 39.7227 9.18544 36.8298 11.0148L37.8987 12.7052ZM46.6642 10.28C49.971 10.28 52.8827 11.0946 55.4298 12.7052L56.4987 11.0148C53.6057 9.18544 50.3174 8.28 46.6642 8.28V10.28ZM55.4298 12.7052C57.9677 14.3101 59.9675 16.6527 61.4169 19.7805L63.2315 18.9395C61.641 15.5073 59.4007 12.8499 56.4987 11.0148L55.4298 12.7052ZM61.4232 19.7938C62.9035 22.8683 63.6642 26.5927 63.6642 31H65.6642C65.6642 26.3673 64.8649 22.3317 63.2252 18.9262L61.4232 19.7938ZM63.6642 31C63.6642 35.4068 62.9037 39.1534 61.4212 42.2705L63.2273 43.1295C64.8647 39.6866 65.6642 35.6332 65.6642 31H63.6642ZM61.4189 42.2753C59.9705 45.3626 57.9709 47.6879 55.4298 49.2948L56.4987 50.9852C59.3976 49.1521 61.6379 46.5174 63.2295 43.1247L61.4189 42.2753ZM55.4298 49.2948C52.8827 50.9054 49.971 51.72 46.6642 51.72V53.72C50.3174 53.72 53.6057 52.8146 56.4987 50.9852L55.4298 49.2948ZM46.6642 45.5C49.5724 45.5 51.8822 44.2207 53.5009 41.7477L51.8275 40.6523C50.5662 42.5793 48.876 43.5 46.6642 43.5V45.5ZM53.4939 41.7582C55.14 39.3114 55.8842 35.6697 55.8842 31H53.8842C53.8842 35.5303 53.1485 38.6886 51.8345 40.6418L53.4939 41.7582ZM55.8842 31C55.8842 26.3303 55.14 22.6886 53.4939 20.2418L51.8345 21.3582C53.1485 23.3114 53.8842 26.4697 53.8842 31H55.8842ZM53.5009 20.2523C51.8822 17.7793 49.5724 16.5 46.6642 16.5V18.5C48.876 18.5 50.5662 19.4207 51.8275 21.3477L53.5009 20.2523ZM46.6642 16.5C43.7912 16.5 41.4887 17.7828 39.8345 20.2418L41.4939 21.3582C42.7997 19.4172 44.4973 18.5 46.6642 18.5V16.5ZM39.8275 20.2523C38.2276 22.6966 37.5042 26.3335 37.5042 31H39.5042C39.5042 26.4665 40.2208 23.3034 41.5009 21.3477L39.8275 20.2523ZM37.5042 31C37.5042 35.6665 38.2276 39.3034 39.8275 41.7477L41.5009 40.6523C40.2208 38.6966 39.5042 35.5335 39.5042 31H37.5042ZM39.8345 41.7582C41.4887 44.2172 43.7912 45.5 46.6642 45.5V43.5C44.4973 43.5 42.7997 42.5828 41.4939 40.6418L39.8345 41.7582ZM102.033 10H103.033V9H102.033V10ZM102.033 16.3L102.949 16.7004L103.033 16.5089V16.3H102.033ZM86.4325 52V53H87.0868L87.3488 52.4004L86.4325 52ZM75.8725 52L74.9578 51.5958L74.3373 53H75.8725V52ZM90.9325 17.92L91.8472 18.3242L92.4677 16.92H90.9325V17.92ZM77.0125 17.92V16.92H76.0125V17.92H77.0125ZM77.0125 24.76V25.76H78.0125V24.76H77.0125ZM68.3725 24.76H67.3725V25.76H68.3725V24.76ZM68.3725 10V9H67.3725V10H68.3725ZM101.033 10V16.3H103.033V10H101.033ZM101.116 15.8996L85.5162 51.5996L87.3488 52.4004L102.949 16.7004L101.116 15.8996ZM86.4325 51H75.8725V53H86.4325V51ZM76.7872 52.4042L91.8472 18.3242L90.0178 17.5158L74.9578 51.5958L76.7872 52.4042ZM90.9325 16.92H77.0125V18.92H90.9325V16.92ZM76.0125 17.92V24.76H78.0125V17.92H76.0125ZM77.0125 23.76H68.3725V25.76H77.0125V23.76ZM69.3725 24.76V10H67.3725V24.76H69.3725ZM68.3725 11H102.033V9H68.3725V11ZM104.81 50.8L105.517 50.0929L104.81 50.8ZM104.81 42.46L105.49 43.1928L105.497 43.1864L105.504 43.1798L104.81 42.46ZM113.09 42.46L112.396 43.1798L112.402 43.1864L112.409 43.1928L113.09 42.46ZM113.09 50.8L112.383 50.0929L113.09 50.8ZM108.95 51.48C107.565 51.48 106.442 51.0181 105.517 50.0929L104.103 51.5071C105.418 52.8219 107.055 53.48 108.95 53.48V51.48ZM105.517 50.0929C104.597 49.1727 104.13 48.0326 104.13 46.6H102.13C102.13 48.5274 102.783 50.1873 104.103 51.5071L105.517 50.0929ZM104.13 46.6C104.13 45.1196 104.601 44.0189 105.49 43.1928L104.129 41.7272C102.779 42.9811 102.13 44.6404 102.13 46.6H104.13ZM105.504 43.1798C106.427 42.29 107.553 41.84 108.95 41.84V39.84C107.066 39.84 105.433 40.47 104.116 41.7402L105.504 43.1798ZM108.95 41.84C110.346 41.84 111.473 42.29 112.396 43.1798L113.784 41.7402C112.467 40.47 110.833 39.84 108.95 39.84V41.84ZM112.409 43.1928C113.299 44.0189 113.77 45.1196 113.77 46.6H115.77C115.77 44.6404 115.121 42.9811 113.77 41.7272L112.409 43.1928ZM113.77 46.6C113.77 48.0326 113.303 49.1727 112.383 50.0929L113.797 51.5071C115.117 50.1873 115.77 48.5274 115.77 46.6H113.77ZM112.383 50.0929C111.458 51.0181 110.335 51.48 108.95 51.48V53.48C110.845 53.48 112.482 52.8219 113.797 51.5071L112.383 50.0929Z" fill="#445066" fill-opacity="0.7"/>
</svg>
