<svg width="27" height="27" viewBox="0 0 27 27" fill="none" xmlns="http://www.w3.org/2000/svg">
<path d="M10.7367 12.2434C10.9989 12.0536 11.1254 11.7402 11.1254 11.3093C11.1345 11.1044 11.0923 10.9025 11.0019 10.7186C10.9205 10.571 10.8 10.4474 10.6523 10.36C10.4992 10.2672 10.3292 10.2057 10.1521 10.1792C9.95926 10.1431 9.76339 10.125 9.57054 10.128H7.45212V12.5297H9.74531C10.1401 12.5327 10.4746 12.4363 10.7367 12.2434ZM11.0923 14.4131C10.797 14.1871 10.4022 14.0756 9.91105 14.0756H7.44609V16.9081H9.86283C10.0888 16.9081 10.2968 16.8871 10.4987 16.8449C10.6897 16.8075 10.8718 16.7339 11.035 16.6279C11.1887 16.5285 11.3123 16.3929 11.4057 16.2181C11.4961 16.0433 11.5413 15.8203 11.5413 15.5521C11.5413 15.0187 11.3906 14.6421 11.0923 14.4131ZM13.5 0C6.04487 0 0 6.04487 0 13.5C0 20.9551 6.04487 27 13.5 27C20.9551 27 27 20.9551 27 13.5C27 6.04487 20.9551 0 13.5 0ZM16.1066 8.64542H20.2771V9.66094H16.1066V8.64542ZM13.5 17.0196C13.3049 17.3899 13.0264 17.7097 12.6864 17.9538C12.3308 18.2009 11.936 18.3817 11.5172 18.4872C11.079 18.6046 10.6269 18.6624 10.1732 18.6589H5.18304V8.38025H10.0346C10.5258 8.38025 10.9718 8.42545 11.3786 8.50982C11.7824 8.5942 12.1259 8.73884 12.4152 8.93471C12.7015 9.13058 12.9275 9.39275 13.0872 9.71819C13.2439 10.0406 13.3252 10.4444 13.3252 10.9235C13.3252 11.4419 13.2077 11.8698 12.9727 12.2163C12.7346 12.5628 12.3911 12.8431 11.924 13.0631C12.5598 13.2439 13.0269 13.5663 13.3343 14.0183C13.6477 14.4763 13.8013 15.0248 13.8013 15.6696C13.8013 16.194 13.7019 16.643 13.5 17.0196ZM21.9013 15.4286H16.5254C16.5254 16.0132 16.7273 16.5737 17.0317 16.875C17.3391 17.1733 17.779 17.324 18.3546 17.324C18.7704 17.324 19.123 17.2185 19.4243 17.0106C19.7227 16.8027 19.9035 16.5827 19.9698 16.3537H21.7718C21.4825 17.2487 21.0425 17.8875 20.4459 18.2732C19.8552 18.6589 19.132 18.8518 18.2913 18.8518C17.7037 18.8518 17.1763 18.7554 16.7032 18.5715C16.2482 18.3937 15.8384 18.1225 15.5009 17.773C15.1681 17.414 14.9109 16.9918 14.7445 16.5315C14.5607 16.0222 14.4703 15.4858 14.4763 14.9464C14.4763 14.389 14.5698 13.8706 14.7506 13.3885C15.0971 12.4513 15.8173 11.701 16.7364 11.3123C17.2276 11.1074 17.7549 11.0049 18.2883 11.0109C18.9211 11.0109 19.4695 11.1315 19.9456 11.3786C20.404 11.6145 20.802 11.9527 21.1088 12.367C21.4132 12.7798 21.6271 13.2499 21.7627 13.7802C21.8923 14.3016 21.9375 14.85 21.9013 15.4286ZM18.225 12.5478C17.8996 12.5478 17.6253 12.605 17.4144 12.7165C17.2035 12.828 17.0287 12.9666 16.8961 13.1263C16.7698 13.2805 16.6765 13.459 16.6219 13.6507C16.5737 13.8104 16.5405 13.9731 16.5285 14.1388H19.8583C19.81 13.6175 19.6292 13.2318 19.3882 12.9606C19.135 12.6924 18.7282 12.5478 18.225 12.5478Z" fill="#5F93F9"/>
</svg>
