<svg width="275" height="27" viewBox="0 0 275 27" fill="none" xmlns="http://www.w3.org/2000/svg">
<path d="M10.32 0.399999C13.4667 0.399999 15.8667 1.16 17.52 2.68C19.2 4.17333 20.04 6.44 20.04 9.48V22H15.32V19.4C14.7067 20.3333 13.8267 21.0533 12.68 21.56C11.56 22.04 10.2 22.28 8.6 22.28C7 22.28 5.6 22.0133 4.4 21.48C3.2 20.92 2.26667 20.16 1.6 19.2C0.96 18.2133 0.64 17.1067 0.64 15.88C0.64 13.96 1.34667 12.4267 2.76 11.28C4.2 10.1067 6.45333 9.52 9.52 9.52H15.04V9.2C15.04 7.70667 14.5867 6.56 13.68 5.76C12.8 4.96 11.48 4.56 9.72 4.56C8.52 4.56 7.33333 4.74667 6.16 5.12C5.01333 5.49333 4.04 6.01333 3.24 6.68L1.28 3.04C2.4 2.18667 3.74667 1.53333 5.32 1.08C6.89333 0.626666 8.56 0.399999 10.32 0.399999ZM9.64 18.64C10.8933 18.64 12 18.36 12.96 17.8C13.9467 17.2133 14.64 16.3867 15.04 15.32V12.84H9.88C7 12.84 5.56 13.7867 5.56 15.68C5.56 16.5867 5.92 17.3067 6.64 17.84C7.36 18.3733 8.36 18.64 9.64 18.64ZM41.7072 10.88C44.3472 11.68 45.6672 13.3867 45.6672 16C45.6672 17.92 44.9472 19.4 43.5072 20.44C42.0672 21.48 39.9339 22 37.1072 22H26.2272V0.639998H36.6672C39.2805 0.639998 41.3205 1.12 42.7872 2.08C44.2539 3.04 44.9872 4.4 44.9872 6.16C44.9872 7.25333 44.6939 8.2 44.1072 9C43.5472 9.8 42.7472 10.4267 41.7072 10.88ZM30.9872 9.56H36.2272C38.8139 9.56 40.1072 8.66667 40.1072 6.88C40.1072 5.14667 38.8139 4.28 36.2272 4.28H30.9872V9.56ZM36.7072 18.36C39.4539 18.36 40.8272 17.4667 40.8272 15.68C40.8272 14.7467 40.5072 14.0533 39.8672 13.6C39.2272 13.12 38.2272 12.88 36.8672 12.88H30.9872V18.36H36.7072ZM67.9128 4.88H60.4328V22H55.4328V4.88H47.9128V0.639998H67.9128V4.88ZM80.1222 22.28C77.9622 22.28 76.0155 21.8133 74.2822 20.88C72.5489 19.9467 71.1889 18.6533 70.2022 17C69.2422 15.32 68.7622 13.4267 68.7622 11.32C68.7622 9.21333 69.2422 7.33333 70.2022 5.68C71.1889 4.02667 72.5489 2.73333 74.2822 1.8C76.0155 0.866666 77.9622 0.399999 80.1222 0.399999C82.3089 0.399999 84.2689 0.866666 86.0022 1.8C87.7355 2.73333 89.0822 4.02667 90.0422 5.68C91.0289 7.33333 91.5222 9.21333 91.5222 11.32C91.5222 13.4267 91.0289 15.32 90.0422 17C89.0822 18.6533 87.7355 19.9467 86.0022 20.88C84.2689 21.8133 82.3089 22.28 80.1222 22.28ZM80.1222 18C81.9622 18 83.4822 17.3867 84.6822 16.16C85.8822 14.9333 86.4822 13.32 86.4822 11.32C86.4822 9.32 85.8822 7.70667 84.6822 6.48C83.4822 5.25333 81.9622 4.64 80.1222 4.64C78.2822 4.64 76.7622 5.25333 75.5622 6.48C74.3889 7.70667 73.8022 9.32 73.8022 11.32C73.8022 13.32 74.3889 14.9333 75.5622 16.16C76.7622 17.3867 78.2822 18 80.1222 18ZM116.942 0.639998V22H111.982V4.88H101.462V22H96.4616V0.639998H116.942ZM133.208 22.28C131.048 22.28 129.101 21.8133 127.368 20.88C125.635 19.9467 124.275 18.6533 123.288 17C122.328 15.32 121.848 13.4267 121.848 11.32C121.848 9.21333 122.328 7.33333 123.288 5.68C124.275 4.02667 125.635 2.73333 127.368 1.8C129.101 0.866666 131.048 0.399999 133.208 0.399999C135.395 0.399999 137.355 0.866666 139.088 1.8C140.821 2.73333 142.168 4.02667 143.128 5.68C144.115 7.33333 144.608 9.21333 144.608 11.32C144.608 13.4267 144.115 15.32 143.128 17C142.168 18.6533 140.821 19.9467 139.088 20.88C137.355 21.8133 135.395 22.28 133.208 22.28ZM133.208 18C135.048 18 136.568 17.3867 137.768 16.16C138.968 14.9333 139.568 13.32 139.568 11.32C139.568 9.32 138.968 7.70667 137.768 6.48C136.568 5.25333 135.048 4.64 133.208 4.64C131.368 4.64 129.848 5.25333 128.648 6.48C127.475 7.70667 126.888 9.32 126.888 11.32C126.888 13.32 127.475 14.9333 128.648 16.16C129.848 17.3867 131.368 18 133.208 18ZM170.548 22V7.84L163.348 19.76H161.188L154.108 7.8V22H149.548V0.639998H154.788L162.388 14L170.348 0.639998H175.028L175.068 22H170.548ZM191.294 22.28C189.134 22.28 187.187 21.8133 185.454 20.88C183.721 19.9467 182.361 18.6533 181.374 17C180.414 15.32 179.934 13.4267 179.934 11.32C179.934 9.21333 180.414 7.33333 181.374 5.68C182.361 4.02667 183.721 2.73333 185.454 1.8C187.187 0.866666 189.134 0.399999 191.294 0.399999C193.481 0.399999 195.441 0.866666 197.174 1.8C198.907 2.73333 200.254 4.02667 201.214 5.68C202.201 7.33333 202.694 9.21333 202.694 11.32C202.694 13.4267 202.201 15.32 201.214 17C200.254 18.6533 198.907 19.9467 197.174 20.88C195.441 21.8133 193.481 22.28 191.294 22.28ZM191.294 18C193.134 18 194.654 17.3867 195.854 16.16C197.054 14.9333 197.654 13.32 197.654 11.32C197.654 9.32 197.054 7.70667 195.854 6.48C194.654 5.25333 193.134 4.64 191.294 4.64C189.454 4.64 187.934 5.25333 186.734 6.48C185.561 7.70667 184.974 9.32 184.974 11.32C184.974 13.32 185.561 14.9333 186.734 16.16C187.934 17.3867 189.454 18 191.294 18ZM239.113 0.639998V22H207.633V0.639998H212.633V17.76H220.913V0.639998H225.913V17.76H234.113V0.639998H239.113ZM242.193 17.76V26.4H237.513V22H233.953V17.76H242.193ZM256.557 7.68C259.277 7.68 261.357 8.29333 262.797 9.52C264.263 10.7467 264.997 12.48 264.997 14.72C264.997 17.0667 264.197 18.88 262.597 20.16C260.997 21.44 258.743 22.0667 255.837 22.04L245.837 22V0.639998H250.837V7.64L256.557 7.68ZM255.397 18.36C256.863 18.3867 257.983 18.08 258.757 17.44C259.53 16.8 259.917 15.8667 259.917 14.64C259.917 13.44 259.543 12.56 258.797 12C258.05 11.44 256.917 11.1467 255.397 11.12L250.837 11.08V18.32L255.397 18.36Z" fill="#2C2C2C"/>
<path d="M270.911 22.28C270.005 22.28 269.231 21.9733 268.591 21.36C267.951 20.72 267.631 19.92 267.631 18.96C267.631 17.9733 267.938 17.1733 268.551 16.56C269.191 15.9467 269.978 15.64 270.911 15.64C271.845 15.64 272.618 15.9467 273.231 16.56C273.871 17.1733 274.191 17.9733 274.191 18.96C274.191 19.92 273.871 20.72 273.231 21.36C272.591 21.9733 271.818 22.28 270.911 22.28Z" fill="#F97931"/>
</svg>
