<svg width="105" height="59" viewBox="0 0 105 59" fill="none" xmlns="http://www.w3.org/2000/svg">
<path d="M21.82 1.48V0.479996H21.1107L20.8762 1.14938L21.82 1.48ZM30.16 1.48L31.1038 1.81061L31.5699 0.479996H30.16V1.48ZM10.36 58V59H11.0693L11.3038 58.3306L10.36 58ZM2.02 58L1.07624 57.6694L0.610095 59H2.02V58ZM21.82 2.48H30.16V0.479996H21.82V2.48ZM29.2162 1.14938L9.41624 57.6694L11.3038 58.3306L31.1038 1.81061L29.2162 1.14938ZM10.36 57H2.02V59H10.36V57ZM2.96376 58.3306L22.7638 1.81061L20.8762 1.14938L1.07624 57.6694L2.96376 58.3306ZM37.3642 50.14L37.8987 49.2948L37.3642 50.14ZM30.9442 42.7L30.0369 43.1205L30.04 43.1272L30.0432 43.1338L30.9442 42.7ZM30.9442 19.36L30.0411 18.9305L30.0389 18.9353L30.9442 19.36ZM37.3642 11.86L37.8987 12.7052L37.3642 11.86ZM55.9642 11.86L55.4298 12.7052L55.9642 11.86ZM62.3242 19.36L61.4169 19.7805L61.42 19.7872L61.4232 19.7938L62.3242 19.36ZM62.3242 42.7L61.4211 42.2705L61.4189 42.2753L62.3242 42.7ZM55.9642 50.14L55.4298 49.2948L55.9642 50.14ZM52.6642 41.2L51.8344 40.6418L51.8275 40.6523L52.6642 41.2ZM52.6642 20.8L51.8274 21.3477L51.8345 21.3582L52.6642 20.8ZM40.6642 20.8L39.8344 20.2418L39.8275 20.2523L40.6642 20.8ZM40.6642 41.2L39.8274 41.7477L39.8345 41.7582L40.6642 41.2ZM46.6642 51.72C43.3574 51.72 40.4457 50.9054 37.8987 49.2948L36.8298 50.9852C39.7227 52.8146 43.011 53.72 46.6642 53.72V51.72ZM37.8987 49.2948C35.3551 47.6864 33.3338 45.3578 31.8452 42.2662L30.0432 43.1338C31.6746 46.5222 33.9334 49.1536 36.8298 50.9852L37.8987 49.2948ZM31.8515 42.2795C30.4059 39.16 29.6642 35.4101 29.6642 31H27.6642C27.6642 35.6299 28.4426 39.68 30.0369 43.1205L31.8515 42.2795ZM29.6642 31C29.6642 26.5894 30.406 22.8616 31.8495 19.7847L30.0389 18.9353C28.4424 22.3384 27.6642 26.3706 27.6642 31H29.6642ZM31.8473 19.7895C33.3369 16.6575 35.3582 14.3117 37.8987 12.7052L36.8298 11.0148C33.9302 12.8483 31.6716 15.5025 30.0412 18.9305L31.8473 19.7895ZM37.8987 12.7052C40.4457 11.0946 43.3574 10.28 46.6642 10.28V8.28C43.011 8.28 39.7227 9.18544 36.8298 11.0148L37.8987 12.7052ZM46.6642 10.28C49.971 10.28 52.8827 11.0946 55.4298 12.7052L56.4987 11.0148C53.6057 9.18544 50.3174 8.28 46.6642 8.28V10.28ZM55.4298 12.7052C57.9677 14.3101 59.9675 16.6527 61.4169 19.7805L63.2315 18.9395C61.641 15.5073 59.4007 12.8499 56.4987 11.0148L55.4298 12.7052ZM61.4232 19.7938C62.9035 22.8683 63.6642 26.5927 63.6642 31H65.6642C65.6642 26.3673 64.8649 22.3317 63.2252 18.9262L61.4232 19.7938ZM63.6642 31C63.6642 35.4068 62.9037 39.1534 61.4212 42.2705L63.2273 43.1295C64.8647 39.6866 65.6642 35.6332 65.6642 31H63.6642ZM61.4189 42.2753C59.9705 45.3626 57.9709 47.6879 55.4298 49.2948L56.4987 50.9852C59.3976 49.1521 61.6379 46.5174 63.2295 43.1247L61.4189 42.2753ZM55.4298 49.2948C52.8827 50.9054 49.971 51.72 46.6642 51.72V53.72C50.3174 53.72 53.6057 52.8146 56.4987 50.9852L55.4298 49.2948ZM46.6642 45.5C49.5724 45.5 51.8822 44.2207 53.5009 41.7477L51.8275 40.6523C50.5662 42.5793 48.876 43.5 46.6642 43.5V45.5ZM53.4939 41.7582C55.14 39.3114 55.8842 35.6697 55.8842 31H53.8842C53.8842 35.5303 53.1485 38.6886 51.8345 40.6418L53.4939 41.7582ZM55.8842 31C55.8842 26.3303 55.14 22.6886 53.4939 20.2418L51.8345 21.3582C53.1485 23.3114 53.8842 26.4697 53.8842 31H55.8842ZM53.5009 20.2523C51.8822 17.7793 49.5724 16.5 46.6642 16.5V18.5C48.876 18.5 50.5662 19.4207 51.8275 21.3477L53.5009 20.2523ZM46.6642 16.5C43.7912 16.5 41.4887 17.7828 39.8345 20.2418L41.4939 21.3582C42.7997 19.4172 44.4973 18.5 46.6642 18.5V16.5ZM39.8275 20.2523C38.2276 22.6966 37.5042 26.3335 37.5042 31H39.5042C39.5042 26.4665 40.2208 23.3034 41.5009 21.3477L39.8275 20.2523ZM37.5042 31C37.5042 35.6665 38.2276 39.3034 39.8275 41.7477L41.5009 40.6523C40.2208 38.6966 39.5042 35.5335 39.5042 31H37.5042ZM39.8345 41.7582C41.4887 44.2172 43.7912 45.5 46.6642 45.5V43.5C44.4973 43.5 42.7997 42.5828 41.4939 40.6418L39.8345 41.7582ZM85.2353 10H86.2353V9H85.2353V10ZM85.2353 52V53H86.2353V52H85.2353ZM75.5153 52H74.5153V53H75.5153V52ZM75.5153 17.8H76.5153V16.8H75.5153V17.8ZM67.1153 17.8H66.1153V18.8H67.1153V17.8ZM67.1153 10V9H66.1153V10H67.1153ZM84.2353 10V52H86.2353V10H84.2353ZM85.2353 51H75.5153V53H85.2353V51ZM76.5153 52V17.8H74.5153V52H76.5153ZM75.5153 16.8H67.1153V18.8H75.5153V16.8ZM68.1153 17.8V10H66.1153V17.8H68.1153ZM67.1153 11H85.2353V9H67.1153V11ZM93.9114 50.8L94.6185 50.0929L93.9114 50.8ZM93.9114 42.46L94.5919 43.1928L94.5988 43.1864L94.6055 43.1798L93.9114 42.46ZM102.191 42.46L101.497 43.1798L101.504 43.1864L101.511 43.1928L102.191 42.46ZM102.191 50.8L101.484 50.0929L102.191 50.8ZM98.0514 51.48C96.6661 51.48 95.5437 51.0181 94.6185 50.0929L93.2043 51.5071C94.5191 52.8219 96.1567 53.48 98.0514 53.48V51.48ZM94.6185 50.0929C93.6983 49.1727 93.2314 48.0326 93.2314 46.6H91.2314C91.2314 48.5274 91.8845 50.1873 93.2043 51.5071L94.6185 50.0929ZM93.2314 46.6C93.2314 45.1196 93.7022 44.0189 94.5919 43.1928L93.231 41.7272C91.8806 42.9811 91.2314 44.6404 91.2314 46.6H93.2314ZM94.6055 43.1798C95.5283 42.29 96.6549 41.84 98.0514 41.84V39.84C96.168 39.84 94.5345 40.47 93.2173 41.7402L94.6055 43.1798ZM98.0514 41.84C99.448 41.84 100.575 42.29 101.497 43.1798L102.886 41.7402C101.568 40.47 99.9349 39.84 98.0514 39.84V41.84ZM101.511 43.1928C102.401 44.0189 102.871 45.1196 102.871 46.6H104.871C104.871 44.6404 104.222 42.9811 102.872 41.7272L101.511 43.1928ZM102.871 46.6C102.871 48.0326 102.405 49.1727 101.484 50.0929L102.899 51.5071C104.218 50.1873 104.871 48.5274 104.871 46.6H102.871ZM101.484 50.0929C100.559 51.0181 99.4367 51.48 98.0514 51.48V53.48C99.9461 53.48 101.584 52.8219 102.899 51.5071L101.484 50.0929Z" fill="#445066" fill-opacity="0.7"/>
</svg>
