<svg width="125" height="59" viewBox="0 0 125 59" fill="none" xmlns="http://www.w3.org/2000/svg">
<path d="M21.82 1.48V0.479996H21.1107L20.8762 1.14938L21.82 1.48ZM30.16 1.48L31.1038 1.81061L31.5699 0.479996H30.16V1.48ZM10.36 58V59H11.0693L11.3038 58.3306L10.36 58ZM2.02 58L1.07624 57.6694L0.610095 59H2.02V58ZM21.82 2.48H30.16V0.479996H21.82V2.48ZM29.2162 1.14938L9.41624 57.6694L11.3038 58.3306L31.1038 1.81061L29.2162 1.14938ZM10.36 57H2.02V59H10.36V57ZM2.96376 58.3306L22.7638 1.81061L20.8762 1.14938L1.07624 57.6694L2.96376 58.3306ZM37.3642 50.14L37.8987 49.2948L37.3642 50.14ZM30.9442 42.7L30.0369 43.1205L30.04 43.1272L30.0432 43.1338L30.9442 42.7ZM30.9442 19.36L30.0411 18.9305L30.0389 18.9353L30.9442 19.36ZM37.3642 11.86L37.8987 12.7052L37.3642 11.86ZM55.9642 11.86L55.4298 12.7052L55.9642 11.86ZM62.3242 19.36L61.4169 19.7805L61.42 19.7872L61.4232 19.7938L62.3242 19.36ZM62.3242 42.7L61.4211 42.2705L61.4189 42.2753L62.3242 42.7ZM55.9642 50.14L55.4298 49.2948L55.9642 50.14ZM52.6642 41.2L51.8344 40.6418L51.8275 40.6523L52.6642 41.2ZM52.6642 20.8L51.8274 21.3477L51.8345 21.3582L52.6642 20.8ZM40.6642 20.8L39.8344 20.2418L39.8275 20.2523L40.6642 20.8ZM40.6642 41.2L39.8274 41.7477L39.8345 41.7582L40.6642 41.2ZM46.6642 51.72C43.3574 51.72 40.4457 50.9054 37.8987 49.2948L36.8298 50.9852C39.7227 52.8146 43.011 53.72 46.6642 53.72V51.72ZM37.8987 49.2948C35.3551 47.6864 33.3338 45.3578 31.8452 42.2662L30.0432 43.1338C31.6746 46.5222 33.9334 49.1536 36.8298 50.9852L37.8987 49.2948ZM31.8515 42.2795C30.4059 39.16 29.6642 35.4101 29.6642 31H27.6642C27.6642 35.6299 28.4426 39.68 30.0369 43.1205L31.8515 42.2795ZM29.6642 31C29.6642 26.5894 30.406 22.8616 31.8495 19.7847L30.0389 18.9353C28.4424 22.3384 27.6642 26.3706 27.6642 31H29.6642ZM31.8473 19.7895C33.3369 16.6575 35.3582 14.3117 37.8987 12.7052L36.8298 11.0148C33.9302 12.8483 31.6716 15.5025 30.0412 18.9305L31.8473 19.7895ZM37.8987 12.7052C40.4457 11.0946 43.3574 10.28 46.6642 10.28V8.28C43.011 8.28 39.7227 9.18544 36.8298 11.0148L37.8987 12.7052ZM46.6642 10.28C49.971 10.28 52.8827 11.0946 55.4298 12.7052L56.4987 11.0148C53.6057 9.18544 50.3174 8.28 46.6642 8.28V10.28ZM55.4298 12.7052C57.9677 14.3101 59.9675 16.6527 61.4169 19.7805L63.2315 18.9395C61.641 15.5073 59.4007 12.8499 56.4987 11.0148L55.4298 12.7052ZM61.4232 19.7938C62.9035 22.8683 63.6642 26.5927 63.6642 31H65.6642C65.6642 26.3673 64.8649 22.3317 63.2252 18.9262L61.4232 19.7938ZM63.6642 31C63.6642 35.4068 62.9037 39.1534 61.4212 42.2705L63.2273 43.1295C64.8647 39.6866 65.6642 35.6332 65.6642 31H63.6642ZM61.4189 42.2753C59.9705 45.3626 57.9709 47.6879 55.4298 49.2948L56.4987 50.9852C59.3976 49.1521 61.6379 46.5174 63.2295 43.1247L61.4189 42.2753ZM55.4298 49.2948C52.8827 50.9054 49.971 51.72 46.6642 51.72V53.72C50.3174 53.72 53.6057 52.8146 56.4987 50.9852L55.4298 49.2948ZM46.6642 45.5C49.5724 45.5 51.8822 44.2207 53.5009 41.7477L51.8275 40.6523C50.5662 42.5793 48.876 43.5 46.6642 43.5V45.5ZM53.4939 41.7582C55.14 39.3114 55.8842 35.6697 55.8842 31H53.8842C53.8842 35.5303 53.1485 38.6886 51.8345 40.6418L53.4939 41.7582ZM55.8842 31C55.8842 26.3303 55.14 22.6886 53.4939 20.2418L51.8345 21.3582C53.1485 23.3114 53.8842 26.4697 53.8842 31H55.8842ZM53.5009 20.2523C51.8822 17.7793 49.5724 16.5 46.6642 16.5V18.5C48.876 18.5 50.5662 19.4207 51.8275 21.3477L53.5009 20.2523ZM46.6642 16.5C43.7912 16.5 41.4887 17.7828 39.8345 20.2418L41.4939 21.3582C42.7997 19.4172 44.4973 18.5 46.6642 18.5V16.5ZM39.8275 20.2523C38.2276 22.6966 37.5042 26.3335 37.5042 31H39.5042C39.5042 26.4665 40.2208 23.3034 41.5009 21.3477L39.8275 20.2523ZM37.5042 31C37.5042 35.6665 38.2276 39.3034 39.8275 41.7477L41.5009 40.6523C40.2208 38.6966 39.5042 35.5335 39.5042 31H37.5042ZM39.8345 41.7582C41.4887 44.2172 43.7912 45.5 46.6642 45.5V43.5C44.4973 43.5 42.7997 42.5828 41.4939 40.6418L39.8345 41.7582ZM107.847 43.18V44.18H108.847V43.18H107.847ZM101.007 43.18V42.18H100.007V43.18H101.007ZM101.007 52V53H102.007V52H101.007ZM91.5269 52H90.5269V53H91.5269V52ZM91.5269 43.18H92.5269V42.18H91.5269V43.18ZM68.9069 43.18H67.9069V44.18H68.9069V43.18ZM68.9069 36.64L68.1043 36.0435L67.9069 36.3091V36.64H68.9069ZM88.7069 10V9H88.2042L87.9043 9.40347L88.7069 10ZM98.9069 10L99.7158 10.5879L100.87 9H98.9069V10ZM80.5469 35.26L79.738 34.6721L78.5838 36.26H80.5469V35.26ZM91.8269 35.26V36.26H92.8269V35.26H91.8269ZM91.8269 27.4V26.4H90.8269V27.4H91.8269ZM101.007 27.4H102.007V26.4H101.007V27.4ZM101.007 35.26H100.007V36.26H101.007V35.26ZM107.847 35.26H108.847V34.26H107.847V35.26ZM107.847 42.18H101.007V44.18H107.847V42.18ZM100.007 43.18V52H102.007V43.18H100.007ZM101.007 51H91.5269V53H101.007V51ZM92.5269 52V43.18H90.5269V52H92.5269ZM91.5269 42.18H68.9069V44.18H91.5269V42.18ZM69.9069 43.18V36.64H67.9069V43.18H69.9069ZM69.7095 37.2365L89.5095 10.5965L87.9043 9.40347L68.1043 36.0435L69.7095 37.2365ZM88.7069 11H98.9069V9H88.7069V11ZM98.098 9.41205L79.738 34.6721L81.3558 35.8479L99.7158 10.5879L98.098 9.41205ZM80.5469 36.26H91.8269V34.26H80.5469V36.26ZM92.8269 35.26V27.4H90.8269V35.26H92.8269ZM91.8269 28.4H101.007V26.4H91.8269V28.4ZM100.007 27.4V35.26H102.007V27.4H100.007ZM101.007 36.26H107.847V34.26H101.007V36.26ZM106.847 35.26V43.18H108.847V35.26H106.847ZM113.306 50.8L114.013 50.0929L113.306 50.8ZM113.306 42.46L113.986 43.1928L113.993 43.1864L114 43.1798L113.306 42.46ZM121.586 42.46L120.892 43.1798L120.899 43.1864L120.905 43.1928L121.586 42.46ZM121.586 50.8L120.879 50.0929L121.586 50.8ZM117.446 51.48C116.061 51.48 114.938 51.0181 114.013 50.0929L112.599 51.5071C113.914 52.8219 115.551 53.48 117.446 53.48V51.48ZM114.013 50.0929C113.093 49.1727 112.626 48.0326 112.626 46.6H110.626C110.626 48.5274 111.279 50.1873 112.599 51.5071L114.013 50.0929ZM112.626 46.6C112.626 45.1196 113.097 44.0189 113.986 43.1928L112.625 41.7272C111.275 42.9811 110.626 44.6404 110.626 46.6H112.626ZM114 43.1798C114.923 42.29 116.049 41.84 117.446 41.84V39.84C115.562 39.84 113.929 40.47 112.612 41.7402L114 43.1798ZM117.446 41.84C118.842 41.84 119.969 42.29 120.892 43.1798L122.28 41.7402C120.963 40.47 119.329 39.84 117.446 39.84V41.84ZM120.905 43.1928C121.795 44.0189 122.266 45.1196 122.266 46.6H124.266C124.266 44.6404 123.617 42.9811 122.266 41.7272L120.905 43.1928ZM122.266 46.6C122.266 48.0326 121.799 49.1727 120.879 50.0929L122.293 51.5071C123.613 50.1873 124.266 48.5274 124.266 46.6H122.266ZM120.879 50.0929C119.954 51.0181 118.831 51.48 117.446 51.48V53.48C119.341 53.48 120.978 52.8219 122.293 51.5071L120.879 50.0929Z" fill="#445066" fill-opacity="0.7"/>
</svg>
